<?xml version="1.0" encoding="UTF-8"?> <!-- Generator: Adobe Illustrator 21.0.2, SVG Export Plug-In . SVG Version: 6.00 Build 0) --> <svg xmlns="http://www.w3.org/2000/svg" xmlns:xlink="http://www.w3.org/1999/xlink" id="Layer_1" x="0px" y="0px" viewBox="0 0 542 421" style="enable-background:new 0 0 542 421;" xml:space="preserve"> <style type="text/css"> .st0{clip-path:url(#SVGID_2_);} .st1{fill:#B0BFDF;} .st2{fill:#00CDC4;} .st3{fill:#01405C;} .st4{fill:#86C0F2;} .st5{fill:#E5E8ED;} .st6{fill:#00A6D2;} .st7{fill:#FFFFFF;} .st8{fill:url(#SVGID_3_);} .st9{fill:url(#SVGID_4_);} .st10{fill:url(#SVGID_5_);} .st11{fill:#03526D;} .st12{clip-path:url(#SVGID_7_);} .st13{fill:url(#SVGID_8_);} .st14{fill:url(#SVGID_9_);} .st15{fill:url(#SVGID_10_);} .st16{opacity:0.4;} .st17{fill:url(#SVGID_11_);} .st18{fill:#D0DFE6;} .st19{fill:url(#SVGID_12_);} .st20{opacity:0.8;fill:url(#SVGID_13_);} .st21{fill:url(#SVGID_14_);} .st22{opacity:0.3618;} .st23{fill:url(#SVGID_15_);} .st24{fill-rule:evenodd;clip-rule:evenodd;fill:#FFA578;} .st25{fill-rule:evenodd;clip-rule:evenodd;fill:#E68969;} .st26{fill:#FFA578;} .st27{fill:#E68969;} .st28{fill-rule:evenodd;clip-rule:evenodd;fill:#00A6D2;} .st29{fill-rule:evenodd;clip-rule:evenodd;fill:#03526D;} .st30{fill-rule:evenodd;clip-rule:evenodd;fill:#F0825C;} .st31{fill-rule:evenodd;clip-rule:evenodd;fill:#B91E2D;} .st32{fill-rule:evenodd;clip-rule:evenodd;fill:#00CDC4;} </style> <g> <g> <defs> <path id="SVGID_1_" d="M272,132.5c0,0.7,0,1.5,0,2.3c0,16.3-10,23.9-22.4,31.2v161.9c2.4,7.4,4.3,15.7,5.7,25.3 c15.3,107.7,135.7,8.2,201.8,8.2c66.1,0,83.9,59.3,83.9,59.3V132.5H272z"></path> </defs> <clipPath id="SVGID_2_"> <use xlink:href="#SVGID_1_" style="overflow:visible;"></use> </clipPath> <g class="st0"> <path class="st1" d="M339,337.2c-1.6,2.5-1.5,5.8-1.7,8.3c0,0.3,0,0.9,0,1.5c-0.5-1.2-1-2.4-1.5-3.5c-0.3-0.8-0.6-1.6-1-2.4 c0.4-0.7,0.9-2.1,1.8-3.7c1.1-1.9,2.1-2.5,1.6-4.6c-0.4-2-2.2-3.2-3.8-0.7c-1.3,2.2-1,4.6-0.6,6.8c-1-2.4-2.2-4.8-3.7-6.8 c0.1-7.8-7.4-13.4-14.1-14.1c-0.6-0.1-1.4-0.1-2,0.3c-1.4,0.8-1.6,2.9-1.1,4.2c0.7,1.8,2.3,2.9,4.1,3.6c1.7,0.7,3.7,1.1,5.5,1.7 c1.5,0.5,2.8,1.2,4,2.1c0,0,0,0.1,0,0.1c1.9,1.7,3.2,3.9,4.4,6.2c-1.2-1.1-3.2-2-3.9-2.3c-2.2-1-4.9-1.3-7.5-0.4 c-0.5,0.2-1.1,0.4-1.3,0.9c-0.4,0.6-0.1,1.3,0.2,1.7c1.1,1.6,2.9,2.7,5,2.8c2.7,0.1,5.7-0.8,8.4-0.8c0,0,0-0.1,0-0.1 c0.6,1.4,1.2,2.9,1.7,4.4c-1.8-1-4.3-1.6-5.5-1.7c-1,0-2,0.1-3,0.6c-1,0.6-1.8,1.7-1.8,2.7c0,0.6,0.3,1.1,0.7,1.4 c1.2,1.1,3.3,1,5.2,0.7c1.9-0.2,3.8-0.4,5.7-0.7c0.1,0.2,0.1,0.4,0.2,0.5c1,2.5,2,5.1,3.1,7.6c-1.1-1-2.3-1.9-3.5-2.6 c-2.6-1.5-5.6-2.4-8.9-2.1c-1.3,0.1-2.7,0.4-3.9,1.3c-0.5,0.3-1,0.8-1,1.4c0,0.3,0.1,0.6,0.2,0.8c0.8,1.4,2.5,2,4.2,2.2 c2.7,0.3,5.6-0.2,8.4-0.4c1.6-0.1,3.4-0.2,4.9,0.3c1.1,2.6,2.3,5.1,3.6,7.6c-1.9-2-5-3.5-7.2-4.5c-2.2-0.9-5-1.4-7.4,0.4 c-0.4,0.3-0.7,0.6-0.9,0.9c-0.8,1.2-0.3,2.5,0.5,3.2c1.1,0.9,2.6,1.1,4.1,1c1.5-0.1,3.1-0.4,4.6-0.6c2.7-0.2,5,0.4,7.2,1.3 c1,1.9,2,3.8,3.1,5.6c-1.1-0.7-2.5-1.2-3.1-1.5c-2.3-0.8-4.8-1.1-7.5-0.8c-0.9,0.1-2,0.4-2.5,1.2c-0.5,0.7-0.5,1.6-0.2,2.3 c0.6,1.8,2.1,3,4.1,3.2c1.2,0.1,2.6-0.2,3.9-0.6c1.4-0.3,2.7-0.7,4.1-1c1-0.3,2-0.4,3-0.2c1.2,2,2.5,4,3.9,5.9 c-0.8-0.5-1.7-1-2.6-1.4c-2-0.9-4.4-1.2-6.9-0.5c-0.8,0.2-1.8,0.6-2.3,1.4c-0.8,1.1-0.5,2.6,0.3,3.2c0.9,0.6,2.1,0.6,3.3,0.3 c1.1-0.2,2.2-0.6,3.3-1.1c0.8-0.4,1.6-0.8,2.4-1c1-0.2,1.9,0,2.8,0.2c0.2,0,0.4,0.1,0.6,0.1c1.1,1.5,2.2,2.9,3.4,4.4 c-1.9-0.6-4.4-0.4-6.5,0.2c-1.3,0.4-2.9,1.3-3.1,2.7c-0.1,0.4,0,0.8,0.1,1.2c0.6,1.2,2.3,1.2,3.8,0.6c1.5-0.6,2.8-1.7,4.3-2.4 c0.8-0.4,1.9-0.4,2.7-0.7c1.9,2.2,4,4.2,6.3,5.9c0.7,0.5,1.6-0.6,1.1-1.3c-1.4-1.7-2.9-3.3-4.3-5c1-1,4-5.6,4.5-6.3 c0.8-1.1,1.3-2.6,0.8-3.5c-0.6-0.9-2-0.8-3.1,0c-1.1,0.7-1.8,1.9-2.3,3.1c-0.3,0.7-1,3.7-1,5.5c-1.5-1.7-2.9-3.4-4.3-5.2 c0.3-0.8,0.6-1.5,1.1-2.3c0.7-1.2,1.8-2.1,2.5-3.3c0.7-1.2,1.1-2.7,0.5-3.5c-0.8-1-2.7-0.4-3.8,0.8c-1.1,1.2-1.5,2.9-1.6,4.3 c0,0.5-0.1,1.1-0.1,1.8c-0.1-0.2-0.2-0.3-0.3-0.4c-0.6-0.8-1.2-1.7-1.7-2.5c1-1.5,1.6-3.9,2.4-5.5c0.8-1.6,1.6-3.2,1.7-4.8 c0.1-1.6-1.1-3-2.6-2.6c-1.4,0.4-2.4,2.1-2.8,3.6c-0.4,1.6-0.7,4.5-0.4,6.7c-1.1-1.8-2.3-3.7-3.3-5.6c1-2.8,4.5-5.9,4.9-9.1 c0.2-1.3-0.3-3.2-1.9-3c-1.3,0.2-2.3,2.2-2.9,3.3c-1,1.8-1.5,4.1-1.5,6.3c-0.4-0.8-0.8-1.5-1.2-2.3c-0.5-1-1-2-1.5-3 c0.4-1.1,1.2-2.9,2.2-4.5c1.3-2.1,3.1-4.2,2.2-6.4c-0.9-2-3.8-3.6-5.2-0.2c-0.8,1.9-1.1,5-0.8,7.7c-0.9-1.9-1.8-3.9-2.7-5.9 c0.9-1.6,1.3-3.1,3.1-5.2c1.4-1.8,4.1-3.6,3.5-5.8C343.5,334.3,340.5,334.6,339,337.2z"></path> <path class="st2" d="M322.6,379.1c-9-6.4-15.3-16.6-15.7-17.2c4.6,3.9,15.4,7.4,23.4,6.8c23.8-1.8,29.6,17.7,29,19.2 C349.9,391.2,339.4,390.9,322.6,379.1z"></path> <path class="st2" d="M512.2,291.2c1.2,3.6,0.1,7.8-0.5,11.1c-0.1,0.4-0.3,1.1-0.5,1.9c1.1-1.4,2.1-2.8,3.2-4.3 c0.7-1,1.4-1.9,2.1-2.9c-0.3-0.9-0.4-3-1.1-5.2c-0.8-2.7-2-3.7-0.6-6.3c1.3-2.5,4.1-3.7,5.3-0.1c1,3.1-0.2,6.1-1.5,8.8 c2.2-2.9,4.5-5.7,7.3-7.9c2.5-10,14.5-15.8,23.7-15.2c0.9,0.1,1.8,0.2,2.6,0.8c1.6,1.4,1.2,4.1,0.1,5.6c-1.6,2.1-4.1,3.2-6.7,3.8 c-2.6,0.5-5.3,0.6-7.9,1c-2.2,0.3-4.2,1-6.1,1.8c0,0-0.1,0.1-0.1,0.1c-3.1,1.8-5.7,4.3-8,7.1c1.9-1.1,4.9-1.9,6.1-2.1 c3.3-0.8,6.9-0.6,10.2,1.1c0.6,0.3,1.3,0.8,1.5,1.4c0.3,0.9-0.3,1.7-0.8,2.2c-2,1.9-4.8,2.8-7.7,2.5c-3.7-0.4-7.3-2.2-11-2.8 c0,0,0-0.1,0-0.1c-1.3,1.7-2.6,3.5-3.8,5.3c2.8-0.9,6.3-1.2,7.9-1c1.3,0.2,2.7,0.5,3.8,1.5c1.1,0.9,1.9,2.5,1.5,3.9 c-0.2,0.8-0.8,1.3-1.4,1.7c-2,1.2-4.7,0.5-7.2-0.2c-2.4-0.7-4.9-1.3-7.4-2.1c-0.2,0.2-0.3,0.4-0.5,0.6c-2.2,3.1-4.5,6.1-6.8,9.1 c1.8-1,3.7-1.9,5.6-2.6c3.9-1.4,8.3-1.9,12.6-0.9c1.7,0.4,3.5,1.1,4.8,2.5c0.5,0.5,1,1.3,0.9,2c-0.1,0.4-0.3,0.7-0.5,1 c-1.6,1.7-4,2.1-6.4,1.9c-3.7-0.2-7.4-1.5-11.1-2.3c-2.1-0.5-4.6-0.9-6.7-0.6c-2.4,3.1-4.8,6.1-7.4,9c3.3-2.2,7.9-3.5,11.2-4.3 c3.2-0.7,7.2-0.7,9.8,2.1c0.4,0.4,0.7,0.9,0.9,1.4c0.6,1.6-0.4,3.3-1.8,4c-1.7,0.9-3.8,0.8-5.8,0.4c-2-0.4-4-1.2-6-1.7 c-3.6-0.9-6.8-0.6-10.1,0.1c-2,2.3-4,4.5-6.1,6.6c1.8-0.7,3.7-1.1,4.7-1.3c3.3-0.6,6.9-0.4,10.3,0.6c1.2,0.3,2.5,0.9,3,2.2 c0.4,1.1,0.1,2.2-0.5,3.1c-1.4,2.2-3.9,3.4-6.5,3.2c-1.7-0.1-3.4-0.9-5-1.6c-1.7-0.7-3.4-1.5-5.1-2.2c-1.3-0.6-2.6-0.9-3.9-0.9 c-2.3,2.3-4.8,4.6-7.2,6.7c1.3-0.5,2.6-0.9,3.9-1.2c3-0.7,6.3-0.6,9.4,0.8c1.1,0.5,2.2,1.2,2.7,2.3c0.7,1.6-0.1,3.4-1.5,4 c-1.4,0.6-3,0.3-4.6-0.3c-1.4-0.5-2.8-1.3-4.1-2.2c-0.9-0.6-1.8-1.4-2.8-1.8c-1.2-0.5-2.5-0.4-3.8-0.4c-0.3,0-0.5,0-0.8,0 c-2,1.7-3.9,3.3-6,4.9c2.8-0.3,6,0.4,8.6,1.7c1.6,0.8,3.4,2.3,3.3,4.1c0,0.6-0.2,1.1-0.6,1.5c-1.2,1.5-3.6,1.1-5.3,0 c-1.8-1.1-3.2-2.8-4.9-4c-1-0.7-2.4-0.9-3.4-1.4c-3.3,2.4-6.8,4.6-10.4,6.3c-1.1,0.5-1.9-1.2-1-1.9c2.5-1.9,5-3.7,7.5-5.5 c-1-1.5-3.5-8.1-4-9.1c-0.7-1.6-0.9-3.6,0.2-4.7c1-1,2.9-0.6,4.1,0.6c1.2,1.2,1.8,2.9,2,4.5c0.1,0.9,0.1,5-0.5,7.3 c2.6-1.9,5.1-3.8,7.6-5.8c-0.2-1-0.3-2.1-0.6-3.2c-0.6-1.6-1.6-3.1-2.2-4.8c-0.6-1.7-0.6-3.7,0.6-4.6c1.4-1.1,3.8,0,4.8,1.9 c1,1.8,1,4,0.7,5.9c-0.1,0.6-0.2,1.5-0.4,2.4c0.2-0.2,0.4-0.3,0.6-0.5c1.1-0.9,2.1-1.9,3.1-2.9c-0.9-2.2-0.8-5.3-1.4-7.6 c-0.5-2.2-1.1-4.5-0.7-6.5c0.4-2.1,2.4-3.7,4.4-2.7c1.7,0.9,2.4,3.2,2.5,5.2c0,2.1-0.6,6-1.8,8.8c2.2-2.1,4.3-4.3,6.4-6.5 c-0.3-3.9-4-8.6-3.5-12.8c0.2-1.7,1.5-4.1,3.5-3.5c1.6,0.5,2.3,3.4,2.7,4.8c0.7,2.5,0.6,5.7-0.1,8.5c0.8-0.9,1.6-1.8,2.4-2.7 c1-1.2,2-2.3,3-3.5c-0.2-1.5-0.7-4-1.5-6.3c-1-3-2.7-6-0.7-8.7c1.8-2.4,6.3-3.8,7,0.8c0.4,2.6-0.2,6.7-1.5,10.1 c1.9-2.3,3.7-4.7,5.6-7c-0.7-2.3-0.7-4.3-2.4-7.4c-1.3-2.6-4.2-5.6-2.7-8.2C507.1,286.5,510.9,287.6,512.2,291.2z"></path> <path class="st3" d="M393.3,156.4c-0.9,10.8,5.9,32.1-1.6,69.9c-10.4,52.2,6.2,96.8,18,94.2C454.4,310.8,430.1,208.7,393.3,156.4 z"></path> <path class="st4" d="M377.5,301.9c-28.9-14.5-32.3-24.8-38-33.4c4.2,61.5,62.6,99.4,71.5,99.1 C414.4,367.6,414.6,320.5,377.5,301.9z"></path> <path class="st5" d="M447.4,350.4c10.9-10.9,62.7-36.4,70.3-97.2c1.7-13.9-2.2-39.9,24.3-67.4c-40.9,13.4-85.8,81.4-99.5,114.6 c-5.1,12.4-13.7,30.3-8.6,43.4C435.6,348.4,444.2,355.5,447.4,350.4z"></path> <path class="st6" d="M460.4,337c5.9-4.7,15.6-14.3,17-22.3c0.6-3.5-0.6-3.5,1.4-5.7c3.5-3.8,7.7-5.6,9.2-11.1 c1.2-4.1,1.5-9.4,0.7-13.6c-0.6-3.1-2.1-4.2-0.9-7.1c1.8-4.5,5.2-7.4,6.2-12.5c0.6-3.5,0.4-7.3,0-10.9c-0.3-2.4-1.5-3.8-2-5.8 c-1-3.7,2.2-6.8,2.7-10.6c0.6-4.2-0.3-8.9-1-13c-4.5,0.5-8.4,5.8-10.2,9.6c-1.3,2.8-0.8,6.7-2.9,8.7c-1.6,1.5-4.1,1.6-5.7,4 c-1.5,2.1-2.4,4.9-3,7.4c-1.2,5.2-0.2,9.7-0.3,14.8c-0.1,4.7-4.2,7.6-6.9,11.6c-4,5.9-6.1,12.6-7,19.6c-0.5,4,0.7,9.9-1,13.1 c-1.2,2.2-3.9,3.8-5.1,6.3c-1.4,2.9-1.6,6.5-1.5,9.6C450,335.5,454.6,337.6,460.4,337z"></path> <path class="st1" d="M429.9,367.4c10.1-2.8,6.7-16,6.8-20.9c0.3-13.2-26.6-93.4-33.2-99.4c-2.5,16.4,1.2,37,1,39.9 c-4.4-10.4-35-43.3-42.8-48.6c20.6,32.9,3.8,31,29.2,89.2C398.5,345.1,419.3,370.3,429.9,367.4z"></path> <path class="st6" d="M419.3,364c8.4-6.5-2.8-17.2-2.8-24c0-2.4,0.7-4.9,0.5-7.4c-0.2-3.6-1.7-6.7-2.2-10.1 c-0.4-2.7,0.3-5.3,0.1-8.3c-0.5-6.4-4.7-8.7-7.2-13.2c-2.3-4.2-2.2-9.8-5.5-14.2c-4-5.4-6-12-10.1-17.5c0.1,5.8-2,11.7,0.3,17.2 c0.8,2,2.4,3.6,2.5,5.7c0.1,2.2-1.6,4.9-2,7.1c-1.3,7.2,3.8,8.3,4.7,13.2c0.4,2.6-1.6,7.2-1.7,10.1c-0.1,4.9,0.2,9.9,3,14 c1.1,1.6,3,2.6,3.3,4.6c0.4,2.6-1.1,6.1-0.8,9c0.7,5.6,5.4,8.1,7,12.1c1.4,3.5,1.4,9.9,7.7,9.5C419,371.8,420,369.7,419.3,364z"></path> <path class="st1" d="M427.1,369.7c2-2.1,3.2-5.3,4.5-7.9c3.7-6.9,7-14.9,8.4-22.6c1.2-6.9,2.6-13.9,3.4-20.9 c0.6-5.2,1.6-11.6-0.2-16.7c-1.3,2.2-2.8,4.4-3.9,6.7c-0.8,1.6-1.1,3.5-2,5c0.5-6.7,0.4-12.6-0.9-19.3 c-1.1-5.5-1.2-12.7-3.9-17.7c-2.5,4.9-4.3,11.4-5.4,16.9c-1.6,7.6-3.1,15.3-4.7,23c-2.3,11.6-3,22.9-3.4,34.7 c-0.2,5-2.7,16.4,3,19.3C423.7,371.1,425.5,371.1,427.1,369.7z"></path> <path class="st2" d="M434.3,225.4c5.4-1.2,9.1,9.3,10.2,15.8c0.5-2.3,1.9-7.5,2-7.8c-2.7-5-14.3-19.9-6.5-22 c6.2-1.6,7.6,8.9,7.8,14.1c0,0.7,0.1,1.6,0.2,2.7c1-3.4,2.2-6.9,3.5-10.3c-1.4-1.6-3.4-4.2-4.6-6.8c-0.9-1.8-3.9-10,1.8-7.8 c2.2,0.8,3.9,6.7,4.2,11c1-2.4,2-4.8,3.1-7.1c5.3-17.3-5.1-36.9,7.6-36.6c15.1,0.3,12.7,13,9.8,18.1c-2.5,4.4-7.7,11.2-14.4,16.3 c-1.1,2.6-4.9,13.8-5.4,15.3c4.8-8.1,14.7-24.2,20.6-17c5.3,6.4-14.7,14.7-21.4,19.5c-1.4,4.4-4.2,15.7-4.4,16.8 c2.2-3.4,3.8-8.3,7.1-10.9c2.9-2.3,10.2-5,11-0.2c1.1,6.7-8.6,9-13.2,10.9c-3.3,1.4-4.5,3.1-5.5,3c-1.1,5.7-2,11.4-2.6,17.2 c2.7-7.2,11.4-23.1,17.8-16.2c8.2,9-11.8,12.1-17.9,17.7c-0.5,5.9-0.8,11.8-0.8,17.8c0,0.1,0,0.1,0,0.2c1.6-5.7,2.6-11.3,6.8-16 c3.7-4.3,11.2-7.3,12.5,1.4c1,6.4-10,9.2-14.7,13c-2.1,1.7-3.5,3.7-4.5,4.6c0.2,5.5,0.7,11,1.4,16.5c7.8-9.1,11.3-32.7,20.7-23.5 c8.3,8-12.9,13.1-20.5,25.4c0.7,5,1.7,10,2.7,14.9c0.4-4.2,1.9-8.3,3.3-12.3c1-3,7.6-12.4,12.1-6.8c4.5,5.5-6,12.3-9.1,14.7 c-2.9,2.3-4.5,4.9-5.5,7.8c0.2,0.9,2.9,12.2,3.9,17c1-8.6,15.5-42,25.7-26.4c6.5,10-16.3,15.9-20.9,20.5c-3.2,3.1-4,5.6-4.3,8 c0.6,2.8,1.1,5.5,1.5,8.3c3.3-8.4,12.2-24.9,19.7-14.6c8.9,12.2-10.3,11.5-13.5,14c-2.8,2.2-6,3.8-5.3,8c0.3,3.3,0.4,6.6,0.3,9.9 c-0.1,2.4-3.9,2.1-3.9-0.2c-0.2-4.6-0.6-9.1-1.2-13.7c-5.8-2.4-17.6-0.6-21.6-3c-5.6-3.3-4.7-9.1,1.8-10.3 c5.9-1.1,14.3,3.5,19.2,9.2c-0.6-3.9-1.4-7.8-2.2-11.7c-4.8-3.3-11.9-1.1-16.8-5.5c-5.2-4.6-1.7-11.2,5.2-8.9 c3.3,1.1,7.6,5.7,10.6,9.6c-0.6-2.8-1.5-6.6-2.1-9.4c-0.5-2.4-1.1-4.8-1.5-7.2c-5.3-2.3-15.7-0.6-17.9-8.5 c-1.6-5.5,3.5-10.2,8.6-6.3c2.6,2,5.8,5.5,8.2,9.2c-0.8-4.5-1.4-9-1.8-13.5c-5.9-3.4-17.9-0.5-21.4-8c-2.8-6.1,5.1-8.8,10.2-6.3 c5,2.5,8.1,7.8,11,12.6c-0.3-3.4-0.5-6.7-0.6-10.1c-4.6-3.5-13.4-5.1-16-11.5c-2.5-6.2,1.6-14.1,8.8-8.4c3.8,3,5.8,8.2,7.2,13.3 c0.1-3.8,0.3-7.5,0.7-11.2c-1.2-1.9-2.8-4.3-4.9-6.5c-2.4-2.6-5.7-4.9-5.9-8.6c-0.3-6.4,5-3.8,7.7,0c2,2.8,3,6.4,3.7,10.1 c0.5-4.2,1.5-10.5,2.3-14.6C440.6,238,422.9,227.9,434.3,225.4z"></path> <path class="st2" d="M472.6,346.6c9.1-10.8,13.5-25.4,13.8-26.3c-4.4,6.3-16.5,14.1-26.6,16c-30,5.5-30.7,31.4-29.6,33.1 C442.9,370.3,455.8,366.6,472.6,346.6z"></path> </g> </g> <g> <path class="st3" d="M299.1,2.3H166.3c-13.2,0-23.8,10.7-23.8,24v329.5c0,13.2,10.7,24,23.8,24h132.8c13.2,0,23.8-10.7,23.8-24 V26.2C322.9,13,312.2,2.3,299.1,2.3z"></path> <path class="st7" d="M315.9,25.8v328.6c0,9.5-7.7,17.2-17.1,17.2H165.9c-9.1,0-16.5-7.4-16.5-16.6V25.8c0-2.9,2.5-5.2,5.4-5.2 h155.6C313.4,20.5,315.9,22.9,315.9,25.8z"></path> <path class="st3" d="M322.9,132.6V84.7c1.9,0,3.5,1.6,3.5,3.5V129C326.4,131,324.8,132.6,322.9,132.6z"></path> <path class="st3" d="M142.5,148.2v47.9c-1.9,0-3.5-1.6-3.5-3.5v-40.8C139,149.8,140.6,148.2,142.5,148.2z"></path> <path class="st3" d="M142.5,87v47.9c-1.9,0-3.5-1.6-3.5-3.5V90.6C139,88.6,140.6,87,142.5,87z"></path> <path class="st3" d="M142.5,46.3v16.3c-1.9,0-3.5-1.6-3.5-3.6v-9.2C139,47.9,140.6,46.3,142.5,46.3z"></path> <g> <linearGradient id="SVGID_3_" gradientUnits="userSpaceOnUse" x1="294.5705" y1="28.2906" x2="295.8983" y2="28.2906"> <stop offset="0" style="stop-color:#AD1524"></stop> <stop offset="1" style="stop-color:#CE6B7C"></stop> </linearGradient> <ellipse class="st8" cx="295.2" cy="28.3" rx="0.7" ry="0.7"></ellipse> <linearGradient id="SVGID_4_" gradientUnits="userSpaceOnUse" x1="293.3211" y1="26.4822" x2="297.1469" y2="26.4822"> <stop offset="0" style="stop-color:#AD1524"></stop> <stop offset="1" style="stop-color:#CE6B7C"></stop> </linearGradient> <path class="st9" d="M297,26.3c-0.5-0.3-1.1-0.5-1.7-0.5c-0.6,0-1.2,0.2-1.7,0.5c-0.2,0.2-0.3,0.5-0.1,0.7 c0.2,0.2,0.4,0.2,0.6,0.1c0.3-0.2,0.8-0.4,1.2-0.4c0.4,0,0.9,0.1,1.2,0.4c0.2,0.1,0.4,0.1,0.6-0.1 C297.2,26.8,297.2,26.5,297,26.3z"></path> <linearGradient id="SVGID_5_" gradientUnits="userSpaceOnUse" x1="292.0876" y1="24.988" x2="298.3801" y2="24.988"> <stop offset="0" style="stop-color:#AD1524"></stop> <stop offset="1" style="stop-color:#CE6B7C"></stop> </linearGradient> <path class="st10" d="M298.2,25.1c-0.8-0.7-1.8-1.1-3-1.1c-1.1,0-2.2,0.4-3,1.1c-0.2,0.2-0.2,0.5,0,0.7c0.2,0.2,0.4,0.2,0.6,0 c0.7-0.5,1.5-0.9,2.4-0.9c0.9,0,1.7,0.3,2.4,0.9c0.2,0.1,0.4,0.1,0.6,0C298.4,25.6,298.4,25.3,298.2,25.1z"></path> </g> <ellipse id="XMLID_130_" class="st11" cx="252.6" cy="11.7" rx="2.3" ry="2.3"></ellipse> <path id="XMLID_127_" class="st11" d="M223.2,13H244c0.9,0,1.6-0.6,1.6-1.3c0-0.8-0.7-1.3-1.6-1.3h-20.8c-0.9,0-1.6,0.6-1.6,1.3 C221.6,12.5,222.3,13,223.2,13z"></path> <path class="st5" d="M272.4,366.8H193c-1,0-1.9-0.8-1.9-1.9l0,0c0-1,0.8-1.9,1.9-1.9h79.4c1,0,1.9,0.8,1.9,1.9l0,0 C274.2,365.9,273.4,366.8,272.4,366.8z"></path> </g> <path class="st7" d="M308,39.1h-0.5v-4.8c0-2.4-2-4.4-4.4-4.4s-4.4,2-4.4,4.4v4.8h-0.5c-0.2,0-0.4,0.2-0.4,0.4v0.2 c0,0.2,0.2,0.4,0.4,0.4h3.8c0,0.6,0.5,1.1,1.1,1.1c0.6,0,1.1-0.5,1.1-1.1h3.8c0.2,0,0.4-0.2,0.4-0.4v-0.2 C308.4,39.3,308.2,39.1,308,39.1z"></path> <g> <circle class="st5" cx="166" cy="37" r="9.1"></circle> <circle class="st7" cx="166" cy="37" r="3.8"></circle> <rect x="163" y="138.1" class="st5" width="34.5" height="34.5"></rect> <rect x="217.7" y="138.1" class="st5" width="34.5" height="34.5"></rect> <rect x="154.5" y="100.1" class="st5" width="49.4" height="17"></rect> <g> <path class="st3" d="M216.4,195.2h-2.8c-0.2,0-0.3-0.2-0.3-0.3c0-0.2,0.2-0.3,0.3-0.3h2.8c0.2,0,0.3,0.2,0.3,0.3 C216.7,195.1,216.6,195.2,216.4,195.2z M210.9,195.2h-2.8c-0.2,0-0.3-0.2-0.3-0.3c0-0.2,0.2-0.3,0.3-0.3h2.8 c0.2,0,0.3,0.2,0.3,0.3C211.2,195.1,211,195.2,210.9,195.2z M205.3,195.2h-2.8c-0.2,0-0.3-0.2-0.3-0.3c0-0.2,0.2-0.3,0.3-0.3h2.8 c0.2,0,0.3,0.2,0.3,0.3C205.7,195.1,205.5,195.2,205.3,195.2z M199.8,195.2h-2.8c-0.2,0-0.3-0.2-0.3-0.3c0-0.2,0.2-0.3,0.3-0.3 h2.8c0.2,0,0.3,0.2,0.3,0.3C200.2,195.1,200,195.2,199.8,195.2z M194.3,195.2h-2.8c-0.2,0-0.3-0.2-0.3-0.3c0-0.2,0.2-0.3,0.3-0.3 h2.8c0.2,0,0.3,0.2,0.3,0.3C194.7,195.1,194.5,195.2,194.3,195.2z M188.8,195.2H186c-0.2,0-0.3-0.2-0.3-0.3 c0-0.2,0.2-0.3,0.3-0.3h2.8c0.2,0,0.3,0.2,0.3,0.3C189.1,195.1,189,195.2,188.8,195.2z M183.3,195.2h-2.8c-0.2,0-0.3-0.2-0.3-0.3 c0-0.2,0.2-0.3,0.3-0.3h2.8c0.2,0,0.3,0.2,0.3,0.3C183.6,195.1,183.5,195.2,183.3,195.2z M177.8,195.2H175 c-0.2,0-0.3-0.2-0.3-0.3c0-0.2,0.2-0.3,0.3-0.3h2.8c0.2,0,0.3,0.2,0.3,0.3C178.1,195.1,177.9,195.2,177.8,195.2z M172.2,195.2 h-2.8c-0.2,0-0.3-0.2-0.3-0.3c0-0.2,0.2-0.3,0.3-0.3h2.8c0.2,0,0.3,0.2,0.3,0.3C172.6,195.1,172.4,195.2,172.2,195.2z M166.7,195.2H164c-0.2,0-0.3-0.2-0.3-0.3c0-0.2,0.2-0.3,0.3-0.3h2.8c0.2,0,0.3,0.2,0.3,0.3C167.1,195.1,166.9,195.2,166.7,195.2 z M161.2,195.2h-2.8c-0.2,0-0.3-0.2-0.3-0.3c0-0.2,0.2-0.3,0.3-0.3h2.8c0.2,0,0.3,0.2,0.3,0.3 C161.6,195.1,161.4,195.2,161.2,195.2z"></path> </g> <g> <path class="st3" d="M183.1,268.6c-0.2,0-0.3-0.2-0.3-0.3v-2.8c0-0.2,0.2-0.3,0.3-0.3s0.3,0.2,0.3,0.3v2.8 C183.4,268.5,183.2,268.6,183.1,268.6z M183.1,263.1c-0.2,0-0.3-0.2-0.3-0.3V260c0-0.2,0.2-0.3,0.3-0.3s0.3,0.2,0.3,0.3v2.8 C183.4,262.9,183.2,263.1,183.1,263.1z M183.1,257.6c-0.2,0-0.3-0.2-0.3-0.3v-2.8c0-0.2,0.2-0.3,0.3-0.3s0.3,0.2,0.3,0.3v2.8 C183.4,257.4,183.2,257.6,183.1,257.6z M183.1,252.1c-0.2,0-0.3-0.2-0.3-0.3V249c0-0.2,0.2-0.3,0.3-0.3s0.3,0.2,0.3,0.3v2.8 C183.4,251.9,183.2,252.1,183.1,252.1z M183.1,246.5c-0.2,0-0.3-0.2-0.3-0.3v-2.8c0-0.2,0.2-0.3,0.3-0.3s0.3,0.2,0.3,0.3v2.8 C183.4,246.4,183.2,246.5,183.1,246.5z M183.1,241c-0.2,0-0.3-0.2-0.3-0.3v-2.8c0-0.2,0.2-0.3,0.3-0.3s0.3,0.2,0.3,0.3v2.8 C183.4,240.9,183.2,241,183.1,241z M183.1,235.5c-0.2,0-0.3-0.2-0.3-0.3v-2.8c0-0.2,0.2-0.3,0.3-0.3s0.3,0.2,0.3,0.3v2.8 C183.4,235.4,183.2,235.5,183.1,235.5z M183.1,230c-0.2,0-0.3-0.2-0.3-0.3v-2.8c0-0.2,0.2-0.3,0.3-0.3s0.3,0.2,0.3,0.3v2.8 C183.4,229.8,183.2,230,183.1,230z M183.1,224.5c-0.2,0-0.3-0.2-0.3-0.3v-2.8c0-0.2,0.2-0.3,0.3-0.3s0.3,0.2,0.3,0.3v2.8 C183.4,224.3,183.2,224.5,183.1,224.5z M183.1,219c-0.2,0-0.3-0.2-0.3-0.3v-2.8c0-0.2,0.2-0.3,0.3-0.3s0.3,0.2,0.3,0.3v2.8 C183.4,218.8,183.2,219,183.1,219z M183.1,213.5c-0.2,0-0.3-0.2-0.3-0.3v-2.8c0-0.2,0.2-0.3,0.3-0.3s0.3,0.2,0.3,0.3v2.8 C183.4,213.3,183.2,213.5,183.1,213.5z M183.1,207.9c-0.2,0-0.3-0.2-0.3-0.3v-2.8c0-0.2,0.2-0.3,0.3-0.3s0.3,0.2,0.3,0.3v2.8 C183.4,207.8,183.2,207.9,183.1,207.9z M183.1,202.4c-0.2,0-0.3-0.2-0.3-0.3v-2.8c0-0.2,0.2-0.3,0.3-0.3s0.3,0.2,0.3,0.3v2.8 C183.4,202.3,183.2,202.4,183.1,202.4z M183.1,196.9c-0.2,0-0.3-0.2-0.3-0.3v-2.8c0-0.2,0.2-0.3,0.3-0.3s0.3,0.2,0.3,0.3v2.8 C183.4,196.7,183.2,196.9,183.1,196.9z M183.1,191.4c-0.2,0-0.3-0.2-0.3-0.3v-2.8c0-0.2,0.2-0.3,0.3-0.3s0.3,0.2,0.3,0.3v2.8 C183.4,191.2,183.2,191.4,183.1,191.4z M183.1,185.9c-0.2,0-0.3-0.2-0.3-0.3v-0.1c0-0.2,0.2-0.3,0.3-0.3s0.3,0.2,0.3,0.3v0.1 C183.4,185.7,183.2,185.9,183.1,185.9z"></path> </g> <g> <path class="st3" d="M204.9,268.6c-0.2,0-0.3-0.2-0.3-0.3v-2.8c0-0.2,0.2-0.3,0.3-0.3c0.2,0,0.3,0.2,0.3,0.3v2.8 C205.3,268.5,205.1,268.6,204.9,268.6z M204.9,263.1c-0.2,0-0.3-0.2-0.3-0.3V260c0-0.2,0.2-0.3,0.3-0.3c0.2,0,0.3,0.2,0.3,0.3 v2.8C205.3,262.9,205.1,263.1,204.9,263.1z M204.9,257.6c-0.2,0-0.3-0.2-0.3-0.3v-2.8c0-0.2,0.2-0.3,0.3-0.3 c0.2,0,0.3,0.2,0.3,0.3v2.8C205.3,257.4,205.1,257.6,204.9,257.6z M204.9,252.1c-0.2,0-0.3-0.2-0.3-0.3V249 c0-0.2,0.2-0.3,0.3-0.3c0.2,0,0.3,0.2,0.3,0.3v2.8C205.3,251.9,205.1,252.1,204.9,252.1z M204.9,246.5c-0.2,0-0.3-0.2-0.3-0.3 v-2.8c0-0.2,0.2-0.3,0.3-0.3c0.2,0,0.3,0.2,0.3,0.3v2.8C205.3,246.4,205.1,246.5,204.9,246.5z M204.9,241c-0.2,0-0.3-0.2-0.3-0.3 v-2.8c0-0.2,0.2-0.3,0.3-0.3c0.2,0,0.3,0.2,0.3,0.3v2.8C205.3,240.9,205.1,241,204.9,241z M204.9,235.5c-0.2,0-0.3-0.2-0.3-0.3 v-2.8c0-0.2,0.2-0.3,0.3-0.3c0.2,0,0.3,0.2,0.3,0.3v2.8C205.3,235.4,205.1,235.5,204.9,235.5z M204.9,230c-0.2,0-0.3-0.2-0.3-0.3 v-2.8c0-0.2,0.2-0.3,0.3-0.3c0.2,0,0.3,0.2,0.3,0.3v2.8C205.3,229.8,205.1,230,204.9,230z M204.9,224.5c-0.2,0-0.3-0.2-0.3-0.3 v-2.8c0-0.2,0.2-0.3,0.3-0.3c0.2,0,0.3,0.2,0.3,0.3v2.8C205.3,224.3,205.1,224.5,204.9,224.5z M204.9,219c-0.2,0-0.3-0.2-0.3-0.3 v-2.8c0-0.2,0.2-0.3,0.3-0.3c0.2,0,0.3,0.2,0.3,0.3v2.8C205.3,218.8,205.1,219,204.9,219z M204.9,213.5c-0.2,0-0.3-0.2-0.3-0.3 v-2.8c0-0.2,0.2-0.3,0.3-0.3c0.2,0,0.3,0.2,0.3,0.3v2.8C205.3,213.3,205.1,213.5,204.9,213.5z M204.9,207.9 c-0.2,0-0.3-0.2-0.3-0.3v-2.8c0-0.2,0.2-0.3,0.3-0.3c0.2,0,0.3,0.2,0.3,0.3v2.8C205.3,207.8,205.1,207.9,204.9,207.9z M204.9,202.4c-0.2,0-0.3-0.2-0.3-0.3v-2.8c0-0.2,0.2-0.3,0.3-0.3c0.2,0,0.3,0.2,0.3,0.3v2.8 C205.3,202.3,205.1,202.4,204.9,202.4z M204.9,196.9c-0.2,0-0.3-0.2-0.3-0.3v-2.8c0-0.2,0.2-0.3,0.3-0.3c0.2,0,0.3,0.2,0.3,0.3 v2.8C205.3,196.7,205.1,196.9,204.9,196.9z M204.9,191.4c-0.2,0-0.3-0.2-0.3-0.3v-2.8c0-0.2,0.2-0.3,0.3-0.3 c0.2,0,0.3,0.2,0.3,0.3v2.8C205.3,191.2,205.1,191.4,204.9,191.4z M204.9,185.9c-0.2,0-0.3-0.2-0.3-0.3v-0.1 c0-0.2,0.2-0.3,0.3-0.3c0.2,0,0.3,0.2,0.3,0.3v0.1C205.3,185.7,205.1,185.9,204.9,185.9z"></path> </g> <g> <path class="st3" d="M161.2,268.6c-0.2,0-0.3-0.2-0.3-0.3v-2.8c0-0.2,0.2-0.3,0.3-0.3c0.2,0,0.3,0.2,0.3,0.3v2.8 C161.5,268.5,161.4,268.6,161.2,268.6z M161.2,263.1c-0.2,0-0.3-0.2-0.3-0.3V260c0-0.2,0.2-0.3,0.3-0.3c0.2,0,0.3,0.2,0.3,0.3 v2.8C161.5,262.9,161.4,263.1,161.2,263.1z M161.2,257.6c-0.2,0-0.3-0.2-0.3-0.3v-2.8c0-0.2,0.2-0.3,0.3-0.3 c0.2,0,0.3,0.2,0.3,0.3v2.8C161.5,257.4,161.4,257.6,161.2,257.6z M161.2,252.1c-0.2,0-0.3-0.2-0.3-0.3V249 c0-0.2,0.2-0.3,0.3-0.3c0.2,0,0.3,0.2,0.3,0.3v2.8C161.5,251.9,161.4,252.1,161.2,252.1z M161.2,246.5c-0.2,0-0.3-0.2-0.3-0.3 v-2.8c0-0.2,0.2-0.3,0.3-0.3c0.2,0,0.3,0.2,0.3,0.3v2.8C161.5,246.4,161.4,246.5,161.2,246.5z M161.2,241c-0.2,0-0.3-0.2-0.3-0.3 v-2.8c0-0.2,0.2-0.3,0.3-0.3c0.2,0,0.3,0.2,0.3,0.3v2.8C161.5,240.9,161.4,241,161.2,241z M161.2,235.5c-0.2,0-0.3-0.2-0.3-0.3 v-2.8c0-0.2,0.2-0.3,0.3-0.3c0.2,0,0.3,0.2,0.3,0.3v2.8C161.5,235.4,161.4,235.5,161.2,235.5z M161.2,230c-0.2,0-0.3-0.2-0.3-0.3 v-2.8c0-0.2,0.2-0.3,0.3-0.3c0.2,0,0.3,0.2,0.3,0.3v2.8C161.5,229.8,161.4,230,161.2,230z M161.2,224.5c-0.2,0-0.3-0.2-0.3-0.3 v-2.8c0-0.2,0.2-0.3,0.3-0.3c0.2,0,0.3,0.2,0.3,0.3v2.8C161.5,224.3,161.4,224.5,161.2,224.5z M161.2,219c-0.2,0-0.3-0.2-0.3-0.3 v-2.8c0-0.2,0.2-0.3,0.3-0.3c0.2,0,0.3,0.2,0.3,0.3v2.8C161.5,218.8,161.4,219,161.2,219z M161.2,213.5c-0.2,0-0.3-0.2-0.3-0.3 v-2.8c0-0.2,0.2-0.3,0.3-0.3c0.2,0,0.3,0.2,0.3,0.3v2.8C161.5,213.3,161.4,213.5,161.2,213.5z M161.2,207.9 c-0.2,0-0.3-0.2-0.3-0.3v-2.8c0-0.2,0.2-0.3,0.3-0.3c0.2,0,0.3,0.2,0.3,0.3v2.8C161.5,207.8,161.4,207.9,161.2,207.9z M161.2,202.4c-0.2,0-0.3-0.2-0.3-0.3v-2.8c0-0.2,0.2-0.3,0.3-0.3c0.2,0,0.3,0.2,0.3,0.3v2.8 C161.5,202.3,161.4,202.4,161.2,202.4z M161.2,196.9c-0.2,0-0.3-0.2-0.3-0.3v-2.8c0-0.2,0.2-0.3,0.3-0.3c0.2,0,0.3,0.2,0.3,0.3 v2.8C161.5,196.7,161.4,196.9,161.2,196.9z M161.2,191.4c-0.2,0-0.3-0.2-0.3-0.3v-2.8c0-0.2,0.2-0.3,0.3-0.3 c0.2,0,0.3,0.2,0.3,0.3v2.8C161.5,191.2,161.4,191.4,161.2,191.4z M161.2,185.9c-0.2,0-0.3-0.2-0.3-0.3v-0.1 c0-0.2,0.2-0.3,0.3-0.3c0.2,0,0.3,0.2,0.3,0.3v0.1C161.5,185.7,161.4,185.9,161.2,185.9z"></path> </g> <g> <path class="st3" d="M216.4,207.3h-2.8c-0.2,0-0.3-0.2-0.3-0.3c0-0.2,0.2-0.3,0.3-0.3h2.8c0.2,0,0.3,0.2,0.3,0.3 C216.7,207.1,216.6,207.3,216.4,207.3z M210.9,207.3h-2.8c-0.2,0-0.3-0.2-0.3-0.3c0-0.2,0.2-0.3,0.3-0.3h2.8 c0.2,0,0.3,0.2,0.3,0.3C211.2,207.1,211,207.3,210.9,207.3z M205.3,207.3h-2.8c-0.2,0-0.3-0.2-0.3-0.3c0-0.2,0.2-0.3,0.3-0.3h2.8 c0.2,0,0.3,0.2,0.3,0.3C205.7,207.1,205.5,207.3,205.3,207.3z M199.8,207.3h-2.8c-0.2,0-0.3-0.2-0.3-0.3c0-0.2,0.2-0.3,0.3-0.3 h2.8c0.2,0,0.3,0.2,0.3,0.3C200.2,207.1,200,207.3,199.8,207.3z M194.3,207.3h-2.8c-0.2,0-0.3-0.2-0.3-0.3c0-0.2,0.2-0.3,0.3-0.3 h2.8c0.2,0,0.3,0.2,0.3,0.3C194.7,207.1,194.5,207.3,194.3,207.3z M188.8,207.3H186c-0.2,0-0.3-0.2-0.3-0.3 c0-0.2,0.2-0.3,0.3-0.3h2.8c0.2,0,0.3,0.2,0.3,0.3C189.1,207.1,189,207.3,188.8,207.3z M183.3,207.3h-2.8c-0.2,0-0.3-0.2-0.3-0.3 c0-0.2,0.2-0.3,0.3-0.3h2.8c0.2,0,0.3,0.2,0.3,0.3C183.6,207.1,183.5,207.3,183.3,207.3z M177.8,207.3H175 c-0.2,0-0.3-0.2-0.3-0.3c0-0.2,0.2-0.3,0.3-0.3h2.8c0.2,0,0.3,0.2,0.3,0.3C178.1,207.1,177.9,207.3,177.8,207.3z M172.2,207.3 h-2.8c-0.2,0-0.3-0.2-0.3-0.3c0-0.2,0.2-0.3,0.3-0.3h2.8c0.2,0,0.3,0.2,0.3,0.3C172.6,207.1,172.4,207.3,172.2,207.3z M166.7,207.3H164c-0.2,0-0.3-0.2-0.3-0.3c0-0.2,0.2-0.3,0.3-0.3h2.8c0.2,0,0.3,0.2,0.3,0.3C167.1,207.1,166.9,207.3,166.7,207.3 z M161.2,207.3h-2.8c-0.2,0-0.3-0.2-0.3-0.3c0-0.2,0.2-0.3,0.3-0.3h2.8c0.2,0,0.3,0.2,0.3,0.3 C161.6,207.1,161.4,207.3,161.2,207.3z"></path> </g> <g> <path class="st3" d="M216.4,219.4h-2.8c-0.2,0-0.3-0.2-0.3-0.3c0-0.2,0.2-0.3,0.3-0.3h2.8c0.2,0,0.3,0.2,0.3,0.3 C216.7,219.2,216.6,219.4,216.4,219.4z M210.9,219.4h-2.8c-0.2,0-0.3-0.2-0.3-0.3c0-0.2,0.2-0.3,0.3-0.3h2.8 c0.2,0,0.3,0.2,0.3,0.3C211.2,219.2,211,219.4,210.9,219.4z M205.3,219.4h-2.8c-0.2,0-0.3-0.2-0.3-0.3c0-0.2,0.2-0.3,0.3-0.3h2.8 c0.2,0,0.3,0.2,0.3,0.3C205.7,219.2,205.5,219.4,205.3,219.4z M199.8,219.4h-2.8c-0.2,0-0.3-0.2-0.3-0.3c0-0.2,0.2-0.3,0.3-0.3 h2.8c0.2,0,0.3,0.2,0.3,0.3C200.2,219.2,200,219.4,199.8,219.4z M194.3,219.4h-2.8c-0.2,0-0.3-0.2-0.3-0.3c0-0.2,0.2-0.3,0.3-0.3 h2.8c0.2,0,0.3,0.2,0.3,0.3C194.7,219.2,194.5,219.4,194.3,219.4z M188.8,219.4H186c-0.2,0-0.3-0.2-0.3-0.3 c0-0.2,0.2-0.3,0.3-0.3h2.8c0.2,0,0.3,0.2,0.3,0.3C189.1,219.2,189,219.4,188.8,219.4z M183.3,219.4h-2.8c-0.2,0-0.3-0.2-0.3-0.3 c0-0.2,0.2-0.3,0.3-0.3h2.8c0.2,0,0.3,0.2,0.3,0.3C183.6,219.2,183.5,219.4,183.3,219.4z M177.8,219.4H175 c-0.2,0-0.3-0.2-0.3-0.3c0-0.2,0.2-0.3,0.3-0.3h2.8c0.2,0,0.3,0.2,0.3,0.3C178.1,219.2,177.9,219.4,177.8,219.4z M172.2,219.4 h-2.8c-0.2,0-0.3-0.2-0.3-0.3c0-0.2,0.2-0.3,0.3-0.3h2.8c0.2,0,0.3,0.2,0.3,0.3C172.6,219.2,172.4,219.4,172.2,219.4z M166.7,219.4H164c-0.2,0-0.3-0.2-0.3-0.3c0-0.2,0.2-0.3,0.3-0.3h2.8c0.2,0,0.3,0.2,0.3,0.3C167.1,219.2,166.9,219.4,166.7,219.4 z M161.2,219.4h-2.8c-0.2,0-0.3-0.2-0.3-0.3c0-0.2,0.2-0.3,0.3-0.3h2.8c0.2,0,0.3,0.2,0.3,0.3 C161.6,219.2,161.4,219.4,161.2,219.4z"></path> </g> <g> <path class="st3" d="M216.4,231.4h-2.8c-0.2,0-0.3-0.2-0.3-0.3c0-0.2,0.2-0.3,0.3-0.3h2.8c0.2,0,0.3,0.2,0.3,0.3 C216.7,231.3,216.6,231.4,216.4,231.4z M210.9,231.4h-2.8c-0.2,0-0.3-0.2-0.3-0.3c0-0.2,0.2-0.3,0.3-0.3h2.8 c0.2,0,0.3,0.2,0.3,0.3C211.2,231.3,211,231.4,210.9,231.4z M205.3,231.4h-2.8c-0.2,0-0.3-0.2-0.3-0.3c0-0.2,0.2-0.3,0.3-0.3h2.8 c0.2,0,0.3,0.2,0.3,0.3C205.7,231.3,205.5,231.4,205.3,231.4z M199.8,231.4h-2.8c-0.2,0-0.3-0.2-0.3-0.3c0-0.2,0.2-0.3,0.3-0.3 h2.8c0.2,0,0.3,0.2,0.3,0.3C200.2,231.3,200,231.4,199.8,231.4z M194.3,231.4h-2.8c-0.2,0-0.3-0.2-0.3-0.3c0-0.2,0.2-0.3,0.3-0.3 h2.8c0.2,0,0.3,0.2,0.3,0.3C194.7,231.3,194.5,231.4,194.3,231.4z M188.8,231.4H186c-0.2,0-0.3-0.2-0.3-0.3 c0-0.2,0.2-0.3,0.3-0.3h2.8c0.2,0,0.3,0.2,0.3,0.3C189.1,231.3,189,231.4,188.8,231.4z M183.3,231.4h-2.8c-0.2,0-0.3-0.2-0.3-0.3 c0-0.2,0.2-0.3,0.3-0.3h2.8c0.2,0,0.3,0.2,0.3,0.3C183.6,231.3,183.5,231.4,183.3,231.4z M177.8,231.4H175 c-0.2,0-0.3-0.2-0.3-0.3c0-0.2,0.2-0.3,0.3-0.3h2.8c0.2,0,0.3,0.2,0.3,0.3C178.1,231.3,177.9,231.4,177.8,231.4z M172.2,231.4 h-2.8c-0.2,0-0.3-0.2-0.3-0.3c0-0.2,0.2-0.3,0.3-0.3h2.8c0.2,0,0.3,0.2,0.3,0.3C172.6,231.3,172.4,231.4,172.2,231.4z M166.7,231.4H164c-0.2,0-0.3-0.2-0.3-0.3c0-0.2,0.2-0.3,0.3-0.3h2.8c0.2,0,0.3,0.2,0.3,0.3C167.1,231.3,166.9,231.4,166.7,231.4 z M161.2,231.4h-2.8c-0.2,0-0.3-0.2-0.3-0.3c0-0.2,0.2-0.3,0.3-0.3h2.8c0.2,0,0.3,0.2,0.3,0.3 C161.6,231.3,161.4,231.4,161.2,231.4z"></path> </g> <g> <path class="st3" d="M216.4,243.5h-2.8c-0.2,0-0.3-0.2-0.3-0.3c0-0.2,0.2-0.3,0.3-0.3h2.8c0.2,0,0.3,0.2,0.3,0.3 C216.7,243.3,216.6,243.5,216.4,243.5z M210.9,243.5h-2.8c-0.2,0-0.3-0.2-0.3-0.3c0-0.2,0.2-0.3,0.3-0.3h2.8 c0.2,0,0.3,0.2,0.3,0.3C211.2,243.3,211,243.5,210.9,243.5z M205.3,243.5h-2.8c-0.2,0-0.3-0.2-0.3-0.3c0-0.2,0.2-0.3,0.3-0.3h2.8 c0.2,0,0.3,0.2,0.3,0.3C205.7,243.3,205.5,243.5,205.3,243.5z M199.8,243.5h-2.8c-0.2,0-0.3-0.2-0.3-0.3c0-0.2,0.2-0.3,0.3-0.3 h2.8c0.2,0,0.3,0.2,0.3,0.3C200.2,243.3,200,243.5,199.8,243.5z M194.3,243.5h-2.8c-0.2,0-0.3-0.2-0.3-0.3c0-0.2,0.2-0.3,0.3-0.3 h2.8c0.2,0,0.3,0.2,0.3,0.3C194.7,243.3,194.5,243.5,194.3,243.5z M188.8,243.5H186c-0.2,0-0.3-0.2-0.3-0.3 c0-0.2,0.2-0.3,0.3-0.3h2.8c0.2,0,0.3,0.2,0.3,0.3C189.1,243.3,189,243.5,188.8,243.5z M183.3,243.5h-2.8c-0.2,0-0.3-0.2-0.3-0.3 c0-0.2,0.2-0.3,0.3-0.3h2.8c0.2,0,0.3,0.2,0.3,0.3C183.6,243.3,183.5,243.5,183.3,243.5z M177.8,243.5H175 c-0.2,0-0.3-0.2-0.3-0.3c0-0.2,0.2-0.3,0.3-0.3h2.8c0.2,0,0.3,0.2,0.3,0.3C178.1,243.3,177.9,243.5,177.8,243.5z M172.2,243.5 h-2.8c-0.2,0-0.3-0.2-0.3-0.3c0-0.2,0.2-0.3,0.3-0.3h2.8c0.2,0,0.3,0.2,0.3,0.3C172.6,243.3,172.4,243.5,172.2,243.5z M166.7,243.5H164c-0.2,0-0.3-0.2-0.3-0.3c0-0.2,0.2-0.3,0.3-0.3h2.8c0.2,0,0.3,0.2,0.3,0.3C167.1,243.3,166.9,243.5,166.7,243.5 z M161.2,243.5h-2.8c-0.2,0-0.3-0.2-0.3-0.3c0-0.2,0.2-0.3,0.3-0.3h2.8c0.2,0,0.3,0.2,0.3,0.3 C161.6,243.3,161.4,243.5,161.2,243.5z"></path> </g> <g> <path class="st3" d="M216.4,255.6h-2.8c-0.2,0-0.3-0.2-0.3-0.3c0-0.2,0.2-0.3,0.3-0.3h2.8c0.2,0,0.3,0.2,0.3,0.3 C216.7,255.4,216.6,255.6,216.4,255.6z M210.9,255.6h-2.8c-0.2,0-0.3-0.2-0.3-0.3c0-0.2,0.2-0.3,0.3-0.3h2.8 c0.2,0,0.3,0.2,0.3,0.3C211.2,255.4,211,255.6,210.9,255.6z M205.3,255.6h-2.8c-0.2,0-0.3-0.2-0.3-0.3c0-0.2,0.2-0.3,0.3-0.3h2.8 c0.2,0,0.3,0.2,0.3,0.3C205.7,255.4,205.5,255.6,205.3,255.6z M199.8,255.6h-2.8c-0.2,0-0.3-0.2-0.3-0.3c0-0.2,0.2-0.3,0.3-0.3 h2.8c0.2,0,0.3,0.2,0.3,0.3C200.2,255.4,200,255.6,199.8,255.6z M194.3,255.6h-2.8c-0.2,0-0.3-0.2-0.3-0.3c0-0.2,0.2-0.3,0.3-0.3 h2.8c0.2,0,0.3,0.2,0.3,0.3C194.7,255.4,194.5,255.6,194.3,255.6z M188.8,255.6H186c-0.2,0-0.3-0.2-0.3-0.3 c0-0.2,0.2-0.3,0.3-0.3h2.8c0.2,0,0.3,0.2,0.3,0.3C189.1,255.4,189,255.6,188.8,255.6z M183.3,255.6h-2.8c-0.2,0-0.3-0.2-0.3-0.3 c0-0.2,0.2-0.3,0.3-0.3h2.8c0.2,0,0.3,0.2,0.3,0.3C183.6,255.4,183.5,255.6,183.3,255.6z M177.8,255.6H175 c-0.2,0-0.3-0.2-0.3-0.3c0-0.2,0.2-0.3,0.3-0.3h2.8c0.2,0,0.3,0.2,0.3,0.3C178.1,255.4,177.9,255.6,177.8,255.6z M172.2,255.6 h-2.8c-0.2,0-0.3-0.2-0.3-0.3c0-0.2,0.2-0.3,0.3-0.3h2.8c0.2,0,0.3,0.2,0.3,0.3C172.6,255.4,172.4,255.6,172.2,255.6z M166.7,255.6H164c-0.2,0-0.3-0.2-0.3-0.3c0-0.2,0.2-0.3,0.3-0.3h2.8c0.2,0,0.3,0.2,0.3,0.3C167.1,255.4,166.9,255.6,166.7,255.6 z M161.2,255.6h-2.8c-0.2,0-0.3-0.2-0.3-0.3c0-0.2,0.2-0.3,0.3-0.3h2.8c0.2,0,0.3,0.2,0.3,0.3 C161.6,255.4,161.4,255.6,161.2,255.6z"></path> </g> <g> <path class="st3" d="M216.4,267.6h-2.8c-0.2,0-0.3-0.2-0.3-0.3c0-0.2,0.2-0.3,0.3-0.3h2.8c0.2,0,0.3,0.2,0.3,0.3 C216.7,267.5,216.6,267.6,216.4,267.6z M210.9,267.6h-2.8c-0.2,0-0.3-0.2-0.3-0.3c0-0.2,0.2-0.3,0.3-0.3h2.8 c0.2,0,0.3,0.2,0.3,0.3C211.2,267.5,211,267.6,210.9,267.6z M205.3,267.6h-2.8c-0.2,0-0.3-0.2-0.3-0.3c0-0.2,0.2-0.3,0.3-0.3h2.8 c0.2,0,0.3,0.2,0.3,0.3C205.7,267.5,205.5,267.6,205.3,267.6z M199.8,267.6h-2.8c-0.2,0-0.3-0.2-0.3-0.3c0-0.2,0.2-0.3,0.3-0.3 h2.8c0.2,0,0.3,0.2,0.3,0.3C200.2,267.5,200,267.6,199.8,267.6z M194.3,267.6h-2.8c-0.2,0-0.3-0.2-0.3-0.3c0-0.2,0.2-0.3,0.3-0.3 h2.8c0.2,0,0.3,0.2,0.3,0.3C194.7,267.5,194.5,267.6,194.3,267.6z M188.8,267.6H186c-0.2,0-0.3-0.2-0.3-0.3 c0-0.2,0.2-0.3,0.3-0.3h2.8c0.2,0,0.3,0.2,0.3,0.3C189.1,267.5,189,267.6,188.8,267.6z M183.3,267.6h-2.8c-0.2,0-0.3-0.2-0.3-0.3 c0-0.2,0.2-0.3,0.3-0.3h2.8c0.2,0,0.3,0.2,0.3,0.3C183.6,267.5,183.5,267.6,183.3,267.6z M177.8,267.6H175 c-0.2,0-0.3-0.2-0.3-0.3c0-0.2,0.2-0.3,0.3-0.3h2.8c0.2,0,0.3,0.2,0.3,0.3C178.1,267.5,177.9,267.6,177.8,267.6z M172.2,267.6 h-2.8c-0.2,0-0.3-0.2-0.3-0.3c0-0.2,0.2-0.3,0.3-0.3h2.8c0.2,0,0.3,0.2,0.3,0.3C172.6,267.5,172.4,267.6,172.2,267.6z M166.7,267.6H164c-0.2,0-0.3-0.2-0.3-0.3c0-0.2,0.2-0.3,0.3-0.3h2.8c0.2,0,0.3,0.2,0.3,0.3C167.1,267.5,166.9,267.6,166.7,267.6 z M161.2,267.6h-2.8c-0.2,0-0.3-0.2-0.3-0.3c0-0.2,0.2-0.3,0.3-0.3h2.8c0.2,0,0.3,0.2,0.3,0.3 C161.6,267.5,161.4,267.6,161.2,267.6z"></path> </g> <g> <g> <rect x="207.1" y="141.5" class="st3" width="0.7" height="27.5"></rect> </g> </g> <g> <g> <rect x="261.8" y="141.5" class="st3" width="0.7" height="27.5"></rect> </g> </g> <path class="st5" d="M194.5,281.6c-3.1-3.1-7.4-5.1-12.2-5.1H182c-0.3,0-0.6,0-0.8,0c-10.3,1.1-14.1,8.4-14.8,10 c-1,2.4-1.7,4.9-1.7,7.5c0,9.6,7.8,17.4,17.4,17.4c1.9,0,3.7-0.3,5.4-0.9c7-2.3,12.1-8.8,12.1-16.6 C199.6,289.1,197.6,284.7,194.5,281.6z M186.8,307.5c-1.5,0.5-3.1,0.8-4.7,0.8c-7.9,0-14.4-6.4-14.4-14.4 c0-7.9,6.4-14.4,14.4-14.4c8,0,14.4,6.4,14.4,14.4C196.5,300.2,192.5,305.5,186.8,307.5z M182.1,308.6c-8.1,0-14.7-6.6-14.7-14.7 c0-8.1,6.6-14.7,14.7-14.7c8.1,0,14.7,6.6,14.7,14.7c0,6.3-4,11.9-9.9,13.9l0,0C185.4,308.4,183.8,308.6,182.1,308.6z M182.1,279.9c-7.7,0-14,6.3-14,14s6.3,14,14,14c1.6,0,3.1-0.3,4.6-0.8h0c5.7-1.9,9.5-7.3,9.5-13.3 C196.2,286.2,189.9,279.9,182.1,279.9z"></path> <g> <g> <path class="st3" d="M199.6,320.7h-1.4c-0.2,0-0.3-0.2-0.3-0.3c0-0.2,0.2-0.3,0.3-0.3h1v-1c0-0.2,0.2-0.3,0.3-0.3 c0.2,0,0.3,0.2,0.3,0.3v1.4C199.9,320.6,199.8,320.7,199.6,320.7z"></path> </g> <g> <path class="st3" d="M195.2,320.7h-3c-0.2,0-0.3-0.2-0.3-0.3c0-0.2,0.2-0.3,0.3-0.3h3c0.2,0,0.3,0.2,0.3,0.3 C195.6,320.6,195.4,320.7,195.2,320.7z M189.3,320.7h-3c-0.2,0-0.3-0.2-0.3-0.3c0-0.2,0.2-0.3,0.3-0.3h3c0.2,0,0.3,0.2,0.3,0.3 C189.7,320.6,189.5,320.7,189.3,320.7z M183.4,320.7h-3c-0.2,0-0.3-0.2-0.3-0.3c0-0.2,0.2-0.3,0.3-0.3h3c0.2,0,0.3,0.2,0.3,0.3 C183.7,320.6,183.6,320.7,183.4,320.7z M177.5,320.7h-3c-0.2,0-0.3-0.2-0.3-0.3c0-0.2,0.2-0.3,0.3-0.3h3c0.2,0,0.3,0.2,0.3,0.3 C177.8,320.6,177.7,320.7,177.5,320.7z M171.5,320.7h-3c-0.2,0-0.3-0.2-0.3-0.3c0-0.2,0.2-0.3,0.3-0.3h3c0.2,0,0.3,0.2,0.3,0.3 C171.9,320.6,171.7,320.7,171.5,320.7z"></path> </g> <g> <path class="st3" d="M165.6,320.7h-1.4c-0.2,0-0.3-0.2-0.3-0.3V319c0-0.2,0.2-0.3,0.3-0.3c0.2,0,0.3,0.2,0.3,0.3v1h1 c0.2,0,0.3,0.2,0.3,0.3C166,320.6,165.8,320.7,165.6,320.7z"></path> </g> <g> <path class="st3" d="M164.2,317.4c-0.2,0-0.3-0.2-0.3-0.3v-1.4c0-0.2,0.2-0.3,0.3-0.3h1.4c0.2,0,0.3,0.2,0.3,0.3 c0,0.2-0.2,0.3-0.3,0.3h-1v1C164.6,317.2,164.4,317.4,164.2,317.4z"></path> </g> <g> <path class="st3" d="M195.2,316h-3c-0.2,0-0.3-0.2-0.3-0.3c0-0.2,0.2-0.3,0.3-0.3h3c0.2,0,0.3,0.2,0.3,0.3 C195.6,315.8,195.4,316,195.2,316z M189.3,316h-3c-0.2,0-0.3-0.2-0.3-0.3c0-0.2,0.2-0.3,0.3-0.3h3c0.2,0,0.3,0.2,0.3,0.3 C189.7,315.8,189.5,316,189.3,316z M183.4,316h-3c-0.2,0-0.3-0.2-0.3-0.3c0-0.2,0.2-0.3,0.3-0.3h3c0.2,0,0.3,0.2,0.3,0.3 C183.7,315.8,183.6,316,183.4,316z M177.5,316h-3c-0.2,0-0.3-0.2-0.3-0.3c0-0.2,0.2-0.3,0.3-0.3h3c0.2,0,0.3,0.2,0.3,0.3 C177.8,315.8,177.7,316,177.5,316z M171.5,316h-3c-0.2,0-0.3-0.2-0.3-0.3c0-0.2,0.2-0.3,0.3-0.3h3c0.2,0,0.3,0.2,0.3,0.3 C171.9,315.8,171.7,316,171.5,316z"></path> </g> <g> <path class="st3" d="M199.6,317.4c-0.2,0-0.3-0.2-0.3-0.3v-1h-1c-0.2,0-0.3-0.2-0.3-0.3c0-0.2,0.2-0.3,0.3-0.3h1.4 c0.2,0,0.3,0.2,0.3,0.3v1.4C199.9,317.2,199.8,317.4,199.6,317.4z"></path> </g> </g> <g> <g> <path class="st3" d="M253.4,352.6H252c-0.2,0-0.3-0.2-0.3-0.3c0-0.2,0.2-0.3,0.3-0.3h1v-1c0-0.2,0.2-0.3,0.3-0.3 c0.2,0,0.3,0.2,0.3,0.3v1.4C253.7,352.4,253.6,352.6,253.4,352.6z"></path> </g> <g> <path class="st3" d="M249.3,352.6h-2.7c-0.2,0-0.3-0.2-0.3-0.3c0-0.2,0.2-0.3,0.3-0.3h2.7c0.2,0,0.3,0.2,0.3,0.3 C249.6,352.4,249.5,352.6,249.3,352.6z M243.8,352.6H241c-0.2,0-0.3-0.2-0.3-0.3c0-0.2,0.2-0.3,0.3-0.3h2.7 c0.2,0,0.3,0.2,0.3,0.3C244.1,352.4,244,352.6,243.8,352.6z M238.3,352.6h-2.7c-0.2,0-0.3-0.2-0.3-0.3c0-0.2,0.2-0.3,0.3-0.3 h2.7c0.2,0,0.3,0.2,0.3,0.3C238.6,352.4,238.5,352.6,238.3,352.6z M232.8,352.6h-2.7c-0.2,0-0.3-0.2-0.3-0.3 c0-0.2,0.2-0.3,0.3-0.3h2.7c0.2,0,0.3,0.2,0.3,0.3C233.2,352.4,233,352.6,232.8,352.6z M227.3,352.6h-2.7 c-0.2,0-0.3-0.2-0.3-0.3c0-0.2,0.2-0.3,0.3-0.3h2.7c0.2,0,0.3,0.2,0.3,0.3C227.7,352.4,227.5,352.6,227.3,352.6z M221.8,352.6 h-2.7c-0.2,0-0.3-0.2-0.3-0.3c0-0.2,0.2-0.3,0.3-0.3h2.7c0.2,0,0.3,0.2,0.3,0.3C222.2,352.4,222,352.6,221.8,352.6z M216.3,352.6h-2.7c-0.2,0-0.3-0.2-0.3-0.3c0-0.2,0.2-0.3,0.3-0.3h2.7c0.2,0,0.3,0.2,0.3,0.3 C216.7,352.4,216.5,352.6,216.3,352.6z M210.9,352.6h-2.7c-0.2,0-0.3-0.2-0.3-0.3c0-0.2,0.2-0.3,0.3-0.3h2.7 c0.2,0,0.3,0.2,0.3,0.3C211.2,352.4,211,352.6,210.9,352.6z M205.4,352.6h-2.7c-0.2,0-0.3-0.2-0.3-0.3c0-0.2,0.2-0.3,0.3-0.3 h2.7c0.2,0,0.3,0.2,0.3,0.3C205.7,352.4,205.6,352.6,205.4,352.6z M199.9,352.6h-2.7c-0.2,0-0.3-0.2-0.3-0.3 c0-0.2,0.2-0.3,0.3-0.3h2.7c0.2,0,0.3,0.2,0.3,0.3C200.2,352.4,200.1,352.6,199.9,352.6z M194.4,352.6h-2.7 c-0.2,0-0.3-0.2-0.3-0.3c0-0.2,0.2-0.3,0.3-0.3h2.7c0.2,0,0.3,0.2,0.3,0.3C194.7,352.4,194.6,352.6,194.4,352.6z"></path> </g> <g> <path class="st3" d="M188.9,352.6h-1.4c-0.2,0-0.3-0.2-0.3-0.3v-1.4c0-0.2,0.2-0.3,0.3-0.3c0.2,0,0.3,0.2,0.3,0.3v1h1 c0.2,0,0.3,0.2,0.3,0.3C189.3,352.4,189.1,352.6,188.9,352.6z"></path> </g> <g> <path class="st3" d="M187.5,349.2c-0.2,0-0.3-0.2-0.3-0.3v-1.4c0-0.2,0.2-0.3,0.3-0.3h1.4c0.2,0,0.3,0.2,0.3,0.3 c0,0.2-0.2,0.3-0.3,0.3h-1v1C187.9,349.1,187.7,349.2,187.5,349.2z"></path> </g> <g> <path class="st3" d="M249.3,347.8h-2.7c-0.2,0-0.3-0.2-0.3-0.3c0-0.2,0.2-0.3,0.3-0.3h2.7c0.2,0,0.3,0.2,0.3,0.3 C249.6,347.7,249.5,347.8,249.3,347.8z M243.8,347.8H241c-0.2,0-0.3-0.2-0.3-0.3c0-0.2,0.2-0.3,0.3-0.3h2.7 c0.2,0,0.3,0.2,0.3,0.3C244.1,347.7,244,347.8,243.8,347.8z M238.3,347.8h-2.7c-0.2,0-0.3-0.2-0.3-0.3c0-0.2,0.2-0.3,0.3-0.3 h2.7c0.2,0,0.3,0.2,0.3,0.3C238.6,347.7,238.5,347.8,238.3,347.8z M232.8,347.8h-2.7c-0.2,0-0.3-0.2-0.3-0.3 c0-0.2,0.2-0.3,0.3-0.3h2.7c0.2,0,0.3,0.2,0.3,0.3C233.2,347.7,233,347.8,232.8,347.8z M227.3,347.8h-2.7 c-0.2,0-0.3-0.2-0.3-0.3c0-0.2,0.2-0.3,0.3-0.3h2.7c0.2,0,0.3,0.2,0.3,0.3C227.7,347.7,227.5,347.8,227.3,347.8z M221.8,347.8 h-2.7c-0.2,0-0.3-0.2-0.3-0.3c0-0.2,0.2-0.3,0.3-0.3h2.7c0.2,0,0.3,0.2,0.3,0.3C222.2,347.7,222,347.8,221.8,347.8z M216.3,347.8h-2.7c-0.2,0-0.3-0.2-0.3-0.3c0-0.2,0.2-0.3,0.3-0.3h2.7c0.2,0,0.3,0.2,0.3,0.3 C216.7,347.7,216.5,347.8,216.3,347.8z M210.9,347.8h-2.7c-0.2,0-0.3-0.2-0.3-0.3c0-0.2,0.2-0.3,0.3-0.3h2.7 c0.2,0,0.3,0.2,0.3,0.3C211.2,347.7,211,347.8,210.9,347.8z M205.4,347.8h-2.7c-0.2,0-0.3-0.2-0.3-0.3c0-0.2,0.2-0.3,0.3-0.3 h2.7c0.2,0,0.3,0.2,0.3,0.3C205.7,347.7,205.6,347.8,205.4,347.8z M199.9,347.8h-2.7c-0.2,0-0.3-0.2-0.3-0.3 c0-0.2,0.2-0.3,0.3-0.3h2.7c0.2,0,0.3,0.2,0.3,0.3C200.2,347.7,200.1,347.8,199.9,347.8z M194.4,347.8h-2.7 c-0.2,0-0.3-0.2-0.3-0.3c0-0.2,0.2-0.3,0.3-0.3h2.7c0.2,0,0.3,0.2,0.3,0.3C194.7,347.7,194.6,347.8,194.4,347.8z"></path> </g> <g> <path class="st3" d="M253.4,349.2c-0.2,0-0.3-0.2-0.3-0.3v-1h-1c-0.2,0-0.3-0.2-0.3-0.3c0-0.2,0.2-0.3,0.3-0.3h1.4 c0.2,0,0.3,0.2,0.3,0.3v1.4C253.7,349.1,253.6,349.2,253.4,349.2z"></path> </g> </g> <g> <g> <path class="st3" d="M206.4,341.7c-0.2,0-0.3-0.2-0.3-0.3v-1h-1c-0.2,0-0.3-0.2-0.3-0.3c0-0.2,0.2-0.3,0.3-0.3h1.4 c0.2,0,0.3,0.2,0.3,0.3v1.4C206.7,341.5,206.6,341.7,206.4,341.7z"></path> </g> <g> <path class="st3" d="M201.8,340.3h-3.2c-0.2,0-0.3-0.2-0.3-0.3c0-0.2,0.2-0.3,0.3-0.3h3.2c0.2,0,0.3,0.2,0.3,0.3 C202.1,340.2,202,340.3,201.8,340.3z M195.4,340.3h-3.2c-0.2,0-0.3-0.2-0.3-0.3c0-0.2,0.2-0.3,0.3-0.3h3.2 c0.2,0,0.3,0.2,0.3,0.3C195.7,340.2,195.5,340.3,195.4,340.3z"></path> </g> <g> <path class="st3" d="M187.5,341.7c-0.2,0-0.3-0.2-0.3-0.3V340c0-0.2,0.2-0.3,0.3-0.3h1.4c0.2,0,0.3,0.2,0.3,0.3 c0,0.2-0.2,0.3-0.3,0.3h-1v1C187.9,341.5,187.7,341.7,187.5,341.7z"></path> </g> <g> <path class="st3" d="M188.9,345.1h-1.4c-0.2,0-0.3-0.2-0.3-0.3v-1.4c0-0.2,0.2-0.3,0.3-0.3c0.2,0,0.3,0.2,0.3,0.3v1h1 c0.2,0,0.3,0.2,0.3,0.3C189.3,344.9,189.1,345.1,188.9,345.1z"></path> </g> <g> <path class="st3" d="M201.8,345.1h-3.2c-0.2,0-0.3-0.2-0.3-0.3c0-0.2,0.2-0.3,0.3-0.3h3.2c0.2,0,0.3,0.2,0.3,0.3 C202.1,344.9,202,345.1,201.8,345.1z M195.4,345.1h-3.2c-0.2,0-0.3-0.2-0.3-0.3c0-0.2,0.2-0.3,0.3-0.3h3.2 c0.2,0,0.3,0.2,0.3,0.3C195.7,344.9,195.5,345.1,195.4,345.1z"></path> </g> <g> <path class="st3" d="M206.4,345.1H205c-0.2,0-0.3-0.2-0.3-0.3c0-0.2,0.2-0.3,0.3-0.3h1v-1c0-0.2,0.2-0.3,0.3-0.3 c0.2,0,0.3,0.2,0.3,0.3v1.4C206.7,344.9,206.6,345.1,206.4,345.1z"></path> </g> </g> <g> <g> <path class="st3" d="M210.4,341.7c-0.2,0-0.3-0.2-0.3-0.3V340c0-0.2,0.2-0.3,0.3-0.3h1.4c0.2,0,0.3,0.2,0.3,0.3 c0,0.2-0.2,0.3-0.3,0.3h-1v1C210.7,341.5,210.6,341.7,210.4,341.7z"></path> </g> <g> <path class="st3" d="M211.7,345.1h-1.4c-0.2,0-0.3-0.2-0.3-0.3v-1.4c0-0.2,0.2-0.3,0.3-0.3c0.2,0,0.3,0.2,0.3,0.3v1h1 c0.2,0,0.3,0.2,0.3,0.3C212.1,344.9,211.9,345.1,211.7,345.1z"></path> </g> <g> <path class="st3" d="M231.2,345.1h-2.4c-0.2,0-0.3-0.2-0.3-0.3c0-0.2,0.2-0.3,0.3-0.3h2.4c0.2,0,0.3,0.2,0.3,0.3 C231.6,344.9,231.4,345.1,231.2,345.1z M226.3,345.1h-2.4c-0.2,0-0.3-0.2-0.3-0.3c0-0.2,0.2-0.3,0.3-0.3h2.4 c0.2,0,0.3,0.2,0.3,0.3C226.7,344.9,226.5,345.1,226.3,345.1z M221.5,345.1H219c-0.2,0-0.3-0.2-0.3-0.3c0-0.2,0.2-0.3,0.3-0.3 h2.4c0.2,0,0.3,0.2,0.3,0.3C221.8,344.9,221.7,345.1,221.5,345.1z M216.6,345.1h-2.4c-0.2,0-0.3-0.2-0.3-0.3 c0-0.2,0.2-0.3,0.3-0.3h2.4c0.2,0,0.3,0.2,0.3,0.3C217,344.9,216.8,345.1,216.6,345.1z"></path> </g> <g> <path class="st3" d="M235,345.1h-1.4c-0.2,0-0.3-0.2-0.3-0.3c0-0.2,0.2-0.3,0.3-0.3h1v-1c0-0.2,0.2-0.3,0.3-0.3 c0.2,0,0.3,0.2,0.3,0.3v1.4C235.4,344.9,235.2,345.1,235,345.1z"></path> </g> <g> <path class="st3" d="M235,341.7c-0.2,0-0.3-0.2-0.3-0.3v-1h-1c-0.2,0-0.3-0.2-0.3-0.3c0-0.2,0.2-0.3,0.3-0.3h1.4 c0.2,0,0.3,0.2,0.3,0.3v1.4C235.4,341.5,235.2,341.7,235,341.7z"></path> </g> <g> <path class="st3" d="M231.2,340.3h-2.4c-0.2,0-0.3-0.2-0.3-0.3c0-0.2,0.2-0.3,0.3-0.3h2.4c0.2,0,0.3,0.2,0.3,0.3 C231.6,340.2,231.4,340.3,231.2,340.3z M226.3,340.3h-2.4c-0.2,0-0.3-0.2-0.3-0.3c0-0.2,0.2-0.3,0.3-0.3h2.4 c0.2,0,0.3,0.2,0.3,0.3C226.7,340.2,226.5,340.3,226.3,340.3z M221.5,340.3H219c-0.2,0-0.3-0.2-0.3-0.3c0-0.2,0.2-0.3,0.3-0.3 h2.4c0.2,0,0.3,0.2,0.3,0.3C221.8,340.2,221.7,340.3,221.5,340.3z M216.6,340.3h-2.4c-0.2,0-0.3-0.2-0.3-0.3 c0-0.2,0.2-0.3,0.3-0.3h2.4c0.2,0,0.3,0.2,0.3,0.3C217,340.2,216.8,340.3,216.6,340.3z"></path> </g> </g> <g> <g> <path class="st3" d="M246.9,320.7h-1.4c-0.2,0-0.3-0.2-0.3-0.3c0-0.2,0.2-0.3,0.3-0.3h0.9c-0.1-0.3-0.2-0.5-0.3-0.8 c-0.1-0.2,0-0.4,0.2-0.4c0.2-0.1,0.4,0,0.4,0.2c0.2,0.4,0.3,0.9,0.5,1.3c0,0.1,0,0.2,0,0.3C247.1,320.7,247,320.7,246.9,320.7z"></path> </g> <g> <path class="st3" d="M242.9,320.7h-2.6c-0.2,0-0.3-0.2-0.3-0.3c0-0.2,0.2-0.3,0.3-0.3h2.6c0.2,0,0.3,0.2,0.3,0.3 C243.2,320.6,243.1,320.7,242.9,320.7z M237.6,320.7H235c-0.2,0-0.3-0.2-0.3-0.3c0-0.2,0.2-0.3,0.3-0.3h2.6 c0.2,0,0.3,0.2,0.3,0.3C238,320.6,237.8,320.7,237.6,320.7z M232.3,320.7h-2.6c-0.2,0-0.3-0.2-0.3-0.3c0-0.2,0.2-0.3,0.3-0.3 h2.6c0.2,0,0.3,0.2,0.3,0.3C232.7,320.6,232.5,320.7,232.3,320.7z M227,320.7h-2.6c-0.2,0-0.3-0.2-0.3-0.3 c0-0.2,0.2-0.3,0.3-0.3h2.6c0.2,0,0.3,0.2,0.3,0.3C227.4,320.6,227.2,320.7,227,320.7z M221.7,320.7h-2.6 c-0.2,0-0.3-0.2-0.3-0.3c0-0.2,0.2-0.3,0.3-0.3h2.6c0.2,0,0.3,0.2,0.3,0.3C222.1,320.6,221.9,320.7,221.7,320.7z"></path> </g> <g> <path class="st3" d="M216.4,320.7h-1.4c-0.2,0-0.3-0.2-0.3-0.3V319c0-0.2,0.2-0.3,0.3-0.3c0.2,0,0.3,0.2,0.3,0.3v1h1 c0.2,0,0.3,0.2,0.3,0.3C216.8,320.6,216.6,320.7,216.4,320.7z"></path> </g> <g> <path class="st3" d="M215.1,317.4c-0.2,0-0.3-0.2-0.3-0.3v-1.4c0-0.2,0.2-0.3,0.3-0.3h1.4c0.2,0,0.3,0.2,0.3,0.3 c0,0.2-0.2,0.3-0.3,0.3h-1v1C215.4,317.2,215.3,317.4,215.1,317.4z"></path> </g> <g> <path class="st3" d="M240.6,316h-3c-0.2,0-0.3-0.2-0.3-0.3c0-0.2,0.2-0.3,0.3-0.3h3c0.2,0,0.3,0.2,0.3,0.3 C240.9,315.8,240.8,316,240.6,316z M234.5,316h-3c-0.2,0-0.3-0.2-0.3-0.3c0-0.2,0.2-0.3,0.3-0.3h3c0.2,0,0.3,0.2,0.3,0.3 C234.9,315.8,234.7,316,234.5,316z M228.5,316h-3c-0.2,0-0.3-0.2-0.3-0.3c0-0.2,0.2-0.3,0.3-0.3h3c0.2,0,0.3,0.2,0.3,0.3 C228.9,315.8,228.7,316,228.5,316z M222.5,316h-3c-0.2,0-0.3-0.2-0.3-0.3c0-0.2,0.2-0.3,0.3-0.3h3c0.2,0,0.3,0.2,0.3,0.3 C222.8,315.8,222.7,316,222.5,316z"></path> </g> <g> <path class="st3" d="M245.5,317.3c-0.1,0-0.3-0.1-0.3-0.2c-0.1-0.4-0.3-0.7-0.5-1.1h-1.2c-0.2,0-0.3-0.2-0.3-0.3 c0-0.2,0.2-0.3,0.3-0.3h1.4c0.1,0,0.3,0.1,0.3,0.2c0.2,0.4,0.4,0.8,0.6,1.3c0.1,0.2,0,0.4-0.2,0.5 C245.6,317.3,245.5,317.3,245.5,317.3z"></path> </g> </g> <g> <g> <path class="st3" d="M223.2,85.7h-1.4c-0.2,0-0.3-0.2-0.3-0.3c0-0.2,0.2-0.3,0.3-0.3h0.7c-0.1-0.2-0.3-0.4-0.4-0.6 c-0.1-0.2-0.1-0.4,0.1-0.5c0.2-0.1,0.4-0.1,0.5,0.1c0.3,0.4,0.5,0.8,0.8,1.1c0.1,0.1,0.1,0.2,0,0.4 C223.5,85.6,223.4,85.7,223.2,85.7z"></path> </g> <g> <path class="st3" d="M219.4,85.7H217c-0.2,0-0.3-0.2-0.3-0.3c0-0.2,0.2-0.3,0.3-0.3h2.4c0.2,0,0.3,0.2,0.3,0.3 C219.8,85.5,219.6,85.7,219.4,85.7z M214.5,85.7h-2.4c-0.2,0-0.3-0.2-0.3-0.3c0-0.2,0.2-0.3,0.3-0.3h2.4c0.2,0,0.3,0.2,0.3,0.3 C214.9,85.5,214.7,85.7,214.5,85.7z M209.7,85.7h-2.4c-0.2,0-0.3-0.2-0.3-0.3c0-0.2,0.2-0.3,0.3-0.3h2.4c0.2,0,0.3,0.2,0.3,0.3 C210,85.5,209.8,85.7,209.7,85.7z"></path> </g> <g> <path class="st3" d="M204.8,85.7h-1.4c-0.2,0-0.3-0.2-0.3-0.3V84c0-0.2,0.2-0.3,0.3-0.3s0.3,0.2,0.3,0.3v1h1 c0.2,0,0.3,0.2,0.3,0.3C205.1,85.5,205,85.7,204.8,85.7z"></path> </g> <g> <path class="st3" d="M203.4,81.3c-0.2,0-0.3-0.2-0.3-0.3v-1.4c0-0.2,0.2-0.3,0.3-0.3h1.4c0.2,0,0.3,0.2,0.3,0.3 c0,0.2-0.2,0.3-0.3,0.3h-1v1C203.7,81.2,203.6,81.3,203.4,81.3z"></path> </g> <g> <path class="st3" d="M215.7,79.9H213c-0.2,0-0.3-0.2-0.3-0.3c0-0.2,0.2-0.3,0.3-0.3h2.7c0.2,0,0.3,0.2,0.3,0.3 C216.1,79.8,215.9,79.9,215.7,79.9z M210.3,79.9h-2.7c-0.2,0-0.3-0.2-0.3-0.3c0-0.2,0.2-0.3,0.3-0.3h2.7c0.2,0,0.3,0.2,0.3,0.3 C210.6,79.8,210.4,79.9,210.3,79.9z"></path> </g> <g> <path class="st3" d="M220.5,81.2c-0.1,0-0.2-0.1-0.3-0.2c-0.2-0.3-0.3-0.7-0.5-1.1h-1.2c-0.2,0-0.3-0.2-0.3-0.3 c0-0.2,0.2-0.3,0.3-0.3h1.4c0.1,0,0.3,0.1,0.3,0.2c0.2,0.4,0.4,0.8,0.6,1.2c0.1,0.2,0,0.4-0.2,0.5 C220.6,81.2,220.5,81.2,220.5,81.2z"></path> </g> </g> <g> <g> <path class="st3" d="M233.1,94.4h-1.4c-0.2,0-0.3-0.2-0.3-0.3c0-0.2,0.2-0.3,0.3-0.3h0.2c0,0-0.1-0.1-0.1-0.1 c-0.2-0.1-0.2-0.3-0.1-0.5c0.1-0.2,0.3-0.2,0.5-0.1c0.4,0.2,0.8,0.5,1.2,0.7c0.1,0.1,0.2,0.2,0.2,0.4 C233.4,94.3,233.2,94.4,233.1,94.4z"></path> </g> <g> <path class="st3" d="M229.3,94.4h-2.4c-0.2,0-0.3-0.2-0.3-0.3c0-0.2,0.2-0.3,0.3-0.3h2.4c0.2,0,0.3,0.2,0.3,0.3 C229.6,94.3,229.5,94.4,229.3,94.4z M224.5,94.4h-2.4c-0.2,0-0.3-0.2-0.3-0.3c0-0.2,0.2-0.3,0.3-0.3h2.4c0.2,0,0.3,0.2,0.3,0.3 C224.9,94.3,224.7,94.4,224.5,94.4z M219.7,94.4h-2.4c-0.2,0-0.3-0.2-0.3-0.3c0-0.2,0.2-0.3,0.3-0.3h2.4c0.2,0,0.3,0.2,0.3,0.3 C220.1,94.3,219.9,94.4,219.7,94.4z"></path> </g> <g> <path class="st3" d="M214.9,94.4h-1.4c-0.2,0-0.3-0.2-0.3-0.3v-1.4c0-0.2,0.2-0.3,0.3-0.3c0.2,0,0.3,0.2,0.3,0.3v1h1 c0.2,0,0.3,0.2,0.3,0.3C215.3,94.3,215.1,94.4,214.9,94.4z"></path> </g> <g> <path class="st3" d="M213.5,90c-0.2,0-0.3-0.2-0.3-0.3v-1.4c0-0.2,0.2-0.3,0.3-0.3h1.4c0.2,0,0.3,0.2,0.3,0.3 c0,0.2-0.2,0.3-0.3,0.3h-1v1C213.9,89.9,213.7,90,213.5,90z"></path> </g> <g> <path class="st3" d="M221.2,88.7h-3.1c-0.2,0-0.3-0.2-0.3-0.3c0-0.2,0.2-0.3,0.3-0.3h3.1c0.2,0,0.3,0.2,0.3,0.3 C221.6,88.5,221.4,88.7,221.2,88.7z"></path> </g> <g> <path class="st3" d="M226.7,89.6c-0.1,0-0.2,0-0.2-0.1c-0.3-0.3-0.6-0.6-0.9-0.9h-1.2c-0.2,0-0.3-0.2-0.3-0.3 c0-0.2,0.2-0.3,0.3-0.3h1.4c0.1,0,0.2,0,0.2,0.1c0.3,0.3,0.6,0.7,1,1c0.1,0.1,0.1,0.4,0,0.5C226.9,89.6,226.8,89.6,226.7,89.6z"></path> </g> <g> <path class="st3" d="M230.1,92.5c-0.1,0-0.1,0-0.2-0.1c-0.6-0.4-1.2-0.9-1.8-1.4c-0.1-0.1-0.2-0.3,0-0.5c0.1-0.1,0.3-0.2,0.5,0 c0.5,0.5,1.1,0.9,1.7,1.3c0.2,0.1,0.2,0.3,0.1,0.5C230.3,92.4,230.2,92.5,230.1,92.5z"></path> </g> </g> <g> <g> <path class="st3" d="M198.3,111.9h-1.4c-0.2,0-0.3-0.2-0.3-0.3s0.2-0.3,0.3-0.3h1v-1c0-0.2,0.2-0.3,0.3-0.3 c0.2,0,0.3,0.2,0.3,0.3v1.4C198.7,111.7,198.5,111.9,198.3,111.9z"></path> </g> <g> <path class="st3" d="M194.2,111.9h-2.7c-0.2,0-0.3-0.2-0.3-0.3s0.2-0.3,0.3-0.3h2.7c0.2,0,0.3,0.2,0.3,0.3 S194.4,111.9,194.2,111.9z M188.8,111.9H186c-0.2,0-0.3-0.2-0.3-0.3s0.2-0.3,0.3-0.3h2.7c0.2,0,0.3,0.2,0.3,0.3 S189,111.9,188.8,111.9z M183.3,111.9h-2.7c-0.2,0-0.3-0.2-0.3-0.3s0.2-0.3,0.3-0.3h2.7c0.2,0,0.3,0.2,0.3,0.3 S183.5,111.9,183.3,111.9z M177.9,111.9h-2.7c-0.2,0-0.3-0.2-0.3-0.3s0.2-0.3,0.3-0.3h2.7c0.2,0,0.3,0.2,0.3,0.3 S178,111.9,177.9,111.9z M172.4,111.9h-2.7c-0.2,0-0.3-0.2-0.3-0.3s0.2-0.3,0.3-0.3h2.7c0.2,0,0.3,0.2,0.3,0.3 S172.6,111.9,172.4,111.9z M166.9,111.9h-2.7c-0.2,0-0.3-0.2-0.3-0.3s0.2-0.3,0.3-0.3h2.7c0.2,0,0.3,0.2,0.3,0.3 S167.1,111.9,166.9,111.9z"></path> </g> <g> <path class="st3" d="M161.5,111.9h-1.4c-0.2,0-0.3-0.2-0.3-0.3v-1.4c0-0.2,0.2-0.3,0.3-0.3c0.2,0,0.3,0.2,0.3,0.3v1h1 c0.2,0,0.3,0.2,0.3,0.3S161.7,111.9,161.5,111.9z"></path> </g> <g> <path class="st3" d="M160.1,107.5c-0.2,0-0.3-0.2-0.3-0.3v-1.4c0-0.2,0.2-0.3,0.3-0.3h1.4c0.2,0,0.3,0.2,0.3,0.3 s-0.2,0.3-0.3,0.3h-1v1C160.4,107.3,160.3,107.5,160.1,107.5z"></path> </g> <g> <path class="st3" d="M194.2,106.1h-2.7c-0.2,0-0.3-0.2-0.3-0.3s0.2-0.3,0.3-0.3h2.7c0.2,0,0.3,0.2,0.3,0.3 S194.4,106.1,194.2,106.1z M188.8,106.1H186c-0.2,0-0.3-0.2-0.3-0.3s0.2-0.3,0.3-0.3h2.7c0.2,0,0.3,0.2,0.3,0.3 S189,106.1,188.8,106.1z M183.3,106.1h-2.7c-0.2,0-0.3-0.2-0.3-0.3s0.2-0.3,0.3-0.3h2.7c0.2,0,0.3,0.2,0.3,0.3 S183.5,106.1,183.3,106.1z M177.9,106.1h-2.7c-0.2,0-0.3-0.2-0.3-0.3s0.2-0.3,0.3-0.3h2.7c0.2,0,0.3,0.2,0.3,0.3 S178,106.1,177.9,106.1z M172.4,106.1h-2.7c-0.2,0-0.3-0.2-0.3-0.3s0.2-0.3,0.3-0.3h2.7c0.2,0,0.3,0.2,0.3,0.3 S172.6,106.1,172.4,106.1z M166.9,106.1h-2.7c-0.2,0-0.3-0.2-0.3-0.3s0.2-0.3,0.3-0.3h2.7c0.2,0,0.3,0.2,0.3,0.3 S167.1,106.1,166.9,106.1z"></path> </g> <g> <path class="st3" d="M198.3,107.5c-0.2,0-0.3-0.2-0.3-0.3v-1h-1c-0.2,0-0.3-0.2-0.3-0.3s0.2-0.3,0.3-0.3h1.4 c0.2,0,0.3,0.2,0.3,0.3v1.4C198.7,107.3,198.5,107.5,198.3,107.5z"></path> </g> </g> <g> <path class="st7" d="M161.2,267.3h53c-5.3-8-9.2-16.5-10.3-27.6c-0.4-4.1-0.5-8.5-0.1-13.4c0.3-3.2,0.7-6.2,1.2-9 c-0.3-0.2-0.7-0.5-1-0.8c-0.3-0.3-0.9-0.1-1,0.3c-0.6,2.3-1,4.7-2.1,6.8c-1,1.8-2.5-8.6-4.4-8c-1.9,0.6-4.1,0.2-5.5-1.3 c-0.6-0.6-1-1.4-1.6-2c-3.8-3.8-6.2,7.5-6.9,9.7c-1.2,3.7-3.9,7.5-7.6,7.5c-1.8,0-3.7-1-5.4-0.2c-1.1,0.6-1.7,1.8-2.2,3 c-2.3,5.1-4.3,10.3-6.4,15.5V267.3z"></path> <path class="st3" d="M214.8,267.6h-54l0-20c0.5-1.2,1-2.5,1.5-3.7c1.6-3.9,3.2-7.9,4.9-11.8c0.5-1.1,1.1-2.5,2.4-3.2 c1.2-0.6,2.4-0.4,3.7-0.1c0.6,0.1,1.2,0.2,1.8,0.2c0,0,0,0,0,0c3.5,0,6-3.7,7.2-7.3c0.1-0.3,0.2-0.8,0.4-1.3 c0.9-3,2.4-8.6,4.9-9.3c0.7-0.2,1.5,0.1,2.2,0.8c0.4,0.4,0.6,0.7,0.9,1.1c0.2,0.3,0.4,0.6,0.7,0.9c1.2,1.3,3.2,1.8,5.1,1.2 c0.2-0.1,0.5-0.1,0.7,0.1c0.9,0.5,1.6,2.4,2.4,5.1c0.3,1.1,0.8,2.5,1.1,2.9c0.8-1.5,1.2-3.2,1.6-4.9c0.1-0.6,0.3-1.2,0.4-1.7 c0.1-0.4,0.4-0.6,0.7-0.7c0.3-0.1,0.7,0,0.9,0.2c0.3,0.2,0.6,0.5,0.9,0.8l0.2,0.1l0,0.2c-0.6,2.9-1,5.9-1.2,8.9 c-0.4,4.8-0.4,9.2,0.1,13.4c1,9.8,4.1,18.2,10.2,27.5L214.8,267.6z M161.5,266.9h52c-5.9-9.1-9-17.6-10-27.3 c-0.4-4.2-0.5-8.6-0.1-13.5c0.2-3,0.6-5.9,1.2-8.8c-0.3-0.2-0.6-0.5-0.8-0.7c-0.1-0.1-0.2-0.1-0.2-0.1c-0.1,0-0.2,0.1-0.2,0.2 c-0.1,0.6-0.3,1.1-0.4,1.7c-0.4,1.7-0.8,3.6-1.7,5.1c-0.2,0.4-0.4,0.4-0.6,0.4c-0.6-0.1-0.9-0.9-1.7-3.5 c-0.6-1.8-1.4-4.3-2.1-4.7c-0.1,0-0.1,0-0.2,0c-2.1,0.7-4.5,0.1-5.8-1.4c-0.3-0.3-0.5-0.6-0.7-0.9c-0.3-0.4-0.5-0.7-0.8-1 c-0.5-0.5-1.1-0.8-1.6-0.6c-2,0.5-3.6,6.1-4.4,8.8c-0.2,0.6-0.3,1.1-0.4,1.4c-1.3,3.7-4,7.7-7.8,7.7c0,0,0,0,0,0 c-0.7,0-1.3-0.1-2-0.3c-1.2-0.2-2.3-0.4-3.2,0.1c-1,0.5-1.5,1.6-2.1,2.8c-1.7,3.9-3.3,7.9-4.9,11.7c-0.5,1.2-1,2.4-1.5,3.6V266.9 z"></path> </g> <g> <path class="st5" d="M161.2,267.3h53c-5.3-8-9.2-16.5-10.3-27.6c-3.2-0.7-5.6-4.4-6.8-6.9c-2.2-4.2-4.3-8.5-6.5-12.8 c-0.8-1.6-3.5-1.6-4.3,0c-1.8,3.3-3.4,6.7-5,10.1c-1.1,2.5-3.5,8.8-7.9,8.1c-2.7-0.4-3.4-5.2-6.1-1.7c-2.8,3.7-4.6,7.6-6.1,11.6 V267.3z"></path> <path class="st3" d="M214.8,267.6h-54l0-19.8c1.2-3.3,3.1-7.6,6.1-11.7c0.7-0.9,1.3-1.4,2-1.4c0,0,0.1,0,0.1,0 c0.8,0,1.4,0.7,2.1,1.4c0.7,0.7,1.3,1.4,2.3,1.6c3.8,0.6,6-4.5,7.2-7.2c0.1-0.2,0.2-0.5,0.3-0.7c1.7-3.8,3.3-7.1,5-10.1 c0.4-0.8,1.4-1.3,2.4-1.3c0,0,0,0,0,0c1.1,0,2,0.5,2.5,1.4c1,1.9,2,3.9,3,5.8c1.2,2.3,2.3,4.6,3.6,7c2.1,4,4.3,6.2,6.6,6.7 l0.2,0.1l0,0.3c1,9.8,4.1,18.2,10.2,27.5L214.8,267.6z M161.5,266.9h52c-5.9-9-9-17.4-10-27c-2.5-0.6-4.7-2.9-6.8-7 c-1.2-2.3-2.4-4.6-3.6-7c-1-1.9-2-3.9-3-5.8c-0.3-0.6-1-1-1.9-1c0,0,0,0,0,0c-0.8,0-1.5,0.4-1.8,1c-1.6,3-3.2,6.2-5,10 c-0.1,0.2-0.2,0.4-0.3,0.7c-1.3,2.9-3.7,8.3-7.9,7.6c-1.1-0.2-1.9-1-2.7-1.8c-0.6-0.6-1.1-1.2-1.6-1.2c-0.4,0-0.9,0.4-1.5,1.2 c-3,4-4.8,8.2-6,11.4V266.9z"></path> </g> <path class="st6" d="M295.3,267.3h-0.1c0,0,0-0.5-0.1-1.4C295.2,266.8,295.3,267.3,295.3,267.3z"></path> <g> <g> <path class="st5" d="M222.4,279.9c-0.2,0.1-0.4,0.3-0.6,0.4c-0.3,0.3-0.6,0.5-0.9,0.8c-0.3,0.3-0.6,0.6-0.9,0.9 c-1.5,1.6-2.6,3.4-3.4,5.4c-0.8,2-1.3,4.2-1.3,6.5c0,9.6,7.8,17.4,17.4,17.4c3.3,0,6.4-0.9,9-2.5c-0.5-0.9-1-1.8-1.4-2.7 c-2.2,1.4-4.8,2.1-7.5,2.1c-7.9,0-14.4-6.4-14.4-14.4c0-3.8,1.5-7.2,3.8-9.8c0.6-0.7,1.3-1.3,2-1.8L222.4,279.9z"></path> <path class="st3" d="M232.8,311.7c-9.8,0-17.8-8-17.8-17.8c0-2.3,0.4-4.5,1.3-6.6c0.8-2,2-3.9,3.5-5.5c0.3-0.3,0.6-0.6,0.9-0.9 c0.3-0.3,0.6-0.6,0.9-0.8c0.2-0.2,0.4-0.3,0.6-0.4l0.4,0.6c-0.2,0.1-0.4,0.3-0.5,0.4c-0.3,0.3-0.6,0.5-0.9,0.8 c-0.3,0.3-0.6,0.5-0.8,0.8c-1.5,1.5-2.6,3.3-3.4,5.3c-0.8,2.1-1.2,4.2-1.2,6.4c0,9.4,7.7,17.1,17.1,17.1c3,0,6-0.8,8.5-2.3 l-0.2-0.3c-0.3-0.6-0.6-1.2-1-1.8c-2.2,1.3-4.8,2-7.4,2c-8.1,0-14.7-6.6-14.7-14.7c0-3.7,1.4-7.3,3.9-10c0.6-0.6,1.3-1.3,2-1.8 l0.4,0.6c-0.7,0.6-1.4,1.1-2,1.7c-2.4,2.6-3.7,6-3.7,9.5c0,7.7,6.3,14,14,14c2.6,0,5.1-0.7,7.4-2.1l0.3-0.2l0.2,0.3 c0.4,0.7,0.8,1.4,1.1,2.1l0.5,0.9l-0.3,0.2C239.2,310.8,236,311.7,232.8,311.7z"></path> </g> <g> <path class="st7" d="M224.2,282.3c-0.7,0.5-1.4,1.1-2,1.8L220,282c0.3-0.3,0.6-0.6,0.9-0.9c0.3-0.3,0.6-0.5,0.9-0.8 c0.2-0.2,0.4-0.3,0.6-0.4L224.2,282.3z"></path> <path class="st3" d="M222.2,284.6l-2.7-2.6l0.2-0.2c0.3-0.3,0.6-0.6,0.9-0.9c0.3-0.3,0.6-0.6,0.9-0.8c0.2-0.2,0.4-0.3,0.6-0.4 l0.4,0.6c-0.2,0.1-0.4,0.3-0.5,0.4c-0.3,0.3-0.6,0.5-0.9,0.8c-0.2,0.2-0.4,0.4-0.6,0.6l1.7,1.6c0.5-0.5,1.1-1.1,1.8-1.6l0.4,0.6 c-0.7,0.6-1.4,1.1-2,1.7L222.2,284.6z"></path> </g> </g> <g> <path class="st7" d="M187.5,310.5c-7.8,2.6-16.6-0.9-20.6-8.1c-3.8-6.7-2.5-15.4,2.9-20.8c3.2-3.2,7.7-5.1,12.3-5.1v3.1 c-6.4,0-12.2,4.5-13.9,10.7c-1.7,6.3,1.3,13.2,7,16.3c3.5,1.9,7.8,2.3,11.6,1L187.5,310.5z"></path> <path class="st3" d="M182.3,311.7c-6.3,0-12.5-3.4-15.7-9.1c-3.8-6.8-2.6-15.7,3-21.2c3.3-3.3,7.9-5.2,12.6-5.2h0.3v3.8h-0.3 c-6.3,0-12,4.4-13.6,10.4c-1.6,6.2,1.2,12.9,6.8,15.9c3.5,1.9,7.6,2.2,11.3,0.9l0.4-0.1l0.8,3.7l-0.3,0.1 C185.9,311.4,184.1,311.7,182.3,311.7z M181.8,276.8c-4.4,0.1-8.6,1.9-11.7,5c-5.3,5.3-6.5,13.9-2.9,20.4c3.9,7,12.4,10.4,19.9,8 l-0.5-2.3c-3.8,1.2-8,0.8-11.5-1.1c-5.9-3.2-8.9-10.2-7.2-16.7c1.7-6.2,7.5-10.8,13.9-10.9V276.8z"></path> </g> <g> <g> <circle class="st7" cx="170.7" cy="344.6" r="9.7"></circle> <path class="st3" d="M170.7,354.7c-5.5,0-10.1-4.5-10.1-10.1c0-5.5,4.5-10.1,10.1-10.1c5.5,0,10.1,4.5,10.1,10.1 C180.7,350.2,176.2,354.7,170.7,354.7z M170.7,335.3c-5.2,0-9.4,4.2-9.4,9.4c0,5.2,4.2,9.4,9.4,9.4c5.2,0,9.4-4.2,9.4-9.4 C180,339.5,175.8,335.3,170.7,335.3z"></path> </g> <path class="st3" d="M175.1,348.9c-0.3,0-0.5-0.2-0.5-0.5v-7.2c0-0.5-0.4-0.8-0.8-0.8h-7.1c-0.3,0-0.5-0.2-0.5-0.5 c0-0.3,0.2-0.5,0.5-0.5h7.1c1,0,1.8,0.8,1.8,1.8v7.2C175.6,348.6,175.4,348.9,175.1,348.9z"></path> <path class="st3" d="M167.5,349.9c-1,0-1.8-0.8-1.8-1.8v-6.8c0-0.3,0.2-0.5,0.5-0.5c0.3,0,0.5,0.2,0.5,0.5v6.8 c0,0.5,0.4,0.8,0.8,0.8h7.1c0.3,0,0.5,0.2,0.5,0.5c0,0.3-0.2,0.5-0.5,0.5H167.5z"></path> <path class="st3" d="M164.4,344l-0.2-0.1c-0.1-0.1-0.2-0.2-0.2-0.3c0-0.1,0-0.3,0.1-0.4l1.7-2.3c0.1-0.1,0.2-0.2,0.4-0.2 c0.2,0,0.3,0.1,0.4,0.2l1.7,2.3c0.1,0.1,0.1,0.2,0.1,0.4c0,0.1-0.1,0.2-0.2,0.3l-0.1,0.1l-0.2,0c-0.2,0-0.3-0.1-0.4-0.2l-1.3-1.8 l-1.3,1.8C164.8,343.9,164.7,344,164.4,344L164.4,344z"></path> <path class="st3" d="M175.1,348.9c-0.2,0-0.3-0.1-0.4-0.2l-1.7-2.3c-0.2-0.2-0.1-0.5,0.1-0.7l0.1-0.1l0.2,0 c0.2,0,0.3,0.1,0.4,0.2l1.3,1.8l1.3-1.8c0.1-0.1,0.2-0.2,0.4-0.2h0.1l0.2,0.1c0.1,0.1,0.2,0.2,0.2,0.3c0,0.1,0,0.3-0.1,0.4 l-1.7,2.3C175.4,348.8,175.3,348.9,175.1,348.9z"></path> </g> <g> <rect x="149.4" y="127" class="st3" width="122.1" height="0.7"></rect> </g> <g> <g> <path class="st3" d="M190.6,169.8h-2.1c-0.2,0-0.4-0.2-0.4-0.4c0-0.2,0.2-0.4,0.4-0.4h2.1c0.2,0,0.4,0.2,0.4,0.4 C191,169.6,190.8,169.8,190.6,169.8z M185.5,169.8h-2.1c-0.2,0-0.4-0.2-0.4-0.4c0-0.2,0.2-0.4,0.4-0.4h2.1 c0.2,0,0.4,0.2,0.4,0.4C185.9,169.6,185.7,169.8,185.5,169.8z M180.3,169.8h-2.1c-0.2,0-0.4-0.2-0.4-0.4c0-0.2,0.2-0.4,0.4-0.4 h2.1c0.2,0,0.4,0.2,0.4,0.4C180.7,169.6,180.5,169.8,180.3,169.8z M175.2,169.8h-2.1c-0.2,0-0.4-0.2-0.4-0.4 c0-0.2,0.2-0.4,0.4-0.4h2.1c0.2,0,0.4,0.2,0.4,0.4C175.6,169.6,175.4,169.8,175.2,169.8z M170.1,169.8H168 c-0.6,0-1.1-0.2-1.5-0.6c-0.1-0.1-0.1-0.4,0-0.5c0.1-0.1,0.4-0.1,0.5,0c0.3,0.3,0.6,0.4,1,0.4h2.1c0.2,0,0.4,0.2,0.4,0.4 C170.4,169.6,170.3,169.8,170.1,169.8z M193.6,169.3c-0.1,0-0.2,0-0.3-0.1c-0.1-0.1-0.1-0.4,0-0.5c0.3-0.3,0.5-0.7,0.5-1.1v-0.5 c0-0.2,0.2-0.4,0.4-0.4c0.2,0,0.4,0.2,0.4,0.4v0.5c0,0.6-0.3,1.2-0.7,1.6C193.8,169.3,193.7,169.3,193.6,169.3z M166.2,166.3 c-0.2,0-0.4-0.2-0.4-0.4v-2.1c0-0.2,0.2-0.4,0.4-0.4c0.2,0,0.4,0.2,0.4,0.4v2.1C166.5,166.2,166.4,166.3,166.2,166.3z M194.2,164.4c-0.2,0-0.4-0.2-0.4-0.4v-2.1c0-0.2,0.2-0.4,0.4-0.4c0.2,0,0.4,0.2,0.4,0.4v2.1 C194.6,164.2,194.4,164.4,194.2,164.4z M166.2,161.2c-0.2,0-0.4-0.2-0.4-0.4v-2.1c0-0.2,0.2-0.4,0.4-0.4c0.2,0,0.4,0.2,0.4,0.4 v2.1C166.5,161,166.4,161.2,166.2,161.2z M194.2,159.2c-0.2,0-0.4-0.2-0.4-0.4v-2.1c0-0.2,0.2-0.4,0.4-0.4 c0.2,0,0.4,0.2,0.4,0.4v2.1C194.6,159.1,194.4,159.2,194.2,159.2z M166.2,156c-0.2,0-0.4-0.2-0.4-0.4v-2.1 c0-0.2,0.2-0.4,0.4-0.4c0.2,0,0.4,0.2,0.4,0.4v2.1C166.5,155.9,166.4,156,166.2,156z M194.2,154.1c-0.2,0-0.4-0.2-0.4-0.4v-2.1 c0-0.2,0.2-0.4,0.4-0.4c0.2,0,0.4,0.2,0.4,0.4v2.1C194.6,153.9,194.4,154.1,194.2,154.1z M166.2,150.9c-0.2,0-0.4-0.2-0.4-0.4 v-2.1c0-0.2,0.2-0.4,0.4-0.4c0.2,0,0.4,0.2,0.4,0.4v2.1C166.5,150.7,166.4,150.9,166.2,150.9z M194.2,148.9 c-0.2,0-0.4-0.2-0.4-0.4v-2.1c0-0.2,0.2-0.4,0.4-0.4c0.2,0,0.4,0.2,0.4,0.4v2.1C194.6,148.8,194.4,148.9,194.2,148.9z M166.2,145.7c-0.2,0-0.4-0.2-0.4-0.4v-2.1c0-0.2,0.2-0.4,0.4-0.4c0.2,0,0.4,0.2,0.4,0.4v2.1 C166.5,145.6,166.4,145.7,166.2,145.7z M194.2,143.8c-0.2,0-0.4-0.2-0.4-0.4V143c0-0.4-0.2-0.9-0.6-1.1 c-0.2-0.1-0.2-0.3-0.1-0.5c0.1-0.2,0.3-0.2,0.5-0.1c0.5,0.4,0.8,1,0.8,1.7v0.4C194.6,143.6,194.4,143.8,194.2,143.8z M190.6,141.5h-2.1c-0.2,0-0.4-0.2-0.4-0.4s0.2-0.4,0.4-0.4h2.1c0.2,0,0.4,0.2,0.4,0.4S190.8,141.5,190.6,141.5z M185.4,141.5 h-2.1c-0.2,0-0.4-0.2-0.4-0.4s0.2-0.4,0.4-0.4h2.1c0.2,0,0.4,0.2,0.4,0.4S185.6,141.5,185.4,141.5z M180.3,141.5h-2.1 c-0.2,0-0.4-0.2-0.4-0.4s0.2-0.4,0.4-0.4h2.1c0.2,0,0.4,0.2,0.4,0.4S180.5,141.5,180.3,141.5z M175.1,141.5h-2.1 c-0.2,0-0.4-0.2-0.4-0.4s0.2-0.4,0.4-0.4h2.1c0.2,0,0.4,0.2,0.4,0.4S175.3,141.5,175.1,141.5z M170,141.5h-2 c-0.2,0-0.4-0.2-0.4-0.4c0-0.2,0.1-0.4,0.3-0.4c0,0,0.1,0,0.1,0h2c0.2,0,0.4,0.2,0.4,0.4S170.2,141.5,170,141.5z"></path> </g> <g> <path class="st3" d="M193.5,168.9c-0.1,0-0.2,0-0.3-0.1l-1.2-1.2c-0.1-0.1-0.1-0.4,0-0.5c0.1-0.1,0.4-0.1,0.5,0l1.2,1.2 c0.1,0.1,0.1,0.4,0,0.5C193.7,168.8,193.6,168.9,193.5,168.9z M190.1,165.5c-0.1,0-0.2,0-0.3-0.1l-1.5-1.5 c-0.1-0.1-0.1-0.4,0-0.5c0.1-0.1,0.4-0.1,0.5,0l1.5,1.5c0.1,0.1,0.1,0.4,0,0.5C190.3,165.4,190.2,165.5,190.1,165.5z M186.5,161.8c-0.1,0-0.2,0-0.3-0.1l-1.5-1.5c-0.1-0.1-0.1-0.4,0-0.5c0.1-0.1,0.4-0.1,0.5,0l1.5,1.5c0.1,0.1,0.1,0.4,0,0.5 C186.7,161.8,186.6,161.8,186.5,161.8z M182.9,158.2c-0.1,0-0.2,0-0.3-0.1l-1.5-1.5c-0.1-0.1-0.1-0.4,0-0.5 c0.1-0.1,0.4-0.1,0.5,0l1.5,1.5c0.1,0.1,0.1,0.4,0,0.5C183.1,158.1,183,158.2,182.9,158.2z M179.2,154.5c-0.1,0-0.2,0-0.3-0.1 l-1.5-1.5c-0.1-0.1-0.1-0.4,0-0.5c0.1-0.1,0.4-0.1,0.5,0l1.5,1.5c0.1,0.1,0.1,0.4,0,0.5C179.4,154.5,179.3,154.5,179.2,154.5z M175.6,150.9c-0.1,0-0.2,0-0.3-0.1l-1.5-1.5c-0.1-0.1-0.1-0.4,0-0.5c0.1-0.1,0.4-0.1,0.5,0l1.5,1.5c0.1,0.1,0.1,0.4,0,0.5 C175.8,150.8,175.7,150.9,175.6,150.9z M172,147.2c-0.1,0-0.2,0-0.3-0.1l-1.5-1.5c-0.1-0.1-0.1-0.4,0-0.5c0.1-0.1,0.4-0.1,0.5,0 l1.5,1.5c0.1,0.1,0.1,0.4,0,0.5C172.2,147.2,172.1,147.2,172,147.2z M168.4,143.6c-0.1,0-0.2,0-0.3-0.1l-1.5-1.5 c-0.1-0.1-0.1-0.4,0-0.5c0.1-0.1,0.4-0.1,0.5,0l1.5,1.5c0.1,0.1,0.1,0.4,0,0.5C168.5,143.5,168.4,143.6,168.4,143.6z"></path> </g> <g> <path class="st3" d="M166.9,168.9c-0.1,0-0.2,0-0.3-0.1c-0.1-0.1-0.1-0.4,0-0.5l1.5-1.5c0.1-0.1,0.4-0.1,0.5,0 c0.1,0.1,0.1,0.4,0,0.5l-1.5,1.5C167.1,168.8,167,168.9,166.9,168.9z M170.5,165.2c-0.1,0-0.2,0-0.3-0.1c-0.1-0.1-0.1-0.4,0-0.5 l1.5-1.5c0.1-0.1,0.4-0.1,0.5,0c0.1,0.1,0.1,0.4,0,0.5l-1.5,1.5C170.7,165.2,170.6,165.2,170.5,165.2z M174.2,161.6 c-0.1,0-0.2,0-0.3-0.1c-0.1-0.1-0.1-0.4,0-0.5l1.5-1.5c0.1-0.1,0.4-0.1,0.5,0c0.1,0.1,0.1,0.4,0,0.5l-1.5,1.5 C174.3,161.5,174.3,161.6,174.2,161.6z M177.8,157.9c-0.1,0-0.2,0-0.3-0.1c-0.1-0.1-0.1-0.4,0-0.5l1.5-1.5 c0.1-0.1,0.4-0.1,0.5,0c0.1,0.1,0.1,0.4,0,0.5l-1.5,1.5C178,157.9,177.9,157.9,177.8,157.9z M181.4,154.3c-0.1,0-0.2,0-0.3-0.1 c-0.1-0.1-0.1-0.4,0-0.5l1.5-1.5c0.1-0.1,0.4-0.1,0.5,0c0.1,0.1,0.1,0.4,0,0.5l-1.5,1.5C181.6,154.2,181.5,154.3,181.4,154.3z M185,150.6c-0.1,0-0.2,0-0.3-0.1c-0.1-0.1-0.1-0.4,0-0.5l1.5-1.5c0.1-0.1,0.4-0.1,0.5,0c0.1,0.1,0.1,0.4,0,0.5l-1.5,1.5 C185.2,150.6,185.1,150.6,185,150.6z M188.7,147c-0.1,0-0.2,0-0.3-0.1c-0.1-0.1-0.1-0.4,0-0.5l1.5-1.5c0.1-0.1,0.4-0.1,0.5,0 c0.1,0.1,0.1,0.4,0,0.5l-1.5,1.5C188.9,146.9,188.8,147,188.7,147z M192.3,143.3c-0.1,0-0.2,0-0.3-0.1c-0.1-0.1-0.1-0.4,0-0.5 l1.2-1.2c0.1-0.1,0.4-0.1,0.5,0c0.1,0.1,0.1,0.4,0,0.5l-1.2,1.2C192.5,143.3,192.4,143.3,192.3,143.3z"></path> </g> </g> <g> <g> <path class="st3" d="M245.4,169.8h-2.1c-0.2,0-0.4-0.2-0.4-0.4c0-0.2,0.2-0.4,0.4-0.4h2.1c0.2,0,0.4,0.2,0.4,0.4 C245.7,169.6,245.6,169.8,245.4,169.8z M240.2,169.8h-2.1c-0.2,0-0.4-0.2-0.4-0.4c0-0.2,0.2-0.4,0.4-0.4h2.1 c0.2,0,0.4,0.2,0.4,0.4C240.6,169.6,240.4,169.8,240.2,169.8z M235.1,169.8H233c-0.2,0-0.4-0.2-0.4-0.4c0-0.2,0.2-0.4,0.4-0.4 h2.1c0.2,0,0.4,0.2,0.4,0.4C235.4,169.6,235.3,169.8,235.1,169.8z M229.9,169.8h-2.1c-0.2,0-0.4-0.2-0.4-0.4 c0-0.2,0.2-0.4,0.4-0.4h2.1c0.2,0,0.4,0.2,0.4,0.4C230.3,169.6,230.1,169.8,229.9,169.8z M224.8,169.8h-2.1 c-0.6,0-1.1-0.2-1.5-0.6c-0.1-0.1-0.1-0.4,0-0.5c0.1-0.1,0.4-0.1,0.5,0c0.3,0.3,0.6,0.4,1,0.4h2.1c0.2,0,0.4,0.2,0.4,0.4 C225.1,169.6,225,169.8,224.8,169.8z M248.3,169.3c-0.1,0-0.2,0-0.3-0.1c-0.1-0.1-0.1-0.4,0-0.5c0.3-0.3,0.5-0.7,0.5-1.1v-0.5 c0-0.2,0.2-0.4,0.4-0.4c0.2,0,0.4,0.2,0.4,0.4v0.5c0,0.6-0.3,1.2-0.7,1.6C248.5,169.3,248.4,169.3,248.3,169.3z M220.9,166.3 c-0.2,0-0.4-0.2-0.4-0.4v-2.1c0-0.2,0.2-0.4,0.4-0.4c0.2,0,0.4,0.2,0.4,0.4v2.1C221.2,166.2,221.1,166.3,220.9,166.3z M249,164.4c-0.2,0-0.4-0.2-0.4-0.4v-2.1c0-0.2,0.2-0.4,0.4-0.4c0.2,0,0.4,0.2,0.4,0.4v2.1C249.3,164.2,249.2,164.4,249,164.4z M220.9,161.2c-0.2,0-0.4-0.2-0.4-0.4v-2.1c0-0.2,0.2-0.4,0.4-0.4c0.2,0,0.4,0.2,0.4,0.4v2.1C221.2,161,221.1,161.2,220.9,161.2 z M249,159.2c-0.2,0-0.4-0.2-0.4-0.4v-2.1c0-0.2,0.2-0.4,0.4-0.4c0.2,0,0.4,0.2,0.4,0.4v2.1C249.3,159.1,249.2,159.2,249,159.2z M220.9,156c-0.2,0-0.4-0.2-0.4-0.4v-2.1c0-0.2,0.2-0.4,0.4-0.4c0.2,0,0.4,0.2,0.4,0.4v2.1C221.2,155.9,221.1,156,220.9,156z M249,154.1c-0.2,0-0.4-0.2-0.4-0.4v-2.1c0-0.2,0.2-0.4,0.4-0.4c0.2,0,0.4,0.2,0.4,0.4v2.1C249.3,153.9,249.2,154.1,249,154.1z M220.9,150.9c-0.2,0-0.4-0.2-0.4-0.4v-2.1c0-0.2,0.2-0.4,0.4-0.4c0.2,0,0.4,0.2,0.4,0.4v2.1 C221.2,150.7,221.1,150.9,220.9,150.9z M249,148.9c-0.2,0-0.4-0.2-0.4-0.4v-2.1c0-0.2,0.2-0.4,0.4-0.4c0.2,0,0.4,0.2,0.4,0.4 v2.1C249.3,148.8,249.2,148.9,249,148.9z M220.9,145.7c-0.2,0-0.4-0.2-0.4-0.4v-2.1c0-0.2,0.2-0.4,0.4-0.4 c0.2,0,0.4,0.2,0.4,0.4v2.1C221.2,145.6,221.1,145.7,220.9,145.7z M249,143.8c-0.2,0-0.4-0.2-0.4-0.4V143c0-0.4-0.2-0.9-0.6-1.1 c-0.2-0.1-0.2-0.3-0.1-0.5c0.1-0.2,0.4-0.2,0.5-0.1c0.5,0.4,0.8,1,0.8,1.7v0.4C249.3,143.6,249.2,143.8,249,143.8z M245.3,141.5 h-2.1c-0.2,0-0.4-0.2-0.4-0.4s0.2-0.4,0.4-0.4h2.1c0.2,0,0.4,0.2,0.4,0.4S245.5,141.5,245.3,141.5z M240.1,141.5h-2.1 c-0.2,0-0.4-0.2-0.4-0.4s0.2-0.4,0.4-0.4h2.1c0.2,0,0.4,0.2,0.4,0.4S240.3,141.5,240.1,141.5z M235,141.5h-2.1 c-0.2,0-0.4-0.2-0.4-0.4s0.2-0.4,0.4-0.4h2.1c0.2,0,0.4,0.2,0.4,0.4S235.2,141.5,235,141.5z M229.8,141.5h-2.1 c-0.2,0-0.4-0.2-0.4-0.4s0.2-0.4,0.4-0.4h2.1c0.2,0,0.4,0.2,0.4,0.4S230,141.5,229.8,141.5z M224.7,141.5h-2 c-0.2,0-0.4-0.2-0.4-0.4c0-0.2,0.1-0.4,0.3-0.4c0,0,0.1,0,0.1,0h2c0.2,0,0.4,0.2,0.4,0.4S224.9,141.5,224.7,141.5z"></path> </g> <g> <path class="st3" d="M248.2,168.9c-0.1,0-0.2,0-0.3-0.1l-1.2-1.2c-0.1-0.1-0.1-0.4,0-0.5c0.1-0.1,0.4-0.1,0.5,0l1.2,1.2 c0.1,0.1,0.1,0.4,0,0.5C248.4,168.8,248.3,168.9,248.2,168.9z M244.8,165.5c-0.1,0-0.2,0-0.3-0.1l-1.5-1.5 c-0.1-0.1-0.1-0.4,0-0.5c0.1-0.1,0.4-0.1,0.5,0l1.5,1.5c0.1,0.1,0.1,0.4,0,0.5C245,165.4,244.9,165.5,244.8,165.5z M241.2,161.8 c-0.1,0-0.2,0-0.3-0.1l-1.5-1.5c-0.1-0.1-0.1-0.4,0-0.5c0.1-0.1,0.4-0.1,0.5,0l1.5,1.5c0.1,0.1,0.1,0.4,0,0.5 C241.4,161.8,241.3,161.8,241.2,161.8z M237.6,158.2c-0.1,0-0.2,0-0.3-0.1l-1.5-1.5c-0.1-0.1-0.1-0.4,0-0.5 c0.1-0.1,0.4-0.1,0.5,0l1.5,1.5c0.1,0.1,0.1,0.4,0,0.5C237.8,158.1,237.7,158.2,237.6,158.2z M234,154.5c-0.1,0-0.2,0-0.3-0.1 l-1.5-1.5c-0.1-0.1-0.1-0.4,0-0.5c0.1-0.1,0.4-0.1,0.5,0l1.5,1.5c0.1,0.1,0.1,0.4,0,0.5C234.1,154.5,234,154.5,234,154.5z M230.3,150.9c-0.1,0-0.2,0-0.3-0.1l-1.5-1.5c-0.1-0.1-0.1-0.4,0-0.5c0.1-0.1,0.4-0.1,0.5,0l1.5,1.5c0.1,0.1,0.1,0.4,0,0.5 C230.5,150.8,230.4,150.9,230.3,150.9z M226.7,147.2c-0.1,0-0.2,0-0.3-0.1l-1.5-1.5c-0.1-0.1-0.1-0.4,0-0.5 c0.1-0.1,0.4-0.1,0.5,0l1.5,1.5c0.1,0.1,0.1,0.4,0,0.5C226.9,147.2,226.8,147.2,226.7,147.2z M223.1,143.6c-0.1,0-0.2,0-0.3-0.1 l-1.5-1.5c-0.1-0.1-0.1-0.4,0-0.5c0.1-0.1,0.4-0.1,0.5,0l1.5,1.5c0.1,0.1,0.1,0.4,0,0.5C223.3,143.5,223.2,143.6,223.1,143.6z"></path> </g> <g> <path class="st3" d="M221.6,168.9c-0.1,0-0.2,0-0.3-0.1c-0.1-0.1-0.1-0.4,0-0.5l1.5-1.5c0.1-0.1,0.4-0.1,0.5,0 c0.1,0.1,0.1,0.4,0,0.5l-1.5,1.5C221.8,168.8,221.7,168.9,221.6,168.9z M225.2,165.2c-0.1,0-0.2,0-0.3-0.1 c-0.1-0.1-0.1-0.4,0-0.5l1.5-1.5c0.1-0.1,0.4-0.1,0.5,0c0.1,0.1,0.1,0.4,0,0.5l-1.5,1.5C225.4,165.2,225.3,165.2,225.2,165.2z M228.9,161.6c-0.1,0-0.2,0-0.3-0.1c-0.1-0.1-0.1-0.4,0-0.5l1.5-1.5c0.1-0.1,0.4-0.1,0.5,0c0.1,0.1,0.1,0.4,0,0.5l-1.5,1.5 C229.1,161.5,229,161.6,228.9,161.6z M232.5,157.9c-0.1,0-0.2,0-0.3-0.1c-0.1-0.1-0.1-0.4,0-0.5l1.5-1.5c0.1-0.1,0.4-0.1,0.5,0 c0.1,0.1,0.1,0.4,0,0.5l-1.5,1.5C232.7,157.9,232.6,157.9,232.5,157.9z M236.1,154.3c-0.1,0-0.2,0-0.3-0.1 c-0.1-0.1-0.1-0.4,0-0.5l1.5-1.5c0.1-0.1,0.4-0.1,0.5,0c0.1,0.1,0.1,0.4,0,0.5l-1.5,1.5C236.3,154.2,236.2,154.3,236.1,154.3z M239.8,150.6c-0.1,0-0.2,0-0.3-0.1c-0.1-0.1-0.1-0.4,0-0.5l1.5-1.5c0.1-0.1,0.4-0.1,0.5,0c0.1,0.1,0.1,0.4,0,0.5l-1.5,1.5 C239.9,150.6,239.9,150.6,239.8,150.6z M243.4,147c-0.1,0-0.2,0-0.3-0.1c-0.1-0.1-0.1-0.4,0-0.5l1.5-1.5c0.1-0.1,0.4-0.1,0.5,0 c0.1,0.1,0.1,0.4,0,0.5l-1.5,1.5C243.6,146.9,243.5,147,243.4,147z M247,143.3c-0.1,0-0.2,0-0.3-0.1c-0.1-0.1-0.1-0.4,0-0.5 l1.2-1.2c0.1-0.1,0.4-0.1,0.5,0c0.1,0.1,0.1,0.4,0,0.5l-1.2,1.2C247.2,143.3,247.1,143.3,247,143.3z"></path> </g> </g> <g> <g> <rect x="164.2" y="36.7" class="st3" width="5.7" height="0.7"></rect> </g> <g> <polygon class="st3" points="164.6,35.6 162.2,37 164.6,38.4 "></polygon> </g> </g> <g> <path class="st3" d="M166,43.2c-3.4,0-6.2-2.8-6.2-6.2c0-3.4,2.8-6.2,6.2-6.2c3.4,0,6.2,2.8,6.2,6.2 C172.2,40.4,169.5,43.2,166,43.2z M166,31.5c-3,0-5.5,2.5-5.5,5.5s2.5,5.5,5.5,5.5c3,0,5.5-2.5,5.5-5.5S169.1,31.5,166,31.5z"></path> </g> </g> <g> <defs> <path id="SVGID_6_" d="M315.9,25.8v328.6c0,9.5-7.7,17.2-17.1,17.2h-39.2c-1.9-5.3-3.3-11.5-4.3-18.5 c-10.5-73.6-56-74.1-51.8-126.9c5.2-64.8,68.5-50.4,68.5-91.5c0-50.1-56.3-18.5-56.3-78.1c0-15.3-7.1-26.8-18.1-36.2h112.8 C313.4,20.5,315.9,22.9,315.9,25.8z"></path> </defs> <use xlink:href="#SVGID_6_" style="overflow:visible;fill:#00A6D2;"></use> <clipPath id="SVGID_7_"> <use xlink:href="#SVGID_6_" style="overflow:visible;"></use> </clipPath> <g class="st12"> <linearGradient id="SVGID_8_" gradientUnits="userSpaceOnUse" x1="3388.1719" y1="143.705" x2="3718.241" y2="-40.2115" gradientTransform="matrix(-0.6679 0 0 0.3956 2603.603 53.4316)"> <stop offset="0" style="stop-color:#FDD040"></stop> <stop offset="4.352259e-02" style="stop-color:#FDD040"></stop> <stop offset="0.9946" style="stop-color:#FDD040"></stop> </linearGradient> <path class="st13" d="M315.9,25.8v101.5H149.4V25.8c0-2.9,2.4-5.3,5.3-5.3h156C313.6,20.5,315.9,22.9,315.9,25.8z"></path> <linearGradient id="SVGID_9_" gradientUnits="userSpaceOnUse" x1="3343.5754" y1="101.7178" x2="3608.083" y2="-11.4148" gradientTransform="matrix(-0.6679 0 0 0.3956 2603.603 53.4316)"> <stop offset="0" style="stop-color:#FDD040"></stop> <stop offset="4.352259e-02" style="stop-color:#FDD040"></stop> <stop offset="0.9946" style="stop-color:#FDD040"></stop> </linearGradient> <path class="st14" d="M315.9,25.8v101.5h-42.3c-6.7-4-7.5-32.2-22.5-43.9c-3.7-2.8-7.9-4.3-12.2-5.2c-9.2-2-18.4-4.6-26.7-9.3 c-8.3-4.7-15.8-11.7-19.9-21c-2.7-6.1-6-20.1-0.9-27.4h119.3C313.6,20.5,315.9,22.9,315.9,25.8z"></path> <linearGradient id="SVGID_10_" gradientUnits="userSpaceOnUse" x1="3425.1465" y1="30.3293" x2="3580.5764" y2="30.3293" gradientTransform="matrix(-0.6679 0 0 0.3956 2603.603 53.4316)"> <stop offset="0" style="stop-color:#FDD040"></stop> <stop offset="4.352259e-02" style="stop-color:#FDD040"></stop> <stop offset="0.9946" style="stop-color:#FDD040"></stop> </linearGradient> <path class="st15" d="M315.9,25.8v84.5c-7.1-2.4-13.1-14.8-15.2-23.1c-0.7-2.7-1-5.8-2.6-7.9c-2.8-3.6-7.6-2.8-11.7-2.3 c-5.1,0.6-10.3,0.2-15-2.3c-4.6-2.5-8.5-7.3-9.5-13.1c-0.7-3.9-0.1-8.3-2-11.7c-2.3-4.3-7.3-5-11.7-5.1 c-5.4-0.1-10.9,0.2-16.3-0.7c-5.4-0.9-10.8-3.1-14.7-7.4c-3.7-4.1-6-10.4-5-16.2H311C313.7,20.5,315.9,22.9,315.9,25.8z"></path> <g> <rect x="154.4" y="30.7" class="st7" width="11.6" height="0.5"></rect> <rect x="154.4" y="34" class="st7" width="11.6" height="0.5"></rect> <rect x="154.4" y="37.9" class="st7" width="6.7" height="0.5"></rect> </g> <g class="st16"> <g> <rect x="203.6" y="141.5" class="st7" width="0.4" height="27.5"></rect> </g> </g> <g class="st16"> <g> <rect x="261.7" y="141.5" class="st7" width="0.4" height="27.5"></rect> </g> </g> <g> <g class="st16"> <g> <rect x="151.5" y="330.1" class="st7" width="162.5" height="0.4"></rect> </g> </g> </g> <g> <path class="st7" d="M250.3,51.8c0,4.4-1.6,8.4-4.3,11.5c-0.3,0.4-0.7,0.8-1,1.1c-3.2,3.1-7.5,5-12.3,5c-4.8,0-9.1-1.9-12.2-5 c-0.4-0.3-0.7-0.7-1-1.1c-2.7-3.1-4.3-7.1-4.3-11.5c0-9.7,7.9-17.6,17.6-17.6C242.4,34.2,250.3,42.1,250.3,51.8z"></path> <g> <path class="st1" d="M246,63.4c-0.3,0.4-0.7,0.8-1,1.1c-3.2,3.1-7.5,5-12.3,5c-4.8,0-9.1-1.9-12.2-5c-0.4-0.3-0.7-0.7-1-1.1 c1.9-3.2,4.9-5.6,8.5-6.7c1.5-0.5,3.1-0.8,4.8-0.8c1.7,0,3.3,0.3,4.8,0.8C241.1,57.8,244.1,60.2,246,63.4z"></path> <circle class="st7" cx="232.7" cy="50" r="10.7"></circle> <circle class="st1" cx="232.7" cy="50" r="8.2"></circle> </g> </g> <g> <linearGradient id="SVGID_11_" gradientUnits="userSpaceOnUse" x1="3473.9307" y1="651.9393" x2="3473.9307" y2="563.7485" gradientTransform="matrix(-0.6679 0 0 0.3956 2603.603 53.4316)"> <stop offset="0" style="stop-color:#FDD040"></stop> <stop offset="4.352259e-02" style="stop-color:#FDD040"></stop> <stop offset="0.9946" style="stop-color:#FDD040"></stop> </linearGradient> <path class="st17" d="M283.4,276.5c-0.3,0-0.6,0-0.9,0c-0.3,0-0.6,0-0.9,0.1c-0.3,0-0.6,0.1-0.9,0.1c-0.9,0.1-1.7,0.3-2.5,0.6 c0,0,0,0,0,0c-0.3,0.1-0.5,0.2-0.8,0.3c-0.3,0.1-0.6,0.2-0.8,0.3c-0.4,0.2-0.7,0.3-1,0.5c-0.3,0.2-0.6,0.3-0.9,0.5 c-0.1,0.1-0.2,0.1-0.3,0.2c-0.3,0.2-0.6,0.4-0.9,0.6c-0.3,0.2-0.7,0.5-1,0.7c-0.3,0.3-0.6,0.5-0.9,0.8c-0.3,0.3-0.6,0.6-0.9,0.9 l0,0c-2.9,3.1-4.7,7.3-4.7,11.9c0,9.6,7.8,17.4,17.4,17.4c9.6,0,17.4-7.8,17.4-17.4C300.8,284.3,293,276.5,283.4,276.5z M283.4,308.3c-7.9,0-14.4-6.4-14.4-14.4c0-3.8,1.5-7.2,3.8-9.8c2.6-2.8,6.4-4.6,10.5-4.6c7.9,0,14.4,6.4,14.4,14.4 C297.7,301.8,291.3,308.3,283.4,308.3z"></path> <path class="st18" d="M283.4,276.5v3.1c-4.2,0-7.9,1.8-10.5,4.6l-2.2-2.1c0.3-0.3,0.6-0.6,0.9-0.9c0.3-0.3,0.6-0.5,0.9-0.8 c0.3-0.3,0.6-0.5,1-0.7c0.3-0.2,0.6-0.4,0.9-0.6c0.1-0.1,0.2-0.1,0.3-0.2c0.3-0.2,0.6-0.3,0.9-0.5c0.3-0.2,0.7-0.3,1-0.5 c0.3-0.1,0.6-0.2,0.8-0.3c0.3-0.1,0.5-0.2,0.8-0.3c0,0,0,0,0,0c0.2-0.1,0.5-0.2,0.8-0.2c0.6-0.2,1.1-0.3,1.7-0.3 c0.3-0.1,0.6-0.1,0.9-0.1c0.3,0,0.6-0.1,0.9-0.1C282.8,276.5,283.1,276.5,283.4,276.5z"></path> </g> <linearGradient id="SVGID_12_" gradientUnits="userSpaceOnUse" x1="3625.4209" y1="651.9393" x2="3625.4209" y2="563.7485" gradientTransform="matrix(-0.6679 0 0 0.3956 2603.603 53.4316)"> <stop offset="0" style="stop-color:#FDD040"></stop> <stop offset="4.352259e-02" style="stop-color:#FDD040"></stop> <stop offset="0.9946" style="stop-color:#FDD040"></stop> </linearGradient> <path class="st19" d="M194.5,281.6c-3.1-3.1-7.4-5.1-12.2-5.1H182c-0.3,0-0.6,0-0.8,0c-0.3,0-0.5,0-0.8,0.1 c-0.3,0-0.6,0.1-0.9,0.1c-0.3,0-0.6,0.1-0.9,0.2c-0.3,0.1-0.6,0.1-0.9,0.2c-0.3,0.1-0.6,0.2-0.9,0.3c-0.2,0.1-0.4,0.1-0.6,0.2 c-0.1,0-0.1,0-0.2,0.1c-0.5,0.2-1,0.4-1.5,0.6c-0.5,0.2-1,0.5-1.5,0.8c-0.2,0.1-0.5,0.3-0.7,0.5c-0.2,0.1-0.4,0.3-0.6,0.4 c-0.1,0.1-0.1,0.1-0.2,0.2c-0.2,0.1-0.4,0.3-0.5,0.4c-0.2,0.2-0.4,0.3-0.6,0.6c-0.2,0.1-0.3,0.2-0.4,0.4 c-0.1,0.1-0.3,0.2-0.4,0.4c-0.1,0-0.1,0.1-0.2,0.2c0,0-0.1,0-0.1,0.1c0,0,0,0-0.1,0.1c0,0-0.1,0.1-0.1,0.1 c-0.1,0.1-0.2,0.3-0.4,0.4c-0.3,0.4-0.7,0.8-1,1.3c-0.1,0.2-0.3,0.4-0.4,0.6c-0.1,0.2-0.2,0.4-0.3,0.6c-0.1,0.2-0.2,0.4-0.3,0.5 c-0.2,0.3-0.3,0.6-0.5,0.9c-0.1,0.2-0.2,0.4-0.3,0.7c-0.1,0.2-0.2,0.4-0.2,0.6c-0.2,0.6-0.5,1.3-0.6,2c-0.1,0.3-0.1,0.6-0.2,0.8 c0,0.2-0.1,0.5-0.1,0.7c0,0.3-0.1,0.6-0.1,0.9c-0.1,0.6-0.1,1.2-0.1,1.8c0,9.6,7.8,17.4,17.4,17.4c1.9,0,3.7-0.3,5.4-0.9 c7-2.3,12.1-8.8,12.1-16.6C199.6,289.1,197.7,284.7,194.5,281.6z M186.9,307.5c-1.5,0.5-3.1,0.8-4.7,0.8 c-7.9,0-14.4-6.4-14.4-14.4c0-7.9,6.4-14.4,14.4-14.4c8,0,14.4,6.4,14.4,14.4C196.6,300.2,192.5,305.5,186.9,307.5z"></path> <path class="st7" d="M308,39.1h-0.5v-4.8c0-2.4-2-4.4-4.4-4.4s-4.4,2-4.4,4.4v4.8h-0.5c-0.2,0-0.4,0.2-0.4,0.4v0.2 c0,0.2,0.2,0.4,0.4,0.4h3.8c0,0.6,0.5,1.1,1.1,1.1c0.6,0,1.1-0.5,1.1-1.1h3.8c0.2,0,0.4-0.2,0.4-0.4v-0.2 C308.4,39.3,308.2,39.1,308,39.1z"></path> <g> <polygon class="st7" points="298.7,104.5 300.1,107.2 303.1,107.7 300.9,109.8 301.4,112.8 298.7,111.4 296.1,112.8 296.6,109.8 294.4,107.7 297.4,107.2 "></polygon> <polygon class="st7" points="287.3,104.5 288.7,107.2 291.7,107.7 289.5,109.8 290,112.8 287.3,111.4 284.6,112.8 285.1,109.8 283,107.7 286,107.2 "></polygon> <polygon class="st7" points="275.9,104.5 277.2,107.2 280.2,107.7 278.1,109.8 278.6,112.8 275.9,111.4 273.2,112.8 273.7,109.8 271.5,107.7 274.5,107.2 "></polygon> <polygon class="st7" points="264.5,104.5 265.8,107.2 268.8,107.7 266.6,109.8 267.1,112.8 264.5,111.4 261.8,112.8 262.3,109.8 260.1,107.7 263.1,107.2 "></polygon> <polygon class="st7" points="253,104.5 254.4,107.2 257.4,107.7 255.2,109.8 255.7,112.8 253,111.4 250.3,112.8 250.9,109.8 248.7,107.7 251.7,107.2 "></polygon> </g> <rect x="164.3" y="315.7" class="st18" width="35.3" height="4.7"></rect> <rect x="187.6" y="347.5" class="st18" width="65.9" height="4.7"></rect> <rect x="187.6" y="340" class="st18" width="18.9" height="4.7"></rect> <rect x="210.4" y="340" class="st18" width="24.6" height="4.7"></rect> <rect x="215.1" y="315.7" class="st18" width="35.3" height="4.7"></rect> <rect x="215.1" y="145.7" class="st18" width="35.2" height="5.8"></rect> <rect x="221.2" y="154.4" class="st18" width="23" height="5.8"></rect> <rect x="158.2" y="145.7" class="st18" width="35.2" height="5.8"></rect> <rect x="164.3" y="154.4" class="st18" width="23" height="5.8"></rect> <rect x="272" y="145.7" class="st18" width="35.2" height="5.8"></rect> <rect x="278.1" y="154.4" class="st18" width="23" height="5.8"></rect> <rect x="203.4" y="79.6" class="st7" width="58.5" height="5.8"></rect> <rect x="213.6" y="88.3" class="st7" width="38.2" height="5.8"></rect> <rect x="160.1" y="105.8" class="st7" width="38.2" height="5.8"></rect> <rect x="265.9" y="315.7" class="st18" width="35.3" height="4.7"></rect> <g class="st16"> <g> <polygon class="st7" points="298.3,267.6 162.5,267.6 162.5,184.2 162.9,184.2 162.9,267.2 298.3,267.2 "></polygon> </g> </g> <linearGradient id="SVGID_13_" gradientUnits="userSpaceOnUse" x1="-923.1588" y1="394.4177" x2="-923.1588" y2="541.6301" gradientTransform="matrix(0.6679 0 0 0.3956 845.5026 53.4316)"> <stop offset="0" style="stop-color:#01405C"></stop> <stop offset="8.500241e-02" style="stop-color:#094661"></stop> <stop offset="0.2195" style="stop-color:#205770"></stop> <stop offset="0.3867" style="stop-color:#457388"></stop> <stop offset="0.5799" style="stop-color:#799AA9"></stop> <stop offset="0.7924" style="stop-color:#BACBD3"></stop> <stop offset="0.9946" style="stop-color:#FFFFFF"></stop> </linearGradient> <path class="st20" d="M289.4,228.8c-2.6-4.4-3.3,1.6-5.8,2.1c-4.2,0.8-6.4-7-7.5-10.1c-1.5-4.2-3-8.4-4.7-12.5 c-0.8-2-3.4-1.9-4.1,0.1c-2.1,5.3-4.1,10.7-6.2,15.9c-1.7,4.3-5.4,11.8-10.7,7.4c-1.2-1-2.2-21.1-2.8-22.7 c-2-5.3-6.2,22.2-7.5,23.8c-0.4,0.5-0.8,1-1.4,1.2c-3.2,1.5-5.6-4-6.4-6.4l-12.2-26.9c-0.4-1.3-2-1.3-2.4,0 c-2.3,7-7.9,19-11.6,17.3c-0.8-0.4-1.5-0.9-2.1-1.5c-0.3-0.3-0.9-0.1-1,0.3c-0.6,2.3-0.9,4.7-2,6.8c-0.9,1.8-2.4-8.6-4.2-8 c-1.8,0.6-3.9,0.2-5.2-1.3c-0.5-0.6-0.9-1.4-1.5-2c-3.6-3.8-5.9,7.5-6.6,9.7c-1.2,3.7-3.7,7.5-7.2,7.5c-1.7,0-3.6-1-5.1-0.1 c-1.1,0.6-1.6,1.8-2.1,3c-2.2,5.2-4.2,10.6-6.2,15.8v19.1h132.6C295.2,267.3,292.2,233.5,289.4,228.8z"></path> <linearGradient id="SVGID_14_" gradientUnits="userSpaceOnUse" x1="3555.3542" y1="540.614" x2="3555.3542" y2="379.5262" gradientTransform="matrix(-0.6679 0 0 0.3956 2603.603 53.4316)"> <stop offset="0" style="stop-color:#FDD040"></stop> <stop offset="4.352259e-02" style="stop-color:#FDD040"></stop> <stop offset="0.9946" style="stop-color:#FDD040"></stop> </linearGradient> <path class="st21" d="M162.6,248.4c1.5-4.1,3.2-8.2,5.9-12c2.6-3.5,3.3,1.3,5.8,1.7c4.2,0.7,6.4-5.6,7.5-8.1 c1.5-3.4,3-6.8,4.7-10.1c0.8-1.6,3.4-1.5,4.1,0c2.1,4.3,4.1,8.5,6.2,12.8c1.7,3.5,5.4,9.5,10.7,6c1.2-0.8,2.2-1.9,2.8-3.1 c2-4.3,6.2,2.7,7.5,4c0.4,0.4,0.8,0.8,1.4,1c3.2,1.2,5.6-3.2,6.4-5.2l12.2-31.1c0.4-1,2-1,2.4,0c2.3,5.6,7.9,15.2,11.6,13.9 c0.8-0.3,1.5-0.7,2.1-1.2c0.3-0.3,0.9-0.1,1,0.3c0.6,1.8,0.9,3.8,2,5.4c0.9,1.4,2.4,2.7,4.2,3.2c1.8,0.5,3.9,0.2,5.2-1 c0.5-0.5,0.9-1.1,1.5-1.6c3.6-3,5.9,6,6.6,7.8c1.2,2.9,3.7,6,7.2,6c1.7,0,3.6-0.8,5.1-0.1c1.1,0.5,1.6,1.5,2.1,2.4 c2.2,4.2,6.2,28.1,6.2,28.1H162.7L162.6,248.4z"></path> <g class="st16"> <g class="st22"> <rect x="162.6" y="255.2" class="st7" width="135.1" height="0.4"></rect> </g> <g class="st22"> <rect x="162.6" y="243.1" class="st7" width="135.1" height="0.4"></rect> </g> <g class="st22"> <rect x="162.6" y="231" class="st7" width="135.1" height="0.4"></rect> </g> <g class="st22"> <rect x="162.6" y="218.9" class="st7" width="135.1" height="0.4"></rect> </g> <g class="st22"> <rect x="162.6" y="206.8" class="st7" width="135.1" height="0.4"></rect> </g> <g class="st22"> <rect x="162.6" y="194.7" class="st7" width="135.1" height="0.4"></rect> </g> </g> <g class="st16"> <g class="st22"> <rect x="183.3" y="185.1" class="st7" width="0.4" height="82.3"></rect> </g> <g class="st22"> <rect x="205" y="185.1" class="st7" width="0.4" height="82.3"></rect> </g> <g class="st22"> <rect x="226.8" y="185.1" class="st7" width="0.4" height="82.3"></rect> </g> <g class="st22"> <rect x="248.5" y="185.1" class="st7" width="0.4" height="82.3"></rect> </g> <g class="st22"> <rect x="270.2" y="185.1" class="st7" width="0.4" height="82.3"></rect> </g> <g class="st22"> <rect x="292" y="185.1" class="st7" width="0.4" height="82.3"></rect> </g> </g> <g> <linearGradient id="SVGID_15_" gradientUnits="userSpaceOnUse" x1="3549.6511" y1="651.9393" x2="3549.6511" y2="563.7485" gradientTransform="matrix(-0.6679 0 0 0.3956 2603.603 53.4316)"> <stop offset="0" style="stop-color:#FDD040"></stop> <stop offset="4.352259e-02" style="stop-color:#FDD040"></stop> <stop offset="0.9946" style="stop-color:#FDD040"></stop> </linearGradient> <path class="st23" d="M232.8,276.5c-0.3,0-0.6,0-0.9,0c-0.3,0-0.6,0-0.9,0.1c-0.3,0-0.6,0.1-0.9,0.1c-0.9,0.1-1.7,0.3-2.5,0.6 c0,0,0,0,0,0c-0.3,0.1-0.5,0.2-0.8,0.3c-0.3,0.1-0.6,0.2-0.8,0.3c-0.4,0.2-0.7,0.3-1,0.5c-0.3,0.2-0.6,0.3-0.9,0.5 c-0.1,0.1-0.2,0.1-0.3,0.2c-0.3,0.2-0.6,0.4-0.9,0.6c-0.3,0.2-0.7,0.5-1,0.7c-0.3,0.3-0.6,0.5-0.9,0.8c-0.3,0.3-0.6,0.6-0.9,0.9 l0,0c-2.9,3.1-4.7,7.3-4.7,11.9c0,9.6,7.8,17.4,17.4,17.4c9.6,0,17.4-7.8,17.4-17.4C250.2,284.3,242.4,276.5,232.8,276.5z M232.8,308.3c-7.9,0-14.4-6.4-14.4-14.4c0-3.8,1.5-7.2,3.8-9.8c2.6-2.8,6.4-4.6,10.5-4.6c7.9,0,14.4,6.4,14.4,14.4 C247.2,301.8,240.7,308.3,232.8,308.3z"></path> <path class="st18" d="M231,276.5c-0.3,0-0.6,0.1-0.9,0.1c-0.6,0.1-1.2,0.2-1.7,0.3c-0.3,0.1-0.5,0.1-0.8,0.2c0,0,0,0,0,0 c-0.3,0.1-0.5,0.2-0.8,0.3c-0.3,0.1-0.6,0.2-0.8,0.3c-0.4,0.2-0.7,0.3-1,0.5c-0.3,0.2-0.6,0.3-0.9,0.5c-0.1,0.1-0.2,0.1-0.3,0.2 c-0.3,0.2-0.6,0.4-0.9,0.6c-0.3,0.2-0.7,0.5-1,0.7c-0.3,0.3-0.6,0.5-0.9,0.8c-0.3,0.3-0.6,0.6-0.9,0.9l2.2,2.1 c2.6-2.8,6.4-4.6,10.5-4.6v-3.1c-0.3,0-0.6,0-0.9,0C231.6,276.5,231.3,276.5,231,276.5z"></path> </g> <path class="st18" d="M175.3,306.5c-5.7-3.1-8.7-10-7-16.3c1.7-6.2,7.5-10.7,13.9-10.7v-3.1c-4.6,0-9.1,1.9-12.3,5.1 c-5.4,5.4-6.7,14.1-2.9,20.8c4,7.2,12.8,10.7,20.6,8.1l-0.7-3C183.1,308.8,178.8,308.4,175.3,306.5z"></path> <g> <circle class="st18" cx="170.7" cy="344.6" r="9.7"></circle> <path class="st3" d="M173.8,339.4h-7.1c-0.3,0-0.5,0.2-0.5,0.5c0,0.3,0.2,0.5,0.5,0.5h7.1c0.5,0,0.8,0.4,0.8,0.8v7.2 c0,0.3,0.2,0.5,0.5,0.5c0.3,0,0.5-0.2,0.5-0.5v-7.2C175.7,340.2,174.8,339.4,173.8,339.4z"></path> <path class="st3" d="M174.7,348.9h-7.1c-0.5,0-0.8-0.4-0.8-0.8v-6.8c0-0.3-0.2-0.5-0.5-0.5c-0.3,0-0.5,0.2-0.5,0.5v6.8 c0,1,0.8,1.8,1.8,1.8h7.1c0.3,0,0.5-0.2,0.5-0.5C175.2,349.1,175,348.9,174.7,348.9z"></path> <path class="st3" d="M166.6,340.9c-0.1-0.1-0.2-0.2-0.4-0.2c-0.2,0-0.3,0.1-0.4,0.2l-1.7,2.3c-0.1,0.1-0.1,0.2-0.1,0.4 c0,0.1,0.1,0.2,0.2,0.3l0.2,0.1h0.1c0.2,0,0.3-0.1,0.4-0.2l1.3-1.8l1.3,1.8c0.1,0.1,0.2,0.2,0.4,0.2l0.2,0l0.1-0.1 c0.1-0.1,0.2-0.2,0.2-0.3c0-0.1,0-0.3-0.1-0.4L166.6,340.9z"></path> <path class="st3" d="M176.9,345.6L176.9,345.6c-0.2,0-0.4,0.1-0.5,0.2l-1.3,1.8l-1.3-1.8c-0.1-0.1-0.2-0.2-0.4-0.2l-0.2,0 l-0.1,0.1c-0.2,0.2-0.3,0.5-0.1,0.7l1.7,2.3c0.1,0.1,0.2,0.2,0.4,0.2c0.2,0,0.3-0.1,0.4-0.2l1.7-2.3c0.1-0.1,0.1-0.2,0.1-0.4 c0-0.1-0.1-0.2-0.2-0.3L176.9,345.6z"></path> </g> </g> </g> <g> <g> <path class="st3" d="M254.7,106.8l-1.7-3.4l-1.7,3.4l-3.7,0.5l2.7,2.6l-0.6,3.7l3.3-1.7l3.3,1.7l-0.6-3.7l2.7-2.6L254.7,106.8z M255.1,111.9l-2-1.1l-2,1.1l0.4-2.3l-1.7-1.6l2.3-0.3l1-2.1l1,2.1l2.3,0.3l-1.7,1.6L255.1,111.9z"></path> </g> </g> <g> <path class="st5" d="M396.1,134.5c-3.6,10.1-1.4,37.3-1.3,42.5c0.2,6.9,11.7,5.1,13.8,2.7c2.7-3.2,5.2-10.9,5.9-23.7 c1.2-22.6-0.3-37-0.3-37S400,123.6,396.1,134.5z"></path> <path class="st1" d="M398.5,137.9c-0.7,9.8,0,17.5,3.1,28.9c1.3,4.9,5.2,15,7,12.9c2.7-3.2,5.2-10.9,5.9-23.7 c1.2-22.6,0.6-34.9,0.6-34.9S399.6,123.5,398.5,137.9z"></path> <path class="st24" d="M370.8,208.8c-2.8,1.8-5.4,5-7.1,7.6c-1,1.6-3.1,4.6-3.1,6.1c0,1.4,2,2,3.1,0.5c0.4,0.8,2.1,1.3,2.9,0.4 c0.9,0.8,2.7,0.8,3.4-0.1c1.2,1,2.7,0.6,3.7-1.2c1.1-1.9,2.9-3.8,6-8.8c0.5-0.8,1.9-2.3,2.4-3c-1.8-0.8-6.9-4.3-8.4-5.5 C373.2,205.7,372.3,207.9,370.8,208.8z"></path> <path class="st25" d="M374.8,211.2c-1.4-0.7-3-0.8-4.3,0.2c-3.1,2.4-4.6,6.2-7.1,9.3c1.3-0.1,2.6-0.3,3.9-0.5 c2.4-0.3,4.7,0.5,6.1,2.2c0.1-0.1,0.2-0.2,0.2-0.3c0.9-1.5,2.3-3.1,4.4-6.3c-0.3-0.3-0.5-0.7-0.8-1 C376.4,213.6,375.5,212.4,374.8,211.2z"></path> <g> <g> <polygon class="st11" points="348.8,206.1 357.9,211.9 360.1,208.5 350.9,202.7 "></polygon> <path class="st11" d="M380.8,219.6l-18.7-11.8c-1.7-1.1-4-0.6-5.1,1.2c-1.1,1.7-0.6,4,1.2,5.1l18.7,11.8c1.7,1.1,4,0.6,5.1-1.2 C383.1,223,382.6,220.7,380.8,219.6z"></path> </g> <path class="st2" d="M329.2,172.6l-0.6,0.1l-0.5,0.1c-5.5,1.4-10.3,4.9-13.3,9.8l-0.5,0.8l-0.1,0.2c-2.6,4.8-3.4,10.4-2.2,15.7 c2.7,11.7,14.5,19.1,26.2,16.6l0.7-0.1l0.4-0.1c8.6-2.3,15-9.6,16.1-18.4l0.1-0.5l0-0.7c0.2-2.3,0-4.6-0.5-6.8 C352.4,177.6,341,170.3,329.2,172.6z M351.5,196l-0.1,0.7l-0.1,0.7c-1.2,6.6-6.3,12.5-12.7,14.5l-0.6,0.2l-0.7,0.2 c-9.5,2.2-19.2-3.8-22-13.6c-1.2-4.3-0.6-8.9,1.8-13.1l0.3-0.5l0.5-0.7c2.6-3.9,6.6-6.8,11-7.8l0.6-0.1l0.7-0.1 c9.2-1.5,18.1,4.4,20.7,13.8C351.5,192,351.7,194,351.5,196z"></path> </g> <path class="st5" d="M398.4,167.4c-4.1,2.1-7.3,9.3-9.7,13.5c-3.8,6.7-17.4,25.6-17.4,25.6s4.5,3.4,11.2,7 c0,0,18.4-23.1,24.6-31.5C416.4,169.4,402.9,165.1,398.4,167.4z"></path> <path class="st1" d="M401.6,166.8c-4.3,8-3.7,17.5-11.1,29c-2.4,3.8-11.2,11.2-12.9,14.9c1.4,0.9,3.1,1.8,4.9,2.8 c0,0,18.4-23.1,24.6-31.5C414.7,171.7,407.8,165.7,401.6,166.8z"></path> <g> <path class="st26" d="M460,351.6c-0.1-0.6-12.1-4-12.4,0c-0.2,3.5,0.7,8.8-2.3,11.6c-3.5,3.2-16.4,9.8-22.3,10.7 c-0.3,0.9,0.7,1.6,1.6,1.9c4.4,1.5,9.1,0.8,13.7,0.4c5.3-0.6,10.6-0.9,16-0.9c2.4,0,5.2-0.2,6.4-2.3c0.9-1.5,0.5-3.4,0.3-5.2 C460.3,362.4,460.7,357,460,351.6z"></path> <path class="st27" d="M460,351.6c0-0.3-2.9-1.3-5.9-1.7c0.2,0.4,0.4,0.7,0.6,1.1c4.8,11.5-5.5,20.5-15.2,25 c4.9-0.5,9.9-0.8,14.8-0.8c2.4,0,5.2-0.2,6.4-2.3c0.9-1.5,0.5-3.4,0.3-5.2C460.3,362.4,460.7,357,460,351.6z"></path> <path class="st3" d="M460.8,365.3c-1.5-1.1-10.9,6.2-21.8,6.2c0-1.4-1.4-3.9-3.2-3.3c-4.8,1.7-13.2,4.6-14.1,5 c-3,1.3-1.8,6.4-0.1,6.4c1.5,0,11.3,0,16.8,0c3.2,0,8.3-2.9,13.5-2.9c5.8,0,7.5-0.2,8.2-0.5C465.7,373.8,463.5,367.4,460.8,365.3 z"></path> <path class="st11" d="M451.6,373.4c-3.8,0.2-15.9,1.7-17.9,2.2c-2.9,0.8-6.1,0.8-9,0c-1.4-0.4-2.7-1-3.8-1.7 c-1.8,1.8-0.7,5.8,0.9,5.8h16.8c3.2,0,8.3-2.9,13.5-2.9c5.8,0,7.5-0.2,8.2-0.5c4.3-1.9,3.9-6.3,2.2-9.1 C460.1,370.9,456.3,373.2,451.6,373.4z"></path> <path class="st11" d="M450.1,379.7h10.6l2.7-6.8l-12.5,3.6C451.1,377.8,450.1,379.7,450.1,379.7z"></path> </g> <g> <path class="st26" d="M372.3,348.7c-1.7,3-3.2,8.2-7.1,9.4c-4.5,1.3-19,1.8-24.7,0c-0.7,0.7,0,1.8,0.6,2.4 c3.3,3.2,7.8,4.7,12.2,6.3c5,1.8,10,3.8,14.8,6.1c2.1,1,4.8,2,6.8,0.7c1.5-1,1.9-2.9,2.5-4.6c1.7-5.1,4.5-9.8,6.2-15 C383.7,353.5,374.3,345.2,372.3,348.7z"></path> <path class="st27" d="M379,350c0,0.4,0,0.8,0,1.3c-0.7,12.5-13.8,16.1-24.6,15.9c4.6,1.7,9.2,3.6,13.7,5.7c2.1,1,4.8,2,6.8,0.7 c1.5-1,1.9-2.9,2.5-4.6c1.7-5.1,4.5-9.8,6.2-15C383.6,353.8,381.4,351.7,379,350z"></path> <path class="st3" d="M356,362.9c0.6-1.3,0.4-4.1-1.4-4.3c-5-0.6-13.9-1.5-14.9-1.6c-3.3-0.2-4.4,5-2.8,5.7 c1.3,0.6,10.2,4.9,15.2,7.3c2.9,1.4,8.8,1,13.4,3.2c5.2,2.5,6.8,3.1,7.6,3.1c6,0.2,6.9-6.5,5.3-9.6 C377.5,365.2,365.8,367.6,356,362.9z"></path> <path class="st11" d="M366.5,370.1c-3.5-1.5-15-5.4-17.1-5.8c-2.9-0.6-5.8-1.9-8.1-3.9c-1.1-1-2-2-2.7-3.2 c-2.4,0.8-3.1,4.9-1.7,5.6l15.2,7.3c2.9,1.4,8.8,1,13.4,3.2c5.2,2.5,6.8,3.1,7.6,3.1c4.7,0.1,6.2-4,5.9-7.2 C375.3,371.5,370.8,371.9,366.5,370.1z"></path> <path class="st11" d="M362.5,375.1l9.5,4.6l5.3-5l-12.8-2.2C364.2,373.8,362.5,375.1,362.5,375.1z"></path> </g> <path class="st6" d="M406.3,191.3c-8.7,30.7-12,51.3-17.2,82.8c-3.9,23.6-15,56.8-22.9,80.1c3,5.5,10.4,8.4,17.3,7.3 c4.8-8.2,25.5-66.1,30.9-82.7c8-24.4,18.3-45.8,26.8-75.5C441.6,202.1,415.5,192.3,406.3,191.3z"></path> <path class="st11" d="M426.3,196.8c-4.2,14,1,24.1-9.1,35.4c-6.3,7-7.6,24.6-7.6,34c0,7.2-1.8,15-5.9,21.2 c-4.3,6.6-8.5,10.8-9.6,18.9c-1,7.9-4.6,19.1-6.3,26.9c-3,14-12.7,11.6-18.3,24.8c3.7,2.9,8.9,4.3,14,3.5 c4.8-8.2,25.5-66.1,30.9-82.7c8-24.4,18.3-45.8,26.8-75.5C441.4,202.7,434.4,199.7,426.3,196.8z"></path> <path class="st6" d="M456,206.6c-7.3-1.3-40.8-9.3-44.3-2.8c-5.3,9.8,0.9,11,2.9,22.6c6.2,35.8,27.1,123.9,30.2,134.5 c6.3,2.4,12.5,0.3,16.9-0.8c-1-27.6-6.1-49.5-7-73.5C453.6,258.1,456.8,228.4,456,206.6z"></path> <path class="st11" d="M456,206.6c-2.4-0.4-7.6-1.6-13.6-2.7c2.4,3.2,0.5,26.6,0.4,28.4c-0.8,12.7,6.4,21,6,23.9 c-2.2,16.1,1.4,26.5,1.3,31.3c-0.1,5.4-2.7,15.3-1.3,27.6c0.8,6.5,5.3,19.2,7.4,25.9c1.2,3.7-2,16-1.4,20.6 c2.5-0.4,4.9-1.1,6.8-1.6c-1-27.6-6.1-49.5-7-73.5C453.6,258.1,456.8,228.4,456,206.6z"></path> <path class="st5" d="M457.6,150.2c0.2-13.6-7.9-31.2-28.7-31.2c-8.6,0-27.2,6.1-28.8,10.7c-2,5.8-4.2,87-3.3,89.3 c1.8,4.7,60.7,6.2,61.2,2.9C458.7,218.1,457.4,165.3,457.6,150.2z"></path> <path class="st5" d="M407.1,179.2c-1.3,6.8,8.1,7.3,11.1,6.3c4-1.4,10.8-6.5,18-17.1c12.8-18.7,15.9-23.8,15.9-23.8l-17.8-11.9 C434.3,132.7,408.4,172.4,407.1,179.2z"></path> <path class="st1" d="M408.5,183.9c2.6,2.3,7.6,2.3,9.7,1.6c4-1.4,10.8-6.5,18-17.1c12.8-18.7,15.9-23.8,15.9-23.8l-2.7-6.8 C446.1,151.9,425.1,174.3,408.5,183.9z"></path> <path class="st1" d="M457.6,150.2c0.2-13.6-7.9-31.2-28.7-31.2c-2,0-4.6,0.3-7.4,0.9c14.4,5.5,29.6,10.1,28.9,26 c-0.2,4.9-6.6,21.4-6.6,26.4c0,8.7,7.3,12.9,4,17.9c-4.3,6.7-7.1,7-7.1,9.7c0,6.6,6.4,6.1,5.4,11.2c-1.2,5.8-9.7,6-12.4,12.5 c12.9,0.3,24.2-0.2,24.4-1.7C458.7,218.1,457.4,165.3,457.6,150.2z"></path> <path class="st27" d="M427.1,108.3c-0.5,4.8-7.2,6.6-7.2,12.2c0,4.7,20.5,6.5,20.8-0.4c0.3-6.8,0.8-19.6,0.8-19.6 S427.6,103.5,427.1,108.3z"></path> <path class="st26" d="M438.4,77.8c-2.2-2.5-5.4-3.9-8.6-4.4c-3.3-0.5-13.4,0.9-16,2.9c-2.6,2-1.9,7.9-3,10 c-2.1,4.2-1.6,7-1.2,12.7c0.2,3.5-0.7,7.2,0.6,10.5c2.2,5.3,8.6,9.6,14.1,7.8c12.4-4,17.5-16.2,17.5-17.4 c-0.1-3.8,0.4-7.7,0.3-11.5C441.8,84.7,440.9,80.7,438.4,77.8z"></path> <path class="st27" d="M438.4,77.8c-2.2-2.5-5.4-3.9-8.6-4.4c-2-0.3-4-0.3-6-0.1c-4.1,0.9-6.1,11.2-6.1,11.2s-1.8,6.8-4.5,9.9 c-2.6,3.1,4.5,11.9,6.4,15.4c1.4,2.7,2.3,5.2,2.6,7.9c0.7,0,1.4-0.2,2.1-0.4c12.4-4,17.5-16.2,17.5-17.4 c-0.1-3.8,0.4-7.7,0.3-11.5C441.8,84.7,440.9,80.7,438.4,77.8z"></path> <path class="st11" d="M430.2,70.1c-11.6-1.6-16.3,6-19.5,6.8c8.6,6.4,22.2,3.1,22,5.2c-1.5,13.8,3.4,14.4,4.2,16.7 c1,3,4.5,6.3,5.4,6.6C451.2,83.2,444,72,430.2,70.1z"></path> <path class="st6" d="M435.8,71.5c-1.7-0.7-3.6-1.2-5.6-1.5c-9.1-1.2-13.9,3.1-17.1,5.5c0.2,0.1,11.3,4.6,22.1,2.6 C438.6,77.5,439.1,72.9,435.8,71.5z"></path> <path class="st26" d="M434.7,90.8c-4.8,1.6-1.6,7.5-1.7,11.5c0,2.2,3.1,0.3,4.9-1c1.3-1,2.2-2.4,2.7-4c0.7-2,0.7-4.4-0.8-5.8 C438.6,90.2,436.5,90.2,434.7,90.8z"></path> <path class="st27" d="M433.5,94.3c0,0,1.4,1,1.8,1.8c0.4,0.9,0.5,3,0.5,3s5.4-2.4,3.6-4.8C437.6,91.9,433.5,94.3,433.5,94.3z"></path> <path class="st11" d="M423.6,103.4c-0.1-2.1-1.6-4.4-4.5-5.3c-2.5-0.7-8.4-2-9.5-0.9c-2.4,2.6-1,4.9-1.7,6.8 c-1.6,4.2-3.5,6.5-2.9,9.3c1.6,8.3,12.7,14.6,22.5,8.8c9.5-5.7,5.3-17.4,4.7-20.6c-1.4-7.4,5.2-13.5,5.2-13.5l-3.2-4.6 C434.1,83.5,428.7,102.1,423.6,103.4z"></path> <g> <path class="st6" d="M426.6,100.8c0.1,0.5-0.1,1.1,0.3,1.4c1.8,1.3,5-11,4.8-11.6C430.3,94.1,428.5,98.2,426.6,100.8z"></path> <path class="st6" d="M407.8,113.4c-0.5-2.3,0.4-6.1,1.7-6.7c0.6-0.3,7.7,0,7.8-2.2c0.1-1.9-4-0.9-6-3.3c-0.9-1-0.2-2.8,0.9-4.4 c-1.3-0.1-2.3,0-2.7,0.4c-2.4,2.6-1,4.9-1.7,6.8c-1.6,4.2-3.5,6.5-2.9,9.3c1.6,8,11.8,14,21.3,9.4 C417.8,124.8,409.2,120.5,407.8,113.4z"></path> </g> <g> <path class="st24" d="M418.8,112.3c-1-1.3-3.2-0.5-3.2,1.7c-1-0.4-2.9,0.3-2.9,1.7c-1.3-0.1-3,1.2-3.1,2.5 c-1.8,0-2.9,1.3-2.6,3.7c0.3,2.5,0,5.5,0.7,12.3c0.1,1.1-0.4,11.7-0.4,12.7c2.2-0.5,9.5-1.7,11.7-1.6c-0.1-1.2-0.6-11.4,0.1-13.3 c1.3-3.6,1.5-8.4,1.2-12C420.1,117.9,419.9,113.6,418.8,112.3z"></path> <path class="st25" d="M418.8,112.3c-1-1.3-3.2-0.5-3.2,1.7c-1-0.4-2.9,0.3-2.9,1.7c-0.8-0.1-1.7,0.4-2.4,1c3.9,1,6.9,4.1,6.2,9.5 c-0.2,1.9-1.3,3.6-1.7,5.5c-0.6,2.8,0,5.2,0.5,8c0.4,2,0.5,4,0.4,5.9c1.4-0.2,2.6-0.3,3.3-0.2c-0.1-1.2-0.6-11.4,0.1-13.3 c1.3-3.6,1.5-8.4,1.2-12C420.1,117.9,419.9,113.6,418.8,112.3z"></path> <path class="st25" d="M418.2,111.7l-7.4-3.1c-0.7-0.3-1.5,0-1.8,0.7c-0.3,0.7,0.8,2.1,1.5,2.4l6.6,2.5c0.7,0.3,1.5,0,1.8-0.7 C419.2,112.8,418.9,112,418.2,111.7z"></path> </g> <path class="st28" d="M418.6,134.6c-4.9-0.7-9.7,0.2-10.9,0.5c-0.2,0-0.3,0.2-0.3,0.3c-0.2,1.1-0.2,2.5-0.1,3.2 c0,0.3,0.3,0.4,0.5,0.4c5-1.2,9.3-0.6,10.7-0.4c0.2,0,0.5-0.1,0.5-0.4c0.1-1.1,0-2.6-0.1-3.2C419,134.8,418.8,134.6,418.6,134.6z"></path> <g> <path class="st24" d="M374.8,218.1l-4.1,4.4c-0.4,0.4-0.3,1.1,0.1,1.5c0.4,0.4,1.1,0.3,1.5-0.1c0,0,3.6-4,3.5-5.4 C375.8,218.2,375.1,217.7,374.8,218.1z"></path> <path class="st24" d="M365.5,213.9l-4.5,7c-0.4,0.7-0.2,1.6,0.5,2c0.7,0.4,1.6,0.2,2-0.5c0,0,4-6.4,3.5-8.2 C366.9,213.7,366,213.2,365.5,213.9z"></path> <path class="st24" d="M368.7,214.7l-4.5,7.1c-0.4,0.7-0.2,1.6,0.5,2c0.7,0.4,1.6,0.2,2-0.5c0,0,4-6.4,3.5-8.2 C370.1,214.5,369.1,214,368.7,214.7z"></path> <path class="st24" d="M371.5,215.3l-4.1,6.4c-0.4,0.6-0.2,1.4,0.4,1.8c0.6,0.4,1.4,0.2,1.8-0.4c0,0,3.7-5.8,3.2-7.5 C372.8,215.2,371.9,214.7,371.5,215.3z"></path> </g> <path class="st5" d="M419.3,141.1c-7.6-0.7-12.1,0.5-12.1,0.5s-1.7,17.7-2.3,25.4c-0.4,4.9,0.4,10.1,2,14.8 c1.6,4.8,16.1,8.2,15.3-7.5C421.7,163.9,419.3,141.1,419.3,141.1z"></path> <path class="st1" d="M419.3,141.1c-1.7-0.2-3.3-0.2-4.7-0.2c0.6,0.9,1,1.9,1.2,3.1c1.7,12,7.1,26-0.6,37.1c-1.4,2-3.1,3.3-5,3.9 c4.7,2.1,12.4,0.9,11.9-10.7C421.7,163.9,419.3,141.1,419.3,141.1z"></path> <ellipse transform="matrix(0.9989 -4.665867e-02 4.665867e-02 0.9989 -5.9016 19.4798)" class="st28" cx="414.3" cy="136.2" rx="3.5" ry="3.5"></ellipse> <ellipse transform="matrix(0.9989 -4.661038e-02 4.661038e-02 0.9989 -5.896 19.4595)" class="st29" cx="414.3" cy="136.2" rx="2.6" ry="2.6"></ellipse> <path class="st24" d="M412.2,136.3c-0.1-1.3,1-2.5,2.3-2.6c0.6,0,1.1,0.2,1.6,0.5c-0.5-0.5-1.2-0.7-1.9-0.7 c-1.4,0.1-2.5,1.3-2.5,2.7c0.1,1.4,1.3,2.5,2.7,2.5c0.7,0,1.2-0.3,1.7-0.7c-0.4,0.3-0.8,0.5-1.4,0.6 C413.4,138.7,412.2,137.6,412.2,136.3z"></path> </g> <g> <g> <path class="st24" d="M55,130.2c5.9,10.3,22.8,28.8,28.8,35.9l10.1-4.8c-5.2-9.4-28.6-39-28.6-39L55,130.2z"></path> <path class="st24" d="M133.5,185.2c-3-1.6,0.7-2.7-2-3.7c-2.9-1.1-4.3-1.5-7.7-0.7c-5.8,1.3-19.7-12-29-18.8 c-10.3-7.6-14.1-1-12.7,1.6c6.9,12.7,27.2,19.4,34.6,23.5c5.6,3.1,9.2,4.3,11.3,5.5c1.9,1.1,3.3,1.1,3.9-0.5 c1.1,0.4,2.4-0.1,2.8-1.3c1.2,0.5,2.2-0.5,2.1-1.5c1.9,0.8,3.6,1.4,3.8-0.2C140.7,188.3,135.2,186.1,133.5,185.2z"></path> <path class="st25" d="M137.8,187.2c-3.8,2.1-4.6-4.2-8-2.3c-6.9,3.8-27.9-13.7-37.8-17.9c-3.5-1.5-3.5-5.4-1.8-7.7 c-6.6-5-9.5,1.9-8.3,4.1c6.9,12.7,27.4,19.6,34.8,23.6c5.6,3.1,9.2,4.3,11.3,5.5c1.9,1.1,3.3,1.1,3.9-0.5 c1.1,0.4,2.4-0.1,2.8-1.3c1.2,0.5,2.2-0.5,2.1-1.5c1.9,0.8,3.6,1.4,3.8-0.2C140.7,188.7,139.4,188,137.8,187.2z"></path> <path class="st24" d="M126.2,180.4l3.2,2.8c1.2,0.3,2.6,0,4.2-0.6c2.1,0.9,3.8,0.4,4.6-1c-2.9-0.4-4.2-0.9-5.3-1.3L126.2,180.4z"></path> </g> <circle class="st30" cx="35.9" cy="67.3" r="9.2"></circle> <path class="st31" d="M35.9,58.1c-1.1,0-2.1,0.2-3,0.5c0.5-0.1,1-0.1,1.5-0.1c9.5,0,9.4,14.7,0,14.7c-6.1,0-8.2-6-6.5-10.4 c-0.8,1.3-1.2,2.9-1.2,4.5c0,5.1,4.1,9.2,9.2,9.2c5.1,0,9.2-4.1,9.2-9.2C45.1,62.2,41,58.1,35.9,58.1z"></path> <path class="st30" d="M31.6,56.2c-5.4,3.2-7.2,10.1-4,15.4c1.8,3.1,4.9,5,8.1,5.4c-2.3-0.9-4.3-2.5-5.7-4.8 c-3.2-5.4-1.4-12.3,4-15.4c2.3-1.3,4.9-1.8,7.3-1.4C38.3,54.3,34.7,54.4,31.6,56.2z"></path> <path class="st30" d="M34.9,68.9C15.4,73.3,20.1,90.9,21,95.5c1.8,9.1,10.1,14.5,20.8,14.5c14.1,0,22-21,14-33.2 C49.8,67.6,40.4,67.7,34.9,68.9z"></path> <path class="st31" d="M34.9,68.9c-0.1,0-0.2,0.1-0.3,0.1c0.2,0,0.5,0.1,0.7,0.1c1.6,0.4,3.1,1.2,4.5,2.2c3.7,1.7,6.2,4.6,7.8,8.4 c1.5,3.5,1.8,7.1,0.9,10.9c-1,4-4.1,7.4-7.6,9.4c-3.6,2-8.3,3.2-12.4,1.8c-2.5-0.8-4.6-2.1-6.5-3.9c-0.1-0.1-0.2-0.3-0.4-0.4 c2.6,7.9,10.4,12.5,20.3,12.5c14.1,0,22-21,14-33.2C49.8,67.6,40.4,67.7,34.9,68.9z"></path> <path class="st25" d="M36.1,272.7c-0.2,3.1-1.1,5.7-1.3,8.3c-0.2,2.7,0.3,5.4,0.5,9c0.4,3.7-1.3,6.6-2,9.8 c-3.3,16.4,0.2,20.6-3.4,33.2c-1.2,4.1-2.4,5.5-3,7.3c-0.8,2.4-0.1,5.3-0.9,10c-1.1,6.1-4.1,12.3-3.1,15.7c1,3.2,8.5,6.4,11.2,6.4 c3.3,0,1.7-3.9,1.6-6.2c-0.2-3.8,1.1-25.2,2.4-30c3.6-13.6,11.8-28.1,13.4-41c1.6-12.3,0.5-14.6,3.3-29c0.3-1.7,6.2-40.3,6.7-55.9 l-25.1,12.7C36.9,238,37.3,257,36.1,272.7z"></path> <path class="st24" d="M47.5,261c3.1,13.1,0.2,26.1-3.8,38.8c-4.5,14.2-8.3,20.7-9,35.7c-0.5,11.6-6.6,23.2-7,34.8 c2.3,1.2,4.9,2,6.3,2c3.3,0,1.7-3.9,1.6-6.2c-0.2-3.8,1.1-25.2,2.4-30c3.6-13.6,11.8-28.1,13.4-41c1.6-12.3,0.5-14.6,3.3-29 c0.3-1.7,6.2-40.3,6.7-55.9l-17.2,8.7C46.8,232.9,44.2,247.2,47.5,261z"></path> <path class="st31" d="M35.6,362.3c-0.5,2.6-5.6,3.9-8.1,0.6c-1.6-2.2-2.2-5.1-2.7-7.6c0-0.1-0.1-0.2-0.1-0.3 c-1.3,4.4-2.7,8.5-2,11.1c1,3.2,8.5,6.4,11.2,6.4c3.3,0,1.7-3.9,1.6-6.2C35.6,365.4,35.6,364,35.6,362.3z"></path> <path class="st24" d="M50.2,119.1c-7.5,2.1-5.8-6.2-6.8-13.5l-10.2,3.6c1.3,6.8,2.2,11.7-3.3,13.8c-3.2,1.2-8.4,2.7-11.1,3.4 c-4.9,1.2-7.5,36.2-8.5,45.5l8.7,3.5c1.9-6.7,5.8-17.7,5.8-25.8l33-4.3L55.1,134l11.1-4C63.4,118.3,59.2,116.6,50.2,119.1z"></path> <path class="st25" d="M50.2,119.1c-7.5,2.1-5.8-6.2-6.8-13.5l-10.2,3.6c0.2,1.3,0.5,2.6,0.7,3.8c2.8,4.1,8.2,10.5,13,10 c2.6-0.3,5-3.3,8-3.7c2-0.2,4.3-0.1,6.4,0.6C58.7,117.7,55.2,117.7,50.2,119.1z"></path> <path class="st25" d="M20.5,150.5c-0.1,1.6-0.2,3.3-0.3,5c-0.1,5-3.8,13.6-5,18.2l3.9,1.6c1.5-5.4,5.5-14.8,5.7-21.1 C23.5,153.8,20.7,151,20.5,150.5z"></path> <path class="st24" d="M44.1,77.7c-2.2-1.1-5.1-1.5-8.8-0.9c-8.9,1.6-10.9,9.2-10.3,16.8c0.3,4.3,0.6,8,2.6,11.3 c1,1.6,6.8,8.4,11,8.4c4.5,0,10-7.7,10.8-9.8c0.9-2.4,1.3-5.3,1.4-9.7c0-0.3,0-0.6,0-0.9C50.9,86.4,49.1,80.2,44.1,77.7z"></path> <path class="st25" d="M44.1,77.7c-3.1-0.9-7-0.9-11.9,0.8c0,0,4.1,13.8,18.7,14.5C50.9,86.4,49.1,80.2,44.1,77.7z"></path> <path class="st24" d="M51.8,345.7c-0.6-1.8-2-1.4-3.2-5.5c-3.6-12.5,0-18.5-3.2-35c-0.6-3.2-2.3-6.1-2-9.8c0.1-3.5,0.7-6.2,0.5-9 c-0.2-2.6-1.1-5.1-1.3-8.3c-0.8-10-0.9-14-0.8-28.5c0.2-22,2-32.4-6-48.9l-16.7,0.1l-2,15c0.5,17,2.3,35.3,6,54.6 c2.8,14.4,3.5,19.4,6.1,31.3c2.8,12.7,13.5,44,13.9,49c0.1,1.4,0.4,18.6,0.7,20.9c0.3,2.4,0,8.1,3.2,8.1c2.8,0,8-6,8.7-8.2 c1.1-3.4-2-9.6-3.1-15.7C51.8,351,52.6,348.1,51.8,345.7z"></path> <path class="st31" d="M46.4,371.5c-1.1,0-1.9-1.3-2.7-1.9c0,1,0.1,1.7,0.1,2.1c0.3,2.4,0,8.1,3.2,8.1c2.8,0,8-6,8.7-8.2 c0.8-2.5-0.6-6.5-1.9-10.9C53.7,361.4,52.1,371.5,46.4,371.5z"></path> <path class="st32" d="M67.2,184c-5,1.3-35.2,6.1-46.2-0.3c-0.8,4.8-9.5,11.5-9.5,26.9c0,22.4,9.5,67.2,9.5,67.2s21.1,5.8,36,0.9 c6-29.1,14.3-59.3,11.9-81.3C68.7,196.7,67.3,184.7,67.2,184z"></path> <path class="st28" d="M67.2,184.3c-0.1,0.1-0.1,0.2-0.2,0.3c-10.5,10.8-27.1,11.3-24.2,17c2,4.1,13,11.6,15.8,14.2 c5.9,5.5-10.9,12.7-9.7,25.4c0.5,5.9-2.5,16.6-4.1,22.4c-2.4,8.8-14.9,8.2-20.6,15.1c6.5,1.4,21.4,3.9,32.7,0.1 c6-29.1,14.3-59.3,11.9-81.3C68.7,196.8,67.5,186.2,67.2,184.3z"></path> <path class="st32" d="M68.8,122.2c-5.5-6-17.4-4.4-17.4-4.4c-4.4,4-13.1,10.2-13.1,10.2l-12.7-4c0,0-12.7,0.5-14.2,12.4 c-0.5,4,7.7,3.5,7.7,9.2c0,3.8,2,7,4.7,9.3c1,6.3,1.2,13.3,1,16.8c-0.4,7.6-5,6.9-4.3,11.2c1.2,7.2,43.6,5.7,47.1,1.5 c3.8-4.5,0.1-31.1-1.6-45C65.2,131,71.9,125.6,68.8,122.2z"></path> <path class="st28" d="M68.8,122.2c-5.5-6-17.4-4.4-17.4-4.4c-4.4,4-13.1,10.2-13.1,10.2l-12.7-4c0,0-3.6,0.1-7.2,2.1 c1,0.4,3.4,1.2,5.2,2.2c16.7,8.8,14.9,20.9,9.7,23.3c-3.5,1.7,8.4,13.4,8.4,23.8c0,4.4,10.4,0,14-2.7c3.2-2.5,5.4-0.1,2.2,2.3 c-5.9,4.5-11.8,9.1-22.5,9.3c-2.6,0-6.7,0.9-9.1,2c11.9,2.9,38.6,1.3,41.4-2c3.8-4.5,0.1-31.1-1.6-45 C65.2,131,71.9,125.6,68.8,122.2z M61.7,143.3c-1.4,2.1-2.6,5-2,7.5c1,3.9-2,5.3-5.4,3.1c-1.9-1.3-9.6,3.3-14,2.5 c-4-0.7-1.3-2.6,0.2-2.4c4.5,0.6,13.7-9.8,15.6-14.3c1-2.3,4.8-3.2,6.1-1.7C63.5,139,62.8,141.7,61.7,143.3z"></path> <g> <g> <path class="st25" d="M38.3,102.4c-1.1,0-2,0.4-2.2,0.7c-0.3,0.4,0.6,0.7,1,0.7c0.2,0,0.5,0.1,0.8,0.1c0.4,0.1,0.8,0.1,1.2,0 c0.2-0.1,0.6-0.1,0.8-0.1c0.4,0,1.2-0.2,1-0.7C40.6,102.8,39.5,102.4,38.3,102.4z"></path> </g> </g> <path class="st30" d="M30.8,75.3c0,0,5.8,17.2,27.1,15C58,90.4,55.4,68.1,30.8,75.3z"></path> <path class="st24" d="M58.4,179.6c-1.4-0.2-3.8,0.1-2.5-1.8c1.6-2.3-6-0.9-8.5,1.1c-1.2,0.9-2.5,0.5-3.8,0.5 c-5.7-0.1-13.3-4.1-23.9-5.6c-3.6-0.5-5.6-1.4-9.2-2c-0.5,3.7,0.5,7.6,2,8.9c5.6,5.3,11.9,4.5,17.3,4.8c5.5,0.3,7.1-0.2,14.8,0.9 c5.8,0.9,9.3,1.2,11.5,1.1c2-0.1,3.2-0.1,3.2-1.7c1.1,0,2-0.8,2-2c1.2,0,1.7-1.1,1.4-1.9c1.9,0.1,3.5,0.1,3.2-1.4 C65.6,180,60.2,179.8,58.4,179.6z"></path> <path class="st25" d="M48.7,186.1c-1.8-0.5-3.4-1.9-5-2.9c-9.5,0-12.6-7-33.2-7c0.3,2,1,3.8,1.9,4.6c5.6,5.3,11.9,4.5,17.3,4.8 c5.5,0.3,7.1-0.2,14.8,0.9c5.8,0.9,9.3,1.2,11.5,1.1c1.8-0.1,2.8-0.1,3.1-1.1C55.6,187,52,187,48.7,186.1z"></path> <g> <g> <path class="st11" d="M2.4,175.4C2.4,175.4,2.4,175.4,2.4,175.4c0,1.2,0.9,2.1,2.1,2.1h48.7c1.1,0,2.1-0.9,2.1-2.1c0,0,0,0,0,0 H2.4z"></path> </g> <path class="st11" d="M60.5,132.5l-10.2,42.4c-0.2,0.7,0,2.6,2.5,2.6l41.3-0.5v-47.3l-29.9,0C62.5,129.6,61,130.8,60.5,132.5z"></path> <path class="st5" d="M116.6,129.7H63.8c-0.5,0-1,0.4-1.2,0.9l-10.9,45.4c-0.2,0.8,0.4,1.5,1.2,1.5h49.1c2.7,0,5.1-1.8,5.8-4.4 l9.9-41.9C118,130.4,117.4,129.7,116.6,129.7z"></path> </g> <path class="st24" d="M49.8,177.7l3.2,1.2c1.1-0.1,2.7-0.5,3.9-1.6c2.1,0.1,3.4-0.8,3.7-2.3c-2.7,0.6-3.9,0.6-5,0.6L49.8,177.7z"></path> <polygon class="st11" points="127.7,194.9 198.8,129.1 125,191.8 "></polygon> <g> <path class="st24" d="M131.2,191.4l-5.4-1.4c-0.5-0.1-0.6,0.5-0.4,0.8c0.8,1.1,5.6,2.4,5.6,2.4c0.5,0.1,1-0.2,1-0.7 C132,192,131.7,191.5,131.2,191.4z"></path> <path class="st24" d="M139.4,188.1l-7.3-3.2c-0.7-0.3-1,0.6-0.8,1c0.8,1.7,7.4,4.7,7.4,4.7c0.7,0.3,1.4,0,1.6-0.6 C140.5,189.2,140.1,188.4,139.4,188.1z"></path> <path class="st24" d="M136.4,189l-7.3-3.2c-0.7-0.3-1,0.6-0.8,1c0.8,1.7,7.4,4.7,7.4,4.7c0.7,0.3,1.4,0,1.6-0.6 C137.5,190.2,137.1,189.4,136.4,189z"></path> <path class="st24" d="M133.8,190.5l-6.6-3c-0.6-0.3-0.9,0.5-0.7,0.9c0.7,1.6,6.7,4.3,6.7,4.3c0.6,0.3,1.3,0,1.5-0.6 C134.8,191.5,134.4,190.8,133.8,190.5z"></path> </g> </g> </g> <g> </g> <g> </g> <g> </g> <g> </g> <g> </g> <g> </g> <g> </g> <g> </g> <g> </g> <g> </g> <g> </g> <g> </g> <g> </g> <g> </g> <g> </g> </svg> 