<svg xmlns="http://www.w3.org/2000/svg" width="923.67" height="823.55" viewBox="0 0 923.67 823.55"><title>visual-header-features</title><path d="M140.93,714.2s30.35,11.45,30.2-8.62-9.51-25.06,4.07-32.61,22-10.27,19.63-24.91,29.28-27,26.11-43.32-27.77-13.14-37.59-2.12S150,605,145.62,630.1s-5.74,21.74-21.44,34S114.05,707.28,140.93,714.2Z" fill="#44465d"/><path d="M136.87,737H137a2.41,2.41,0,0,0,2.3-2.52c0-.24-.61-16.79,5.79-39.08a155.89,155.89,0,0,1,48.84-75.66,2.41,2.41,0,0,0-3.13-3.67,160.72,160.72,0,0,0-50.4,78.19c-6.59,23.06-5.95,39.74-5.92,40.44A2.42,2.42,0,0,0,136.87,737Z" fill="#44465d"/><path d="M126.76,716.75s-26.55,10-26.42-7.55,8.32-21.93-3.57-28.53-19.28-9-17.17-21.79S54,635.23,56.75,621s24.31-11.49,32.89-1.85,29.19,2.11,33,24,5,19,18.76,29.72S150.28,710.69,126.76,716.75Z" fill="#f3af4b"/><path d="M130.31,737a2.41,2.41,0,0,0,2.41-2.3c0-.62.6-15.26-5.19-35.48a140.82,140.82,0,0,0-44.19-68.56,2.41,2.41,0,1,0-3.13,3.67,136,136,0,0,1,42.63,66c5.61,19.51,5.07,34,5.06,34.12a2.42,2.42,0,0,0,2.31,2.52Z" fill="#44465d"/><path d="M108.39,784.61h47.12a4.5,4.5,0,0,0,4.43-3.7l7.43-41a4.51,4.51,0,0,0-4.44-5.31H101a4.5,4.5,0,0,0-4.43,5.31l7.43,41A4.5,4.5,0,0,0,108.39,784.61Z" fill="#44465d"/><path d="M140.93,714.2s30.35,11.45,30.2-8.62-9.51-25.06,4.07-32.61,22-10.27,19.63-24.91,29.28-27,26.11-43.32-27.77-13.14-37.59-2.12S150,605,145.62,630.1s-5.74,21.74-21.44,34S114.05,707.28,140.93,714.2Z" fill="#4b2df7"/><path d="M136.87,737H137a2.41,2.41,0,0,0,2.3-2.52c0-.24-.61-16.79,5.79-39.08a155.89,155.89,0,0,1,48.84-75.66,2.41,2.41,0,0,0-3.13-3.67,160.72,160.72,0,0,0-50.4,78.19c-6.59,23.06-5.95,39.74-5.92,40.44A2.42,2.42,0,0,0,136.87,737Z" fill="#fff"/><path d="M126.76,716.75s-26.55,10-26.42-7.55,8.32-21.93-3.57-28.53-19.28-9-17.17-21.79S54,635.23,56.75,621s24.31-11.49,32.89-1.85,29.19,2.11,33,24,5,19,18.76,29.72S150.28,710.69,126.76,716.75Z" fill="#4b2df7"/><path d="M130.31,737a2.41,2.41,0,0,0,2.41-2.3c0-.62.6-15.26-5.19-35.48a140.82,140.82,0,0,0-44.19-68.56,2.41,2.41,0,1,0-3.13,3.67,136,136,0,0,1,42.63,66c5.61,19.51,5.07,34,5.06,34.12a2.42,2.42,0,0,0,2.31,2.52Z" fill="#fff"/><path d="M108.39,784.61h47.12a4.5,4.5,0,0,0,4.43-3.7l7.43-41a4.51,4.51,0,0,0-4.44-5.31H101a4.5,4.5,0,0,0-4.43,5.31l7.43,41A4.5,4.5,0,0,0,108.39,784.61Z" fill="#ecf5ff"/><path d="M40.77,787.47H0a10.29,10.29,0,0,1,0-1.25H0A10.29,10.29,0,0,1,0,785H40.77a10.29,10.29,0,0,1,0,1.25h0A10.29,10.29,0,0,1,40.77,787.47Z" fill="#d4ccff"/><path d="M401.72,807.71H180.18a1.26,1.26,0,0,1,0-2.51H401.72a1.26,1.26,0,0,1,0,2.51Z" fill="#d4ccff"/><path d="M285.53,823.55h-81.7a1.28,1.28,0,1,1,0-2.55h81.7a1.28,1.28,0,1,1,0,2.55Z" fill="#d4ccff"/><path d="M733.9,136.8c-7.74.86-16.11,8.81-20.16,17,.21-3.25.38-6.5.46-9.74l0-1.61c5.61-5.65,22.2-16.54,17.69-26.9-8.94.57-13.85,8.85-16.29,15.8-.31.88-.82,2.12-1.33,3.49,0-5-.14-10.13-.45-15.23a42.07,42.07,0,0,0,9-7.24c1.93-2.11,9.28-11.83.79-11.22-3.24.23-7.94,7.43-10.15,13.06-.31-3.61-.73-7.22-1.26-10.79C715.39,86,725,64.52,710.64,49.34,696,33.89,694.53,63.47,696.35,71.46c1.57,6.88,5.71,22.68,12.72,32.4.4,3.88.73,7.77.89,11.68q.13,3.24.19,6.5c-3.19-12.92-9.83-38.53-20.75-31.27-9.68,6.44,13.81,25.84,20.79,35,0,6.48-.11,13-.52,19.43-.1,1.68-.25,3.35-.38,5-1.63-5.51-1.76-12.72-5.13-17.58-3-4.31-11.76-10.84-14.69-4.78-4.16,8.63,7.85,15.58,13.27,20,3.9,3.19,4.78,6,6.2,6.26q-1.19,12.17-3.54,24.2c-.68-10.81-4.14-27.49-17.32-29-6.46,15.82,11,21.11,16.89,31.14a241.34,241.34,0,0,1-6.23,24.2l-.09.28c.18-8.25,1.07-16.27-2.54-24.33-3.28-7.32-13.19-14.12-13.85-1.88-.49,8.92,6.16,15.11,10.86,22.16,2.09,3.13,3.14,6.42,4.21,8.1a228.24,228.24,0,0,1-8.67,21.62c-.32-14.15-2.23-43.46-18.3-40.09-5.89,15.16,10.77,29.18,17.15,42.57-3,6.41-6.29,12.72-9.74,19,1.14-5.87.78-11.92.6-17.86-.14-4.47-5.18-19.74-13.56-14s3.08,19,6.26,23.54a23.17,23.17,0,0,1,4.25,12.75l-2,3.43c-3.39,5.89-6.86,11.81-10.17,17.82,2.15-12,8.65-33.34-7.38-36.24-4.13,8.33-2,23.84,2.13,32,1.35,2.66,2.6,5,3.8,6.88-1.88,3.49-3.7,7-5.39,10.58-1-12.64-8.83-28.4-15.43-23.71s-.06,17.53,3.2,22.18c2.85,4.06,6.26,7.66,8,11.11a115.7,115.7,0,0,0-4.43,13.25c-.85,3.22,4.33,4.4,5.4,1.27a183.6,183.6,0,0,1,7.22-17.86c8.76-.82,23.94,6.32,30.33,4.75,8.89-2.19,10.07-10.31,1.77-14.59-7.55-3.89-20.68-1.14-29.54,4.5,2.46-5,5.07-9.93,7.77-14.83,7.8-2.46,16.44,3.33,24.9-.6,8.89-4.13,6.79-14.41-3.31-14.12-4.87.14-11.83,3.25-17.44,7.29,1.95-3.46,3.93-6.92,5.91-10.39q2.57-4.51,5-9.06c8.07-1,21.31,5.52,27.52-4.15,4.35-6.78-.49-15.12-9-11.92a57.71,57.71,0,0,0-14.82,9c2.87-5.73,5.55-11.53,8-17.41,9.37-2.19,24.32,6.66,32.07-2,6.33-7.11-3.29-13.92-11.18-12.63s-14.11,7.11-20,12.44q2.65-6.61,4.89-13.38c7.61-2.86,20-1.4,26.15-9,5.95-7.35,3.53-19.63-8.43-14.81-6.28,2.52-11.18,8.68-15.1,15q2.13-7.64,3.69-15.38a63.54,63.54,0,0,1,9.31-6.76c4.29-2.5,9.71-4.3,11.48-9.19,3-8.44-5.12-7.2-10.4-3.2-3.82,2.88-6.68,7.39-9.06,12.06q1.5-8.75,2.34-17.56C719.74,154.21,741.09,151.59,733.9,136.8Z" fill="#4b2df7"/><path d="M762.21,249.1c-7.62-1.59-18,3.37-24.44,9.94,1.2-3,2.37-6.06,3.45-9.12.18-.5.35-1,.53-1.52,7.09-3.63,26.24-8.83,25.17-20.08-8.67-2.23-15.92,4.12-20.39,10-.57.74-1.44,1.76-2.35,2.91,1.55-4.79,3-9.68,4.3-14.63a41.9,41.9,0,0,0,10.78-4.09c2.48-1.41,12.49-8.37,4.23-10.43-3.15-.78-9.86,4.61-13.71,9.27.83-3.53,1.55-7.09,2.15-10.65,8.46-15.63,24.27-33,15.33-51.93-9.11-19.22-19.7,8.43-20.46,16.59-.64,7-1.61,23.34,2,34.75-.83,3.81-1.72,7.61-2.78,11.38-.58,2.08-1.2,4.16-1.84,6.23,1-13.26,2.61-39.67-10-36.16-11.19,3.12,5.11,28.85,8.91,39.69-2,6.17-4.13,12.29-6.52,18.31-.62,1.56-1.28,3.11-1.93,4.66.17-5.74,2.28-12.64.58-18.31-1.5-5-7.81-13.95-12.47-9.1-6.64,6.91,2.63,17.25,6.4,23.15,2.72,4.24,2.67,7.23,4,7.87q-4.89,11.2-10.87,21.9c2.71-10.48,4.59-27.41-7.48-32.92-11,13,3.89,23.47,6.4,34.84a245.22,245.22,0,0,1-13.43,21.08l-.18.24c2.73-7.79,6.06-15.14,5.13-23.93-.84-8-8.15-17.5-12.58-6.08-3.23,8.33,1.17,16.28,3.45,24.43,1,3.63,1,7.08,1.48,9a223.76,223.76,0,0,1-14.95,17.87c4.09-13.55,11.38-42-4.94-43.79-10.31,12.58,1.18,31.08,3.08,45.79-4.86,5.15-9.93,10.14-15.15,15,2.91-5.23,4.45-11.09,6.11-16.8,1.26-4.29,1.21-20.37-8.52-17.54s-3,19-1.36,24.31a23.16,23.16,0,0,1,.08,13.45l-2.92,2.65c-5.05,4.54-10.18,9.1-15.19,13.78,5.76-10.74,18.57-29,4.22-36.74-6.5,6.63-9.3,22-7.91,31.11.46,2.95.93,5.54,1.48,7.72q-4.32,4.1-8.41,8.38c2.94-12.34.42-29.74-7.31-27.32s-5.5,16.64-3.84,22.07c1.45,4.74,3.58,9.22,4.18,13.05a114.58,114.58,0,0,0-8.32,11.22c-1.81,2.8,2.74,5.53,4.73,2.88a184.39,184.39,0,0,1,12.41-14.73c8.58,1.94,20.8,13.44,27.36,13.93,9.13.68,12.77-6.68,6.2-13.32-6-6-19.3-7.51-29.47-4.89,3.89-4,7.9-7.87,12-11.69,8.18.08,14.6,8.27,23.85,7.16,9.73-1.17,10.93-11.59,1.24-14.45-4.68-1.38-12.25-.58-18.84,1.52q4.39-4,8.84-8.05,3.84-3.48,7.56-7.06c8,1.56,18.54,11.86,27.44,4.6,6.24-5.1,4.23-14.54-4.88-14.14a58,58,0,0,0-16.87,3.93q6.77-6.84,13-14.07c9.59.82,21.05,13.88,31.12,8,8.22-4.79,1.19-14.26-6.71-15.48s-15.62,2.38-22.84,5.63q4.57-5.46,8.8-11.2c8.12-.36,19.49,4.89,27.64-.4,7.94-5.14,9.45-17.56-3.41-16.7-6.76.45-13.33,4.78-19,9.59q4.38-6.59,8.28-13.47a63.61,63.61,0,0,1,11-3.54c4.84-1,10.56-1.07,13.76-5.17,5.51-7.08-2.64-8.43-8.89-6.28-4.53,1.56-8.65,5-12.36,8.67q4.14-7.85,7.67-16C743.35,261.25,764.46,265.39,762.21,249.1Z" fill="#4b2df7"/><path d="M631.1,787.43h-308a41.64,41.64,0,0,1-41.63-41.63V119.94a41.64,41.64,0,0,1,41.63-41.63h308a41.65,41.65,0,0,1,41.64,41.63V745.78A41.65,41.65,0,0,1,631.1,787.43Z" fill="#0f0355"/><rect x="209.85" y="243.97" width="534.52" height="349.93" transform="translate(56.47 894.53) rotate(-89.79)" fill="#fff"/><path d="M501.56,127.22h-48.9a12.23,12.23,0,1,1,0-24.45h48.9a12.23,12.23,0,1,1,0,24.45Z" fill="#fff"/><path d="M563.68,309.45,560,302.54s5.62-16.5,5-17.06l-10.13-8.27c-.7-.57-15.93,8.09-15.93,8.09l-7.59-2.3s-7.9-15.52-8.79-15.44l-13.14,1.17c-.92.08-5.47,16.74-5.47,16.74l-7.05,3.62s-16.83-5.45-17.39-4.78L471,294.24c-.59.68,8.19,15.58,8.19,15.58l-2.38,7.44s-15.88,7.79-15.8,8.65l1.15,12.88c.08.9,17.07,5.3,17.07,5.3l3.66,6.89s-5.62,16.49-4.95,17l10.12,8.29c.69.56,15.93-8.1,15.93-8.1l7.59,2.32s7.9,15.5,8.79,15.42l13.15-1.17c.91-.08,5.47-16.74,5.47-16.74l7.07-3.62s16.79,5.46,17.36,4.8l8.5-9.94c.6-.69-8.2-15.58-8.2-15.58l2.38-7.44s15.87-7.8,15.8-8.67l-1.15-12.87C580.67,313.84,563.68,309.45,563.68,309.45Zm-23,15.6A19.29,19.29,0,1,1,519.78,308,19.1,19.1,0,0,1,540.65,325.05Z" fill="#23118b"/><path d="M371.46,519.3l-3-3.48s1.06-10.17.6-10.4l-6.88-3.4c-.47-.23-8.05,6.72-8.05,6.72l-4.64-.33s-6.55-7.83-7-7.67l-7.36,2.39c-.52.17-.94,10.29-.94,10.29l-3.55,3S320.26,515.5,320,516l-3.55,6.79c-.25.47,6.72,7.83,6.72,7.83l-.38,4.57s-8.06,6.54-7.9,7l2.34,7.22c.17.5,10.46.79,10.46.79l3,3.46s-1.06,10.17-.6,10.4l6.87,3.41c.47.23,8.05-6.72,8.05-6.72l4.64.33s6.55,7.83,7.05,7.66l7.36-2.39c.51-.16.93-10.28.93-10.28l3.57-3s10.32.92,10.56.46l3.56-6.79c.24-.48-6.74-7.83-6.74-7.83l.39-4.57s8.05-6.54,7.89-7l-2.34-7.2C381.75,519.57,371.46,519.3,371.46,519.3Zm-11.12,11.93a11.31,11.31,0,1,1-14.17-7A11.2,11.2,0,0,1,360.34,531.23Z" fill="#23118b"/><path d="M342.21,343.8l.74-1,.57-.8,1.05-1.5c.68-1,1.33-2,2-2.93,1.28-1.92,2.49-3.84,3.68-5.77,2.38-3.84,4.62-7.72,6.76-11.65a255.12,255.12,0,0,0,11.58-24.29l-49.45-20.32A201.15,201.15,0,0,1,310,294.6c-1.69,3.1-3.46,6.16-5.29,9.12-.91,1.48-1.84,2.94-2.78,4.36l-1.38,2.05-.67,1-.46.63Z" fill="none"/><path d="M337.06,296.27l4.82,2.31c1.29-2.73,2.55-5.47,3.74-8.24l-4.91-2.12C339.55,290.93,338.32,293.61,337.06,296.27Z" fill="#aca4dc" fill-rule="evenodd"/><path d="M329.69,310.31l4.65,2.65c1.5-2.62,2.93-5.28,4.33-7.95l-4.75-2.46C332.56,305.16,331.16,307.76,329.69,310.31Z" fill="#aca4dc" fill-rule="evenodd"/><path d="M321.37,323.72l4.41,3c1.72-2.51,3.35-5.06,4.93-7.64l-4.56-2.79C324.61,318.82,323,321.3,321.37,323.72Z" fill="#aca4dc" fill-rule="evenodd"/><path d="M368.56,295.86A219.28,219.28,0,0,0,377.38,270a182.09,182.09,0,0,0,5.35-27.53l-53.12-6.07a148.59,148.59,0,0,1-10.5,39.15Z" fill="none"/><path d="M352.39,251.37l5.24,1c.33-1.48.55-3,.82-4.48s.48-3,.7-4.51l-5.3-.73c-.2,1.45-.4,2.9-.67,4.35S352.7,249.93,352.39,251.37Z" fill="#aca4dc" fill-rule="evenodd"/><path d="M348.56,266.71l5.12,1.53c.43-1.45.87-2.9,1.25-4.37s.8-2.92,1.14-4.4l-5.2-1.27c-.32,1.43-.73,2.85-1.1,4.27S349,265.3,348.56,266.71Z" fill="#aca4dc" fill-rule="evenodd"/><polygon points="343.42 281.63 348.4 283.58 350.01 279.33 351.51 275.06 346.45 273.33 344.98 277.5 343.42 281.63" fill="#aca4dc" fill-rule="evenodd"/><path d="M382.73,242.46c.26-2.37.52-4.73.65-7.13.08-1.2.18-2.39.24-3.59l.11-3.62c.12-2.33,0-5,0-7.58,0-1.26-.14-2.64-.22-4s-.17-2.65-.33-4l-.56-4.13c-.1-.69-.17-1.36-.32-2.07l-.43-2.13-.44-2.12c-.16-.71-.29-1.4-.5-2.13-.4-1.45-.82-2.89-1.24-4.33-.11-.36-.21-.72-.33-1.08l-.4-1.09-.81-2.18-.84-2.17c-.28-.72-.65-1.45-1-2.17-.69-1.44-1.35-2.88-2.12-4.29s-1.63-2.81-2.47-4.19l-45.1,28.71a9.7,9.7,0,0,0,.58,1c.19.34.33.74.52,1.09a5.85,5.85,0,0,1,.28.56c.07.22.14.43.22.64l.24.63.14.32.09.36c.13.48.27,1,.42,1.44a5.74,5.74,0,0,1,.18.79l.16.82.18.82c.07.26.08.6.13.89.07.61.16,1.21.25,1.82s.09,1.31.15,2,.14,1.29.12,2l0,2.13c0,.37,0,.69,0,1.1l0,1.19-.07,2.39c0,.8-.11,1.6-.16,2.4-.08,1.6-.28,3.22-.45,4.83Z" fill="none"/><path d="M352.51,204.7l5.11-1.57-.33-1.14-.42-1.11-.84-2.24a21.17,21.17,0,0,0-1-2.19l-1-2.16-4.73,2.49.92,1.93a17,17,0,0,1,.87,1.95l.75,2,.38,1Z" fill="#aca4dc" fill-rule="evenodd"/><path d="M355.05,220l5.34-.28c-.12-1.54-.2-3.09-.36-4.64s-.4-3.09-.66-4.64l-5.26.93c.23,1.42.4,2.86.6,4.29S354.93,218.53,355.05,220Z" fill="#aca4dc" fill-rule="evenodd"/><path d="M354.67,235.64l5.33.47.31-4.56c.1-1.52.11-3.05.17-4.57l-5.34-.12c-.06,1.47-.07,2.93-.16,4.39Z" fill="#aca4dc" fill-rule="evenodd"/><path d="M371.73,178.48a72.39,72.39,0,0,0-12.59-14.75c-1.19-1-2.41-2-3.63-3-.61-.47-1.22-1-1.84-1.42L351.8,158l-1.88-1.27c-.63-.42-1.26-.84-1.89-1.19-1.26-.73-2.52-1.46-3.79-2.17-.32-.18-.64-.37-.95-.53l-1-.46-1.89-.92c-1.26-.6-2.54-1.26-3.78-1.73l-3.75-1.53-.94-.37-.92-.32-1.85-.64c-1.22-.41-2.47-.86-3.68-1.22l-3.63-1-1.82-.51c-.6-.16-1.18-.29-1.78-.43l-3.56-.84-11.57,52.19,2.28.54c.38.09.77.17,1.14.27l1.07.31,2.15.61c.71.2,1.34.46,2,.68l1,.33.5.17.45.19,1.81.73c.64.23,1.12.52,1.68.78l.81.38.41.19c.13.06.23.14.36.21q.69.42,1.41.81a4,4,0,0,1,.65.41l.6.42.62.4c.21.13.34.29.52.42.33.29.71.54,1,.82a18.9,18.9,0,0,1,3,3.46Z" fill="none"/><path d="M320.33,174.12l1.76-5.05c-2.91-1-5.87-1.86-8.83-2.64L312,171.61C314.77,172.36,317.59,173.13,320.33,174.12Z" fill="#aca4dc" fill-rule="evenodd"/><path d="M334.33,180.78l2.9-4.5c-.65-.46-1.34-.84-2-1.23l-2-1.17c-.67-.41-1.39-.71-2.09-1.07l-2.11-1-2.22,4.86,1.95,1c.65.32,1.32.59,1.93,1l1.87,1.08A16.41,16.41,0,0,1,334.33,180.78Z" fill="#aca4dc" fill-rule="evenodd"/><path d="M345.58,191l4.25-3.24a19.39,19.39,0,0,0-1.52-1.87l-1.59-1.81c-.54-.59-1.14-1.12-1.71-1.68s-1.15-1.13-1.76-1.64l-3.5,4c.55.46,1,1,1.56,1.46s1.05,1,1.53,1.49l1.4,1.61A15,15,0,0,1,345.58,191Z" fill="#aca4dc" fill-rule="evenodd"/><path d="M314.74,142.87a202.36,202.36,0,0,0-27.33-4c-8.84-.72-17.46-1-26-1.1L261,191.27c7.5.07,14.9.34,22,.92a150.09,150.09,0,0,1,20.18,2.87Z" fill="none"/><path d="M273.59,166.74l.22-5.34c-3-.16-6-.2-9-.27l-.09,5.34C267.68,166.54,270.63,166.59,273.59,166.74Z" fill="#aca4dc" fill-rule="evenodd"/><path d="M289.43,167.84l.54-5.32-4.51-.42c-1.5-.15-3-.21-4.5-.32l-.35,5.33c1.47.11,2.95.17,4.41.32Z" fill="#aca4dc" fill-rule="evenodd"/><path d="M305,170.1l1-5.25c-3-.63-6-1-9-1.5l-.72,5.3C299.24,169.1,302.16,169.5,305,170.1Z" fill="#aca4dc" fill-rule="evenodd"/><path d="M261.44,137.81c-17-.15-33.54.6-49.94,1.62l3.39,53.35c15.57-1,31.05-1.64,46.07-1.51Z" fill="none"/><polygon points="225.74 167.29 225.47 161.95 221 162.18 216.53 162.44 216.85 167.78 221.29 167.51 225.74 167.29" fill="#aca4dc" fill-rule="evenodd"/><path d="M241.68,166.65l-.15-5.35c-3,.06-6,.21-9,.32l.22,5.34C235.75,166.85,238.72,166.71,241.68,166.65Z" fill="#aca4dc" fill-rule="evenodd"/><path d="M257.56,166.41v-5.35c-3,0-6,.06-9,.08l.09,5.34C251.64,166.46,254.6,166.38,257.56,166.41Z" fill="#aca4dc" fill-rule="evenodd"/><path d="M211.5,139.43l-11.82.72c-3.91.21-7.83.44-11.72.61s-7.78.33-11.66.48-7.73.25-11.54.29l.9,53.46c4.19-.05,8.32-.2,12.46-.32s8.26-.3,12.35-.51,8.19-.41,12.27-.64l12.15-.74Z" fill="none"/><polygon points="177.73 169.83 177.55 164.49 168.68 164.75 168.8 170.09 177.73 169.83" fill="#aca4dc" fill-rule="evenodd"/><polygon points="193.75 169.14 193.47 163.8 184.59 164.22 184.82 169.56 193.75 169.14" fill="#aca4dc" fill-rule="evenodd"/><path d="M209.68,168.22l-.33-5.34c-3,.18-5.92.38-8.88.53l.3,5.34C203.74,168.6,206.71,168.39,209.68,168.22Z" fill="#aca4dc" fill-rule="evenodd"/><path d="M164.76,141.53c-7.66.13-15.25.14-22.61-.14a209.68,209.68,0,0,1-21.17-1.7l-7.45,52.94a260.76,260.76,0,0,0,26.7,2.19c8.64.32,17.07.3,25.43.17Z" fill="none"/><path d="M129.51,169.35l.41-5.33c-1.47-.08-2.92-.25-4.38-.38l-2.18-.21-2.17-.26-.64,5.31,2.24.27L125,169C126.52,169.09,128,169.27,129.51,169.35Z" fill="#aca4dc" fill-rule="evenodd"/><polygon points="145.58 170.12 145.71 164.78 141.29 164.65 136.89 164.46 136.62 169.79 141.1 170 145.58 170.12" fill="#aca4dc" fill-rule="evenodd"/><path d="M161.59,170.21l-.06-5.34c-2.95,0-5.91,0-8.86,0l0,5.35C155.62,170.26,158.6,170.22,161.59,170.21Z" fill="#aca4dc" fill-rule="evenodd"/><path d="M121,139.69c-3.25-.5-6.48-1-9.3-1.74l-1.08-.25-.54-.12-.49-.15-2-.57c-.35-.09-.63-.2-.92-.3l-.88-.31-.89-.3c-.28-.11-.51-.23-.77-.33l-.76-.32a4.43,4.43,0,0,1-.72-.32c-.42-.22-.84-.43-1.27-.62s-.65-.43-1-.61a2.55,2.55,0,0,1-.24-.14l-.18-.14a3.07,3.07,0,0,0-.36-.27,5.44,5.44,0,0,1-1.46-1.49L52.71,159.9c.5.8,1,1.59,1.51,2.37s1.12,1.51,1.69,2.26,1.15,1.48,1.74,2.21,1.23,1.37,1.86,2,1.26,1.34,1.91,2,1.31,1.21,2,1.81a49.14,49.14,0,0,0,4.06,3.34l2.07,1.49,1,.74c.34.23.68.43,1,.65,1.37.84,2.77,1.69,4.15,2.47s2.73,1.39,4.1,2.07c.7.36,1.35.61,2,.9l2,.85c.66.27,1.35.57,2,.81l2,.7,2,.67c.65.23,1.31.46,1.93.63l3.79,1.1,1,.27.92.22,1.84.45c5,1.21,9.64,2,14.3,2.68Z" fill="none"/><path d="M82.78,156.36l3.16-4.31a34.72,34.72,0,0,1-3.1-2.55c-.49-.46-.92-1-1.38-1.44l-.69-.72c-.2-.25-.4-.52-.6-.78L76,149.88c.25.31.48.63.73.94l.81.86c.55.56,1.07,1.16,1.64,1.7A39.49,39.49,0,0,0,82.78,156.36Z" fill="#aca4dc" fill-rule="evenodd"/><path d="M97.57,163.69l1.7-5.07c-1.33-.48-2.7-.89-4-1.47l-1.94-.81c-.63-.28-1.24-.61-1.86-.92l-2.42,4.77c.69.34,1.37.71,2.07,1l2.13.89C94.68,162.73,96.14,163.17,97.57,163.69Z" fill="#aca4dc" fill-rule="evenodd"/><path d="M113.35,167.46l.88-5.27c-1.45-.2-2.85-.52-4.27-.79s-2.82-.6-4.21-.93l-1.28,5.19c1.48.35,3,.72,4.43,1S111.86,167.26,113.35,167.46Z" fill="#aca4dc" fill-rule="evenodd"/><path d="M98.14,131.71a7.49,7.49,0,0,1-.86-2.42c0-.38-.14-.71-.2-1.12s-.07-.92-.14-1.37a2.24,2.24,0,0,1,0-.38V126l0-.81,0-.41v-.36c0-.21,0-.42,0-.63a11,11,0,0,1,.2-1.83c.1-.43.15-.63.13-.56h0L61.84,81.32A52.75,52.75,0,0,0,48,100.64c-.38.93-.74,1.86-1.09,2.8s-.61,1.84-.9,2.77-.5,1.81-.73,2.7-.44,1.8-.59,2.66a64.68,64.68,0,0,0-1.18,10.08L43.41,124v1.14l0,1.09.07,2.19,0,1.1c0,.36,0,.73.07,1.12.14,1.53.3,3.07.47,4.6s.53,3.2.82,4.79l.24,1.2.32,1.25.66,2.48a51,51,0,0,0,1.68,5c.33.84.61,1.66,1,2.5s.79,1.67,1.19,2.5.81,1.66,1.26,2.48,1,1.61,1.45,2.41Z" fill="none"/><path d="M70.65,110.75l5,2a22.18,22.18,0,0,1,4-6.6l-4-3.51A27.78,27.78,0,0,0,70.65,110.75Z" fill="#aca4dc" fill-rule="evenodd"/><path d="M68.32,127.25l5.34-.23A40.7,40.7,0,0,1,74,118.8L68.72,118A45.74,45.74,0,0,0,68.32,127.25Z" fill="#aca4dc" fill-rule="evenodd"/><path d="M72,143.41l4.84-2.27-.43-.89-.35-.94c-.23-.63-.47-1.24-.69-1.88l-.52-2c-.09-.33-.19-.65-.26-1l-.18-1-5.25,1,.21,1.14c.08.38.2.76.29,1.14l.61,2.26c.25.74.54,1.47.81,2.21l.41,1.1Z" fill="#aca4dc" fill-rule="evenodd"/><path d="M97.21,121.42s0,0,0,0,.06,0,.07-.05.09-.06.15-.1l.1-.07.14-.08a11.21,11.21,0,0,1,1.67-.76,28.27,28.27,0,0,1,2.72-.84c1.08-.26,2.26-.5,3.55-.7a70.78,70.78,0,0,1,8.68-.75c3.14-.11,6.48-.06,9.92.1l2.47-53.41c-4.57-.2-9.24-.29-14.1-.13A124.7,124.7,0,0,0,97.35,66q-4,.61-8.23,1.65a81.23,81.23,0,0,0-8.74,2.72,64.13,64.13,0,0,0-9.2,4.32L70,75.37l-1.17.73c-.78.5-1.55,1-2.34,1.56s-1.57,1.11-2.35,1.74-1.56,1.26-2.32,1.92Z" fill="none"/><path d="M112.91,89.48l.19,5.35c2.89-.11,5.79-.11,8.7,0l.14-5.34C118.94,89.38,115.93,89.38,112.91,89.48Z" fill="#aca4dc" fill-rule="evenodd"/><path d="M96.71,91.39l1.16,5.22a72.4,72.4,0,0,1,8.4-1.33L105.73,90A79.06,79.06,0,0,0,96.71,91.39Z" fill="#aca4dc" fill-rule="evenodd"/><path d="M81.36,97.59l3,4.43a34.74,34.74,0,0,1,7.22-3.59l-1.84-5A39.6,39.6,0,0,0,81.36,97.59Z" fill="#aca4dc" fill-rule="evenodd"/><path d="M124.21,118.18c6.88.32,14.15,1.08,21.6,2.08s15.09,2.22,23,3.51L177.4,71c-7.92-1.3-16.1-2.62-24.52-3.74s-17.09-2.07-26.2-2.5Z" fill="none"/><polygon points="161.07 93.55 160.25 98.83 169.03 100.23 169.89 94.95 161.07 93.55" fill="#aca4dc" fill-rule="evenodd"/><path d="M145.17,91.32l-.65,5.31q4.39.54,8.77,1.17l.76-5.3C151.1,92.08,148.14,91.68,145.17,91.32Z" fill="#aca4dc" fill-rule="evenodd"/><path d="M129.2,89.79l-.35,5.34c2.92.18,5.84.43,8.77.73l.53-5.32Q133.68,90.08,129.2,89.79Z" fill="#aca4dc" fill-rule="evenodd"/><path d="M168.78,123.77l12.08,1.94,1.55.24.79.12,1.15.14c1.54.18,3.07.35,4.61.5s3.18.13,4.77.17,3.22,0,4.85-.14a67.38,67.38,0,0,0,19.49-4.14,69.19,69.19,0,0,0,17.05-9.46L203,70.4a15.93,15.93,0,0,1-3.86,2.19,13.38,13.38,0,0,1-3.93.79,20.84,20.84,0,0,1-2.38,0c-.45-.07-.9-.13-1.36-.16l-.34,0-.7-.1L189,72.88,177.4,71Z" fill="none"/><path d="M207.53,96l1.84,5c.76-.26,1.49-.61,2.24-.91a22.94,22.94,0,0,0,2.2-1L216,98c.69-.41,1.37-.84,2.05-1.26l-2.86-4.51c-.61.37-1.21.75-1.82,1.11l-1.89,1a19.79,19.79,0,0,1-1.93.89C208.84,95.43,208.21,95.75,207.53,96Z" fill="#aca4dc" fill-rule="evenodd"/><path d="M192.54,98.22l-.2,5.34,2.4.06c.8,0,1.6-.08,2.4-.11l1.21-.08.6,0,.6-.08,2.39-.35L201,97.69l-2.1.31-.53.08-.53,0-1.06.06c-.71,0-1.42.1-2.13.11Z" fill="#aca4dc" fill-rule="evenodd"/><polygon points="176.99 96.11 176.13 101.39 184.97 102.8 185.78 97.51 176.99 96.11" fill="#aca4dc" fill-rule="evenodd"/><path d="M235.12,113.14a80.12,80.12,0,0,0,13-12.35,99.55,99.55,0,0,0,9.52-13.44,114.93,114.93,0,0,0,7-13.87c1-2.34,1.93-4.71,2.79-7.14.22-.61.43-1.22.64-1.84s.41-1.24.61-1.89.41-1.3.61-2l.3-1.07.17-.6.22-.85L218.13,45.23l0-.16,0,0,0,.12-.11.37-.27.9c-.1.32-.21.64-.32,1s-.22.66-.35,1c-.47,1.34-1,2.71-1.58,4a62,62,0,0,1-3.8,7.56A36,36,0,0,1,203,70.4Z" fill="none"/><path d="M238.17,62.67l4.91,2.12c1.22-2.83,2.31-5.7,3.27-8.65l-5.09-1.64C240.36,57.26,239.32,60,238.17,62.67Z" fill-rule="evenodd"/><path d="M230.73,76.41l4.44,3a83.75,83.75,0,0,0,4.74-8l-4.73-2.49A77.3,77.3,0,0,1,230.73,76.41Z" fill="#aca4dc" fill-rule="evenodd"/><path d="M220.66,88.06l3.52,4a64.82,64.82,0,0,0,6.58-6.79l-4.11-3.42A58.31,58.31,0,0,1,220.66,88.06Z" fill="#aca4dc" fill-rule="evenodd"/><path d="M214.84,21.8,231.49,37l89.1-37Z" fill="#23118b"/><path d="M239.42,71.81,231.49,37l89.1-37L246.73,50.26Z" fill="#d4ccff"/><path d="M274.41,72.7,246.73,50.26,320.59,0Z" fill="#23118b"/><polygon points="243.07 464.37 273.07 420.3 280.41 423.97 252.25 479.07 243.07 490.7 228.99 493.15 224.09 479.07 243.07 464.37" fill="#23118b"/><path d="M273.07,420.3s-1.58-5.77-.62-6.74c1.84-1.83,1.84,2.45,1.84,2.45s3.06-5.51,4.9-7.34,7.34-1.84,6.73,1.83S281,423.36,280.41,424Z" fill="#23118b"/><path d="M406.49,344.18l-5-11.9S413.13,306,412.1,305l-15.43-15.06c-1.07-1-27.37,11-27.37,11L357.17,296S346.45,269.32,345,269.32H323.21c-1.52,0-11.44,26.71-11.44,26.71L299.66,301s-26.86-11.42-27.89-10.4l-15.4,15.08c-1.07,1,11.19,26.81,11.19,26.81l-5,11.88s-27.22,10.49-27.22,11.9v21.34c0,1.49,27.29,11.21,27.29,11.21l5,11.86S256,426.91,257,427.92L272.42,443c1,1,27.36-11,27.36-11L311.92,437s10.72,26.63,12.2,26.63h21.77c1.51,0,11.43-26.71,11.43-26.71L369.47,432s26.81,11.41,27.84,10.41l15.43-15.08c1.07-1.06-11.22-26.8-11.22-26.8l5-11.89s27.24-10.5,27.24-11.94V355.35C433.77,353.87,406.49,344.18,406.49,344.18Zm-40.13,22.27c0,17.16-14.27,31.13-31.81,31.13s-31.81-14-31.81-31.13,14.29-31.11,31.81-31.11S366.36,349.29,366.36,366.45Z" fill="#23118b"/><polygon points="230.22 480.9 231.44 491.92 222.26 493.15 217.36 479.07 230.22 480.9" fill="#ffcebd"/><path d="M209.4,652.31s3.06,36.73,0,43.46-15.3,48.36-14.08,73.46h9.8s9.86-42.85,20.23-55.09L237,701.28l-11.6-49Z" fill="#ffcebd"/><path d="M207.57,558l-6.18,18.52a53,53,0,0,0,2.25,39.18h0a41.77,41.77,0,0,1,3.93,17.69v18.88h44.07s2.45-78.36-4.9-94.27Z" fill="#d4ccff"/><path d="M220.42,652.31s4.9,41.63,4.9,53.87.61,63.05.61,63.05h9.79s10.41-60.6,10.41-67.34V652.31Z" fill="#ffcebd"/><path d="M249.09,503.62l26.73-26.9,14.23-46.64-7.4-3.59-21,43.05s-21,20.93-28.44,20.93S211,494.66,211,494.66L207.57,558H244S244.54,508.41,249.09,503.62Z" fill="#23118b"/><path d="M282.65,426.49s.57-7.77,1.71-7.77,1.13,3,1.13,3,3.42-5.38,3.42-8.37,2.27-4.19,4.55-3,2.27,7.77.57,12.55a21.7,21.7,0,0,1-4,7.18Z" fill="#ffcebd"/><path d="M232.05,483.35s11,0,14.08-5.51-1.22-21.42-3.67-23.87-13.47-9.19-19.59-3.06-5.51,15.3-4.9,23.26S230.83,483.35,232.05,483.35Z" fill="#ffcebd"/><path d="M238.38,457a4.13,4.13,0,0,0,3-3.49c.33-3-.49-7.57-7.49-9.9-11-3.67-25.1-1.22-28.16,15.92s4.9,57.54-17.14,75.91c0,0,17.75,8.57,28.77-6.74s.61-59.38,5.51-63,6.73,2.45,6.73,2.45S228,460,238.38,457Z" fill="#333542"/><path d="M197.77,787h-2.45V769.23h9.8c.47,5.67,9.33,13.17,13.35,16.29a.9.9,0,0,1-.51,1.62" fill="#0d1a59"/><path d="M228.38,787h-2.45V769.23h9.79c.48,5.67,9.34,13.17,13.36,16.29a.91.91,0,0,1-.51,1.62" fill="#0d1a59"/><path d="M851.26,667.55c-4.49,1.8-8.17,8-9.21,13.56q-.63-3-1.36-5.9l-.25-1c2.41-4.32,10.52-13.61,6.09-19.06-5.26,1.84-6.81,7.62-7.11,12.18,0,.58-.14,1.41-.21,2.32-.85-3-1.78-6-2.82-9a25.82,25.82,0,0,0,4.16-5.83c.8-1.58,3.57-8.63-1.4-6.85-1.9.69-3.51,5.78-3.89,9.52-.8-2.11-1.65-4.2-2.57-6.25-1-11,1.16-25.44-10-32.12-11.33-6.8-7.27,11.14-4.85,15.62,2.09,3.86,7.21,12.62,13,17.26.89,2.26,1.74,4.53,2.49,6.84.42,1.28.81,2.57,1.2,3.86-4.07-7.19-12.33-21.41-17.65-15.24-4.71,5.47,12.59,13.16,18.29,17.45,1.11,3.87,2.1,7.77,2.94,11.71.22,1,.41,2,.61,3.07-1.9-3-3.18-7.32-6-9.66-2.51-2.08-8.85-4.52-9.59-.41-1,5.87,7.31,8,11.29,9.76,2.87,1.26,3.87,2.82,4.76,2.71q1.32,7.48,1.93,15.07c-2.22-6.35-7.08-15.75-15.22-14.44-1.22,10.55,10.1,10.79,15.32,15.81a154.36,154.36,0,0,1,.32,15.52,1.15,1.15,0,0,1,0,.19c-1.27-5-2.08-9.92-5.59-14.14-3.18-3.83-10.25-6.24-8.6,1.2,1.2,5.41,6.21,8,10.2,11.43,1.78,1.53,3,3.32,3.88,4.15a141.61,141.61,0,0,1-1.58,14.39c-2.55-8.41-8.6-25.64-17.65-20.93-1,10,11.33,15.66,17.38,22.6-.73,4.34-1.64,8.67-2.65,13-.3-3.7-1.53-7.26-2.63-10.79-.83-2.65-6.4-10.94-10.46-6.13s5,10.84,7.68,13a14.36,14.36,0,0,1,4.68,6.92l-.6,2.38c-1,4.09-2.13,8.21-3.1,12.36-.72-7.54-.4-21.4-10.48-20.45-1.08,5.67,2.79,14.6,6.63,18.81,1.25,1.37,2.39,2.54,3.43,3.48q-.83,3.62-1.46,7.23c-2.74-7.39-10-15.52-13.2-11.6s2.9,10.5,5.63,12.73c2.38,2,5,3.54,6.66,5.31a71.93,71.93,0,0,0-.44,8.67c0,2.07,3.32,1.91,3.44-.14a114.88,114.88,0,0,1,1.34-11.9c5.1-2,15.38-.22,18.94-2.23,5-2.79,4.3-7.85-1.38-9-5.17-1.07-12.57,2.77-16.93,7.63.64-3.4,1.38-6.79,2.17-10.18,4.26-2.77,10.4-.75,14.8-4.52,4.63-4,1.66-9.76-4.34-7.89-2.89.89-6.53,3.92-9.22,7.28l1.8-7.21c.52-2.09,1-4.17,1.47-6.26,4.67-1.94,13.68-.26,15.78-7.08,1.47-4.79-2.83-9-7.4-5.63a36.32,36.32,0,0,0-7.37,7.85c.76-3.91,1.4-7.83,1.87-11.75,5.24-2.88,15.66-.08,18.85-6.59,2.59-5.31-4.3-7.78-8.81-5.69s-7.25,6.61-9.87,10.78c.32-2.93.56-5.87.69-8.82,4.07-3,11.76-4.19,14.15-9.74,2.33-5.39-1.17-12.33-7.52-7.45-3.34,2.56-5.24,7.06-6.52,11.51q0-4.92-.37-9.82a39.77,39.77,0,0,1,4.44-5.6c2.15-2.21,5.1-4.2,5.33-7.42.41-5.56-4.27-3.45-6.76-.18a21.46,21.46,0,0,0-3.4,8.74q-.56-5.49-1.54-10.9C845.7,680.33,858,675.19,851.26,667.55Z" fill="#4b2df7"/><path d="M788.38,768.69a16.27,16.27,0,0,1-4.76,12,17.4,17.4,0,0,1-11.2,4L420.2,785.87a19.17,19.17,0,0,1-11.22-4,16.28,16.28,0,0,1-4.84-12l-.75-234.55,384.24-1.22.75,234.55Z" fill="#23118b"/><path d="M783.62,780.71a17.4,17.4,0,0,1-11.2,4L420.2,785.87a19.17,19.17,0,0,1-11.22-4L595.79,620.4Z" fill="#4b2df7"/><path d="M787.63,534.14l-54.31,39.4-127,91.66a18,18,0,0,1-21.61.07L458,574.41l-54.56-39L457.7,496l118.2-85.23,8.79-6.43a18,18,0,0,1,21.61-.07l8.83,6.38,57,40.64,28.08,19.93,32.89,23.91Z" fill="#4b2df7"/><path d="M733,459.86l.36,113.68-127,91.66a18,18,0,0,1-21.61.07L458,574.41l-.47-147.29a16.06,16.06,0,0,1,16-16.06l208.93-.67Z" fill="#fff"/><path d="M683.29,447.21A12.64,12.64,0,0,0,696.14,460l36.82-.12-49.79-49.47.12,36.82Z" fill="#ef7483"/><path d="M922.85,787.47H55.49c-.45,0-.82-.56-.82-1.25h0c0-.69.37-1.25.82-1.25H922.85c.45,0,.82.56.82,1.25h0C923.67,786.91,923.3,787.47,922.85,787.47Z" fill="#d4ccff"/></svg>
