<?xml version="1.0" encoding="utf-8"?>
<!-- Generator: Adobe Illustrator 16.0.0, SVG Export Plug-In . SVG Version: 6.00 Build 0)  -->
<!DOCTYPE svg PUBLIC "-//W3C//DTD SVG 1.0//EN" "http://www.w3.org/TR/2001/REC-SVG-20010904/DTD/svg10.dtd">
<svg version="1.0" id="Layer_1" xmlns="http://www.w3.org/2000/svg" xmlns:xlink="http://www.w3.org/1999/xlink" x="0px" y="0px"
	 width="1125px" height="732px" viewBox="0 0 1125 732" enable-background="new 0 0 1125 732" xml:space="preserve">
<path fill="#CDCCFF" d="M1092.13,440.58c-16.35-45.58-42.09-59.45-66.58-88.68c-29.9-35.71-50.07-61.66-42.31-107.59
	c12.69-75.05,18.12-262.21-180.56-237.74c-71.21,8.77-127.48,63.34-168.42,117.81c-34.83,46.35-97.49,50.44-147.93,61.24
	c-61.97,13.28-125.09,33.33-182.43,62.72c-118.08,60.52-153.35,147.52-148.53,258.84c1.46,33.63,6.21,86.61,63.03,148.59
	c76.68,83.66,188.1,94.87,322.21,56.44c30.7-8.79,59.71-22.59,89.91-32.97c31.37-10.79,64.01-17.88,97.04-21.07
	c77.03-7.45,156.87,6.02,230.76-16.97c39.06-12.16,74.95-34.41,103.21-64.01C1096.83,540.23,1109.39,488.69,1092.13,440.58z"/>
<g>
	<g>
	</g>
</g>
<g>
	<g>
		<g>
			<g>
			</g>
		</g>
	</g>
</g>
<g>
	<g>
		<path fill="#CDCCFF" d="M92.31,643.85c0,11.83,150.16,21.43,335.42,21.43c185.23,0,335.4-9.6,335.4-21.43
			c0-11.84-150.17-21.44-335.4-21.44C242.47,622.41,92.31,632.01,92.31,643.85z"/>
	</g>
	<path fill="#CDCCFF" d="M296.98,670.31c0,7.41-38.12,13.41-85.15,13.41c-47.03,0-85.15-6.01-85.15-13.41
		c0-7.41,38.13-13.41,85.15-13.41C258.86,656.9,296.98,662.9,296.98,670.31z"/>
	<path fill="#CDCCFF" d="M1006.27,673.11c0,5.86-63.96,10.61-142.87,10.61c-78.9,0-142.87-4.75-142.87-10.61
		c0-5.87,63.96-10.62,142.87-10.62C942.31,662.5,1006.27,667.25,1006.27,673.11z"/>
	<g>
		<polygon fill="#D7D7FF" points="125.79,496.63 120.31,573.46 193.6,573.46 188.55,496.48 		"/>
		<g>
			<g>
				<path fill="#EAE6FF" d="M140.33,503.38L140.33,503.38c0-1.17,1.12-2.13,2.51-2.13c0,0,0,0,0,0c1.38,0,2.51,0.95,2.52,2.12
					c0,1.17-1.12,2.13-2.51,2.13l0,0C141.47,505.5,140.33,504.55,140.33,503.38z M142.85,502.06c-0.94,0-1.7,0.59-1.7,1.31
					c0.01,0.73,0.77,1.32,1.7,1.32c0,0,0.01,0,0.01,0c0.93-0.01,1.7-0.6,1.7-1.32C144.55,502.65,143.78,502.06,142.85,502.06
					L142.85,502.06z M140.73,503.38h0.01H140.73z"/>
			</g>
			<g>
				<path fill="#EAE6FF" d="M165.32,503.33l0.4,0L165.32,503.33c0-0.5,0.21-0.99,0.59-1.38c0.47-0.48,1.18-0.75,1.91-0.75
					c0.01,0,0.01,0,0.02,0c1.38,0,2.5,0.95,2.5,2.12c0.01,0.58-0.27,1.13-0.76,1.53c-0.47,0.38-1.09,0.6-1.75,0.6l0,0
					C166.45,505.44,165.32,504.5,165.32,503.33z M167.83,502c-0.53,0-1.02,0.2-1.34,0.52c-0.16,0.16-0.36,0.43-0.35,0.8l0,0
					c0,0.72,0.77,1.31,1.7,1.31h0c0.47,0,0.91-0.15,1.23-0.41c0.3-0.25,0.46-0.57,0.46-0.9C169.53,502.59,168.77,502,167.83,502
					C167.83,502,167.83,502,167.83,502z"/>
			</g>
			<path fill="#EAE6FF" d="M154.59,518.83c0.24,0,0.47,0,0.71-0.01c4.59-0.15,8.1-1.63,10.41-4.4c3.83-4.57,2.96-10.95,2.93-11.22
				c-0.07-0.44-0.48-0.77-0.92-0.68c-0.44,0.06-0.75,0.47-0.69,0.92c0.01,0.06,0.8,5.95-2.57,9.96c-2,2.39-5.11,3.66-9.21,3.8
				c-3.98,0.12-6.94-0.91-8.91-3.1c-3.58-3.99-2.7-10.53-2.69-10.6c0.07-0.44-0.24-0.85-0.69-0.92c-0.43-0.06-0.85,0.24-0.91,0.69
				c-0.04,0.3-1,7.35,3.08,11.91C147.31,517.59,150.49,518.83,154.59,518.83z"/>
		</g>
		<polygon fill="#BDC6F9" points="160.26,518.17 151.51,575.29 231.08,575.1 223.02,518.01 		"/>
		<g>
			<path fill="#8784EF" d="M130.79,614.62c-8.91,0-16.14,7.23-16.14,16.14c0,8.91,7.23,16.14,16.14,16.14
				c8.91,0,16.13-7.23,16.13-16.14C146.93,621.85,139.7,614.62,130.79,614.62z M130.79,638.25c-4.13,0-7.5-3.33-7.5-7.49
				c0-4.13,3.37-7.49,7.5-7.49c4.15,0,7.52,3.37,7.52,7.49C138.32,634.92,134.95,638.25,130.79,638.25z"/>
			<path fill="#9AA3F4" d="M128.14,614.62c-8.91,0-16.14,7.23-16.14,16.14c0,8.91,7.23,16.14,16.14,16.14
				c8.92,0,16.14-7.23,16.14-16.14C144.28,621.85,137.05,614.62,128.14,614.62z M128.14,638.25c-4.13,0-7.49-3.33-7.49-7.49
				c0-4.13,3.37-7.49,7.49-7.49c4.16,0,7.53,3.37,7.53,7.49C135.66,634.92,132.3,638.25,128.14,638.25z"/>
			<path fill="#8784EF" d="M221.98,614.62c-8.91,0-16.14,7.23-16.14,16.14c0,8.91,7.23,16.14,16.14,16.14
				c8.91,0,16.14-7.23,16.14-16.14C238.12,621.85,230.89,614.62,221.98,614.62z M221.98,638.25c-4.13,0-7.49-3.33-7.49-7.49
				c0-4.13,3.36-7.49,7.49-7.49c4.15,0,7.52,3.37,7.52,7.49C229.5,634.92,226.14,638.25,221.98,638.25z"/>
			<path fill="#9AA3F4" d="M219.32,614.62c-8.91,0-16.14,7.23-16.14,16.14c0,8.91,7.23,16.14,16.14,16.14
				c8.91,0,16.14-7.23,16.14-16.14C235.46,621.85,228.23,614.62,219.32,614.62z M219.32,638.25c-4.12,0-7.49-3.33-7.49-7.49
				c0-4.13,3.37-7.49,7.49-7.49c4.16,0,7.53,3.37,7.53,7.49C226.85,634.92,223.48,638.25,219.32,638.25z"/>
			<g>
				<path fill="none" stroke="#9AA3F4" stroke-width="1.5" stroke-miterlimit="10" d="M343.79,433.45h-48.49
					c-5.1,0-9.84,2.63-12.54,6.96l-29.31,47.07"/>
				<path fill="none" stroke="#9AA3F4" stroke-width="1.5" stroke-miterlimit="10" d="M123.15,573.97h108.37
					c5.77,0,10.69-4.19,11.6-9.89l11.22-69.95c1.14-7.14-4.37-13.61-11.6-13.61h-130.8c-7.23,0-12.74,6.47-11.6,13.61l11.21,69.95
					C112.46,569.78,117.38,573.97,123.15,573.97z"/>
				
					<line fill="none" stroke="#9AA3F4" stroke-width="1.5" stroke-miterlimit="10" x1="177.34" y1="480.53" x2="177.34" y2="573.97"/>
				
					<line fill="none" stroke="#9AA3F4" stroke-width="1.5" stroke-miterlimit="10" x1="249.02" y1="527.26" x2="105.65" y2="527.26"/>
				
					<line fill="none" stroke="#9AA3F4" stroke-width="1.5" stroke-miterlimit="10" x1="220.14" y1="480.53" x2="210.86" y2="573.97"/>
				
					<line fill="none" stroke="#9AA3F4" stroke-width="1.5" stroke-miterlimit="10" x1="136.68" y1="480.53" x2="145.23" y2="573.97"/>
				<path fill="none" stroke="#9AA3F4" stroke-width="1.5" stroke-miterlimit="10" d="M240.56,569.73l17.56,26.11
					c4.77,7.11-0.32,16.66-8.88,16.66H105.65"/>
			</g>
		</g>
	</g>
	<g>
		<rect x="469.28" y="582.13" fill="#4A41A3" width="148.65" height="39.99"/>
		<path fill="#5851BC" d="M774.18,595.18h-459.6c-15.38,0-27.86-12.48-27.86-27.86V252.3c0-15.39,12.48-27.86,27.86-27.86h459.6
			c15.39,0,27.86,12.47,27.86,27.86v315.02C802.04,582.71,789.57,595.18,774.18,595.18z"/>
		<path fill="#C4C3FC" d="M768.96,559.61H318.23c-9.45,0-17.11-7.67-17.11-17.12V255.07c0-9.45,7.67-17.11,17.11-17.11h450.73
			c9.45,0,17.12,7.66,17.12,17.11v287.42C786.08,551.94,778.42,559.61,768.96,559.61z"/>
		<path fill="#5851BC" d="M681.82,643.85H405.38v-3.48c0-12,9.73-21.73,21.73-21.73h232.98c12,0,21.73,9.73,21.73,21.73V643.85z"/>
		<g opacity="0.35">
			<g>
				<g>
					<path fill="#FFFFFF" d="M741.4,488.26H431.8c-8.21,0-14.87-6.66-14.87-14.87V275.04c0-8.21,6.66-14.87,14.87-14.87H741.4
						c8.21,0,14.86,6.66,14.86,14.87V473.4C756.26,481.6,749.61,488.26,741.4,488.26z"/>
				</g>
			</g>
		</g>
		<g opacity="0.25">
			<g>
				<g>
					<g>
						<g>
							<rect x="449.18" y="426.79" fill="#FCA70C" width="14.79" height="37.11"/>
						</g>
					</g>
				</g>
				<g>
					<g>
						<g>
							<rect x="482.49" y="394.22" fill="#B1AFFD" width="14.78" height="69.68"/>
						</g>
					</g>
				</g>
				<g>
					<g>
						<g>
							<rect x="515.8" y="401.43" fill="#FCA70C" width="14.78" height="62.47"/>
						</g>
					</g>
				</g>
				<g>
					<g>
						<g>
							<rect x="549.1" y="366.14" fill="#B1AFFD" width="14.78" height="97.76"/>
						</g>
					</g>
				</g>
				<g opacity="0.15">
					<g>
						<g>
							<rect x="482.49" y="394.22" opacity="0.26" enable-background="new    " width="6.78" height="69.68"/>
						</g>
					</g>
				</g>
				<g opacity="0.15">
					<g>
						<g>
							<rect x="449.18" y="426.79" opacity="0.26" enable-background="new    " width="6.79" height="37.11"/>
						</g>
					</g>
				</g>
				<g opacity="0.62">
					<g>
						<g>
							<rect x="549.1" y="366.14" opacity="0.26" enable-background="new    " width="6.79" height="97.76"/>
						</g>
					</g>
				</g>
				<g opacity="0.15">
					<g>
						<g>
							<rect x="515.8" y="401.43" opacity="0.26" enable-background="new    " width="6.78" height="62.47"/>
						</g>
					</g>
				</g>
				<g>
					<g>
						<g>
							<polygon fill="#D5DBDA" points="571.71,474.12 439.42,474.12 439.42,333.25 441.44,333.25 441.44,472.1 571.71,472.1 							
								"/>
						</g>
					</g>
				</g>
				<g>
					<g>
						<g>
							<polygon fill="#D5DBDA" points="453.01,409.41 451.66,407.91 486.27,376.84 518.32,383.8 553.02,345.16 554.52,346.51 
								519.04,386.03 486.84,379.03 							"/>
						</g>
					</g>
				</g>
				<g>
					<g>
						<g>
							<polygon fill="#D5DBDA" points="557.25,352.22 547.46,342.83 560.09,339.45 							"/>
						</g>
					</g>
				</g>
				<g>
					<g>
						<g>
							<g>
								<rect x="584.23" y="424.16" fill="#B1AFFD" width="10.15" height="10.15"/>
							</g>
						</g>
					</g>
					<g>
						<g>
							<g>
								<rect x="584.23" y="441.95" fill="#FCA70C" width="10.15" height="10.15"/>
							</g>
						</g>
					</g>
					<g>
						<g>
							<g>
								<rect x="597.18" y="446.33" fill="#EFEFEF" width="32.18" height="5.77"/>
							</g>
						</g>
					</g>
					<g>
						<g>
							<g>
								<rect x="597.18" y="428.54" fill="#EFEFEF" width="32.18" height="5.77"/>
							</g>
						</g>
					</g>
				</g>
				<g>
					<g>
						<g>
							<g>
								<rect x="643.93" y="424.16" fill="#B1AFFD" width="10.15" height="10.15"/>
							</g>
						</g>
					</g>
					<g>
						<g>
							<g>
								<rect x="643.93" y="441.95" fill="#FCA70C" width="10.15" height="10.15"/>
							</g>
						</g>
					</g>
					<g>
						<g>
							<g>
								<rect x="656.88" y="446.33" fill="#EFEFEF" width="32.18" height="5.77"/>
							</g>
						</g>
					</g>
					<g>
						<g>
							<g>
								<rect x="656.88" y="428.54" fill="#EFEFEF" width="32.18" height="5.77"/>
							</g>
						</g>
					</g>
				</g>
				<g>
					<g>
						<g>
							<g>
								<rect x="697.69" y="424.16" fill="#B1AFFD" width="10.15" height="10.15"/>
							</g>
						</g>
					</g>
					<g>
						<g>
							<g>
								<rect x="697.69" y="441.95" fill="#FCA70C" width="10.15" height="10.15"/>
							</g>
						</g>
					</g>
					<g>
						<g>
							<g>
								<rect x="710.64" y="446.33" fill="#EFEFEF" width="21.18" height="5.77"/>
							</g>
						</g>
					</g>
					<g>
						<g>
							<g>
								<rect x="710.64" y="428.54" fill="#EFEFEF" width="21.18" height="5.77"/>
							</g>
						</g>
					</g>
				</g>
				<g>
					<g>
						<g>
							<g>
								<rect x="586.14" y="327.17" fill="#EFEFEF" width="145.68" height="2.65"/>
							</g>
						</g>
					</g>
					<g>
						<g>
							<g>
								<rect x="439.42" y="294.66" fill="#EFEFEF" width="292.4" height="6.06"/>
							</g>
						</g>
					</g>
					<g>
						<g>
							<g>
								<rect x="585.7" y="335.41" fill="#EFEFEF" width="146.12" height="2.65"/>
							</g>
						</g>
					</g>
					<g>
						<g>
							<g>
								<rect x="585.7" y="318.93" fill="#EFEFEF" width="146.12" height="2.65"/>
							</g>
						</g>
					</g>
					<g>
						<g>
							<g>
								<rect x="585.7" y="343.65" fill="#EFEFEF" width="146.12" height="2.65"/>
							</g>
						</g>
					</g>
					<g>
						<g>
							<g>
								<rect x="585.7" y="351.88" fill="#EFEFEF" width="146.12" height="2.65"/>
							</g>
						</g>
					</g>
					<g>
						<g>
							<g>
								<rect x="585.7" y="360.12" fill="#EFEFEF" width="146.12" height="2.65"/>
							</g>
						</g>
					</g>
					<g>
						<g>
							<g>
								<rect x="585.7" y="368.36" fill="#EFEFEF" width="146.12" height="2.65"/>
							</g>
						</g>
					</g>
					<g>
						<g>
							<g>
								<rect x="585.7" y="376.59" fill="#EFEFEF" width="146.12" height="2.64"/>
							</g>
						</g>
					</g>
					<g>
						<g>
							<g>
								<rect x="585.7" y="384.83" fill="#EFEFEF" width="146.12" height="2.64"/>
							</g>
						</g>
					</g>
					<g>
						<g>
							<g>
								<rect x="603.58" y="393.06" fill="#EFEFEF" width="128.23" height="2.65"/>
							</g>
						</g>
					</g>
				</g>
			</g>
			<path fill="#7A7AE5" d="M741.4,260.17H431.8c-8.21,0-14.87,6.66-14.87,14.87v13.01h339.33v-13.01
				C756.26,266.83,749.61,260.17,741.4,260.17z"/>
			<path fill="#CFCFFF" d="M712.62,274.62c0,2.37-1.92,4.29-4.29,4.29c-2.37,0-4.29-1.92-4.29-4.29c0-2.36,1.92-4.29,4.29-4.29
				C710.7,270.34,712.62,272.26,712.62,274.62z"/>
			<path fill="#CFCFFF" d="M730.09,274.62c0,2.37-1.92,4.29-4.28,4.29c-2.37,0-4.29-1.92-4.29-4.29c0-2.36,1.92-4.29,4.29-4.29
				C728.17,270.34,730.09,272.26,730.09,274.62z"/>
			<path fill="#CFCFFF" d="M747.57,274.62c0,2.37-1.92,4.29-4.29,4.29c-2.36,0-4.28-1.92-4.28-4.29c0-2.36,1.92-4.29,4.28-4.29
				C745.65,270.34,747.57,272.26,747.57,274.62z"/>
		</g>
		<g>
			<g>
				<g>
					<g>
						<path opacity="0.55" fill="#C4C3FC" enable-background="new    " d="M651.26,538.72h-309.6c-8.21,0-14.87-6.66-14.87-14.87
							V325.49c0-8.21,6.65-14.87,14.87-14.87h309.6c8.21,0,14.87,6.66,14.87,14.87v198.35
							C666.13,532.06,659.47,538.72,651.26,538.72z"/>
					</g>
				</g>
			</g>
			<g>
				<g>
					<g>
						<path fill="#FFFFFF" d="M658.14,529.83H348.55c-8.21,0-14.87-6.66-14.87-14.87V316.61c0-8.21,6.66-14.87,14.87-14.87h309.59
							c8.21,0,14.87,6.66,14.87,14.87v198.35C673.01,523.18,666.35,529.83,658.14,529.83z"/>
					</g>
				</g>
			</g>
			<g>
				<g>
					<g>
						<g>
							<rect x="365.92" y="468.36" fill="#FCA70C" width="14.78" height="37.11"/>
						</g>
					</g>
				</g>
				<g>
					<g>
						<g>
							<rect x="399.23" y="435.79" fill="#B1AFFD" width="14.78" height="69.68"/>
						</g>
					</g>
				</g>
				<g>
					<g>
						<g>
							<rect x="432.54" y="442.99" fill="#FCA70C" width="14.79" height="62.48"/>
						</g>
					</g>
				</g>
				<g>
					<g>
						<g>
							<rect x="465.85" y="407.72" fill="#B1AFFD" width="14.78" height="97.75"/>
						</g>
					</g>
				</g>
				<g opacity="0.15">
					<g>
						<g>
							<rect x="399.23" y="435.79" opacity="0.26" enable-background="new    " width="6.78" height="69.68"/>
						</g>
					</g>
				</g>
				<g opacity="0.15">
					<g>
						<g>
							<rect x="365.92" y="468.36" opacity="0.26" enable-background="new    " width="6.78" height="37.11"/>
						</g>
					</g>
				</g>
				<g opacity="0.62">
					<g>
						<g>
							<rect x="465.85" y="407.72" opacity="0.26" enable-background="new    " width="6.78" height="97.75"/>
						</g>
					</g>
				</g>
				<g opacity="0.15">
					<g>
						<g>
							<rect x="432.54" y="442.99" opacity="0.26" enable-background="new    " width="6.79" height="62.48"/>
						</g>
					</g>
				</g>
				<g>
					<g>
						<g>
							<polygon fill="#D5DBDA" points="488.45,515.68 356.16,515.68 356.16,387.4 358.18,387.4 358.18,513.67 488.45,513.67 							
								"/>
						</g>
					</g>
				</g>
				<g>
					<g>
						<g>
							<polygon fill="#D5DBDA" points="369.75,450.99 368.4,449.48 403.01,418.41 435.06,425.37 469.77,386.73 471.27,388.08 
								435.78,427.59 403.59,420.6 							"/>
						</g>
					</g>
				</g>
				<g>
					<g>
						<g>
							<polygon fill="#D5DBDA" points="473.99,393.79 464.2,384.41 476.84,381.03 							"/>
						</g>
					</g>
				</g>
				<g>
					<g>
						<g>
							<g>
								<rect x="500.98" y="465.73" fill="#B1AFFD" width="10.15" height="10.15"/>
							</g>
						</g>
					</g>
					<g>
						<g>
							<g>
								<rect x="500.98" y="483.51" fill="#FCA70C" width="10.15" height="10.16"/>
							</g>
						</g>
					</g>
					<g>
						<g>
							<g>
								<rect x="513.92" y="487.9" fill="#EFEFEF" width="32.18" height="5.77"/>
							</g>
						</g>
					</g>
					<g>
						<g>
							<g>
								<rect x="513.92" y="470.11" fill="#EFEFEF" width="32.18" height="5.77"/>
							</g>
						</g>
					</g>
				</g>
				<g>
					<g>
						<g>
							<g>
								<rect x="560.67" y="465.73" fill="#B1AFFD" width="10.15" height="10.15"/>
							</g>
						</g>
					</g>
					<g>
						<g>
							<g>
								<rect x="560.67" y="483.51" fill="#FCA70C" width="10.15" height="10.16"/>
							</g>
						</g>
					</g>
					<g>
						<g>
							<g>
								<rect x="573.62" y="487.9" fill="#EFEFEF" width="32.18" height="5.77"/>
							</g>
						</g>
					</g>
					<g>
						<g>
							<g>
								<rect x="573.62" y="470.11" fill="#EFEFEF" width="32.18" height="5.77"/>
							</g>
						</g>
					</g>
				</g>
				<g>
					<g>
						<g>
							<g>
								<rect x="614.43" y="465.73" fill="#B1AFFD" width="10.15" height="10.15"/>
							</g>
						</g>
					</g>
					<g>
						<g>
							<g>
								<rect x="614.43" y="483.51" fill="#FCA70C" width="10.15" height="10.16"/>
							</g>
						</g>
					</g>
					<g>
						<g>
							<g>
								<rect x="627.38" y="487.9" fill="#EFEFEF" width="21.17" height="5.77"/>
							</g>
						</g>
					</g>
					<g>
						<g>
							<g>
								<rect x="627.38" y="470.11" fill="#EFEFEF" width="21.17" height="5.77"/>
							</g>
						</g>
					</g>
				</g>
				<g>
					<g>
						<g>
							<g>
								<rect x="502.88" y="368.75" fill="#EFEFEF" width="145.67" height="2.65"/>
							</g>
						</g>
					</g>
					<g>
						<g>
							<g>
								<rect x="356.16" y="336.24" fill="#EFEFEF" width="292.39" height="6.06"/>
							</g>
						</g>
					</g>
					<g>
						<g>
							<g>
								<rect x="502.44" y="376.98" fill="#EFEFEF" width="146.11" height="2.65"/>
							</g>
						</g>
					</g>
					<g>
						<g>
							<g>
								<rect x="502.44" y="360.51" fill="#EFEFEF" width="146.11" height="2.65"/>
							</g>
						</g>
					</g>
					<g>
						<g>
							<g>
								<rect x="502.44" y="385.22" fill="#EFEFEF" width="146.11" height="2.65"/>
							</g>
						</g>
					</g>
					<g>
						<g>
							<g>
								<rect x="502.44" y="393.45" fill="#EFEFEF" width="146.11" height="2.64"/>
							</g>
						</g>
					</g>
					<g>
						<g>
							<g>
								<rect x="502.44" y="401.69" fill="#EFEFEF" width="146.11" height="2.65"/>
							</g>
						</g>
					</g>
					<g>
						<g>
							<g>
								<rect x="502.44" y="409.93" fill="#EFEFEF" width="146.11" height="2.65"/>
							</g>
						</g>
					</g>
					<g>
						<g>
							<g>
								<rect x="502.44" y="418.16" fill="#EFEFEF" width="146.11" height="2.65"/>
							</g>
						</g>
					</g>
					<g>
						<g>
							<g>
								<rect x="502.44" y="426.4" fill="#EFEFEF" width="146.11" height="2.65"/>
							</g>
						</g>
					</g>
					<g>
						<g>
							<g>
								<rect x="520.33" y="434.64" fill="#EFEFEF" width="128.23" height="2.64"/>
							</g>
						</g>
					</g>
				</g>
			</g>
			<path fill="#A4A4F7" d="M658.14,301.74H348.55c-8.21,0-14.87,6.66-14.87,14.87v13.01h339.33v-13.01
				C673.01,308.4,666.35,301.74,658.14,301.74z"/>
			<path fill="#CFCFFF" d="M629.37,316.2c0,2.37-1.92,4.29-4.29,4.29c-2.36,0-4.28-1.92-4.28-4.29c0-2.37,1.92-4.29,4.28-4.29
				C627.44,311.91,629.37,313.83,629.37,316.2z"/>
			<path fill="#CFCFFF" d="M646.84,316.2c0,2.37-1.92,4.29-4.29,4.29c-2.37,0-4.29-1.92-4.29-4.29c0-2.37,1.92-4.29,4.29-4.29
				C644.92,311.91,646.84,313.83,646.84,316.2z"/>
			<path fill="#CFCFFF" d="M664.31,316.2c0,2.37-1.92,4.29-4.29,4.29c-2.36,0-4.29-1.92-4.29-4.29c0-2.37,1.92-4.29,4.29-4.29
				C662.39,311.91,664.31,313.83,664.31,316.2z"/>
		</g>
		<path opacity="0.35" fill="#5851BC" enable-background="new    " d="M772.67,224.7h-79.46c0.54,25.77,0.99,51.54,1.31,77.31
			c0.05,3.94,0,8.01-1.44,11.65c-0.06,0-0.12,0-0.12,0c-1.05-0.06-0.58,0.27-0.95,2.16c0,0.02-0.02,0.06-0.02,0.09
			c-3.21,5.25-9.49,8.11-15.59,9.47c-0.06,0.32,0,0.6,0.1,0.85c-0.71,0.63-1.04,1.41-0.61,2.4c0.36,0.86,4.93,2.03,11.14,1.36
			c1.78-0.19,5.26-1.16,6.89-1.91c0.97-0.45,1.85-1.12,2.53-1.73c0.8-0.1,1.6-0.26,2.32-0.56l0.25,0.23l7.11-3.1
			c0,0-0.77-4.48-1.39-6.82c-0.12-0.45-0.28-0.8-0.47-1.1c5.92-16.14,10.65-32.72,13.95-49.59c-1.3,20.93-8.81,63.45-9.37,64.92
			c-0.95,2.47-4.2,5.94-9.04,6.34c-1.68,0.14-9.96-0.34-9.07,3.47c0.22,0.91,4.51,2.85,10.74,3.27c1.78,0.12,5.39-0.23,7.11-0.69
			c2.32-0.62,4.43-2.41,4.43-2.41l0.96,1.28l7.54-1.82c0,0-0.02-1.96-0.06-4.33c-0.04-2.36-1.61-4.59-1.61-4.59l0.11-4.29l4.18-0.49
			c0,0,8.39-27.15,12.38-36.38c1.65-3.8,3.47-7.56,4.51-11.57c1.23-4.71,1.34-9.62,1.73-14.47c0.71-8.85,2.34-17.62,4.85-26.13
			c0.16-0.54,0.34-1.1,0.71-1.52c0.66-0.74,1.75-0.87,2.75-0.96c10.68-0.98,15.58,0.84,22.26-1.23c8.81-2.73,9.74-6.73,10.18-6.92
			C780.17,225.48,776.51,224.7,772.67,224.7z"/>
		<g opacity="0.35">
			<path fill="#5851BC" d="M802.04,402.56v-92.15c-13.75,17.99-27.35,34.11-41.09,52.1c-5.96,7.8-29.32,33.66-13.39,44.03
				c4.06,2.65,11.15,2.53,14.69,2.78c12.71,0.9,25.3-2.62,37.66-6.11C800.62,403.02,801.34,402.8,802.04,402.56z"/>
		</g>
		<path opacity="0.35" fill="#5851BC" enable-background="new    " d="M802.04,422.39l-7.65,0.59l-0.14-0.43l-5.95,0.46l-1.79-5.06
			c-1.02-2.88-4.39-5.02-7.5-4.77c-3.12,0.25-4.83,2.81-3.8,5.69c0.31,0.88,1.18,3.34,1.78,5.02l-6.26,0.49l0.13,0.44l-12.9,1
			c-2.04,0.01-5.05,2.64-4.4,4.48l0.1,0.27c0.03,0.16,0,0.31,0.06,0.48l11.17,31.49l-0.29,132.66h12.96l24.51-95.29V422.39
			L802.04,422.39z M781.91,421.4c-1.75,0.14-3.64-1.06-4.21-2.68c-0.58-1.62,0.38-3.05,2.13-3.19c1.75-0.15,3.63,1.05,4.21,2.67
			C784.62,419.83,783.66,421.26,781.91,421.4z"/>
		<path opacity="0.35" fill="#5851BC" enable-background="new    " d="M319.11,367.73c-2.88,3.18-6.28,9.95-7.67,12.86
			c-1.46,2.88-3.04,4.5-7.14,6.43c-5.67,2.6-11.75,5.08-17.58,7.37v15.05c11.87-7.14,22.61-13.8,22.79-13.87
			c9.07,3.47,16.66-4.07,19.1-9.51c1.09-2.44-0.55-3.44-0.62-4.6c-0.04-0.6,0.74-4.14,0.62-4.59c-0.71-3.18-9.24-0.4-8.54-1.91
			c0.42-1.16,1.41-3.86,3.56-5.32c4.18-2.85,7.38-6.02,7.38-7.21C331.01,360.35,320.1,366.64,319.11,367.73z"/>
	</g>
	<g>
		<path fill="#A2A7F4" d="M958.58,675.92H799.47c-11.39,0-20.63-9.24-20.63-20.63V464.84c0-11.39,9.24-20.63,20.63-20.63h159.11
			c11.39,0,20.62,9.23,20.62,20.63v190.45C979.2,666.68,969.97,675.92,958.58,675.92z"/>
		<g>
			<g>
				<path fill="#9090F4" d="M961.56,516.05H802.64c-2.9,0-5.26-2.35-5.26-5.26v-37.07c0-2.9,2.36-5.26,5.26-5.26h158.92
					c2.91,0,5.26,2.36,5.26,5.26v37.07C966.82,513.7,964.47,516.05,961.56,516.05z"/>
				<path fill="#9090F4" d="M835.69,563.14h-33.05c-2.9,0-5.26-2.35-5.26-5.26v-19.68c0-2.91,2.36-5.26,5.26-5.26h33.05
					c2.9,0,5.26,2.35,5.26,5.26v19.68C840.95,560.79,838.59,563.14,835.69,563.14z"/>
				<path fill="#9090F4" d="M898.62,563.14h-33.05c-2.9,0-5.25-2.35-5.25-5.26v-19.68c0-2.91,2.35-5.26,5.25-5.26h33.05
					c2.91,0,5.26,2.35,5.26,5.26v19.68C903.88,560.79,901.53,563.14,898.62,563.14z"/>
				<path fill="#9090F4" d="M961.56,563.14h-33.05c-2.91,0-5.26-2.35-5.26-5.26v-19.68c0-2.91,2.35-5.26,5.26-5.26h33.05
					c2.91,0,5.26,2.35,5.26,5.26v19.68C966.82,560.79,964.47,563.14,961.56,563.14z"/>
				<path fill="#9090F4" d="M835.69,611.7h-33.05c-2.9,0-5.26-2.36-5.26-5.26v-19.69c0-2.91,2.36-5.26,5.26-5.26h33.05
					c2.9,0,5.26,2.35,5.26,5.26v19.69C840.95,609.34,838.59,611.7,835.69,611.7z"/>
				<path fill="#9090F4" d="M898.62,611.7h-33.05c-2.9,0-5.25-2.36-5.25-5.26v-19.69c0-2.91,2.35-5.26,5.25-5.26h33.05
					c2.91,0,5.26,2.35,5.26,5.26v19.69C903.88,609.34,901.53,611.7,898.62,611.7z"/>
				<path fill="#9090F4" d="M835.69,660.27h-33.05c-2.9,0-5.26-2.35-5.26-5.26v-19.69c0-2.9,2.36-5.26,5.26-5.26h33.05
					c2.9,0,5.26,2.36,5.26,5.26v19.69C840.95,657.91,838.59,660.27,835.69,660.27z"/>
				<path fill="#9090F4" d="M898.62,660.27h-33.05c-2.9,0-5.25-2.35-5.25-5.26v-19.69c0-2.9,2.35-5.26,5.25-5.26h33.05
					c2.91,0,5.26,2.36,5.26,5.26v19.69C903.88,657.91,901.53,660.27,898.62,660.27z"/>
			</g>
			<path fill="#9090F4" d="M961.56,660.27h-33.05c-2.91,0-5.26-2.35-5.26-5.26v-68.25c0-2.91,2.35-5.26,5.26-5.26h33.05
				c2.91,0,5.26,2.35,5.26,5.26v68.25C966.82,657.91,964.47,660.27,961.56,660.27z"/>
		</g>
		<g opacity="0.45">
			<path fill="#E2DEFF" d="M794.3,470.65c0-2.9,2.36-5.26,5.26-5.26h158.92c2.9,0,5.26,2.36,5.26,5.26v37.07
				c0,2.9-2.36,5.26-5.26,5.26H799.56"/>
			<path fill="#E2DEFF" d="M832.61,560.06h-33.05c-2.9,0-5.26-2.35-5.26-5.26v-19.69c0-2.9,2.36-5.26,5.26-5.26h33.05
				c2.9,0,5.26,2.36,5.26,5.26v19.69C837.87,557.71,835.51,560.06,832.61,560.06z"/>
			<path fill="#E2DEFF" d="M895.55,560.06H862.5c-2.91,0-5.26-2.35-5.26-5.26v-19.69c0-2.9,2.35-5.26,5.26-5.26h33.05
				c2.91,0,5.26,2.36,5.26,5.26v19.69C900.81,557.71,898.45,560.06,895.55,560.06z"/>
			<path fill="#E2DEFF" d="M958.48,560.06h-33.05c-2.91,0-5.26-2.35-5.26-5.26v-19.69c0-2.9,2.36-5.26,5.26-5.26h33.05
				c2.9,0,5.26,2.36,5.26,5.26v19.69C963.74,557.71,961.39,560.06,958.48,560.06z"/>
			<path fill="#E2DEFF" d="M832.61,608.63h-33.05c-2.9,0-5.26-2.35-5.26-5.26v-19.68c0-2.9,2.36-5.26,5.26-5.26h33.05
				c2.9,0,5.26,2.36,5.26,5.26v19.68C837.87,606.27,835.51,608.63,832.61,608.63z"/>
			<path fill="#E2DEFF" d="M895.55,608.63H862.5c-2.91,0-5.26-2.35-5.26-5.26v-19.68c0-2.9,2.35-5.26,5.26-5.26h33.05
				c2.91,0,5.26,2.36,5.26,5.26v19.68C900.81,606.27,898.45,608.63,895.55,608.63z"/>
			<path fill="#E2DEFF" d="M832.61,657.19h-33.05c-2.9,0-5.26-2.35-5.26-5.26v-19.69c0-2.91,2.36-5.26,5.26-5.26h33.05
				c2.9,0,5.26,2.35,5.26,5.26v19.69C837.87,654.83,835.51,657.19,832.61,657.19z"/>
			<path fill="#E2DEFF" d="M895.55,657.19H862.5c-2.91,0-5.26-2.35-5.26-5.26v-19.69c0-2.91,2.35-5.26,5.26-5.26h33.05
				c2.91,0,5.26,2.35,5.26,5.26v19.69C900.81,654.83,898.45,657.19,895.55,657.19z"/>
		</g>
		<path fill="#FCA70C" d="M958.48,657.19h-33.05c-2.91,0-5.26-2.35-5.26-5.26v-68.25c0-2.9,2.36-5.26,5.26-5.26h33.05
			c2.9,0,5.26,2.36,5.26,5.26v68.25C963.74,654.83,961.39,657.19,958.48,657.19z"/>
		<path fill="#F9C110" d="M923.25,655.01v-68.25c0-2.91,2.35-5.26,5.26-5.26h33.05c0.65,0,1.26,0.13,1.84,0.35
			c-0.75-2-2.66-3.43-4.92-3.43h-33.05c-2.91,0-5.26,2.36-5.26,5.26v68.25c0,2.26,1.43,4.17,3.43,4.91
			C923.38,656.27,923.25,655.65,923.25,655.01z"/>
		<path opacity="0.35" fill="#5851BC" enable-background="new    " d="M778.84,498.85l5.37,14.13h22.46c0,0-1.56,61.07-1.66,72.52
			c-0.1,11.45,9.41,90.42,9.41,90.42h13.01l-1.36-99.57l18.45-51.08c0,0,13.87,68.39,19.62,79.83
			c5.75,11.44,36.66,70.83,36.66,70.83h11.93L882.1,544.96l-13.15-45.5l-66.32-30.99l-23.79,2.35"/>
	</g>
	<g>
		<polygon fill="#FCA70C" points="330.24,549.59 319.77,658.05 422.62,658.07 412.68,549.41 		"/>
		<g>
			<g>
				<path fill="#5851BC" d="M348.17,559.52L348.17,559.52c0-1.8,1.73-3.26,3.85-3.27l0,0c2.13,0,3.86,1.46,3.86,3.26
					c0,1.79-1.72,3.26-3.85,3.27c0,0,0,0-0.01,0C349.91,562.77,348.18,561.31,348.17,559.52z M352.03,557.49
					c-1.44,0.01-2.61,0.92-2.61,2.03c0,1.11,1.17,2.02,2.62,2.02h0c1.44-0.01,2.61-0.91,2.61-2.03
					C354.64,558.4,353.47,557.49,352.03,557.49C352.03,557.49,352.03,557.49,352.03,557.49z M348.77,559.51h0.02H348.77z"/>
			</g>
			<g>
				<path fill="#5851BC" d="M386.51,559.43h0.62H386.51c0-0.77,0.31-1.52,0.9-2.11c0.73-0.74,1.8-1.16,2.94-1.16c0,0,0.01,0,0.02,0
					c2.12,0,3.85,1.45,3.85,3.25c0,0.9-0.42,1.73-1.17,2.35c-0.72,0.59-1.67,0.92-2.68,0.92c0,0,0,0,0,0
					C388.24,562.68,386.52,561.23,386.51,559.43z M390.35,557.4c-0.81,0-1.56,0.29-2.06,0.8c-0.25,0.25-0.55,0.67-0.54,1.23l0,0
					c0,1.11,1.17,2.01,2.61,2.01c0,0,0,0,0,0c0.72,0,1.39-0.23,1.89-0.64c0.46-0.38,0.71-0.87,0.71-1.39
					c-0.01-1.11-1.17-2.01-2.61-2.01C390.36,557.4,390.36,557.4,390.35,557.4z"/>
			</g>
		</g>
		<g>
			<path fill="#5851BC" d="M370.06,583.23c0.36,0,0.73-0.01,1.1-0.02c7.04-0.24,12.41-2.51,15.96-6.74
				c5.88-7.02,4.55-16.81,4.49-17.22c-0.1-0.68-0.74-1.17-1.41-1.05c-0.68,0.09-1.16,0.73-1.06,1.41c0.02,0.09,1.23,9.12-3.94,15.28
				c-3.07,3.66-7.83,5.63-14.13,5.84c-6.1,0.18-10.65-1.4-13.67-4.77c-5.49-6.11-4.14-16.16-4.12-16.26
				c0.09-0.68-0.38-1.31-1.06-1.41c-0.66-0.1-1.31,0.38-1.41,1.06c-0.06,0.46-1.53,11.27,4.73,18.26
				C358.89,581.33,363.77,583.23,370.06,583.23z"/>
		</g>
	</g>
	<g>
		<g>
			<path fill="#5045AF" d="M229.11,305.18c3.98,6.87,0.55,16.27,4.56,23.12c1.61,2.75,4.33,4.9,5.11,7.98
				c0.64,2.59-0.36,5.52-2.46,7.17c-2.1,1.65-5.19,1.92-7.55,0.67c-0.51-0.27-0.99-0.61-1.55-0.77c-1.99-0.58-3.78,1.18-5.49,2.35
				c-2.09,1.43-4.82,2.08-7.23,1.28c-3.08-1.03-4.99-4.14-6.02-7.23c-2.87-8.63-0.83-18.07,1.82-26.76
				c1.33-4.35,3.28-9.17,7.54-10.74"/>
		</g>
		<path fill="#FFB9B0" d="M321.57,378.31c0.07,0.96,1.52,1.78,0.55,3.79c-2.16,4.49-8.9,10.71-16.95,7.85
			c-0.35,0.12-44.49,25.64-47.89,25.64c-3.4,0-26.57-21.92-34.15-49.05c-1.8-6.47-1.1-14.08,4.96-17.36c0,0,5.05,1.23,8.33,7.42
			c5.02,9.47,20.05,40.84,23.38,42.03c4.15-2.76,24.37-8.78,40.73-15.73c3.65-1.59,5.05-2.93,6.35-5.31c1.23-2.4,4.24-7.98,6.8-10.6
			c0.87-0.9,10.56-6.09,10.56-4.38c0,0.99-2.84,3.6-6.55,5.95c-1.9,1.2-2.78,3.43-3.16,4.39c-0.63,1.25,6.95-1.04,7.58,1.58
			C322.23,374.9,321.54,377.81,321.57,378.31z"/>
		<g>
			<path fill="#7762EF" d="M226.33,348.38c5.73,1.34,10.45,5.01,13.19,10.22c0.69,1.33,1.24,2.73,1.79,4.13
				c2.35,5.98,5.59,11.39,7.94,17.38c-3.21,2.59-7.1,3.79-10.38,5.01c-3.07,1.14-6.4,1.59-9.67,1.29c-0.55-0.05-1.12-0.12-1.63-0.36
				c-0.68-0.31-1.2-0.89-1.69-1.46c-1.01-1.15-1.99-2.33-2.94-3.53c-0.81-1.03-1.63-2.11-1.97-3.38c-0.46-1.72,0-3.54,0.46-5.26"/>
		</g>
		<g opacity="0.35">
			<path fill="#7762EF" d="M232.1,364.72c-0.21-0.25-0.44-0.52-0.75-0.64c-0.59-0.23-1.28,0.15-1.59,0.71
				c-0.31,0.55-0.33,1.21-0.33,1.84c0.03,2.42,0.41,4.85,1.13,7.16l-0.76,12.61c0.01,0.01,0.02,0.02,0.02,0.03
				c3.06,0.19,6.16-0.25,9.04-1.31c1.37-0.51,2.84-1.04,4.32-1.64C241.66,376.36,236.82,370.34,232.1,364.72z"/>
		</g>
		<path fill="#FFB9B0" d="M212.54,335.85c0,0-0.17,7.9,1.05,8.41c2.41,1.03,5.1,1.58,5.1,1.58l0.08,16.35l-21.8-3.29l-15-8.35
			c0,0,15.59-5.16,15.72-6.72c0.14-1.56-0.86-10.3-0.86-10.3"/>
		<g>
			<path fill="#FFB9B0" d="M179.05,572.41c-0.01,0.03-0.01,0.03-0.01,0.06c-5.96,28.27-3.12,67.11-4.45,88.4
				c0.31,0.09,8.1,1.05,8.1,1.05s18.44-89.71,21.79-106.88c0.23-1.2,0.38-2.33,0.42-3.33c0.81-12.92-10.84-13.59-17.41-2.9
				c-1.08,1.75-2.09,3.68-3,5.77c-0.37,0.85-0.72,1.7-1.07,2.61l-0.01,0.03c-1.08,2.8-2.05,5.81-2.89,9.03l-0.07,0.33
				c-0.27,0.91-0.5,1.82-0.72,2.74l-0.04,0.21C179.46,570.46,179.26,571.42,179.05,572.41z"/>
			<path fill="#FFB9B0" d="M213.97,470.93c-0.22,2.34-1.47,13.47-2.96,26.6c-1.28,11.04-2.68,23.48-3.77,33.34
				c-0.81,7.39-1.4,13.29-1.65,16.06c-0.13,1.71-0.35,3.27-0.66,4.77v0.07c-2.81,12.91-11.72,13.66-17.15,10.67
				c-0.75-0.38-1.47-0.9-2.06-1.41c-1.24-1.12-2.09-2.49-2.3-3.81v-0.03c-0.35-2.65-0.69-6.27-1-10.57v-0.06
				c-0.03-0.03-0.03-0.03-0.03-0.06l-0.03-0.09c-0.66-8.39-1.22-19.18-1.72-29.69c-0.59-12.91-0.97-25.36-1.06-32.38
				c-0.03-0.41-0.03-0.78-0.06-1.15c-0.09-21.52,19.68-35.3,31.97-28.63c0.15,0.06,0.27,0.12,0.43,0.22
				c0.19,0.12,0.34,0.22,0.47,0.28c1.41,0.94,1.87,4.15,1.9,7.83C214.34,465.57,214.15,468.5,213.97,470.93z"/>
			<path fill="#FFB9B0" d="M183.88,552.13l-1.51-5.64c0,0.03,0,0.03,0.02,0.07c0.04,1.27,0.18,10.36-1.87,19.68l-0.07,0.33
				c-0.21,0.89-0.44,1.83-0.72,2.74l-0.04,0.21c-0.43,1.49-0.63,2.42-0.64,2.89c-0.01,0.03-0.01,0.03-0.01,0.06
				c-0.02,2.55,5.43-8.79,6.67-11.45c0.15-0.33,0.25-0.53,0.25-0.53l-1.47-5.91L183.88,552.13z"/>
		</g>
		<g>
			<path fill="#FFB9B0" d="M226.48,577.8c0,0.03,0,0.03,0,0.06c-0.56,29.6,8.58,64.41,11,85.91c0.29,0.01,7.47-0.95,7.47-0.95
				s1.37-90.69,1.46-108.61c0-1.25-0.06-2.41-0.18-3.42c-1.47-13.05-12.06-10.82-16.16,1.44c-0.68,2.01-1.26,4.18-1.72,6.48
				c-0.19,0.93-0.35,1.87-0.52,2.86v0.03c-0.5,3.05-0.86,6.29-1.08,9.69l-0.01,0.35c-0.09,0.97-0.13,1.94-0.17,2.9l-0.01,0.22
				C226.52,575.77,226.49,576.77,226.48,577.8z"/>
			<path fill="#FFB9B0" d="M232.63,565.73c-0.76-0.2-1.46-0.53-2.08-0.91c-1.34-0.8-2.34-1.93-2.72-3.2l0-0.04
				c-0.77-2.55-1.7-6.11-2.73-10.32c-0.02-0.03-0.02-0.03-0.02-0.06l-0.04-0.11c-2-8.16-4.36-18.76-6.58-29.07
				c-2.71-12.69-5.18-24.98-6.44-31.96c-0.1-0.38-1.19-5.46-1.27-5.83c-3.79-21.63,13.08-35.72,25.33-31.6
				c0.17,0.06,0.33,0.11,0.48,0.17c2.47,0.99,3.15,9.66,3.7,15.51c0.55,5.86,4.72,66.58,5.76,77.56c0.17,1.75,0.24,3.37,0.22,4.92
				C245.94,564.38,238.03,567.35,232.63,565.73z"/>
			<path fill="#FFB9B0" d="M227.37,556.44l-2.31-5.23c0,0.03,0,0.03,0.02,0.06c0.25,1.26,1.92,10.26,1.66,20.04l-0.01,0.34
				c-0.04,0.94-0.08,1.94-0.17,2.9l-0.01,0.22c-0.13,1.59-0.15,2.56-0.08,3.03c0,0.03,0,0.03,0,0.06
				c0.42,2.55,3.39-10.09,4.06-13.04c0.08-0.37,0.14-0.59,0.14-0.59l-2.33-5.52L227.37,556.44z"/>
		</g>
		<path fill="#5146AF" d="M189.8,429.39c0,0-15.87,20.16-14.24,40.42c0.68,8.44,1.72,15.87,2.68,24.35
			c0.14,1.22,2.04,19.04,1.5,19.06c0,0,32.71,10.1,64.3-3.14c0-2.16,2.53-43.63-14.54-83.16C208.9,429.83,189.8,429.39,189.8,429.39
			z"/>
		<path fill="#7762EF" d="M239.5,382.84c-0.12,5.78-3.2,9.3-7.61,14.17c-0.56,0.86-1.92,13.74-2.39,22.3
			c-0.24,4.45,1.66,7.25,0,7.62c-6.34,5.53-29.21,10.02-39.7,2.46c1.1-9.31-3.07-29.82-5.88-40.25c-0.44-1.61-0.83-2.96-1.18-4.01
			c-2.62-7.92-7.35-33.32-3.85-34.43c0.7-0.22,1.78-0.51,3.03-0.89c5.49-1.65,13.59-4.49,13.59-4.49s4.75,14.05,17.1,15.75
			c6.74-2.78,6.15-11.3,6.07-15.23c2.2,0.61,3.18,1.22,10.01,3.24c1.92,2.76,0.27,8.52,3.36,17.12
			C232.83,368.34,239.66,375.8,239.5,382.84z"/>
		<path fill="#FFB9B0" d="M228.31,303.59c0,0,1.25,15.27-1.35,23.27c-1.93,5.93-9.86,11.46-16.48,11.38
			c-18.24,0-21.5-24.76-21.41-25.96c0.09-1.2,26.89-11.6,26.89-11.6L228.31,303.59z"/>
		<path fill="#F2F2F2" d="M230.23,454.21"/>
		<g>
			<path fill="#5045AF" d="M263.03,672.34c-6.49,1.16-13.42-0.66-16.27-0.16c-2.35,0.4-8.38,1.93-10.65-0.1
				c-2.26-2.03-1.89-9.2,0.71-10.15c0,0,0.6,0.23,1.68,0.41c1.62,0.24,4.32,0.37,7.69-0.63c4.94,2.03,5.12,2.92,10.73,4.05
				c2.44,0.5,5.28,1.32,7.15,2.17C266.49,669.04,266.69,671.69,263.03,672.34z"/>
		</g>
		<g>
			<path fill="#5045AF" d="M192.97,675.2c-6.5-1.1-10.62-4.69-13.47-5.19c-2.35-0.41-8.26-1.57-8.88-3.99
				c-0.46-1.8,1.33-9.29,4.09-9.32c0,0,0.49,0.42,1.45,0.95c1.44,0.77,3.94,1.8,7.44,2c3.96,3.58,3.83,4.48,8.73,7.44
				c2.14,1.29,4.53,3.02,6,4.46C200.25,673.42,196.64,675.82,192.97,675.2z"/>
		</g>
		<g>
			<path fill="#FFB9B0" d="M98.2,371.95l5.97-7.11l36.44,32.58c0,0,17.79-23.68,22.68-31.07c5.38-8.13,10.23-15.08,18.1-16.44
				c1.81,1.12-0.61,30.32-1.56,31.02c-10.99,8.22-32.38,34.75-39.19,36.13C132.79,418.65,98.2,371.95,98.2,371.95z"/>
			<path fill="#7762EF" d="M184.08,348.61c0,0-7.44,0.09-10.64,2.73c-3.2,2.64-18.49,26.87-18.49,26.87s-0.39,4.58,4.02,8.42
				c4.72,4.1,11.01,4.76,11.01,4.76s7.68-7.64,12-11.11c2.7-2.17,2.96,3.19,2.96,3.19l13.53-13.21L184.08,348.61z"/>
		</g>
		<g>
			<path fill="#5045AF" d="M179.58,348.91c-0.41-0.22-0.81-0.45-1.19-0.68c-2.09-1.25-4.01-2.56-4.89-4.94
				c-1.26-3.42-1.87-8.67-0.1-11.99c1.2-2.25,3.46-3.71,5.01-5.74c2.13-2.8,2.77-6.45,2.94-9.97c0.18-3.51-0.03-7.08,0.71-10.52
				c1.26-5.88,2.94-11.48,7.47-15.28c7.26-6.07,21.82-9.67,29.74-2.9c1.44,1.23,1.72,2.22,3.67,2.41c2.61,0.25,4.3,0.58,6.64,1.94
				c2.6,1.5,5.75,3.62,5.39,7.03c-0.25,2.36-2.94,6.1-4.95,7.21c-0.85,0.47-1.83,0.61-2.8,0.63c-3.09,0.06-5.65-1.95-8.68-1.63
				c-1.48,0.16-2.87,0.96-3.8,2.11c-1.09,1.35-0.95,3.23-2.22,4.49c-2.04,2.02-5.21,1.85-7.64,3.16c-0.4,0.22-0.81,0.47-1.04,0.86
				c-0.22,0.38-0.25,0.85-0.26,1.3c-0.05,1.28-0.09,2.55-0.14,3.82c-1.2-0.53-1.33-2.24-2.31-3.1c-0.96-0.83-2.52-0.6-3.48,0.23
				c-0.96,0.82-1.42,2.09-1.67,3.33c-0.3,1.49,0.22,3.07,0.68,4.57c0.79,2.6,3.02,4.94,4.82,3.22c1.3,1.92-0.12,5.13-0.17,7.29
				c-0.04,1.72,0,5.13,1.61,6.27c1.48,1.04,3.82,0.25,3.91,2.93c0.09,2.45-2.37,4.37-4.81,4.67c-2.43,0.3-4.84-0.56-7.2-1.25
				c-2.35-0.7-4.92-1.24-7.21-0.35c-1.39,0.54-2.58,1.58-4.05,1.82C182.17,350.08,180.84,349.58,179.58,348.91z"/>
		</g>
		<g>
			<path fill="#FFB9B0" d="M113.38,373.12c0,0-8.57-6.86-9.15-8.75c-0.59-1.88-0.71-3.89-1.42-5.73c-1.03-2.68-3.28-4.82-5.94-5.91
				c-2.15-0.89-1.09-1.61-3.4-1.17c-3.47,0.67-5.12,4.07-6.5,6.73c-5.92,11.33,10.28,13.48,10.85,13.5
				c1.19,0.05,7.21,6.88,7.21,6.88"/>
		</g>
		<g>
			<path fill="#8484EF" d="M86.33,367.65l5.87,3.91c0.77,0.52,1.81,0.28,2.28-0.51l12.88-21.59l-7.64-4.3l-13.83,20.24
				C85.39,366.14,85.59,367.15,86.33,367.65z"/>
			<g>
				<path fill="#C4C4F7" d="M65.38,321.84l2.02,1.37l8.17-11.89l-2.02-1.37c-2.87-1.96-7.03-0.88-9.28,2.4l0,0
					C62.01,315.63,62.51,319.88,65.38,321.84z"/>
				<polygon fill="#C4C4F7" points="57.92,336.33 95.46,342.04 104.04,329.54 85.09,296.74 				"/>
				<polygon fill="#BBBBF2" points="60.31,336.85 95.46,342.04 98.87,337.05 69.3,323.76 				"/>
				<path fill="#C4C4F7" d="M110.9,351.12L110.9,351.12c2.01,1.37,4.91,0.62,6.48-1.68l1.53-2.22c1.57-2.3,1.22-5.27-0.78-6.64l0,0
					c-2.01-1.37-4.92-0.62-6.49,1.68l-1.53,2.22C108.54,346.78,108.89,349.75,110.9,351.12z"/>
				<path fill="#BBBBF2" d="M111.64,342.26l-1.52,2.22c-1.58,2.3-1.22,5.27,0.78,6.64c2.01,1.37,4.91,0.62,6.49-1.68l1.52-2.22
					c0.12-0.17,0.22-0.35,0.31-0.52c-1.62,1.91-4.25,2.47-6.11,1.2c-1.86-1.27-2.29-3.91-1.09-6.11
					C111.88,341.93,111.76,342.1,111.64,342.26z"/>
				<path fill="#A4A4F7" d="M56.69,337.57L56.69,337.57c1.18,0.8,2.88,0.36,3.81-0.98l25.75-37.53c0.93-1.35,0.72-3.09-0.46-3.9l0,0
					c-1.18-0.81-2.89-0.36-3.82,0.99l-25.75,37.53C55.31,335.02,55.51,336.76,56.69,337.57z"/>
				<path fill="#8484EF" d="M86.46,295.87l-21.45,31.25c-0.93,1.35-2.63,1.79-3.81,0.99c-0.28-0.19-0.5-0.44-0.66-0.71l-4.31,6.27
					c-0.92,1.35-0.72,3.1,0.46,3.9c1.18,0.8,2.88,0.36,3.81-0.98l25.75-37.53C86.96,298.02,87,296.76,86.46,295.87z"/>
				<path fill="#A4A4F7" d="M98.78,348.6l2.43,1.65c3.58,2.44,8.77,1.1,11.59-3l2.42-3.52c2.81-4.1,2.19-9.41-1.4-11.85l-2.43-1.66
					c-3.58-2.44-8.77-1.1-11.58,3l-2.41,3.52C94.56,340.85,95.19,346.16,98.78,348.6z"/>
				<path fill="#8484EF" d="M97.51,336.56l-3.61,5.27c-0.89,1.3-0.7,2.97,0.44,3.75l11.3,7.7c1.13,0.77,2.78,0.34,3.67-0.95
					l3.62-5.27c-0.89,1.3-2.54,1.72-3.67,0.95l-11.31-7.71C96.81,339.54,96.62,337.86,97.51,336.56z"/>
			</g>
		</g>
		<g>
			<path fill="#FFB9B0" d="M87.59,362.23c-0.46-3.3,0.27-6.44,2.06-8.82c0.62-0.82,1.35-1.56,2.1-2.27c0.36-0.35,0.74-0.7,1.27-0.84
				c0.82-0.22,1.86,0.13,2.74,0.62c0.96,0.54,1.87,1.31,2.25,2.24c0.63,1.54-0.44,2.82-1.65,3.58c-0.13,0.08-0.26,0.16-0.3,0.3
				c-0.07,0.21,0.07,0.47,0.21,0.7c0.55,0.96,0.98,2,0.87,2.93c-0.11,0.93-0.93,1.68-2.01,1.51c-0.44-0.07-1.04-0.24-1.18,0.09
				c-0.05,0.11-0.03,0.25-0.01,0.38c0.12,0.94-0.12,1.83-0.68,2.47c-0.14,0.16-0.31,0.31-0.55,0.34c-0.18,0.02-0.38-0.02-0.57-0.08
				c-0.69-0.19-1.38-0.5-2-0.89"/>
		</g>
		<g>
			<path fill="#FFB9B0" d="M104.17,364.84c-0.2-1.26-0.65-3.33-0.7-4.61c-0.13-3.45-1.96-6.88-4.95-8.61
				c-0.24-0.15-0.52-0.28-0.8-0.23c-0.36,0.07-0.6,0.42-0.66,0.77c-0.05,0.36,0.05,0.72,0.16,1.06c0.35,1.09,1.9,3.14,1.42,4.26
				c-0.71,1.68-1.29,3.5-1.22,5.34c0.05,1.63,0.82,4.27,2.74,4.54"/>
		</g>
		
			<line fill="none" stroke="#C4C4F7" stroke-width="0.75" stroke-linecap="round" stroke-linejoin="round" stroke-miterlimit="10" x1="60.64" y1="278.57" x2="68.19" y2="296.38"/>
		
			<line fill="none" stroke="#C4C4F7" stroke-width="0.75" stroke-linecap="round" stroke-linejoin="round" stroke-miterlimit="10" x1="44.87" y1="294.41" x2="60.34" y2="306.01"/>
		
			<line fill="none" stroke="#C4C4F7" stroke-width="0.75" stroke-linecap="round" stroke-linejoin="round" stroke-miterlimit="10" x1="34.88" y1="315.99" x2="54.13" y2="317.88"/>
	</g>
	<g>
		<g>
			<path fill="#FFB9B0" d="M651.67,128.58c0,0-6.91-4.88-7.16-6.93c-0.25-2.05-5.07-10.35-6.61-12c-1.54-1.65-9.65-4.46-11.37-4.71
				c-1.73-0.25-11.65,0.59-10.41,1.95c1.23,1.35,7.65,0.86,8.89,1.6c1.24,0.74,1.24,0.74,1.24,0.74s-1.24,1.67-0.74,2.69
				c0.5,1.02-2.12,2.57-1.13,4.3c0.98,1.73-0.4,1.61,0.48,3.41c1.46,2.98,5.2,4.64,6.18,3.82c0.74,1.76,3.58,5.36,6.23,5.11
				c2.66-0.25,9.11,5.8,9.11,5.8"/>
			<g>
				<path fill="#FFB9B0" d="M757.11,93.87c0.24,4.64-0.09,12.73,1.24,13.93c1.33,1.2,5.62,1.01,5.62,1.01s-15.34,19.4-16.71,18.33
					c-1.38-1.07-19.52-15.86-15.44-16.62c4.07-0.76,8.07-0.6,7.95-2.71c-0.12-2.11-0.24-4.22-0.34-6.33"/>
			</g>
			<path fill="#FCA70C" d="M774.61,197.47c0,0-29.94,3.4-36.83,3.54c-6.89,0.15-6.55-3.45-6.55-3.45
				c-0.35-7.58-1.64-25.46-3.06-31.52c-1.33-5.66-1.92-7.74-3.08-13.12c-2.57-11.95-2.46-14.23-5.19-28.97l17.89-14.37
				c0,0,1.85,5.5,9.34,5.6c10.02,0.13,13.13-6.89,13.13-6.89l24.39,16.19l2.29,39.39l-2.92,32.44"/>
			<g>
				<path fill="#FFB9B0" d="M757.44,89.66c-0.54,2.34-1.24,4.64-2.11,6.88c-1.57,4.11-3.91,5.58-8.26,5.69
					c-3.05,0.07-6.11,0.15-9.16,0.22c-2.35,0.06-5.27,0.13-7.17-1.51c-1.88-1.63-1.91-4.38-2.33-6.64c-0.54-2.89-0.97-5.8-1.31-8.72
					c-0.65-5.72-0.92-11.49-0.81-17.25c0.02-0.79,0.04-1.59,0.21-2.36c0.07-0.32,0.17-0.64,0.4-0.87c0.28-0.28,0.7-0.36,1.1-0.42
					c5.72-0.9,11.54-1.28,17.32-1.11c4.09,0.12,8.44,0.59,11.67,3.1c3.26,2.52,4.81,6.61,6.2,10.49c0.22,0.63,0.39,1.46-0.15,1.84"
					/>
			</g>
			<g>
				<g>
					<path fill="#ED9C80" d="M690.3,304.26c0,0,0.99,5.96,1.79,7.99c0.79,2.04,7.47,0.16,7.92-1.15c0.43-1.32-2.11-11-2.11-11"/>
					<path fill="#38287C" d="M702.32,312.78c0.58,2.19,1.31,6.41,1.31,6.41l-6.68,2.91l-1.09-1.03c0,0-1.65,2.01-3.7,2.96
						c-1.52,0.7-4.8,1.61-6.46,1.79c-5.83,0.63-10.12-0.47-10.47-1.27c-1.44-3.37,6.29-4.28,7.82-4.68c4.41-1.16,6.86-4.9,7.33-7.34
						c0.34-1.77-0.1-2.08,0.89-2.03c0,0,0.87-0.04,1.67,0.78c1.23,1.27,3.09,1.85,4.74,1.1c0.95-0.43,1.84-1.06,2.37-1.97
						C700.05,310.4,701.75,310.58,702.32,312.78z"/>
				</g>
				<g>
					<g>
						<path fill="#453087" d="M719.81,226.43c-10.44,2.05-23.54,2.2-34.08,0.81c1.47,4.23,5.09,9.64,6.46,15.6
							c4.55,19.66,6.13,46.06,7.29,62.4c0,0-2.18,4.19-9.18,1c-10.46-25.82-28.71-78.14-28.54-89.49
							c0.22-14.45,36.28-17.94,62.72-21.5"/>
					</g>
					<g>
						<path fill="#38287C" d="M765.88,197.5c8.31,6.07-46.07,28.93-46.07,28.93c-6.04,1.19-11.91,1.72-17.82,1.7
							c-0.57-1.08-1.09-2.18-1.33-3.37c-0.32-1.58-0.15-3.22-0.42-4.81c-0.54-3.09-2.76-5.7-5.43-7.32
							c-2.68-1.63-5.79-2.38-8.89-2.88c-7.35-1.19-20.19-0.35-20.19-0.35c16.35-12.05,49.79-13.63,65.37-14.62
							C734.07,199.69,764.69,196.63,765.88,197.5z"/>
					</g>
				</g>
				<g>
					<path fill="#ED9C80" d="M707.54,318c0,0-0.06,6.04,0.37,8.18c0.42,2.14,7.33,1.45,7.99,0.23c0.66-1.22-0.17-11.19-0.17-11.19"
						/>
					<path fill="#38287C" d="M717.9,328.47c0.19,2.26,0.17,6.54,0.17,6.54l-7.08,1.71l-0.9-1.21c0,0-1.98,1.69-4.16,2.27
						c-1.61,0.43-5,0.76-6.67,0.64c-5.85-0.39-9.88-2.21-10.08-3.07c-0.84-3.58,6.93-3.13,8.52-3.26c4.54-0.38,7.6-3.64,8.48-5.96
						c0.64-1.69,0.27-2.07,1.23-1.84c0,0,0.86,0.1,1.5,1.06c1,1.47,2.72,2.36,4.48,1.91c1-0.26,1.99-0.72,2.67-1.53
						C716.07,325.73,717.72,326.21,717.9,328.47z"/>
				</g>
				<g>
					<path fill="#453087" d="M784.02,196.3c0,0-16.63,1.65-36.85,1.18c-4.7,0-40.29,6.68-43.7,12.71
						c-5.6,9.92,3.65,67.9,2.79,109.41c0,0,4.27,3.56,11.81,0.21c1.88-20.39,13.93-68.5,5.62-90.96
						c19.62,2.61,35.46,5.19,53.28-0.72c4.18-1.38,7.3-4.34,9.18-9.73C788.04,212.99,787.06,201.14,784.02,196.3z"/>
				</g>
			</g>
			<g>
				<path fill="#FCA70C" d="M737.78,109.57c0,0-4.28,0.24-5.12,0.3c-3.56,0.28-7.19,0.75-10.57,2c-4.85,1.8-8.27,6.31-12.22,9.84
					c-3.8,3.4-23.5,22.17-27.18,22.86c-3.67,0.69-35.93-21.41-35.93-21.41l-7.88,7.88c0,0,35,32.34,45.44,32.4
					c5.06,0.03,33.01-14.68,41.95-20.4L737.78,109.57z"/>
				<path opacity="0.25" fill="#CE4A30" enable-background="new    " d="M684.41,157.22c-7.19,0.4-40.17-24.78-43.99-27.72
					l-1.53,1.53c0,0,35,32.34,45.44,32.4c4.22,0.02,24.32-10.19,36.07-16.9l3.05-1.77l-1.83-10.87
					C721.62,133.89,692.05,156.79,684.41,157.22z"/>
			</g>
			<g>
				<path fill="#A4A4F7" d="M650.83,202.77h80.12l-14.37-46.83c-0.79-2.59-3.18-4.35-5.89-4.35h-70.16c-2.69,0-4.61,2.6-3.82,5.17
					L650.83,202.77z"/>
				<path fill="#7A74D1" d="M649.82,202.77h78.92l-14.36-46.83c-0.79-2.59-3.18-4.35-5.89-4.35h-70.17c-2.69,0-4.61,2.6-3.82,5.17
					l13.76,44.87C648.47,202.3,649.11,202.77,649.82,202.77z"/>
			</g>
			<g opacity="0.25">
				<path fill="#CE4A30" d="M773.02,132.15c-3.99,18.03-4.69,32.14-5.82,45.03c-14,5.43-19.7,13.52-33.4,19.62
					c0,0-10.82-1.8-11.95,2.29c-0.66,2.35,12.67,4.23,12.67,4.23c12.69,0.06,46.18-9.22,48.44-9.84c2.26-0.62,8.86-43.18,9.12-66.28
					c0.04-3.28-0.07-6.84-2.13-9.4c-1.08-1.35-2.59-2.27-4.13-3.05c-8.94-4.57-15.56-5.82-25.57-6.45"/>
			</g>
			<g>
				<path fill="#FFB9B0" d="M735.69,199.59c-1.51-1.89-4.25-2.17-6.67-2.11c-1.79,0.05-3.57,0.19-5.34,0.43
					c-0.81,0.1-1.74,0.3-1.83,1.17c-0.09,0.88,3.92,0,6.03,0.61c-4.12,0.36-8.26,0.47-12.39,0.34c-0.48-0.01-0.98-0.03-1.43,0.15
					c-0.44,0.18-0.83,0.6-0.8,1.08c0.02,0.38,0.29,0.69,0.57,0.94c1.15,1.04,2.73,1.45,4.26,1.71c6.31,1.11,12.96,0.92,18.83-1.66"
					/>
			</g>
			<g>
				<path fill="#FCA70C" d="M772.15,131.81c-0.33,19.28-1.7,28.1-1.32,47.37c-9.68,2.07-23.07,13.02-36.76,19.12
					c0,0-0.82,2.71,0.45,5.01c1.04,0.38,46.21-10.61,49.8-13.92c3.23-2.98,7.5-39.1,7.76-62.2c0.04-3.28-0.07-6.84-2.13-9.4
					c-1.08-1.34-2.6-2.27-4.13-3.05c-8.94-4.57-15.56-5.82-25.57-6.45"/>
			</g>
			<g>
				<path opacity="0.45" fill="none" stroke="#A4A4F7" stroke-miterlimit="10" enable-background="new    " d="M690.55,177.98
					c0.29,4.1-4.57,7.44-10.84,7.44c-6.27,0-11.59-3.33-11.88-7.44c-0.29-4.11,4.57-7.44,10.84-7.44
					C684.94,170.55,690.26,173.88,690.55,177.98z"/>
				<path fill="#A4A4F7" d="M686.4,177.98c0.18,2.28-2.9,4.14-6.88,4.14c-3.99,0-7.36-1.86-7.54-4.14c-0.18-2.29,2.9-4.14,6.88-4.14
					C682.84,173.85,686.22,175.7,686.4,177.98z"/>
			</g>
		</g>
		<path fill="#483A99" d="M743.33,77.33c-0.15-0.72-1.75-0.86-3.35-0.66c-1.61,0.2-5.89,0.74-6.77,1.43
			c-0.88,0.68-0.83,1.18-1.3,1.23c-0.46,0.05-0.49-0.43-1.52-0.88c-1.02-0.45-3.49-0.14-5.1,0.07c-1.61,0.2-3.13,0.56-3.1,1.29
			c0.03,0.74,0.31,2.02,0.64,2.22c0.33,0.21,0.33,0.17,1.59,3.08c0.71,1.63,1.79,2.56,3.87,2.1c2.65-0.57,2.82-3.58,3.01-4.84
			c0.21-1.26,0.4-1.44,0.8-1.5c0.41-0.05,0.68,0.08,1.19,1.25c0.51,1.17,0.88,3.86,3.59,4.02c3.55,0.2,5.08-1.02,5.57-3.29
			c0.67-3.08,0.51-3.09,0.78-3.37c0.13-0.13,2.65,0.23,2.65,0.23l-0.06-0.92C745.82,78.77,743.37,77.52,743.33,77.33z M730.46,83.54
			c-0.08,1.57-0.87,3.01-2.62,3.23c-1.63,0.2-2.36-0.66-3.25-2.74c-0.77-1.81-0.81-3.26-0.53-3.76c0.28-0.5,1.16-0.48,3.18-0.61
			c2.01-0.13,2.69-0.17,3.02,0.72C730.37,80.71,730.53,81.97,730.46,83.54z M742.02,81.84c-0.34,2.24-1.16,3.31-3.38,3.58
			c-3.16,0.38-3.77-0.87-4.24-2.37c-0.46-1.5-0.62-2.76-0.58-3.11c0.09-0.94,0.76-1.06,2.75-1.44c1.99-0.38,4.64-0.84,5.04-0.42
			C741.99,78.49,742.3,79.89,742.02,81.84z"/>
		<g>
			<path fill="#483A99" d="M764.75,72.41c-0.19-1.64-0.49-3.24-0.88-4.75c-1.08-4.14-3.61-7.65-7.4-9.7
				c-4.83-2.61-11.46-3.15-16.75-1.67c-3.07,0.86-4.21,2.48-5.78,2.43c-1.21-0.04-2.72-0.85-4.29-1.41
				c-11.98-4.3-9.97,7.42-8.69,10.65c0.56,1.42,3.28,2.46,3.64,3.05c0.36,0.59,0.32,3.49,0.55,4.77c0.23,1.28,1.5,1.76,1.5,1.76
				s0.06-3.77,0.13-4.29c0.16-1.34,0.6-2.74,1.77-3.54c1.22-0.83,2.89-0.96,4.31-1.21c1.48-0.26,8.36,1.06,8.82,1.46
				c2.24,1.92,2.82,6.3,3.44,8.88c0.3,1.21,0.6,2.01,1.09,1.99c0.37-3.54,1.6-3.64,3.72-2.42c1.14,0.65,1.77,2.89,1.81,4.79
				c0.04,2.25-1.21,4.74-3.58,5.24c-0.85,0.18,1.71,5.02,2.89,6.23c0.39,0.4,0.77,0.81,1.25,1.1c0.44,0.26,0.94,0.4,1.44,0.53
				c0.57,0.16,1.14,0.31,1.71,0.47c0.77,0.21,1.58,0.42,2.35,0.2c1.26-0.36,1.93-1.7,2.5-2.88c0.94-1.94,2.01-3.83,2.79-5.84
				C764.88,83.49,765.37,77.73,764.75,72.41z"/>
		</g>
	</g>
	<g>
		<path fill="#D5D2FF" d="M980.64,249.97H828.99l18.16-13.43v-65.59c0-5.47,4.44-9.91,9.91-9.91h123.58c5.47,0,9.91,4.43,9.91,9.91
			v69.12C990.55,245.54,986.12,249.97,980.64,249.97z"/>
		<g>
			<rect x="908.07" y="173.83" opacity="0.45" fill="#FFFFFF" enable-background="new    " width="69.3" height="6.63"/>
			<rect x="908.07" y="183.74" opacity="0.45" fill="#FFFFFF" enable-background="new    " width="69.3" height="6.63"/>
			<rect x="908.07" y="193.64" opacity="0.45" fill="#FFFFFF" enable-background="new    " width="69.3" height="6.63"/>
			<rect x="908.07" y="203.3" opacity="0.45" fill="#FFFFFF" enable-background="new    " width="69.3" height="6.63"/>
			<rect x="908.07" y="214.85" opacity="0.45" fill="#FFFFFF" enable-background="new    " width="48.33" height="6.63"/>
			<g>
				<path fill="#A9ADFF" d="M892.58,224.74h-23.45c-5.55,0-10.05-4.5-10.05-10.05v-30.81c0-5.55,4.5-10.05,10.05-10.05h23.45
					c5.55,0,10.04,4.5,10.04,10.05v30.81C902.63,220.24,898.13,224.74,892.58,224.74z"/>
				<rect x="859.09" y="231.07" opacity="0.45" fill="#FFFFFF" enable-background="new    " width="43.53" height="5.47"/>
				<g>
					<path fill="#FFFFFF" d="M885.16,206.86h-15.8c-0.89,0-1.67-0.6-1.9-1.46l-3.03-11.22c-0.34-1.26,0.6-2.49,1.9-2.49h21.87
						c1.3,0,2.24,1.23,1.91,2.49l-3.04,11.22C886.82,206.27,886.04,206.86,885.16,206.86z"/>
					<g>
						<path fill="#FFFFFF" d="M887.93,209.39h-19.03c-0.22,0-0.39-0.18-0.39-0.39c0-0.22,0.18-0.39,0.39-0.39h18.73l6.62-23.09
							c0.05-0.17,0.2-0.28,0.38-0.28h4.14c0.22,0,0.39,0.17,0.39,0.39s-0.18,0.39-0.39,0.39h-3.85l-6.62,23.09
							C888.26,209.28,888.11,209.39,887.93,209.39z"/>
					</g>
					<g>
						<path fill="#FFFFFF" d="M871.82,212.48c0,1.27-1.03,2.3-2.3,2.3c-1.27,0-2.3-1.03-2.3-2.3c0-1.27,1.03-2.3,2.3-2.3
							C870.79,210.18,871.82,211.21,871.82,212.48z"/>
						<circle fill="#FFFFFF" cx="886.25" cy="212.48" r="2.3"/>
					</g>
				</g>
			</g>
		</g>
	</g>
	<g>
		<path fill="#D5D2FF" d="M417.28,158.37h193.21l-23.14-17.12V35.54c0-6.97-5.65-12.63-12.62-12.63H417.28
			c-6.97,0-12.63,5.66-12.63,12.63v110.2C404.65,152.72,410.3,158.37,417.28,158.37z"/>
		<g>
			<g opacity="0.45">
				<rect x="421.43" y="42.52" fill="#FFFFFF" width="88.3" height="8.45"/>
				<rect x="421.43" y="55.14" fill="#FFFFFF" width="88.3" height="8.45"/>
				<rect x="421.43" y="67.77" fill="#FFFFFF" width="88.3" height="8.45"/>
				<rect x="421.43" y="80.06" fill="#FFFFFF" width="88.3" height="8.45"/>
				<rect x="421.43" y="92.36" fill="#FFFFFF" width="88.3" height="8.45"/>
				<rect x="421.43" y="114.71" fill="#FFFFFF" width="88.3" height="8.45"/>
				<rect x="421.43" y="128.02" fill="#FFFFFF" width="150.7" height="8.45"/>
			</g>
			<g>
				<path fill="#C4C4F7" d="M529.47,107.38h29.86c7.07,0,12.8-5.73,12.8-12.8V55.32c0-7.07-5.73-12.8-12.8-12.8h-29.86
					c-7.07,0-12.8,5.73-12.8,12.8v39.25C516.68,101.65,522.4,107.38,529.47,107.38z"/>
				<rect x="516.68" y="115.45" opacity="0.45" fill="#FFFFFF" enable-background="new    " width="55.46" height="6.96"/>
				<g>
					<path fill="#FFFFFF" d="M538.94,84.61h20.13c1.13,0,2.13-0.76,2.43-1.85l3.87-14.3c0.43-1.6-0.77-3.17-2.43-3.17h-27.87
						c-1.65,0-2.85,1.57-2.42,3.17l3.87,14.3C536.81,83.85,537.8,84.61,538.94,84.61z"/>
					<g>
						<path fill="#FFFFFF" d="M535.39,87.83h24.24c0.28,0,0.5-0.22,0.5-0.5s-0.23-0.5-0.5-0.5h-23.86l-8.43-29.42
							c-0.07-0.21-0.26-0.36-0.48-0.36h-5.28c-0.27,0-0.5,0.23-0.5,0.5c0,0.28,0.23,0.5,0.5,0.5h4.9l8.43,29.42
							C534.97,87.68,535.17,87.83,535.39,87.83z"/>
					</g>
					<g>
						<circle fill="#FFFFFF" cx="558.85" cy="91.77" r="2.93"/>
						<path fill="#FFFFFF" d="M534.6,91.77c0,1.62,1.31,2.93,2.93,2.93c1.62,0,2.93-1.31,2.93-2.93c0-1.62-1.31-2.93-2.93-2.93
							C535.92,88.84,534.6,90.15,534.6,91.77z"/>
					</g>
				</g>
			</g>
		</g>
	</g>
	<g>
		<path fill="#EAE6FF" d="M949.3,705.84c0,4.95-38.12,8.98-85.15,8.98c-47.03,0-85.14-4.02-85.14-8.98c0-4.96,38.12-8.98,85.14-8.98
			C911.18,696.87,949.3,700.89,949.3,705.84z"/>
		<path fill="#9AA3F4" d="M818.45,693.11c-0.71,1.39-4.14,4.61-8.88,6.72c-4.74,2.12-14.8,3.11-9.21,4.98
			c5.58,1.87,12.09,0.74,15.4,0.21c3.29-0.53,6.49-0.6,10.38-0.63c5.13-0.03,5.17-0.35,4.48-6.13
			C829.67,690.29,820.76,688.61,818.45,693.11z"/>
		<path fill="#9AA3F4" d="M911.41,690.22c-0.29,1.6,1.99,6.47-2.09,10.04c-4.07,3.57-13.34,7.33-7.2,7.47
			c6.14,0.14,12.03-1.29,15.16-2.83c3.12-1.54,0.63-3.97,4.5-5.19c5.1-1.61,4.05-5.36,1.4-7.68
			C919.78,684.4,912.33,685.02,911.41,690.22z"/>
		<path fill="#4A41A3" d="M891.86,528.14c0,0,12.23-35.95-22.46-65.56c0,0-18.59,7.4-33.47,8.29c-11.73,0.71-17.68-0.38-17.68-0.38
			s-0.99,31.94-1.03,49.15L891.86,528.14z"/>
		<path fill="#4A41A3" d="M814.4,587.85c-0.67-16.07,16.76-13.96,23.19-1.96c13.29,24.83-4.9,82.02-7.31,109.11
			c-2.5,0.97-6.69,1.72-9.2,0.58c-1.73-0.79-2.67-2.96-2.67-2.96C818.79,659.38,815.12,605.04,814.4,587.85z"/>
		<path fill="#4A41A3" d="M836.98,590.28c-2.01,6.57-24.25,13.47-22.45-10.42c0.8-10.6,2.93-69.1,3.34-74.74
			c0.41-5.64,1.36-13.88,4.08-14.91c13.63-5.15,37.74,12.68,34.15,33.85C853.72,538.23,841.14,576.67,836.98,590.28z"/>
		<path fill="#4A41A3" d="M871.99,599.41c-5.38-15.16,12.09-17.84,22.01-8.5c23.21,21.87,24.11,73.41,29.79,100.01
			c-3.22,2.21-8.35,3.01-10.15,2.91c-1.9-0.1-2.76-1.42-2.76-1.42C901.45,660.54,877.75,615.62,871.99,599.41z"/>
		<path fill="#4A41A3" d="M894.95,594.46c0.61,6.83-17.94,20.96-25.24-1.85c-3.24-10.12-17.1-69.92-18.83-75.3
			c-1.74-5.39-1.26-16.5,0.88-18.47c10.7-9.89,34.86-1.19,39.48,19.78C894.34,532.63,893.68,580.29,894.95,594.46z"/>
		<g>
			<g>
				<path fill="#F2A181" d="M799.44,332.63c0.63-0.67,1.26-1.33,1.83-2.06c4.4-5.62,5.03-10.61,9.11-17.13
					c0.58-0.94,1.4-3.42,2.96-5.66c1.63-2.34,5.58-4.88,6.61-5.42c1.9-0.99,0.27,3.2,0.27,3.2s1.61-2.34,3.17-2.18
					c0.61,0.07,0.71,3.64,0.72,4.25c0.08,4.91-1.08,9.83-3.34,14.2c-0.52,1.02-1.13,2.07-1.13,3.23c1.45-0.03,2.67-1.03,3.83-1.89
					c1.17-0.86,2.64-1.64,4.02-1.17c-0.2,0.58-0.49,1.13-0.78,1.67c-1.74,3.26-3.68,6.73-7.01,8.32c-2,0.95-4.31,1.11-6.26,2.15
					c-3.51,1.87-5.22,6.2-8.79,7.97"/>
			</g>
			<path fill="#5E5DBB" d="M820.31,333.89l-10.48-4.38c-0.98-0.41-1.44-1.53-1.03-2.51l9.32-22.27c0.41-0.98,1.53-1.44,2.5-1.03
				l10.48,4.38c0.97,0.41,1.44,1.54,1.03,2.51l-9.31,22.27C822.42,333.84,821.29,334.3,820.31,333.89z"/>
			
				<rect x="814.43" y="306.43" transform="matrix(-0.9226 -0.3857 0.3857 -0.9226 1455.0635 929.753)" fill="#B4B4DB" width="12.74" height="24.97"/>
			<path fill="#7A74D1" d="M831.54,355.37c0,0-8.97,0.46-16.98,2.87c-12.07,3.63-16.23,9.22-20.41,11.53
				c8.11-10.3,17.15-32.14,17.15-32.14s-10.9-8.95-12.15-6.84c-1.25,2.12-46.99,55.64-45.56,64.3c0.59,3.57,5.89,7.11,10.57,6.95
				c12.96-0.45,28.03-5.17,43.81-10.33c6.94-2.27,9.08,2.62,9.08,2.62"/>
			<path fill="#6960C4" d="M794.16,369.77c0,0-5.75,11.61-7.49,12.37c-1.73,0.76,4.2-2.42,7.44-5.77
				c3.24-3.35,7.68-12.14,7.68-12.14C800.1,364.92,794.16,369.77,794.16,369.77z"/>
			<g>
				<path fill="#F2A181" d="M812.23,313.51c0.56,0.4,0.71,1.15,0.81,1.83c0.4,2.57,0.78,5.3-0.22,7.69
					c-0.65,1.56-1.83,2.84-3.1,3.95c-1.43,1.25-3.02,2.34-4.71,3.22"/>
			</g>
			<g>
				<path fill="#170D54" d="M831.82,294.2c-3.05,0.88-4.67,4.82-5.71,7.52c-1.25,3.25-1.88,6.71-2.28,10.15
					c-0.28,2.4-0.46,4.92,0.5,7.14c0.49,1.13,1.24,2.13,1.99,3.1c0.43,0.56,0.87,1.12,1.44,1.52c0.58,0.39,1.33,0.59,1.99,0.34
					c0.96-0.36,1.33-1.48,1.61-2.47c1.76-6.41,3.68-12.9,7.31-18.48"/>
			</g>
			<g>
				<path fill="#F2A181" d="M828.43,314.51c-0.06-2.04-2.21-3.37-4.07-1.26c-1.54,1.75-1.95,5.07-2.04,7.53
					c-0.1,2.94,2.17,3.52,4.05,3.93"/>
			</g>
			<path fill="#7A74D1" d="M808.03,365.91c3.77-4.33,15.74-11.46,31.73-10.95c11.02,0.35,41.03,2.17,44.39,9.54
				c1.72,3.77,3.56,42.36,1.05,55.67c-1.89,10-6.72,34.79-6.72,40.77s3.22,8.55,1.72,10.29c-3.36,3.89-26.32,5.52-37.11,5.52
				c-9.6,0-25.93-2.56-26.76-5.63c-1.23-4.57,1.88-4.39,2.29-9.17c0.42-4.79,1.63-35.84-0.13-40.92
				c-3.18-9.18-4.73-24.14-7.24-30.92C809.33,384.95,804.26,370.23,808.03,365.91z"/>
			<path fill="#6960C4" d="M876.76,397.13c1.14,2.38,8.91,14.87,8.91,14.87l0.32,1.49c-0.19,2.59-0.45,4.87-0.79,6.68
				c-1.89,10-6.72,34.79-6.72,40.77s3.08,8.44,1.72,10.29c-2.64,3.59-45.95,11.66-43.82,1.64c0.19-0.91,36.34-28.49,36.54-29.42
				c1.66-7.92,3.11-13.62,3.85-19.4C878.52,410.17,875.62,394.75,876.76,397.13z"/>
			<path fill="#FFBE9D" d="M831.04,341.16c0,0-0.1,12.55-0.6,13.06c-0.51,0.5-2.99,1.68-2.99,1.68s1.77,10.91,4.5,10.1
				c2.74-0.81,20.79-9.93,20.79-9.93s-2.56-1.04-2.56-2.05c0-1.01,2.43-20.76,2.43-20.76"/>
			<path fill="#FFBE9D" d="M843.58,295.55c-2.63,0.72-9.57-0.72-11.48,2.15c-1.91,2.87-3.59,9.81-4.3,11.72
				c-1.43,3.81-2.36,7.88-3.4,11.81c-1.36,5.12-3.58,14.49,1.42,18.77c1.44,1.23,2.08,1.63,3.86,1.96c2.37,0.43,4.73,0.91,7.1,1.34
				c3.67,0.65,7.74,1.43,11.38,0.24c4.88-1.58,7.55-8.28,8.8-12.83l7.17-26.07L843.58,295.55z"/>
			<path fill="#3B2E7A" d="M830.6,370.89c0,0-1.06,48.99-3.05,78.79l7.2,9.94l4.96-12.45c0,0,2.08-35.94-4.69-75.94L830.6,370.89z"
				/>
			<path fill="#3B2E7A" d="M828.94,366.59l0.17,0.67c0.32,1.27,0.82,2.5,1.49,3.63l0,0l4.42,0.34c0,0,3-1.57,3.4-3.27
				c0.4-1.69-4.93-4.46-4.93-4.46l-0.65,0.25c-1.49,0.59-2.81,1.54-3.85,2.77L828.94,366.59z"/>
			<path fill="#FFFFFF" d="M850.49,350.96c0,0,2.83,1.76,5.04,5.11c-2.27,5.2-7.41,14.44-13.07,18.65
				c-2.65-7.09-8.97-11.21-8.97-11.21S848.91,360.75,850.49,350.96z"/>
			<path fill="#FFFFFF" d="M833.49,363.5c0,0-5.51,2.19-8.79,8.36c0,0-1.06-8.34,1.19-15.51c0,0,3.63-4.63,4.87-4.73
				C830.25,357.52,833.49,363.5,833.49,363.5z"/>
			<g>
				<g>
					<path fill="#F2A181" d="M834.18,472.87c-5.48,0.83-7.5,2.85-10.59,5.9c-0.25,0.25-0.51,0.56-0.46,0.92
						c0.07,0.44,0.58,0.63,1.02,0.7c2.54,0.4,2.96-1.22,5.33-2.21c1.61-0.67,3.2-1.37,4.79-2.06"/>
				</g>
				<g>
					<g>
						<path fill="#E9E6FF" d="M815.59,432.97l19.4,62.18c0.52,1.67-0.43,3.11-2.06,3.12l-40.48,3.56c-1.46,0.01-2.93-1.13-3.39-2.62
							l-20.87-61.24c-0.52-1.67,1.89-4.05,3.52-4.07l40.48-3.55C813.65,430.34,815.13,431.48,815.59,432.97z"/>
					</g>
					<g>
						<path fill="#E0D9FF" d="M814.26,434.59l19.13,61.23c0.52,1.67-0.43,3.11-2.06,3.12l-40.48,3.56
							c-1.45,0.01-2.93-1.13-3.39-2.62l-19.14-61.22c-0.53-1.67,0.42-3.11,2.05-3.13l40.49-3.55
							C812.32,431.96,813.8,433.11,814.26,434.59z"/>
					</g>
					<g>
						<polygon fill="#FFFFFF" points="781.92,432.6 783.36,437.97 802.29,436.3 800.74,430.95 						"/>
						<g>
							<g>
								<path fill="#FFFFFF" d="M785.51,427.62c0.39,1.25,1.9,6.07,1.9,6.07l9.04-0.84l-1.89-6.07c-0.82-2.62-3.5-4.56-6-4.33
									C786.05,422.69,784.69,425,785.51,427.62z M787.51,427.49c-0.46-1.47,0.3-2.76,1.7-2.89c1.4-0.14,2.9,0.95,3.37,2.42
									c0.46,1.47-0.31,2.76-1.71,2.89C789.48,430.05,787.97,428.96,787.51,427.49z"/>
							</g>
						</g>
					</g>
				</g>
				<g>
					<path fill="#FFBE9D" d="M849.61,468.52c-4.25,0.88-15.57,4.26-16.75,4.83c-1.43,0.67-6.11,4.22-7.22,5.34
						c-4.26,4.27-2.08,6.26-3.76,12.06c-0.09,0.3-0.1,0.6-0.1,0.92c0,0.6,0.81,1.12,1.64,0.56c0.44,0.75,1.76,0.28,2.39-0.53
						c-0.01,0.57,0.8,0.94,2.11,0.22c0.7-0.39,0.57-0.35,2.2-1.81c1.16-1.04,2.51-1.86,4.6-2.81c1.41-0.63,3.2-1.2,4.5-2.05
						c1.72-1.13,4.79-1.4,6.3-6.31c0.33-1.08,1.4-1.75,2.36-2.35c2.31-1.45,4.62-2.9,6.92-4.34"/>
				</g>
				<path fill="#7A74D1" d="M875.71,388.86c1.8,6.42,9.29,50.92,9.29,50.92l-42.2,30.56l3.51,9.23c0,0,50.49-16.95,54.47-28.54
					c3.98-11.58,3.79-63.94-10.23-82.3c-4.46-5.84-13.41-8.79-13.41-8.79"/>
				<g>
					<path fill="#F2A181" d="M832.43,484.55c0,0-0.45,0.35-1.12,0.88c-0.34,0.26-0.73,0.57-1.14,0.91c-0.2,0.18-0.39,0.36-0.6,0.55
						c-0.18,0.21-0.37,0.43-0.55,0.64c-0.74,0.87-1.42,1.77-1.98,2.43c-0.57,0.65-0.96,1.06-0.96,1.06s0.32-0.47,0.83-1.16
						c0.25-0.35,0.54-0.76,0.86-1.18c0.33-0.42,0.66-0.9,1.05-1.31c0.19-0.21,0.39-0.43,0.57-0.64c0.21-0.19,0.43-0.38,0.64-0.55
						c0.43-0.32,0.83-0.62,1.19-0.86C831.95,484.86,832.43,484.55,832.43,484.55z"/>
				</g>
				<g>
					<path fill="#F2A181" d="M830.11,481.75c0,0-0.16,0.09-0.39,0.3c-0.23,0.21-0.54,0.54-0.88,0.96c-0.35,0.41-0.73,0.91-1.11,1.46
						c-0.19,0.28-0.39,0.56-0.58,0.86c-0.2,0.3-0.37,0.58-0.5,0.93c-0.29,0.66-0.6,1.31-0.93,1.91c-0.3,0.61-0.63,1.15-0.9,1.62
						c-0.55,0.93-0.95,1.54-0.95,1.54s0.32-0.65,0.81-1.61c0.24-0.48,0.53-1.04,0.83-1.65c0.31-0.59,0.6-1.26,0.91-1.91
						c0.14-0.32,0.34-0.67,0.54-0.95c0.2-0.3,0.4-0.59,0.61-0.86c0.41-0.54,0.82-1.03,1.18-1.43c0.37-0.4,0.71-0.7,0.96-0.9
						C829.94,481.83,830.11,481.75,830.11,481.75z"/>
				</g>
				<g>
					<path fill="#F2A181" d="M827.43,479.49c0,0-0.09,0.15-0.28,0.39c-0.19,0.24-0.47,0.58-0.81,0.97c-0.34,0.4-0.76,0.85-1.14,1.37
						c-0.18,0.25-0.29,0.58-0.44,0.89c-0.14,0.31-0.29,0.63-0.43,0.95c-0.25,0.65-0.51,1.29-0.74,1.9c-0.21,0.62-0.4,1.2-0.56,1.69
						c-0.27,1.01-0.49,1.68-0.49,1.68s0.12-0.69,0.33-1.72c0.13-0.51,0.3-1.1,0.5-1.73c0.22-0.62,0.46-1.28,0.74-1.93
						c0.32-0.63,0.56-1.26,0.95-1.84c0.41-0.53,0.84-0.96,1.21-1.34c0.37-0.37,0.67-0.69,0.87-0.92
						C827.33,479.63,827.43,479.49,827.43,479.49z"/>
				</g>
			</g>
			<g>
				<path fill="#3B2E7A" d="M859.67,326.19c-1.66-0.97-2.92-1.99-4-0.4c-0.57,0.84-0.92,2-1.89,2.29c-0.97,0.29-1.98-0.59-2.21-1.57
					c-0.24-0.99,0.07-2.01,0.36-2.98c0.66-2.14,1.33-4.27,2-6.41c0.65-2.09,1.29-4.39,0.46-6.42c-0.42-1.02-1.18-1.87-2.02-2.59
					c-2.75-2.35-6.31-3.49-9.85-4.21c-3.53-0.73-7.16-1.09-10.6-2.18c-1.44-0.46-2.88-1.05-4.04-2.03
					c-1.87-1.59-2.83-4.08-2.86-6.53c-0.03-2.45,0.81-4.85,2.07-6.95c0.26,0.84,0.62,1.65,1.06,2.41c0.43-1.12,1.09-2.16,1.93-3.03
					c1.03,5.74,25.21,3.82,30.86,6.35c3.92,1.75,7.15,2.9,7.04,9.25c0.11,0.41,0.45,0.72,0.77,1.01c3.47,3.19,4.97,7.07,5.4,12.82
					c0.53,7.04-3.57,14.67-7.59,20.48c-1.01,1.46-1.58,2.5-2.98,3.57c-1.41,1.08-3.87,1.6-5.63,1.27c-1.74-0.33-5.18-0.18-5.21-1.96
					c-0.02-1.27,2.69-3.54,3.45-4.56"/>
			</g>
			<g>
				<path fill="#FFBE9D" d="M853.34,332.84c0,0-0.28,1.18,0.45,2.11c0.65,0.81,1.96,0.69,2.86,0.41c2.57-0.83,4.34-3.33,4.82-5.92
					c0.57-3.04-1.06-6.09-3.85-5.3c-1.63,0.47-2.65,2.32-2.63,4.01"/>
			</g>
			<g>
				<path fill="#F2A181" d="M831.05,342.23l7.76,1.43c0,0-2.59,2.9-7.86,2.9"/>
			</g>
		</g>
	</g>
	<g opacity="0.3">
		<g>
			<g>
				<polyline fill="#3939D3" points="222.1,209.25 232.5,214.48 227.3,201.73 				"/>
			</g>
			<path fill="#3939D3" d="M189.87,192.94c0,11.45,9.83,20.73,21.96,20.73c12.13,0,21.96-9.28,21.96-20.73
				c0-11.44-9.83-20.72-21.96-20.72C199.7,172.22,189.87,181.5,189.87,192.94z"/>
		</g>
		<path fill="#FEFEFE" d="M206.46,186.14v14.82c0,1.19,1.29,1.94,2.33,1.34l12.84-7.41c1.03-0.6,1.03-2.09,0-2.69l-12.84-7.41
			C207.75,184.19,206.46,184.94,206.46,186.14z"/>
	</g>
	<g opacity="0.3">
		<g>
			<g>
				<polyline fill="#3939D3" points="940.91,366.84 930.53,372.08 935.71,359.33 				"/>
			</g>
			<ellipse fill="#3939D3" cx="951.19" cy="350.55" rx="21.96" ry="20.73"/>
		</g>
		<g>
			<g>
				<g>
					<path fill="#FEFEFE" d="M947.27,360.47c4.78,0.07,9.63,0.13,14.03-0.15c1.39-0.09,2.59-2.18,0.9-2.84
						c0.71-0.34,1.43-0.67,1.74-1.43c0.3-0.71-0.06-1.68-0.85-1.87c1.67,0.39,2.32-2.1,1.03-2.9c0.68-0.55,1.25-1.28,1.4-2.12
						c0.15-0.84-0.22-1.79-1.01-2.19c-0.51-0.27-1.13-0.28-1.73-0.28c-1.99-0.01-3.98-0.03-5.97-0.04c0.54-2.94,0.7-6.15-0.88-8.73
						c-0.48-0.78-1.76-1.71-2.78-1.11c-0.95,0.56-0.69,1.96-0.64,2.83c0.2,3.66-2.01,7.33-5.43,9.06
						C947.09,348.71,947.31,356.5,947.27,360.47z"/>
				</g>
			</g>
			<rect x="938.29" y="348.71" fill="#FEFEFE" width="7.24" height="11.75"/>
		</g>
	</g>
	<g opacity="0.3">
		<g>
			<g>
				<polyline fill="#3939D3" points="608.52,186.97 616.1,178.78 605.71,180.81 				"/>
			</g>
			<path fill="#3939D3" d="M580.43,188.88c0,8.3,7.13,15.03,15.93,15.03c8.79,0,15.93-6.73,15.93-15.03
				c0-8.3-7.13-15.03-15.93-15.03C587.57,173.85,580.43,180.57,580.43,188.88z"/>
		</g>
		<g>
			<g>
				<g>
					<path fill="#FEFEFE" d="M593.31,196.07c3.14,0.05,6.31,0.1,9.19-0.11c0.92-0.06,1.7-1.58,0.6-2.06
						c0.46-0.25,0.94-0.49,1.14-1.04c0.2-0.52-0.04-1.22-0.55-1.35c1.09,0.28,1.52-1.52,0.67-2.1c0.45-0.4,0.82-0.93,0.92-1.53
						c0.09-0.61-0.15-1.3-0.67-1.59c-0.34-0.19-0.75-0.2-1.13-0.2c-1.31-0.01-2.61-0.02-3.91-0.03c0.35-2.13,0.46-4.46-0.58-6.33
						c-0.32-0.56-1.15-1.24-1.82-0.81c-0.63,0.41-0.45,1.42-0.42,2.06c0.13,2.65-1.32,5.32-3.56,6.57
						C593.19,187.54,593.34,193.19,593.31,196.07z"/>
				</g>
			</g>
			<rect x="587.43" y="187.54" fill="#FEFEFE" width="4.74" height="8.52"/>
		</g>
	</g>
	<g opacity="0.3">
		<path fill="#3939D3" d="M682.67,77.11c3.21-4.02,5.14-9.11,5.14-14.65c0-12.98-10.52-23.5-23.5-23.5
			c-12.98,0-23.5,10.52-23.5,23.5c0,12.98,10.52,23.5,23.5,23.5c4.82,0,9.29-1.45,13.02-3.94l9.1,4.85L682.67,77.11z"/>
		<path fill="#FFFFFF" d="M654.4,56.05c2.27-2.22,5.9-2.18,8.12,0.08l1.46,1.49l1.5-1.48c2.26-2.23,5.89-2.19,8.12,0.06
			c2.22,2.26,2.19,5.89-0.07,8.11l-5.58,5.5c-0.01,0.01-0.02,0.03-0.03,0.04c-0.89,0.87-1.99,1.39-3.14,1.57
			c-1.77,0.27-3.64-0.29-4.98-1.66l-5.49-5.61C652.1,61.9,652.14,58.26,654.4,56.05z"/>
	</g>
</g>
</svg>
