<?xml version="1.0" encoding="utf-8"?>
<!-- Generator: Adobe Illustrator 24.3.0, SVG Export Plug-In . SVG Version: 6.00 Build 0)  -->
<svg version="1.1" id="Layer_1" xmlns="http://www.w3.org/2000/svg" xmlns:xlink="http://www.w3.org/1999/xlink" x="0px" y="0px"
	 viewBox="0 0 1044.41 794.91" style="enable-background:new 0 0 1044.41 794.91;" xml:space="preserve">
<style type="text/css">
	.st0{fill:#ECECEC;}
	.st1{fill:#E1E1E1;}
	.st2{fill:#F5F5F5;}
	.st3{fill:#007CFF;}
	.st4{opacity:0.1;fill:#FFFFFF;enable-background:new    ;}
	.st5{opacity:0.2;enable-background:new    ;}
	.st6{opacity:0.7;fill:#FFFFFF;enable-background:new    ;}
	.st7{fill:#F9A400;}
	.st8{opacity:0.2;fill:#F9A400;enable-background:new    ;}
	.st9{fill:#FCB373;}
	.st10{fill:#1A2E35;}
	.st11{opacity:0.6;fill:#FFFFFF;enable-background:new    ;}
	.st12{fill:#EC873E;}
	.st13{fill:none;stroke:#1A2E35;stroke-width:0.5572;stroke-linecap:round;stroke-linejoin:round;stroke-miterlimit:10;}
	.st14{opacity:0.4;enable-background:new    ;}
	.st15{opacity:0.2;fill:#FFFFFF;enable-background:new    ;}
	.st16{fill:#007CFF;enable-background:new    ;}
	.st17{opacity:0.3;fill:#FFFFFF;enable-background:new    ;}
	.st18{fill:#FFFFFF;}
	.st19{opacity:0.5;fill:#FFFFFF;enable-background:new    ;}
</style>
<g>
	<rect x="62.74" y="652.34" class="st0" width="918.92" height="0.46"/>
	<rect x="828.72" y="681.92" class="st0" width="60.87" height="0.46"/>
	<rect x="655.5" y="686.9" class="st0" width="15.98" height="0.46"/>
	<rect x="791.6" y="664.85" class="st0" width="35.27" height="0.46"/>
	<rect x="159.15" y="667.94" class="st0" width="79.38" height="0.46"/>
	<rect x="254.9" y="667.94" class="st0" width="11.64" height="0.46"/>
	<rect x="304.37" y="675.7" class="st0" width="172.16" height="0.46"/>
	<path class="st0" d="M498.34,570.37H143.45c-5.78,0-10.49-4.71-10.49-10.49V61.03c0-5.78,4.71-10.49,10.49-10.49h354.88
		c5.78,0,10.49,4.71,10.49,10.49v498.85C508.82,565.66,504.12,570.37,498.34,570.37z M143.45,51c-5.53,0-10.03,4.5-10.03,10.03
		v498.85c0,5.53,4.5,10.03,10.03,10.03h354.88c5.53,0,10.03-4.5,10.03-10.03V61.03c0-5.53-4.5-10.03-10.03-10.03H143.45z"/>
	<path class="st0" d="M895.85,570.37H540.97c-5.78,0-10.49-4.71-10.49-10.49V61.03c0-5.78,4.71-10.49,10.49-10.49h354.88
		c5.78,0,10.49,4.71,10.49,10.49v498.85C906.35,565.66,901.64,570.37,895.85,570.37z M540.97,51c-5.53,0-10.03,4.5-10.03,10.03
		v498.85c0,5.53,4.5,10.03,10.03,10.03h354.88c5.53,0,10.03-4.5,10.03-10.03V61.03c0-5.53-4.5-10.03-10.03-10.03H540.97z"/>
</g>
<g>
	<g>
		<path class="st1" d="M877.24,93.58v-7.89l-4.06-0.38c-0.55-2.65-1.6-5.11-3.03-7.29l2.61-3.15l-5.58-5.58l-3.15,2.61
			c-2.18-1.43-4.64-2.48-7.29-3.03l-0.38-4.06h-7.89l-0.38,4.06c-2.65,0.55-5.1,1.6-7.29,3.03l-3.15-2.61l-5.58,5.58l2.61,3.15
			c-1.43,2.18-2.48,4.64-3.03,7.29l-4.06,0.38l0,7.89l4.06,0.38c0.55,2.65,1.6,5.11,3.03,7.29l-2.61,3.15l5.58,5.58l3.15-2.61
			c2.18,1.43,4.64,2.48,7.29,3.03l0.38,4.06h7.89l0.38-4.06c2.65-0.55,5.1-1.6,7.29-3.03l3.15,2.61l5.58-5.58l-2.61-3.15
			c1.43-2.18,2.48-4.64,3.03-7.29L877.24,93.58z M852.41,100.32c-5.9,0-10.68-4.78-10.68-10.68c0-5.9,4.78-10.68,10.68-10.68
			c5.9,0,10.68,4.78,10.68,10.68C863.09,95.54,858.31,100.32,852.41,100.32z"/>
		<path class="st1" d="M909.23,115.86l0-6.18l-3.18-0.3c-0.43-2.07-1.25-4-2.38-5.71l2.05-2.47l-4.37-4.37l-2.47,2.05
			c-1.71-1.12-3.64-1.94-5.71-2.37l-0.3-3.18h-6.18l-0.3,3.18c-2.07,0.43-4,1.25-5.71,2.37l-2.47-2.05l-4.37,4.37l2.05,2.47
			c-1.12,1.71-1.95,3.64-2.38,5.71l-3.18,0.3l0,6.18l3.18,0.3c0.43,2.07,1.25,4,2.38,5.71l-2.05,2.47l4.37,4.37l2.47-2.05
			c1.71,1.12,3.64,1.94,5.71,2.37l0.3,3.18h6.18l0.3-3.18c2.07-0.43,4-1.25,5.71-2.37l2.47,2.05l4.37-4.37l-2.05-2.47
			c1.12-1.71,1.95-3.64,2.38-5.71L909.23,115.86z M889.77,121.14c-4.62,0-8.37-3.75-8.37-8.37c0-4.62,3.75-8.37,8.37-8.37
			c4.62,0,8.37,3.75,8.37,8.37C898.14,117.39,894.39,121.14,889.77,121.14z"/>
		<path class="st1" d="M877.24,133.42v-5.19l-2.67-0.25c-0.36-1.74-1.05-3.36-1.99-4.8l1.72-2.08l-3.67-3.67l-2.08,1.72
			c-1.44-0.94-3.06-1.63-4.8-1.99l-0.25-2.67h-5.19l-0.25,2.67c-1.74,0.36-3.36,1.05-4.8,1.99l-2.08-1.72l-3.67,3.67l1.72,2.08
			c-0.94,1.44-1.63,3.06-1.99,4.8l-2.67,0.25l0,5.19l2.67,0.25c0.36,1.74,1.05,3.36,1.99,4.8l-1.72,2.08l3.67,3.67l2.08-1.72
			c1.44,0.94,3.06,1.63,4.8,1.99l0.25,2.67h5.19l0.25-2.67c1.74-0.36,3.36-1.05,4.8-1.99l2.08,1.72l3.67-3.67l-1.72-2.08
			c0.94-1.44,1.63-3.06,1.99-4.8L877.24,133.42z M860.9,137.85c-3.88,0-7.03-3.15-7.03-7.03c0-3.88,3.15-7.03,7.03-7.03
			c3.88,0,7.03,3.15,7.03,7.03C867.93,134.7,864.78,137.85,860.9,137.85z"/>
	</g>
</g>
<g>
	<polygon class="st1" points="155.49,650.64 196.57,377.73 196.57,650.64 207.59,650.64 207.59,376.02 248.71,650.64 260.52,650.64 
		209.06,306.89 207.59,307.11 207.59,295.93 196.57,295.93 196.57,307.07 195.06,306.89 143.45,650.64 	"/>
	<g>
		<polygon class="st0" points="258.59,345.02 144.98,345.02 154.17,250.08 249.39,250.08 		"/>
	</g>
</g>
<ellipse id="_x3C_Path_x3E__359_" class="st2" cx="522.2" cy="714.53" rx="356.34" ry="20.81"/>
<g>
	<path class="st3" d="M878.74,119.75v369.86c0,8.86-7.76,16.8-16.6,16.8h-532.2c-8.84,0-15.42-7.94-15.42-16.8V119.75
		c0-8.84,6.58-15.82,15.42-15.82h532.2C870.99,103.93,878.74,110.91,878.74,119.75z"/>
	<path class="st4" d="M878.74,165.84v323.77c0,8.86-7.76,16.8-16.6,16.8h-532.2c-8.84,0-15.42-7.94-15.42-16.8V363.6
		c46.83-89.97,158.45-104.65,289.15-51.99C788.69,386.14,867.58,284.97,878.74,165.84z"/>
</g>
<g>
	<path class="st5" d="M733.41,464.21H463.46c-5.11,0-9.25-4.14-9.25-9.25l0,0c0-5.11,4.14-9.26,9.25-9.26h269.95
		c5.11,0,9.25,4.14,9.25,9.26l0,0C742.66,460.07,738.52,464.21,733.41,464.21z"/>
	<path class="st3" d="M463.46,462.31c-4.09,0-7.42-3.26-7.42-7.35c0-4.09,3.33-7.35,7.42-7.35h159.61c4.09,0,7.42,3.26,7.42,7.35
		c0,4.09-3.33,7.35-7.42,7.35H463.46z"/>
	<path class="st6" d="M463.46,462.31c-4.09,0-7.42-3.26-7.42-7.35c0-4.09,3.33-7.35,7.42-7.35h159.61c4.09,0,7.42,3.26,7.42,7.35
		c0,4.09-3.33,7.35-7.42,7.35H463.46z"/>
</g>
<g id="_x3C_Group_x3E__21_">
	<g>
		<path class="st7" d="M356.67,477.49c17.13,13.76,11.15,79.47,14.37,89.57s17,18.41,17,18.41l-19.23,22.51
			c0,0-16.08-2.79-28.29-28.98C328.31,552.82,356.67,477.49,356.67,477.49z"/>
		<path class="st8" d="M356.67,477.49c17.13,13.76,11.15,79.47,14.37,89.57s17,18.41,17,18.41l-19.23,22.51
			c0,0-16.08-2.79-28.29-28.98C328.31,552.82,356.67,477.49,356.67,477.49z"/>
	</g>
	<g>
		<path class="st3" d="M338.48,621.75c0,0,123.08-34.35,138.54,8.85s-96.28,77.63-158.13,79.74c-61.85,2.11-87.08-41.26-68.84-82.47
			L338.48,621.75z"/>
		<path class="st5" d="M338.48,621.75c0,0,123.08-34.35,138.54,8.85s-96.28,77.63-158.13,79.74c-61.85,2.11-87.08-41.26-68.84-82.47
			L338.48,621.75z"/>
	</g>
	<path class="st3" d="M459.11,691.66c-0.14,0.09-0.32,0.08-0.45-0.02c-0.12-0.09-0.17-0.25-0.11-0.38c0.2-0.69,2.25-6.63,4.32-7.26
		c0.45-0.11,0.92,0.03,1.23,0.36c0.59,0.48,0.87,1.25,0.73,1.99c-0.33,1.11-1.01,2.09-1.94,2.79
		C461.72,690.11,460.45,690.95,459.11,691.66z M459.64,690.52c1.93-0.85,3.49-2.35,4.41-4.25c0.11-0.52-0.1-1.05-0.52-1.36
		c-0.12-0.14-0.31-0.2-0.49-0.14c-0.18,0.06-0.34,0.15-0.48,0.28C461.26,686.68,460.27,688.53,459.64,690.52z"/>
	<path class="st3" d="M459,691.74c-0.14,0.05-0.29,0.01-0.38-0.11c-0.19-0.17-3.05-3.77-2.58-6.2c0.11-0.61,0.47-1.15,0.99-1.49
		c0.45-0.43,1.13-0.49,1.65-0.15c1.49,1.05,1.31,5.88,0.58,7.7l-0.05,0.18C459.14,691.7,459.07,691.73,459,691.74z M457.37,684.67
		c-0.26,0.22-0.43,0.53-0.5,0.87c-0.3,1.54,1.14,3.85,1.91,4.95c0.47-2.06,0.32-5.44-0.56-6.05c-0.1-0.05-0.27-0.19-0.72,0.12
		L457.37,684.67L457.37,684.67z"/>
	<path class="st3" d="M333.65,713.52c0.04-0.16,0.17-0.29,0.33-0.31c0.15-0.03,0.29,0.05,0.35,0.19c0.35,0.63,3.17,6.25,2.16,8.17
		c-0.23,0.4-0.66,0.63-1.12,0.63c-0.76,0.08-1.5-0.25-1.94-0.87c-0.56-1.02-0.78-2.19-0.64-3.34
		C332.92,716.48,333.21,714.98,333.65,713.52z M334.09,714.7c-0.74,1.97-0.76,4.14-0.05,6.12c0.29,0.44,0.82,0.66,1.34,0.58
		c0.18,0.02,0.36-0.08,0.44-0.25c0.08-0.17,0.13-0.35,0.14-0.53C335.7,718.55,335.06,716.55,334.09,714.7z"/>
	<polygon class="st9" points="363.46,671.95 341.68,687.92 331.22,695.58 338.06,707.5 348.67,701.69 374.6,687.52 	"/>
	<path class="st10" d="M341.43,707.15l-6.57-14.5c-0.37-0.81-1.33-1.15-2.13-0.76l-7.08,3.47c0,0-9.86,3.99-11.1,7.19
		c-3.62,9.37,10.09,41.82,14.37,41.82c1.57,0,2.5-2.43,2.71-3.97c0.69-4.91,0.81-17.27,1.44-21.36c0.74-4.78,5.57-8.47,7.8-9.93
		C341.52,708.68,341.75,707.85,341.43,707.15z"/>
	<path class="st3" d="M333.67,713.39c0.06-0.13,0.2-0.21,0.35-0.2c0.25-0.02,4.83,0.46,6.24,2.5c0.36,0.51,0.49,1.14,0.38,1.75
		c-0.01,0.62-0.44,1.15-1.04,1.29c-1.8,0.33-5.12-3.17-5.91-4.98l-0.09-0.17C333.59,713.51,333.62,713.45,333.67,713.39z
		 M339.85,717.18c0.02-0.34-0.08-0.68-0.27-0.96c-0.89-1.29-3.54-1.88-4.88-2.1c1.14,1.78,3.67,4.04,4.71,3.84
		c0.1-0.03,0.33-0.06,0.42-0.6L339.85,717.18L339.85,717.18z"/>
	<polygon class="st5" points="363.46,671.95 341.68,687.92 348.67,701.69 374.6,687.52 	"/>
	<g>
		<polygon class="st3" points="353.65,702.59 360.81,701 348.9,678.29 342.27,685.06 		"/>
		<polygon class="st11" points="353.65,702.59 360.81,701 348.9,678.29 342.27,685.06 		"/>
	</g>
	<polygon class="st9" points="408.54,699.45 435.19,703.83 447.98,705.94 451.72,692.72 440.14,689.2 411.87,680.6 	"/>
	<path class="st10" d="M449.11,690.56l-5.76,14.84c-0.32,0.83,0.11,1.76,0.94,2.05l7.44,2.63c0,0,9.75,4.26,12.91,2.9
		c9.22-3.97,22.81-36.47,19.82-39.53c-1.09-1.12-3.48-0.09-4.74,0.84c-4,2.94-12.91,11.5-16.27,13.92
		c-3.93,2.82-9.95,1.94-12.56,1.37C450.14,689.42,449.39,689.84,449.11,690.56z"/>
	<polygon class="st5" points="408.54,699.45 435.19,703.83 440.14,689.2 411.87,680.6 	"/>
	<path class="st3" d="M435.55,686.44c0,0-110.78-65.34-148.28-63.61s-40.77,39.05-25.3,59.74c15.47,20.69,44.03,25.73,44.03,25.73
		s-19.45-27.48-16.64-35.21c2.81-7.73,13.53,18.27,13.53,18.27s68.64,8.99,128.43,14.06L435.55,686.44z"/>
	<g>
		<polygon class="st3" points="437.3,684.76 431.15,680.63 423.25,704.9 432.74,704.9 		"/>
		<polygon class="st11" points="437.3,684.76 431.15,680.63 423.25,704.9 432.74,704.9 		"/>
	</g>
	<path class="st7" d="M352.91,633.22c-20.04-38.59-13.66-97.31,3.76-155.74c-12.13-10.13-60.53-16.97-97.48-6.23
		c0,0-23.42,86.77-20.65,181.54L352.91,633.22z"/>
	<path class="st9" d="M310.36,486.97c-16.12,0-26.61-16.91-26.61-16.91c21.14-7.41,21.21-29.72,21.21-29.72l8.14,7.96l11.6,11.36
		c-9.65,6.84-5.09,12.75-2.02,15.38c1.1,0.97,2.02,1.51,2.02,1.51S326.47,486.97,310.36,486.97z"/>
	<path class="st5" d="M322.67,475.04c-19.78,2.22-18.43-27.38-18.43-27.38c3.14-0.04,6.1,0.18,8.86,0.64l11.6,11.36
		C315.04,466.5,319.6,472.41,322.67,475.04z"/>
	<g>
		<path class="st10" d="M338.12,418.13c-7.49,3.1-6.06,11.28,6.37,26.17c7.65-6.59,11.79-21.58,7.78-26.4
			C348.25,413.1,344.64,415.46,338.12,418.13z"/>
		<path class="st9" d="M349.17,451.28c0,0,0,0.02-0.02,0.06c-0.72,2.1-1.53,4.06-2.39,5.84c-7.39,15.05-28.63,17.97-38.04,3.09
			c-0.04-0.06-0.07-0.09-0.11-0.15c-6.21-10.02-3.88-19.37-1.29-35.58c0.51-3.44,1.82-6.69,3.82-9.54
			c7.09-10.13,21.04-12.59,31.17-5.5C354.65,418.07,353.91,437.44,349.17,451.28z"/>
		<path class="st10" d="M330.22,434.28c-0.29,1.3,0.17,2.51,1.02,2.7c0.85,0.19,1.76-0.7,2.05-2c0.29-1.3-0.15-2.5-0.99-2.71
			S330.59,433.02,330.22,434.28z"/>
		<path class="st10" d="M345,437.62c-0.29,1.3,0.17,2.51,1.02,2.7c0.85,0.19,1.78-0.69,2.08-2.01c0.3-1.32-0.17-2.51-1.02-2.7
			C346.23,435.42,345.29,436.32,345,437.62z"/>
		<path class="st12" d="M340.04,437.15c0.66,4.33,1.91,8.54,3.72,12.52c-2.83,1.62-6.48-0.24-6.48-0.24L340.04,437.15z"/>
		<path class="st10" d="M327.22,428.71c-0.17-0.02-0.34-0.09-0.46-0.21c-0.28-0.33-0.25-0.82,0.08-1.11
			c1.89-1.68,4.47-2.34,6.93-1.76c0.4,0.1,0.65,0.52,0.54,0.92c0,0.02-0.01,0.04-0.02,0.05c-0.14,0.4-0.56,0.63-0.97,0.53l0,0
			c-1.94-0.43-3.98,0.11-5.46,1.45C327.68,428.71,327.45,428.76,327.22,428.71z"/>
		<path class="st10" d="M352.85,434.14c-0.29-0.07-0.53-0.3-0.6-0.59c-0.4-1.95-1.71-3.6-3.53-4.42c-0.41-0.15-0.61-0.6-0.47-1.01
			c0.15-0.4,0.59-0.61,0.99-0.48c2.32,1.01,4,3.08,4.52,5.55c0.1,0.42-0.15,0.83-0.57,0.94c0,0-0.01,0-0.01,0
			C353.08,434.16,352.97,434.16,352.85,434.14z"/>
		<path class="st10" d="M316.87,411.8c6.9,4.24,4.18,12.09-10.46,24.8c-6.51-7.72-8.22-23.2-3.48-27.29
			C307.68,405.24,310.84,408.12,316.87,411.8z"/>
		<path class="st9" d="M296.84,435.62c0.24,4.12,2.11,7.98,5.2,10.73c4.12,3.59,8.52,0.47,9.35-4.64
			c0.74-4.61-0.52-12.04-5.59-13.66C300.73,426.44,296.57,430.56,296.84,435.62z"/>
		<path class="st13" d="M324.68,449.61c0,0,1.7,5.84,9.52,7.19"/>
		<path class="st13" d="M338.76,437.26c0,3.08-2.49,5.57-5.57,5.57c-3.08,0-5.57-2.49-5.57-5.57c0-3.08,2.49-5.57,5.57-5.57
			C336.27,431.69,338.76,434.18,338.76,437.26z"/>
		<path class="st13" d="M353.78,440.34c0,3.08-2.49,5.57-5.57,5.57c-3.08,0-5.57-2.49-5.57-5.57c0-3.08,2.49-5.57,5.57-5.57
			C351.29,434.77,353.78,437.26,353.78,440.34z"/>
		<path class="st13" d="M338.76,438.76c0,0,2.59-1.26,3.88,1.03"/>
		<path class="st13" d="M327.74,436.12c0,0-15.97-6.72-18.96-7.39"/>
		<path class="st10" d="M302.79,409.54c0,0-1.66-12.98,11.59-15.12c13.25-2.14,30.59,1.17,35.95-1.13c0,0-0.72,4.11-3.8,5.64
			c0,0,10.1,3.73,18.07,0.51c0,0-3.46,9.57-7.93,13.25h3.8c0,0-7.54,7.2-16.71,7.35c-9.17,0.15-17.81-12.48-26.89-8.23
			C307.79,416.05,302.79,409.54,302.79,409.54z"/>
		<path class="st14" d="M349.17,451.28c0,0,0,0.02-0.02,0.06c-0.72,2.1-1.53,4.06-2.39,5.84c-7.39,15.05-28.63,17.97-38.04,3.09
			c-0.04-0.06-0.07-0.09-0.11-0.15c-4.85-8.62-0.97-18.03-0.97-18.03l2.83-9.17l2.06-2.04c0,0,0.48,9.32,1.93,11.95
			c1.45,2.63,9.72,3.4,11.41,3.86c1.67,0.46,5.7,5.24,7.68,6.52c1.97,1.29,9.26,0.22,10.13,1.29
			C344.54,455.56,349.17,451.28,349.17,451.28z"/>
	</g>
	<path class="st5" d="M266.54,599.22l38.11,42.26c0,0,42.14-0.94,93.3,24.07c0,0,54.9-22.68,59.94-41.52s-115.25-5.51-115.25-5.51
		L266.54,599.22z"/>
	<path class="st9" d="M277.31,586.82l61.11,19.99c0,0,21.82-4.82,25.73-4.82s18.98,12.26,10.45,16.54s-31.82,4.82-34.34,3.45
		c-2.53-1.38-70.3-17.24-70.3-17.24L277.31,586.82z"/>
	<g>
		<path class="st7" d="M259.19,471.26c13.83-2.68-10.16,81.56-4.29,93.97s28.84,20.25,28.84,20.25l-10.57,23.33
			c0,0-31.24-5.9-48.24-27.49C207.93,559.71,236.63,475.64,259.19,471.26z"/>
		<path class="st8" d="M259.19,471.26c13.83-2.68-10.16,81.56-4.29,93.97s28.84,20.25,28.84,20.25l-10.57,23.33
			c0,0-31.24-5.9-48.24-27.49C207.93,559.71,236.63,475.64,259.19,471.26z"/>
	</g>
	<g>
		<polygon class="st10" points="283.74,583.6 270.88,608.8 281.91,611.17 292.01,587.97 		"/>
		<polygon class="st15" points="283.74,583.6 270.88,608.8 281.91,611.17 292.01,587.97 		"/>
	</g>
	<g>
		<g>
			<path class="st10" d="M309.01,618.52v4.01c0,2.7,2.25,5.18,4.97,5.18h147.74c2.72,0,5.34-2.48,5.34-5.18v-4.01H309.01z"/>
			<path class="st15" d="M309.01,618.52v4.01c0,2.7,2.25,5.18,4.97,5.18h147.74c2.72,0,5.34-2.48,5.34-5.18v-4.01H309.01z"/>
			<path class="st15" d="M364.15,618.52v4.01c0,2.7,2.28,5.18,4.99,5.18h92.59c2.72,0,5.34-2.48,5.34-5.18v-4.01H364.15z"/>
		</g>
		<g>
			<path class="st10" d="M369.14,624.04h97.61c3,0,6.17-2.35,7.09-5.24l22.38-70.21c0.92-2.89-0.75-5.41-3.75-5.41h-97.61
				c-3,0-6.17,2.53-7.09,5.41l-22.39,70.13C364.47,621.6,366.14,624.04,369.14,624.04z"/>
			<path class="st15" d="M369.14,624.04h97.61c3,0,6.17-2.35,7.09-5.24l22.38-70.21c0.92-2.89-0.75-5.41-3.75-5.41h-97.61
				c-3,0-6.17,2.53-7.09,5.41l-22.39,70.13C364.47,621.6,366.14,624.04,369.14,624.04z"/>
			<path class="st15" d="M372.81,624.04h93.93c3,0,6.17-2.35,7.09-5.24l22.38-70.21c0.92-2.89-0.75-5.41-3.75-5.41h-93.93
				c-3,0-6.17,2.53-7.09,5.41l-22.39,70.13C368.14,621.6,369.82,624.04,372.81,624.04z"/>
		</g>
		<polygon class="st15" points="440.09,575.9 426.58,585.47 432.42,595.04 445.93,585.47 		"/>
	</g>
</g>
<g>
	<path class="st5" d="M515.02,277.48H376.78c-4.83,0-8.74-3.91-8.74-8.74V130.5c0-4.83,3.91-8.74,8.74-8.74h138.24
		c4.83,0,8.74,3.91,8.74,8.74v138.24C523.77,273.56,519.85,277.48,515.02,277.48z"/>
	<path class="st16" d="M534.87,235.15H419.04c-4.05,0-7.33-3.28-7.33-7.33V111.98c0-4.05,3.28-7.33,7.33-7.33h115.83
		c4.05,0,7.33,3.28,7.33,7.33v115.83C542.2,231.87,538.92,235.15,534.87,235.15z"/>
	<g>
		<path class="st17" d="M534.87,235.15H419.04c-4.05,0-7.33-3.28-7.33-7.33V111.98c0-4.05,3.28-7.33,7.33-7.33h115.83
			c4.05,0,7.33,3.28,7.33,7.33v115.83C542.2,231.87,538.92,235.15,534.87,235.15z"/>
		<g>
			<g>
				<path class="st18" d="M487.01,154.84l0-7.89l-4.06-0.38c-0.55-2.65-1.6-5.11-3.03-7.29l2.61-3.15l-5.58-5.58l-3.15,2.61
					c-2.18-1.43-4.64-2.48-7.29-3.03l-0.38-4.06h-7.89l-0.38,4.06c-2.65,0.55-5.1,1.6-7.29,3.03l-3.15-2.61l-5.58,5.58l2.61,3.15
					c-1.43,2.18-2.48,4.64-3.03,7.29l-4.06,0.38l0,7.89l4.06,0.38c0.55,2.65,1.6,5.11,3.03,7.29l-2.61,3.15l5.58,5.58l3.15-2.61
					c2.18,1.43,4.64,2.48,7.29,3.03l0.38,4.06h7.89l0.38-4.06c2.65-0.55,5.1-1.6,7.29-3.03l3.15,2.61l5.58-5.58l-2.61-3.15
					c1.43-2.18,2.48-4.64,3.03-7.29L487.01,154.84z M462.17,161.58c-5.9,0-10.68-4.78-10.68-10.68c0-5.9,4.78-10.68,10.68-10.68
					c5.9,0,10.68,4.78,10.68,10.68C472.86,156.8,468.07,161.58,462.17,161.58z"/>
				<path class="st18" d="M518.99,177.12l0-6.18l-3.18-0.3c-0.43-2.07-1.25-4-2.37-5.71l2.05-2.47l-4.37-4.37l-2.47,2.05
					c-1.71-1.12-3.64-1.94-5.71-2.37l-0.3-3.18h-6.18l-0.3,3.18c-2.07,0.43-4,1.25-5.71,2.37l-2.47-2.05l-4.37,4.37l2.05,2.47
					c-1.12,1.71-1.94,3.64-2.37,5.71l-3.18,0.3v6.18l3.18,0.3c0.43,2.07,1.25,4,2.37,5.71l-2.05,2.47l4.37,4.37l2.47-2.05
					c1.71,1.12,3.64,1.95,5.71,2.38l0.3,3.18h6.18l0.3-3.18c2.07-0.43,4-1.25,5.71-2.38l2.47,2.05l4.37-4.37l-2.05-2.47
					c1.12-1.71,1.95-3.64,2.37-5.71L518.99,177.12z M499.53,182.4c-4.62,0-8.37-3.75-8.37-8.37c0-4.62,3.75-8.37,8.37-8.37
					c4.62,0,8.37,3.75,8.37,8.37C507.9,178.65,504.16,182.4,499.53,182.4z"/>
				<path class="st18" d="M487.01,194.68l0-5.19l-2.67-0.25c-0.36-1.74-1.05-3.36-1.99-4.8l1.72-2.08l-3.67-3.67l-2.08,1.72
					c-1.44-0.94-3.06-1.63-4.8-1.99l-0.25-2.67h-5.19l-0.25,2.67c-1.74,0.36-3.36,1.05-4.8,1.99l-2.08-1.72l-3.67,3.67l1.72,2.08
					c-0.94,1.44-1.63,3.06-1.99,4.8l-2.67,0.25v5.19l2.67,0.25c0.36,1.74,1.05,3.36,1.99,4.8l-1.72,2.08l3.67,3.67l2.08-1.72
					c1.44,0.94,3.06,1.63,4.8,1.99l0.25,2.67h5.19l0.25-2.67c1.74-0.36,3.36-1.05,4.8-1.99l2.08,1.72l3.67-3.67l-1.72-2.08
					c0.94-1.44,1.63-3.06,1.99-4.8L487.01,194.68z M470.66,199.11c-3.88,0-7.03-3.15-7.03-7.03c0-3.88,3.15-7.03,7.03-7.03
					c3.88,0,7.03,3.15,7.03,7.03C477.69,195.96,474.54,199.11,470.66,199.11z"/>
			</g>
		</g>
	</g>
	<path class="st15" d="M540.39,235.15H424.56c-4.05,0-7.33-3.28-7.33-7.33V111.98c0-4.05,3.28-7.33,7.33-7.33h115.83
		c4.05,0,7.33,3.28,7.33,7.33v115.83C547.72,231.87,544.44,235.15,540.39,235.15z"/>
</g>
<g>
	<path class="st5" d="M738.94,416.86H611.15c-4.46,0-8.08-3.62-8.08-8.08V280.99c0-4.46,3.62-8.08,8.08-8.08h127.79
		c4.46,0,8.08,3.62,8.08,8.08v127.79C747.03,413.24,743.41,416.86,738.94,416.86z"/>
	<path class="st16" d="M753.08,385.83H646c-3.74,0-6.77-3.03-6.77-6.77V271.97c0-3.74,3.03-6.77,6.77-6.77h107.08
		c3.74,0,6.77,3.03,6.77,6.77v107.08C759.85,382.8,756.82,385.83,753.08,385.83z"/>
	<g>
		<path class="st15" d="M753.08,385.83H646c-3.74,0-6.77-3.03-6.77-6.77V271.97c0-3.74,3.03-6.77,6.77-6.77h107.08
			c3.74,0,6.77,3.03,6.77,6.77v107.08C759.85,382.8,756.82,385.83,753.08,385.83z"/>
		<g>
			<path class="st18" d="M704.14,344.88c0,2.4-1.95,4.35-4.35,4.35c-2.4,0-4.35-1.95-4.35-4.35c0-2.4,1.95-4.35,4.35-4.35
				C702.19,340.53,704.14,342.48,704.14,344.88z"/>
			<path class="st18" d="M699.42,301.44c-23.88,0-43.25,19.35-43.25,43.25h34.54c0-5.51,3.9-8.53,8.71-8.53
				c0.91,0,1.77,0.26,2.6,0.5l16.19-18.8l-11.43,22.24c0.84,1.34,1.35,2.75,1.35,4.59h34.54
				C742.66,320.79,723.3,301.44,699.42,301.44z"/>
		</g>
	</g>
	<path class="st15" d="M758.18,385.83H651.1c-3.74,0-6.77-3.03-6.77-6.77V271.97c0-3.74,3.03-6.77,6.77-6.77h107.08
		c3.74,0,6.77,3.03,6.77,6.77v107.08C764.95,382.8,761.92,385.83,758.18,385.83z"/>
</g>
<g>
	<path class="st5" d="M773.2,284.15H661.07c-3.92,0-7.09-3.17-7.09-7.09V164.93c0-3.92,3.17-7.09,7.09-7.09H773.2
		c3.92,0,7.09,3.17,7.09,7.09v112.13C780.29,280.97,777.12,284.15,773.2,284.15z"/>
	<path class="st16" d="M787.75,252.55h-93.95c-3.28,0-5.94-2.66-5.94-5.94v-93.95c0-3.28,2.66-5.94,5.94-5.94h93.95
		c3.28,0,5.94,2.66,5.94,5.94v93.95C793.69,249.89,791.03,252.55,787.75,252.55z"/>
	<g>
		<path class="st4" d="M787.75,252.55h-93.95c-3.28,0-5.94-2.66-5.94-5.94v-93.95c0-3.28,2.66-5.94,5.94-5.94h93.95
			c3.28,0,5.94,2.66,5.94,5.94v93.95C793.69,249.89,791.03,252.55,787.75,252.55z"/>
		<g>
			<path class="st18" d="M770.31,173.57c0-1.92-1.56-3.48-3.48-3.48h-51.85c-1.92,0-3.48,1.56-3.48,3.48v11.42
				c0,1.92,1.56,3.48,3.48,3.48h51.85c1.92,0,3.48-1.56,3.48-3.48V173.57z M753.19,179.75h-2.98v-2.98h2.98V179.75z M761.14,181.24
				c-1.65,0-2.98-1.33-2.98-2.98c0-1.65,1.33-2.98,2.98-2.98c1.65,0,2.98,1.33,2.98,2.98C764.12,179.91,762.79,181.24,761.14,181.24
				z"/>
			<path class="st18" d="M770.31,193.78c0-1.92-1.56-3.48-3.48-3.48h-51.85c-1.92,0-3.48,1.56-3.48,3.48v11.42
				c0,1.92,1.56,3.48,3.48,3.48h51.85c1.92,0,3.48-1.56,3.48-3.48V193.78z M753.19,201.12h-2.98v-2.98h2.98V201.12z M761.14,202.61
				c-1.65,0-2.98-1.33-2.98-2.98c0-1.65,1.33-2.98,2.98-2.98c1.65,0,2.98,1.33,2.98,2.98C764.12,201.27,762.79,202.61,761.14,202.61
				z"/>
			<path class="st18" d="M770.31,214c0-1.92-1.56-3.48-3.48-3.48h-51.85c-1.92,0-3.48,1.56-3.48,3.48v11.42
				c0,1.92,1.56,3.48,3.48,3.48h51.85c1.92,0,3.48-1.56,3.48-3.48V214z M753.19,222.49h-2.98v-2.98h2.98V222.49z M761.14,223.98
				c-1.65,0-2.98-1.33-2.98-2.98s1.33-2.98,2.98-2.98c1.65,0,2.98,1.33,2.98,2.98S762.79,223.98,761.14,223.98z"/>
		</g>
	</g>
	<path class="st15" d="M792.22,252.55h-93.95c-3.28,0-5.94-2.66-5.94-5.94v-93.95c0-3.28,2.66-5.94,5.94-5.94h93.95
		c3.28,0,5.94,2.66,5.94,5.94v93.95C798.16,249.89,795.5,252.55,792.22,252.55z"/>
</g>
<g>
	<path class="st5" d="M594.96,411.39H456.72c-4.83,0-8.74-3.91-8.74-8.74V264.41c0-4.83,3.91-8.74,8.74-8.74h138.24
		c4.83,0,8.74,3.91,8.74,8.74v138.24C603.7,407.48,599.79,411.39,594.96,411.39z"/>
	<path class="st16" d="M607.67,375.13H491.84c-4.05,0-7.33-3.28-7.33-7.33V251.97c0-4.05,3.28-7.33,7.33-7.33h115.83
		c4.05,0,7.33,3.28,7.33,7.33v115.83C615,371.85,611.72,375.13,607.67,375.13z"/>
	<g>
		<path class="st19" d="M607.67,375.13H491.84c-4.05,0-7.33-3.28-7.33-7.33V251.97c0-4.05,3.28-7.33,7.33-7.33h115.83
			c4.05,0,7.33,3.28,7.33,7.33v115.83C615,371.85,611.72,375.13,607.67,375.13z"/>
		<g>
			<g>
				<path class="st18" d="M513.65,345.71L513.65,345.71c-3.98-3.98-3.98-10.44,0-14.42l23.8-23.8c2.25-2.25,5.89-2.25,8.14,0
					l6.28,6.28c2.25,2.25,2.25,5.89,0,8.14l-23.8,23.8C524.09,349.7,517.64,349.7,513.65,345.71z"/>
				<polygon class="st18" points="557.5,306.54 552.82,301.87 579.71,274.98 585.56,273.81 584.39,279.65 				"/>
				<path class="st18" d="M554.87,312.78l-8.28-8.28c-0.74-0.74-0.74-1.94,0-2.68l0,0c0.74-0.74,1.94-0.74,2.68,0l8.28,8.28
					c0.74,0.74,0.74,1.94,0,2.68l0,0C556.81,313.52,555.61,313.52,554.87,312.78z"/>
			</g>
			<path class="st18" d="M543.72,296.92l-11.34-11.37c2.12-5.68-2.15-12.66-6.81-14.51l-0.09,8.76c0,2.03-1.69,3.71-3.72,3.71
				c-2.03,0-3.71-1.61-3.71-3.64l0.01-8.67c-3.68,1.43-7.54,5.61-7.55,10.58c-0.01,5.63,4.37,10.2,9.81,10.96
				c1.89,0.27,3.68,0.04,5.48-0.77l11.43,11.46L543.72,296.92z"/>
			<path class="st18" d="M581.47,340.06l-0.02,8.68c3.68-1.43,7.54-5.61,7.54-10.57c0.01-5.63-4.13-10.44-9.57-11.2
				c-1.89-0.27-3.44-0.28-5.23,0.52l-11.88-11.91l-6.5,6.5l11.79,11.83c-3.42,6.98,1.91,12.91,6.56,14.75l-0.03-8.63
				c0-2.03,1.63-3.65,3.66-3.65C579.84,336.37,581.47,338.03,581.47,340.06z"/>
		</g>
	</g>
	<path class="st15" d="M613.19,375.13H497.35c-4.05,0-7.33-3.28-7.33-7.33V251.97c0-4.05,3.28-7.33,7.33-7.33h115.83
		c4.05,0,7.33,3.28,7.33,7.33v115.83C620.51,371.85,617.23,375.13,613.19,375.13z"/>
</g>
<g>
	<path class="st16" d="M566.71,221.03h139.62c4.88,0,8.83-3.95,8.83-8.83V72.57c0-4.88-3.95-8.83-8.83-8.83H566.71
		c-4.88,0-8.83,3.95-8.83,8.83V212.2C557.88,217.07,561.83,221.03,566.71,221.03z"/>
	<path class="st5" d="M698.76,276.44H532.13c-5.82,0-10.54-4.72-10.54-10.54V99.27c0-5.82,4.72-10.54,10.54-10.54h166.63
		c5.82,0,10.54,4.72,10.54,10.54V265.9C709.3,271.72,704.58,276.44,698.76,276.44z"/>
	<g>
		<path class="st19" d="M566.71,221.03h139.62c4.88,0,8.83-3.95,8.83-8.83V72.57c0-4.88-3.95-8.83-8.83-8.83H566.71
			c-4.88,0-8.83,3.95-8.83,8.83V212.2C557.88,217.07,561.83,221.03,566.71,221.03z"/>
		<path class="st18" d="M636.49,93.65l-48.18,18.9c0,0,6.09,66.16,48.18,78.57c42.09-12.41,48.18-78.57,48.18-78.57L636.49,93.65z
			 M635.26,157.71c-0.63,0.83-1.61,1.35-2.65,1.35c-0.01,0-0.02,0-0.03,0c-1.05,0-2.04-0.55-2.65-1.4l-16.89-23.28
			c-1.08-1.49-0.75-3.57,0.74-4.65c1.49-1.08,3.56-0.75,4.64,0.73l14.26,19.63l23.32-30.77c1.11-1.46,3.19-1.75,4.66-0.64
			c1.46,1.11,1.75,3.39,0.64,4.86L635.26,157.71z"/>
	</g>
	<path class="st15" d="M573.36,221.03h139.62c4.88,0,8.83-3.95,8.83-8.83V72.57c0-4.88-3.95-8.83-8.83-8.83H573.36
		c-4.88,0-8.83,3.95-8.83,8.83V212.2C564.53,217.07,568.48,221.03,573.36,221.03z"/>
</g>
<g>
	<g>
		<rect x="701.95" y="473.2" class="st3" width="156.67" height="105.73"/>
		<rect x="701.95" y="473.2" class="st6" width="156.67" height="105.73"/>
	</g>
	<rect x="704.86" y="481.35" class="st10" width="150.46" height="94.06"/>
	<g>
		<rect x="711.76" y="495.92" class="st1" width="123.7" height="2.76"/>
		<rect x="711.76" y="503.73" class="st1" width="105.31" height="2.76"/>
		<rect x="711.76" y="511.54" class="st1" width="123.7" height="2.76"/>
		<rect x="711.76" y="519.35" class="st1" width="105.31" height="2.76"/>
		<rect x="711.76" y="527.16" class="st1" width="13.36" height="2.76"/>
		<rect x="711.76" y="534.98" class="st1" width="68.53" height="2.76"/>
		<rect x="711.76" y="542.79" class="st1" width="105.31" height="2.76"/>
		<rect x="711.76" y="550.6" class="st1" width="13.36" height="2.76"/>
		<rect x="711.76" y="558.41" class="st1" width="13.36" height="2.76"/>
	</g>
</g>
<g>
	<g>
		<rect x="250.17" y="253.22" class="st3" width="156.67" height="105.73"/>
		<rect x="250.17" y="253.22" class="st6" width="156.67" height="105.73"/>
	</g>
	<rect x="253.08" y="261.38" class="st10" width="150.46" height="94.06"/>
	<g>
		<rect x="259.97" y="275.95" class="st1" width="123.7" height="2.76"/>
		<rect x="259.97" y="283.76" class="st1" width="105.31" height="2.76"/>
		<rect x="259.97" y="291.57" class="st1" width="123.7" height="2.76"/>
		<rect x="259.97" y="299.38" class="st1" width="105.31" height="2.76"/>
		<rect x="259.97" y="307.19" class="st1" width="13.36" height="2.76"/>
		<rect x="259.97" y="315" class="st1" width="68.53" height="2.76"/>
		<rect x="259.97" y="322.81" class="st1" width="105.31" height="2.76"/>
		<rect x="259.97" y="330.62" class="st1" width="13.36" height="2.76"/>
		<rect x="259.97" y="338.43" class="st1" width="13.36" height="2.76"/>
	</g>
</g>
</svg>
