<?xml version="1.0" encoding="utf-8"?>
<!-- Generator: Adobe Illustrator 16.0.0, SVG Export Plug-In . SVG Version: 6.00 Build 0)  -->
<!DOCTYPE svg PUBLIC "-//W3C//DTD SVG 1.1//EN" "http://www.w3.org/Graphics/SVG/1.1/DTD/svg11.dtd">
<svg version="1.1" id="Layer_1" xmlns="http://www.w3.org/2000/svg" xmlns:xlink="http://www.w3.org/1999/xlink" x="0px" y="0px"
	 width="500px" height="400px" viewBox="0 0 500 400" enable-background="new 0 0 500 400" xml:space="preserve">
<g id="OBJECTS">
	<path fill="#CFCCE6" d="M50.966,361.5c0,5.6,71,10.1,158.6,10.1c87.601,0,158.601-4.5,158.601-10.1
		c0-5.601-71-10.101-158.601-10.101C121.966,351.3,50.966,355.9,50.966,361.5z"/>
	<ellipse fill="#CFCCE6" cx="107.466" cy="374" rx="40.3" ry="6.3"/>
	<ellipse fill="#CFCCE6" cx="415.466" cy="375.3" rx="67.5" ry="5"/>
	<polygon fill="#D9D7EC" points="66.766,291.9 64.167,328.2 98.867,328.2 96.466,291.8 	"/>
	<g>
		<path fill="#EAE5F2" d="M73.667,295.1L73.667,295.1c0-0.601,0.5-1,1.2-1l0,0c0.699,0,1.199,0.399,1.199,1c0,0.6-0.5,1-1.199,1l0,0
			C74.167,296.1,73.667,295.6,73.667,295.1z M74.867,294.4c-0.4,0-0.801,0.3-0.801,0.6c0,0.301,0.4,0.601,0.801,0.601l0,0
			c0.399,0,0.8-0.3,0.8-0.601C75.667,294.7,75.266,294.4,74.867,294.4L74.867,294.4z M73.867,295.1L73.867,295.1L73.867,295.1z"/>
	</g>
	<g>
		<path fill="#EAE5F2" d="M85.466,295h0.2H85.466c0-0.199,0.1-0.5,0.3-0.699c0.2-0.2,0.601-0.4,0.9-0.4l0,0c0.7,0,1.2,0.4,1.2,1
			c0,0.3-0.101,0.5-0.4,0.7c-0.2,0.2-0.5,0.3-0.8,0.3l0,0C85.966,296,85.466,295.6,85.466,295z M86.667,294.4
			c-0.3,0-0.5,0.1-0.601,0.2c-0.1,0.1-0.199,0.2-0.199,0.399l0,0c0,0.301,0.399,0.601,0.8,0.601l0,0c0.2,0,0.399-0.101,0.6-0.2
			c0.101-0.1,0.2-0.3,0.2-0.4C87.466,294.7,87.066,294.4,86.667,294.4L86.667,294.4z"/>
	</g>
	<path fill="#EAE5F2" d="M80.367,302.4c0.1,0,0.199,0,0.3,0c2.2-0.1,3.8-0.8,4.899-2.1c1.801-2.2,1.4-5.2,1.4-5.301
		c0-0.199-0.2-0.399-0.4-0.3c-0.199,0-0.399,0.2-0.3,0.4c0,0,0.4,2.8-1.2,4.7c-0.899,1.1-2.399,1.7-4.399,1.8
		c-1.9,0.1-3.3-0.4-4.2-1.5c-1.7-1.9-1.3-5-1.3-5c0-0.2-0.101-0.4-0.3-0.4c-0.2,0-0.4,0.101-0.4,0.3c0,0.101-0.5,3.5,1.5,5.601
		C76.966,301.8,78.466,302.4,80.367,302.4z"/>
	<polygon fill="#C0C5E4" points="83.066,302.1 78.966,329.1 116.566,329 112.766,302 	"/>
	<path fill="#8282BE" d="M69.167,347.7c-4.2,0-7.601,3.4-7.601,7.601s3.4,7.6,7.601,7.6s7.6-3.399,7.6-7.6
		S73.367,347.7,69.167,347.7z M69.167,358.8c-2,0-3.5-1.601-3.5-3.5c0-1.9,1.6-3.5,3.5-3.5c2,0,3.6,1.6,3.6,3.5
		C72.667,357.3,71.066,358.8,69.167,358.8z"/>
	<path fill="#9EA2D1" d="M67.867,347.7c-4.2,0-7.601,3.4-7.601,7.601s3.4,7.6,7.601,7.6c4.199,0,7.6-3.399,7.6-7.6
		S72.066,347.7,67.867,347.7z M67.867,358.8c-1.9,0-3.5-1.601-3.5-3.5c0-1.9,1.6-3.5,3.5-3.5c2,0,3.6,1.6,3.6,3.5
		C71.466,357.3,69.867,358.8,67.867,358.8z"/>
	<path fill="#8282BE" d="M112.266,347.7c-4.2,0-7.6,3.4-7.6,7.601s3.399,7.6,7.6,7.6s7.601-3.399,7.601-7.6
		S116.466,347.7,112.266,347.7z M112.266,358.8c-2,0-3.5-1.601-3.5-3.5c0-1.9,1.601-3.5,3.5-3.5c2,0,3.601,1.6,3.601,3.5
		C115.766,357.3,114.167,358.8,112.266,358.8z"/>
	<path fill="#9EA2D1" d="M110.966,347.7c-4.2,0-7.6,3.4-7.6,7.601s3.399,7.6,7.6,7.6s7.6-3.399,7.6-7.6S115.167,347.7,110.966,347.7
		z M110.966,358.8c-2,0-3.5-1.601-3.5-3.5c0-1.9,1.6-3.5,3.5-3.5c2,0,3.6,1.6,3.6,3.5C114.566,357.3,112.966,358.8,110.966,358.8z"
		/>
	<g>
		<path fill="none" stroke="#9EA2D1" stroke-width="1.5" stroke-miterlimit="10" d="M169.867,262h-22.9c-2.4,0-4.7,1.2-5.9,3.301
			l-13.899,22.3"/>
		<path fill="none" stroke="#9EA2D1" stroke-width="1.5" stroke-miterlimit="10" d="M65.466,328.4h51.2c2.7,0,5.1-2,5.5-4.7
			l5.3-33.1c0.5-3.4-2.1-6.4-5.5-6.4h-61.8c-3.4,0-6,3.101-5.5,6.4l5.3,33.1C60.466,326.5,62.766,328.4,65.466,328.4z"/>
		<line fill="none" stroke="#9EA2D1" stroke-width="1.5" stroke-miterlimit="10" x1="91.167" y1="284.3" x2="91.167" y2="328.4"/>
		<line fill="none" stroke="#9EA2D1" stroke-width="1.5" stroke-miterlimit="10" x1="125.066" y1="306.4" x2="57.266" y2="306.4"/>
		<line fill="none" stroke="#9EA2D1" stroke-width="1.5" stroke-miterlimit="10" x1="111.367" y1="284.3" x2="106.966" y2="328.4"/>
		<line fill="none" stroke="#9EA2D1" stroke-width="1.5" stroke-miterlimit="10" x1="71.867" y1="284.3" x2="75.966" y2="328.4"/>
		<path fill="none" stroke="#9EA2D1" stroke-width="1.5" stroke-miterlimit="10" d="M121.066,326.4l8.301,12.3
			c2.3,3.4-0.101,7.9-4.2,7.9h-67.9"/>
	</g>
	<rect x="229.167" y="332.3" fill="#FFFFFF" width="70.3" height="18.899"/>
	<path fill="#FFFFFF" d="M373.367,338.5H156.066c-7.3,0-13.199-5.9-13.199-13.2V176.4c0-7.3,5.899-13.2,13.199-13.2h217.301
		c7.3,0,13.199,5.9,13.199,13.2v148.9C386.466,332.6,380.566,338.5,373.367,338.5z"/>
	<path fill="#F0527B" d="M370.867,321.7H157.766c-4.5,0-8.1-3.6-8.1-8.1V177.7c0-4.5,3.6-8.1,8.1-8.1h213.101c4.5,0,8.1,3.6,8.1,8.1
		v135.9C378.966,318,375.367,321.7,370.867,321.7z"/>
	<path fill="#FFFFFF" d="M329.667,361.5h-130.7V359.9c0-5.7,4.6-10.3,10.3-10.3h110.2c5.7,0,10.3,4.6,10.3,10.3v1.601H329.667z"/>
	<g>
		<g>
			<path fill="#FFFFFF" d="M357.867,287.9h-146.4c-3.9,0-7-3.1-7-7v-93.8c0-3.9,3.1-7,7-7h146.4c3.899,0,7,3.1,7,7v93.8
				C364.867,284.8,361.667,287.9,357.867,287.9z"/>
		</g>
	</g>
	<g>
		<g>
			<g>
				<g>
					<rect x="219.667" y="258.9" fill="#FAA819" width="7" height="17.5"/>
				</g>
			</g>
		</g>
		<g>
			<g>
				<g>
					<rect x="235.367" y="243.5" fill="#B2ADD6" width="7" height="32.9"/>
				</g>
			</g>
		</g>
		<g>
			<g>
				<g>
					<rect x="251.167" y="246.9" fill="#FAA819" width="7" height="29.5"/>
				</g>
			</g>
		</g>
		<g>
			<g>
				<g>
					<rect x="266.867" y="230.2" fill="#B2ADD6" width="7" height="46.2"/>
				</g>
			</g>
		</g>
		<g opacity="0.15">
			<g>
				<g>
					<rect x="235.367" y="243.5" opacity="0.26" fill="#010101" enable-background="new    " width="3.199" height="32.9"/>
				</g>
			</g>
		</g>
		<g opacity="0.15">
			<g>
				<g>
					<rect x="219.667" y="258.9" opacity="0.26" fill="#010101" enable-background="new    " width="3.2" height="17.5"/>
				</g>
			</g>
		</g>
		<g opacity="0.62">
			<g>
				<g>
					<rect x="266.867" y="230.2" opacity="0.26" fill="#010101" enable-background="new    " width="3.199" height="46.2"/>
				</g>
			</g>
		</g>
		<g opacity="0.15">
			<g>
				<g>
					<rect x="251.167" y="246.9" opacity="0.26" fill="#010101" enable-background="new    " width="3.2" height="29.5"/>
				</g>
			</g>
		</g>
		<g>
			<g>
				<g>
					<polygon fill="#D6DCDB" points="277.566,281.2 215.066,281.2 215.066,214.6 215.966,214.6 215.966,280.3 277.566,280.3 					
						"/>
				</g>
			</g>
		</g>
		<g>
			<g>
				<g>
					<polygon fill="#D6DCDB" points="221.466,250.6 220.867,249.9 237.167,235.2 252.367,238.5 268.766,220.3 269.466,220.9 
						252.667,239.6 237.466,236.3 					"/>
				</g>
			</g>
		</g>
		<g>
			<g>
				<g>
					<polygon fill="#D6DCDB" points="270.766,223.6 266.167,219.2 272.066,217.6 					"/>
				</g>
			</g>
		</g>
		<g>
			<g>
				<g>
					<g>
						<rect x="283.466" y="257.6" fill="#B2ADD6" width="4.8" height="4.8"/>
					</g>
				</g>
			</g>
			<g>
				<g>
					<g>
						<rect x="283.466" y="266" fill="#FAA819" width="4.8" height="4.801"/>
					</g>
				</g>
			</g>
			<g>
				<g>
					<g>
						<rect x="289.667" y="268.1" fill="#F0EFEF" width="15.2" height="2.7"/>
					</g>
				</g>
			</g>
			<g>
				<g>
					<g>
						<rect x="289.667" y="259.7" fill="#F0EFEF" width="15.2" height="2.7"/>
					</g>
				</g>
			</g>
		</g>
		<g>
			<g>
				<g>
					<g>
						<rect x="311.766" y="257.6" fill="#B2ADD6" width="4.8" height="4.8"/>
					</g>
				</g>
			</g>
			<g>
				<g>
					<g>
						<rect x="311.766" y="266" fill="#FAA819" width="4.8" height="4.801"/>
					</g>
				</g>
			</g>
			<g>
				<g>
					<g>
						<rect x="317.867" y="268.1" fill="#F0EFEF" width="15.199" height="2.7"/>
					</g>
				</g>
			</g>
			<g>
				<g>
					<g>
						<rect x="317.867" y="259.7" fill="#F0EFEF" width="15.199" height="2.7"/>
					</g>
				</g>
			</g>
		</g>
		<g>
			<g>
				<g>
					<g>
						<rect x="337.167" y="257.6" fill="#B2ADD6" width="4.8" height="4.8"/>
					</g>
				</g>
			</g>
			<g>
				<g>
					<g>
						<rect x="337.167" y="266" fill="#FAA819" width="4.8" height="4.801"/>
					</g>
				</g>
			</g>
			<g>
				<g>
					<g>
						<rect x="343.266" y="268.1" fill="#F0EFEF" width="10" height="2.7"/>
					</g>
				</g>
			</g>
			<g>
				<g>
					<g>
						<rect x="343.266" y="259.7" fill="#F0EFEF" width="10" height="2.7"/>
					</g>
				</g>
			</g>
		</g>
		<g>
			<g>
				<g>
					<g>
						<rect x="284.367" y="211.8" fill="#F0EFEF" width="68.899" height="1.3"/>
					</g>
				</g>
			</g>
			<g>
				<g>
					<g>
						<rect x="215.066" y="196.4" fill="#F0EFEF" width="138.2" height="2.9"/>
					</g>
				</g>
			</g>
			<g>
				<g>
					<g>
						<rect x="284.167" y="215.7" fill="#F0EFEF" width="69.1" height="1.3"/>
					</g>
				</g>
			</g>
			<g>
				<g>
					<g>
						<rect x="284.167" y="207.9" fill="#F0EFEF" width="69.1" height="1.3"/>
					</g>
				</g>
			</g>
			<g>
				<g>
					<g>
						<rect x="284.167" y="219.5" fill="#F0EFEF" width="69.1" height="1.301"/>
					</g>
				</g>
			</g>
			<g>
				<g>
					<g>
						<rect x="284.167" y="223.4" fill="#F0EFEF" width="69.1" height="1.3"/>
					</g>
				</g>
			</g>
			<g>
				<g>
					<g>
						<rect x="284.167" y="227.3" fill="#F0EFEF" width="69.1" height="1.3"/>
					</g>
				</g>
			</g>
			<g>
				<g>
					<g>
						<rect x="284.167" y="231.2" fill="#F0EFEF" width="69.1" height="1.3"/>
					</g>
				</g>
			</g>
			<g>
				<g>
					<g>
						<rect x="284.167" y="235.1" fill="#F0EFEF" width="69.1" height="1.3"/>
					</g>
				</g>
			</g>
			<g>
				<g>
					<g>
						<rect x="284.167" y="239" fill="#F0EFEF" width="69.1" height="1.301"/>
					</g>
				</g>
			</g>
			<g>
				<g>
					<g>
						<rect x="292.667" y="242.9" fill="#F0EFEF" width="60.6" height="1.3"/>
					</g>
				</g>
			</g>
		</g>
	</g>
	<path fill="#7677B8" d="M357.867,180.1h-146.4c-3.9,0-7,3.1-7,7v6.2h160.4v-6.2C364.867,183.2,361.667,180.1,357.867,180.1z"/>
	<circle fill="#D1CEE8" cx="342.167" cy="186.9" r="2"/>
	<circle fill="#D1CEE8" cx="350.466" cy="186.9" r="2"/>
	<circle fill="#D1CEE8" cx="358.667" cy="186.9" r="2"/>
	<g>
		<g>
			<g>
				<path opacity="0.55" fill="#C5C2E1" enable-background="new    " d="M315.167,311.8h-146.3c-3.9,0-7-3.101-7-7V211
					c0-3.899,3.1-7,7-7h146.399c3.9,0,7,3.101,7,7V304.8C322.266,308.6,319.066,311.8,315.167,311.8z"/>
			</g>
		</g>
	</g>
	<g>
		<g>
			<g>
				<path fill="#FFFFFF" d="M318.466,307.6h-146.4c-3.899,0-7-3.101-7-7v-93.8c0-3.9,3.101-7,7-7h146.4c3.9,0,7,3.1,7,7v93.8
					C325.466,304.4,322.367,307.6,318.466,307.6z"/>
			</g>
		</g>
	</g>
	<g>
		<g>
			<g>
				<g>
					<rect x="180.266" y="278.5" fill="#FAA819" width="7" height="17.5"/>
				</g>
			</g>
		</g>
		<g>
			<g>
				<g>
					<rect x="196.066" y="263.1" fill="#B2ADD6" width="7" height="32.899"/>
				</g>
			</g>
		</g>
		<g>
			<g>
				<g>
					<rect x="211.766" y="266.5" fill="#FAA819" width="7" height="29.5"/>
				</g>
			</g>
		</g>
		<g>
			<g>
				<g>
					<rect x="227.566" y="249.8" fill="#B2ADD6" width="7" height="46.199"/>
				</g>
			</g>
		</g>
		<g opacity="0.15">
			<g>
				<g>
					<rect x="196.066" y="263.1" opacity="0.26" fill="#010101" enable-background="new    " width="3.2" height="32.899"/>
				</g>
			</g>
		</g>
		<g opacity="0.15">
			<g>
				<g>
					<rect x="180.266" y="278.5" opacity="0.26" fill="#010101" enable-background="new    " width="3.2" height="17.5"/>
				</g>
			</g>
		</g>
		<g opacity="0.62">
			<g>
				<g>
					<rect x="227.566" y="249.8" opacity="0.26" fill="#010101" enable-background="new    " width="3.2" height="46.199"/>
				</g>
			</g>
		</g>
		<g opacity="0.15">
			<g>
				<g>
					<rect x="211.766" y="266.5" opacity="0.26" fill="#010101" enable-background="new    " width="3.2" height="29.5"/>
				</g>
			</g>
		</g>
		<g>
			<g>
				<g>
					<polygon fill="#D6DCDB" points="238.266,300.9 175.667,300.9 175.667,240.2 176.667,240.2 176.667,299.9 238.266,299.9 					
						"/>
				</g>
			</g>
		</g>
		<g>
			<g>
				<g>
					<polygon fill="#D6DCDB" points="182.066,270.3 181.466,269.6 197.867,254.9 212.966,258.2 229.367,239.9 230.066,240.6 
						213.367,259.2 198.066,255.9 					"/>
				</g>
			</g>
		</g>
		<g>
			<g>
				<g>
					<polygon fill="#D6DCDB" points="231.367,243.3 226.766,238.8 232.766,237.2 					"/>
				</g>
			</g>
		</g>
		<g>
			<g>
				<g>
					<g>
						<rect x="244.167" y="277.3" fill="#B2ADD6" width="4.8" height="4.8"/>
					</g>
				</g>
			</g>
			<g>
				<g>
					<g>
						<rect x="244.167" y="285.7" fill="#FAA819" width="4.8" height="4.8"/>
					</g>
				</g>
			</g>
			<g>
				<g>
					<g>
						<rect x="250.266" y="287.7" fill="#F0EFEF" width="15.2" height="2.7"/>
					</g>
				</g>
			</g>
			<g>
				<g>
					<g>
						<rect x="250.266" y="279.3" fill="#F0EFEF" width="15.2" height="2.699"/>
					</g>
				</g>
			</g>
		</g>
		<g>
			<g>
				<g>
					<g>
						<rect x="272.367" y="277.3" fill="#B2ADD6" width="4.8" height="4.8"/>
					</g>
				</g>
			</g>
			<g>
				<g>
					<g>
						<rect x="272.367" y="285.7" fill="#FAA819" width="4.8" height="4.8"/>
					</g>
				</g>
			</g>
			<g>
				<g>
					<g>
						<rect x="278.466" y="287.7" fill="#F0EFEF" width="15.2" height="2.7"/>
					</g>
				</g>
			</g>
			<g>
				<g>
					<g>
						<rect x="278.466" y="279.3" fill="#F0EFEF" width="15.2" height="2.699"/>
					</g>
				</g>
			</g>
		</g>
		<g>
			<g>
				<g>
					<g>
						<rect x="297.766" y="277.3" fill="#B2ADD6" width="4.8" height="4.8"/>
					</g>
				</g>
			</g>
			<g>
				<g>
					<g>
						<rect x="297.766" y="285.7" fill="#FAA819" width="4.8" height="4.8"/>
					</g>
				</g>
			</g>
			<g>
				<g>
					<g>
						<rect x="303.867" y="287.7" fill="#F0EFEF" width="10" height="2.7"/>
					</g>
				</g>
			</g>
			<g>
				<g>
					<g>
						<rect x="303.867" y="279.3" fill="#F0EFEF" width="10" height="2.699"/>
					</g>
				</g>
			</g>
		</g>
		<g>
			<g>
				<g>
					<g>
						<rect x="245.066" y="231.4" fill="#F0EFEF" width="68.9" height="1.3"/>
					</g>
				</g>
			</g>
			<g>
				<g>
					<g>
						<rect x="175.667" y="216" fill="#F0EFEF" width="138.2" height="2.9"/>
					</g>
				</g>
			</g>
			<g>
				<g>
					<g>
						<rect x="244.867" y="235.3" fill="#F0EFEF" width="69.1" height="1.3"/>
					</g>
				</g>
			</g>
			<g>
				<g>
					<g>
						<rect x="244.867" y="227.5" fill="#F0EFEF" width="69.1" height="1.301"/>
					</g>
				</g>
			</g>
			<g>
				<g>
					<g>
						<rect x="244.867" y="239.2" fill="#F0EFEF" width="69.1" height="1.3"/>
					</g>
				</g>
			</g>
			<g>
				<g>
					<g>
						<rect x="244.867" y="243.1" fill="#F0EFEF" width="69.1" height="1.3"/>
					</g>
				</g>
			</g>
			<g>
				<g>
					<g>
						<rect x="244.867" y="247" fill="#F0EFEF" width="69.1" height="1.301"/>
					</g>
				</g>
			</g>
			<g>
				<g>
					<g>
						<rect x="244.867" y="250.9" fill="#F0EFEF" width="69.1" height="1.3"/>
					</g>
				</g>
			</g>
			<g>
				<g>
					<g>
						<rect x="244.867" y="254.8" fill="#F0EFEF" width="69.1" height="1.3"/>
					</g>
				</g>
			</g>
			<g>
				<g>
					<g>
						<rect x="244.867" y="258.7" fill="#F0EFEF" width="69.1" height="1.3"/>
					</g>
				</g>
			</g>
			<g>
				<g>
					<g>
						<rect x="253.266" y="262.6" fill="#F0EFEF" width="60.601" height="1.3"/>
					</g>
				</g>
			</g>
		</g>
	</g>
	<path fill="#A7A4D1" d="M318.466,199.7h-146.4c-3.899,0-7,3.101-7,7v6.2h160.4v-6.2C325.466,202.9,322.367,199.7,318.466,199.7z"/>
	<circle fill="#D1CEE8" cx="302.867" cy="206.6" r="2"/>
	<circle fill="#D1CEE8" cx="311.066" cy="206.6" r="2"/>
	<circle fill="#D1CEE8" cx="319.367" cy="206.6" r="2"/>
	<path opacity="0.35" fill="#5A57A6" enable-background="new    " d="M372.566,163.3h-37.6c0.3,12.199,0.5,24.399,0.6,36.6
		c0,1.9,0,3.8-0.699,5.5h-0.101c-0.5,0-0.3,0.1-0.399,1l0,0c-1.5,2.5-4.5,3.8-7.4,4.5c0,0.2,0,0.3,0,0.4c-0.3,0.3-0.5,0.699-0.3,1.1
		s2.3,1,5.3,0.6c0.8-0.1,2.5-0.5,3.3-0.899c0.5-0.2,0.9-0.5,1.2-0.8c0.4,0,0.8-0.101,1.1-0.301l0.101,0.101l3.399-1.5
		c0,0-0.399-2.101-0.699-3.2c-0.101-0.2-0.101-0.4-0.2-0.5c2.8-7.6,5-15.5,6.6-23.4c-0.6,9.9-4.2,30-4.399,30.7
		c-0.4,1.2-2,2.8-4.301,3c-0.8,0.101-4.699-0.2-4.3,1.601c0.101,0.399,2.101,1.3,5.101,1.5c0.8,0.1,2.5-0.101,3.399-0.301
		c1.101-0.3,2.101-1.1,2.101-1.1l0.5,0.6l3.6-0.899c0,0,0-0.9,0-2c0-1.101-0.8-2.2-0.8-2.2v-2l2-0.2c0,0,4-12.8,5.899-17.2
		c0.801-1.8,1.601-3.6,2.101-5.5c0.6-2.199,0.6-4.5,0.8-6.8c0.3-4.2,1.1-8.3,2.3-12.399c0.101-0.301,0.2-0.5,0.3-0.7
		c0.301-0.4,0.801-0.4,1.301-0.5c5.1-0.5,7.399,0.399,10.5-0.601c4.199-1.3,4.6-3.199,4.8-3.3
		C376.167,163.7,374.466,163.3,372.566,163.3z"/>
	<path fill="#5A57A6" d="M386.466,247.4v-43.6c-6.5,8.5-12.9,16.1-19.4,24.6c-2.8,3.7-13.899,15.9-6.3,20.8c1.9,1.3,5.3,1.2,6.9,1.3
		c6,0.4,12-1.199,17.8-2.899C385.867,247.6,386.167,247.5,386.466,247.4z"/>
	<path opacity="0.35" fill="#5A57A6" enable-background="new    " d="M386.466,256.8l-3.6,0.3l-0.101-0.2l-2.8,0.2l-0.8-2.4
		c-0.5-1.399-2.101-2.399-3.5-2.3c-1.5,0.1-2.3,1.3-1.8,2.7c0.1,0.399,0.6,1.6,0.8,2.399l-3,0.2l0.1,0.2l-6.1,0.5
		c-1,0-2.4,1.2-2.101,2.1v0.101c0,0.1,0,0.1,0,0.2l5.301,14.899l-0.101,62.7h6.101l11.6-45.1V256.8z M376.966,256.3
		c-0.8,0.1-1.7-0.5-2-1.301c-0.3-0.8,0.2-1.399,1-1.5c0.8-0.1,1.7,0.5,2,1.301C378.266,255.6,377.766,256.2,376.966,256.3z"/>
	<path opacity="0.35" fill="#5A57A6" enable-background="new    " d="M158.167,230.9c-1.4,1.5-3,4.7-3.601,6.1
		c-0.699,1.4-1.399,2.101-3.399,3c-2.7,1.2-5.601,2.4-8.3,3.5v7.101c5.6-3.4,10.699-6.5,10.8-6.601c4.3,1.601,7.899-1.899,9-4.5
		c0.5-1.199-0.3-1.6-0.3-2.199c0-0.301,0.399-2,0.3-2.2c-0.3-1.5-4.4-0.2-4-0.9c0.2-0.5,0.7-1.8,1.7-2.5c2-1.3,3.5-2.8,3.5-3.399
		C163.766,227.4,158.667,230.4,158.167,230.9z"/>
	<path fill="#A6A7D3" d="M460.466,376.6h-75.2c-5.399,0-9.8-4.4-9.8-9.8v-90c0-5.4,4.4-9.801,9.8-9.801h75.2
		c5.399,0,9.8,4.4,9.8,9.801v90C470.266,372.3,465.866,376.6,460.466,376.6z"/>
	<g>
		<path fill="#8D8DC5" d="M461.966,301.1h-75.1c-1.4,0-2.5-1.101-2.5-2.5v-17.5c0-1.4,1.1-2.5,2.5-2.5h75.1c1.399,0,2.5,1.1,2.5,2.5
			v17.5C464.366,299.9,463.266,301.1,461.966,301.1z"/>
		<path fill="#8D8DC5" d="M402.367,323.3h-15.601c-1.399,0-2.5-1.101-2.5-2.5V311.5c0-1.399,1.101-2.5,2.5-2.5h15.601
			c1.399,0,2.5,1.101,2.5,2.5v9.301C404.867,322.2,403.766,323.3,402.367,323.3z"/>
		<path fill="#8D8DC5" d="M432.167,323.3h-15.601c-1.399,0-2.5-1.101-2.5-2.5V311.5c0-1.399,1.101-2.5,2.5-2.5h15.601
			c1.399,0,2.5,1.101,2.5,2.5v9.301C434.667,322.2,433.566,323.3,432.167,323.3z"/>
		<path fill="#8D8DC5" d="M461.966,323.3h-15.601c-1.399,0-2.5-1.101-2.5-2.5V311.5c0-1.399,1.101-2.5,2.5-2.5h15.601
			c1.399,0,2.5,1.101,2.5,2.5v9.301C464.366,322.2,463.266,323.3,461.966,323.3z"/>
		<path fill="#8D8DC5" d="M402.367,346.3h-15.601c-1.399,0-2.5-1.101-2.5-2.5V334.5c0-1.399,1.101-2.5,2.5-2.5h15.601
			c1.399,0,2.5,1.101,2.5,2.5v9.301C404.867,345.2,403.766,346.3,402.367,346.3z"/>
		<path fill="#8D8DC5" d="M432.167,346.3h-15.601c-1.399,0-2.5-1.101-2.5-2.5V334.5c0-1.399,1.101-2.5,2.5-2.5h15.601
			c1.399,0,2.5,1.101,2.5,2.5v9.301C434.667,345.2,433.566,346.3,432.167,346.3z"/>
		<path fill="#8D8DC5" d="M402.367,369.2h-15.601c-1.399,0-2.5-1.1-2.5-2.5v-9.3c0-1.399,1.101-2.5,2.5-2.5h15.601
			c1.399,0,2.5,1.101,2.5,2.5v9.3C404.867,368.1,403.766,369.2,402.367,369.2z"/>
		<path fill="#8D8DC5" d="M432.167,369.2h-15.601c-1.399,0-2.5-1.1-2.5-2.5v-9.3c0-1.399,1.101-2.5,2.5-2.5h15.601
			c1.399,0,2.5,1.101,2.5,2.5v9.3C434.667,368.1,433.566,369.2,432.167,369.2z"/>
	</g>
	<path fill="#8D8DC5" d="M461.966,369.2h-15.601c-1.399,0-2.5-1.1-2.5-2.5v-32.3c0-1.4,1.101-2.5,2.5-2.5h15.601
		c1.399,0,2.5,1.1,2.5,2.5v32.3C464.366,368.1,463.266,369.2,461.966,369.2z"/>
	<path fill="#E3DDEE" d="M382.867,279.6c0-1.4,1.1-2.5,2.5-2.5h75.1c1.399,0,2.5,1.1,2.5,2.5v17.5c0,1.399-1.101,2.5-2.5,2.5h-75.1"
		/>
	<path fill="#E3DDEE" d="M400.966,321.9h-15.6c-1.4,0-2.5-1.1-2.5-2.5v-9.3c0-1.4,1.1-2.5,2.5-2.5h15.6c1.4,0,2.5,1.1,2.5,2.5v9.3
		C403.466,320.8,402.367,321.9,400.966,321.9z"/>
	<path fill="#E3DDEE" d="M430.667,321.9h-15.601c-1.399,0-2.5-1.1-2.5-2.5v-9.3c0-1.4,1.101-2.5,2.5-2.5h15.601
		c1.399,0,2.5,1.1,2.5,2.5v9.3C433.167,320.8,432.066,321.9,430.667,321.9z"/>
	<path fill="#E3DDEE" d="M460.466,321.9h-15.601c-1.399,0-2.5-1.1-2.5-2.5v-9.3c0-1.4,1.101-2.5,2.5-2.5h15.601
		c1.399,0,2.5,1.1,2.5,2.5v9.3C462.966,320.8,461.866,321.9,460.466,321.9z"/>
	<path fill="#E3DDEE" d="M400.966,344.8h-15.6c-1.4,0-2.5-1.101-2.5-2.5V333c0-1.399,1.1-2.5,2.5-2.5h15.6c1.4,0,2.5,1.101,2.5,2.5
		v9.301C403.466,343.7,402.367,344.8,400.966,344.8z"/>
	<path fill="#E3DDEE" d="M430.667,344.8h-15.601c-1.399,0-2.5-1.101-2.5-2.5V333c0-1.399,1.101-2.5,2.5-2.5h15.601
		c1.399,0,2.5,1.101,2.5,2.5v9.301C433.167,343.7,432.066,344.8,430.667,344.8z"/>
	<path fill="#E3DDEE" d="M400.966,367.8h-15.6c-1.4,0-2.5-1.101-2.5-2.5V356c0-1.4,1.1-2.5,2.5-2.5h15.6c1.4,0,2.5,1.1,2.5,2.5v9.3
		C403.466,366.7,402.367,367.8,400.966,367.8z"/>
	<path fill="#E3DDEE" d="M430.667,367.8h-15.601c-1.399,0-2.5-1.101-2.5-2.5V356c0-1.4,1.101-2.5,2.5-2.5h15.601
		c1.399,0,2.5,1.1,2.5,2.5v9.3C433.167,366.7,432.066,367.8,430.667,367.8z"/>
	<path fill="#F0527B" d="M460.466,367.8h-15.601c-1.399,0-2.5-1.101-2.5-2.5V333c0-1.399,1.101-2.5,2.5-2.5h15.601
		c1.399,0,2.5,1.101,2.5,2.5V365.3C462.966,366.7,461.866,367.8,460.466,367.8z"/>
	<path fill="#F0527B" d="M443.766,366.8V334.5c0-1.399,1.1-2.5,2.5-2.5h15.6c0.301,0,0.601,0.101,0.9,0.2
		c-0.4-0.899-1.3-1.6-2.3-1.6h-15.601c-1.399,0-2.5,1.1-2.5,2.5v32.3c0,1.101,0.7,2,1.601,2.3
		C443.866,367.4,443.766,367.1,443.766,366.8z"/>
	<path opacity="0.35" fill="#5A57A6" enable-background="new    " d="M375.566,292.9l2.5,6.7h10.601c0,0-0.7,28.899-0.8,34.3
		c0,5.4,4.5,42.8,4.5,42.8h6.1l-0.6-47.1l8.699-24.2c0,0,6.601,32.3,9.301,37.7c2.699,5.4,17.3,33.5,17.3,33.5h5.6l-14.5-61.9
		l-6.2-21.5l-31.399-14.7l-11.3,1.101"/>
	<polygon fill="#FFFFFF" points="163.466,316.9 158.466,368.2 207.066,368.2 202.367,316.8 	"/>
	<g>
		<path fill="#5A57A6" d="M171.867,321.6L171.867,321.6c0-0.9,0.8-1.5,1.8-1.5l0,0c1,0,1.8,0.7,1.8,1.5s-0.8,1.5-1.8,1.5l0,0
			C172.766,323.1,171.867,322.5,171.867,321.6z M173.766,320.7c-0.7,0-1.2,0.4-1.2,1c0,0.5,0.601,1,1.2,1l0,0c0.7,0,1.2-0.399,1.2-1
			C174.966,321.1,174.367,320.7,173.766,320.7L173.766,320.7z M172.167,321.6L172.167,321.6L172.167,321.6z"/>
	</g>
	<g>
		<path fill="#5A57A6" d="M190.066,321.6h0.301H190.066c0-0.4,0.101-0.7,0.4-1s0.9-0.5,1.4-0.5l0,0c1,0,1.8,0.7,1.8,1.5
			c0,0.399-0.2,0.8-0.601,1.1c-0.3,0.3-0.8,0.4-1.3,0.4l0,0C190.867,323.1,190.066,322.4,190.066,321.6z M191.867,320.6
			c-0.4,0-0.7,0.1-1,0.399c-0.101,0.101-0.301,0.301-0.301,0.601l0,0c0,0.5,0.601,1,1.2,1l0,0c0.3,0,0.7-0.101,0.9-0.3
			c0.2-0.2,0.3-0.4,0.3-0.7C193.066,321,192.566,320.6,191.867,320.6L191.867,320.6z"/>
	</g>
	<path fill="#5A57A6" d="M182.266,332.8c0.2,0,0.3,0,0.5,0c3.3-0.101,5.9-1.2,7.5-3.2c2.8-3.3,2.101-7.9,2.101-8.101
		c0-0.3-0.301-0.6-0.7-0.5c-0.3,0-0.5,0.301-0.5,0.7c0,0,0.6,4.3-1.9,7.2c-1.5,1.7-3.7,2.7-6.7,2.8c-2.899,0.101-5-0.7-6.5-2.3
		c-2.6-2.9-2-7.6-1.899-7.7c0-0.3-0.2-0.6-0.5-0.7c-0.3,0-0.601,0.2-0.7,0.5c0,0.2-0.7,5.301,2.2,8.601
		C176.966,331.9,179.266,332.8,182.266,332.8z"/>
	<path fill="#534DA0" d="M115.566,201.4c1.9,3.3,0.301,7.7,2.2,10.9c0.8,1.3,2,2.3,2.4,3.8c0.3,1.2-0.2,2.6-1.2,3.399
		c-1,0.801-2.5,0.9-3.6,0.301c-0.2-0.101-0.5-0.301-0.7-0.4c-0.9-0.3-1.8,0.6-2.601,1.1c-1,0.7-2.3,1-3.399,0.601
		c-1.5-0.5-2.4-2-2.8-3.4c-1.4-4.1-0.4-8.5,0.899-12.7c0.601-2.1,1.601-4.3,3.601-5.1"/>
	<path fill="#F9B8B0" d="M159.367,235.9c0,0.5,0.699,0.8,0.3,1.8c-1,2.101-4.2,5.101-8,3.7c-0.2,0.1-21,12.1-22.601,12.1
		c-1.6,0-12.6-10.399-16.1-23.199c-0.9-3.101-0.5-6.7,2.3-8.2c0,0,2.4,0.6,3.9,3.5c2.399,4.5,9.5,19.3,11.1,19.899
		c2-1.3,11.5-4.1,19.3-7.399c1.7-0.8,2.4-1.4,3-2.5c0.601-1.101,2-3.8,3.2-5c0.4-0.4,5-2.9,5-2.101c0,0.5-1.3,1.7-3.1,2.801
		c-0.9,0.6-1.3,1.6-1.5,2.1c-0.3,0.6,3.3-0.5,3.6,0.7C159.667,234.3,159.266,235.7,159.367,235.9z"/>
	<path fill="#6C65AE" d="M114.266,221.8c2.7,0.6,4.9,2.399,6.2,4.8c0.3,0.6,0.6,1.3,0.8,1.899c1.101,2.801,2.601,5.4,3.8,8.2
		c-1.5,1.2-3.399,1.8-4.899,2.4c-1.5,0.5-3,0.8-4.601,0.6c-0.3,0-0.5-0.1-0.8-0.2c-0.3-0.1-0.6-0.399-0.8-0.699
		c-0.5-0.5-0.9-1.101-1.4-1.7c-0.399-0.5-0.8-1-0.899-1.601c-0.2-0.8,0-1.699,0.2-2.5"/>
	<path fill="#6C65AE" d="M117.066,229.5c-0.1-0.1-0.199-0.199-0.399-0.3c-0.3-0.1-0.601,0.101-0.8,0.3
		c-0.101,0.301-0.2,0.601-0.2,0.9c0,1.1,0.2,2.3,0.5,3.4l-0.4,6l0,0c1.4,0.1,2.9-0.101,4.3-0.601c0.601-0.2,1.301-0.5,2-0.8
		C121.566,235,119.266,232.2,117.066,229.5z"/>
	<path fill="#F9B8B0" d="M107.766,215.9c0,0-0.1,3.7,0.5,4c1.101,0.5,2.4,0.7,2.4,0.7v7.7l-10.3-1.601l-7.101-3.899
		c0,0,7.4-2.4,7.4-3.2c0.1-0.7-0.4-4.9-0.4-4.9"/>
	<path fill="#F9B8B0" d="M91.966,327.7L91.966,327.7c-2.8,13.4-1.5,31.801-2.1,41.801c0.1,0,3.8,0.5,3.8,0.5s8.7-42.4,10.3-50.501
		c0.1-0.6,0.2-1.1,0.2-1.6c0.399-6.1-5.101-6.4-8.2-1.4c-0.5,0.801-1,1.7-1.4,2.7c-0.199,0.4-0.3,0.8-0.5,1.2l0,0
		c-0.5,1.3-1,2.7-1.399,4.3v0.2c-0.101,0.4-0.2,0.9-0.3,1.3v0.101C92.167,326.8,92.066,327.2,91.966,327.7z"/>
	<path fill="#F9B8B0" d="M108.466,279.7c-0.1,1.101-0.7,6.4-1.4,12.601c-0.6,5.199-1.3,11.1-1.8,15.8c-0.399,3.5-0.7,6.3-0.8,7.6
		c-0.1,0.8-0.2,1.5-0.3,2.3l0,0c-1.3,6.101-5.5,6.5-8.101,5c-0.399-0.199-0.699-0.399-1-0.699c-0.6-0.5-1-1.2-1.1-1.801l0,0
		c-0.2-1.3-0.3-3-0.5-5l0,0l0,0l0,0c-0.3-4-0.6-9.1-0.8-14c-0.3-6.1-0.5-12-0.5-15.3c0-0.2,0-0.399,0-0.5c0-10.2,9.3-16.7,15.1-13.5
		c0.101,0,0.101,0.101,0.2,0.101c0.1,0.1,0.2,0.1,0.2,0.1c0.7,0.4,0.899,2,0.899,3.7C108.667,277.2,108.566,278.6,108.466,279.7z"/>
	<path fill="#F9B8B0" d="M94.266,318.1l-0.7-2.7l0,0c0,0.6,0.101,4.9-0.899,9.3v0.2c-0.101,0.4-0.2,0.9-0.3,1.3v0.101
		c-0.2,0.699-0.301,1.1-0.301,1.399l0,0c0,1.2,2.601-4.2,3.2-5.399c0.101-0.2,0.101-0.301,0.101-0.301l-0.7-2.8L94.266,318.1z"/>
	<path fill="#F9B8B0" d="M114.367,330.3L114.367,330.3c-0.301,14,4.1,30.5,5.199,40.6c0.101,0,3.5-0.5,3.5-0.5s0.601-42.9,0.7-51.4
		c0-0.6,0-1.1-0.1-1.6c-0.7-6.2-5.7-5.1-7.601,0.7c-0.3,1-0.6,2-0.8,3.1c-0.1,0.4-0.2,0.9-0.2,1.4l0,0c-0.199,1.399-0.399,3-0.5,4.6
		v0.2c0,0.5-0.1,0.9-0.1,1.4v0.1C114.367,329.3,114.367,329.8,114.367,330.3z"/>
	<path fill="#F9B8B0" d="M117.266,324.5c-0.399-0.1-0.7-0.199-1-0.399c-0.6-0.4-1.1-0.9-1.3-1.5l0,0c-0.4-1.2-0.8-2.9-1.3-4.9l0,0
		l0,0c-0.9-3.899-2.101-8.899-3.101-13.7c-1.3-6-2.399-11.8-3-15.1c0-0.2-0.6-2.6-0.6-2.8c-1.8-10.2,6.2-16.9,12-14.9
		c0.1,0,0.2,0.101,0.2,0.101c1.2,0.5,1.5,4.6,1.8,7.3s2.2,31.5,2.7,36.7c0.1,0.8,0.1,1.6,0.1,2.3
		C123.566,323.9,119.867,325.3,117.266,324.5z"/>
	<path fill="#F9B8B0" d="M114.766,320.2l-1.1-2.5l0,0c0.1,0.601,0.899,4.9,0.8,9.5v0.2c0,0.4,0,0.9-0.1,1.4v0.1
		c-0.101,0.8-0.101,1.2,0,1.4l0,0c0.199,1.199,1.6-4.801,1.899-6.2c0-0.2,0.101-0.3,0.101-0.3l-1.101-2.601L114.766,320.2z"/>
	<path fill="#FFFFFF" d="M97.066,260.1c0,0-7.5,9.5-6.699,19.1c0.3,4,0.8,7.5,1.3,11.5c0.1,0.601,1,9,0.7,9c0,0,15.5,4.8,30.399-1.5
		c0-1,1.2-20.6-6.899-39.3C106.066,260.3,97.066,260.1,97.066,260.1z"/>
	<path fill="#6C65AE" d="M120.566,238.1c-0.1,2.7-1.5,4.399-3.6,6.7c-0.3,0.399-0.9,6.5-1.1,10.5c-0.101,2.1,0.8,3.399,0,3.6
		c-3,2.6-13.801,4.7-18.801,1.2c0.5-4.4-1.5-14.101-2.8-19c-0.2-0.8-0.399-1.4-0.6-1.9c-1.2-3.7-3.5-15.8-1.8-16.3
		c0.3-0.1,0.8-0.2,1.399-0.4c2.601-0.8,6.4-2.1,6.4-2.1s2.2,6.6,8.1,7.4c3.2-1.301,2.9-5.301,2.9-7.2c1,0.3,1.5,0.6,4.7,1.5
		c0.899,1.3,0.1,4,1.6,8.1C117.367,231.2,120.566,234.7,120.566,238.1z"/>
	<path fill="#F9B8B0" d="M115.266,200.6c0,0,0.601,7.2-0.6,11c-0.9,2.8-4.7,5.399-7.8,5.399c-8.601,0-10.2-11.699-10.101-12.3
		c0-0.6,12.7-5.5,12.7-5.5L115.266,200.6z"/>
	<path fill="#F3F3F3" d="M116.167,271.8"/>
	<path fill="#534DA0" d="M131.667,375c-3.101,0.6-6.3-0.301-7.7-0.101c-1.1,0.2-4,0.9-5,0c-1.1-1-0.9-4.3,0.3-4.8
		c0,0,0.3,0.1,0.8,0.2c0.801,0.1,2,0.2,3.601-0.3c2.3,1,2.399,1.399,5.1,1.899c1.2,0.2,2.5,0.601,3.4,1
		C133.266,373.4,133.367,374.6,131.667,375z"/>
	<path fill="#534DA0" d="M98.566,376.3c-3.1-0.5-5-2.2-6.399-2.5c-1.101-0.2-3.9-0.7-4.2-1.9c-0.2-0.899,0.6-4.399,1.9-4.399
		c0,0,0.199,0.2,0.699,0.399c0.7,0.4,1.9,0.9,3.5,0.9c1.9,1.7,1.801,2.1,4.101,3.5c1,0.6,2.1,1.399,2.8,2.1
		C101.966,375.5,100.266,376.6,98.566,376.3z"/>
	<path fill="#F9B8B0" d="M53.766,232.9l2.8-3.4l17.2,15.4c0,0,8.4-11.2,10.7-14.7c2.5-3.8,4.8-7.1,8.6-7.8
		c0.9,0.5-0.3,14.3-0.699,14.7c-5.2,3.899-15.301,16.399-18.5,17.1C70.066,255,53.766,232.9,53.766,232.9z"/>
	<path fill="#6C65AE" d="M94.367,221.9c0,0-3.5,0-5,1.3c-1.5,1.2-8.7,12.7-8.7,12.7s-0.2,2.2,1.899,4c2.2,1.9,5.2,2.3,5.2,2.3
		s3.601-3.6,5.7-5.3c1.3-1,1.4,1.5,1.4,1.5l6.399-6.2L94.367,221.9z"/>
	<path fill="#383938" d="M92.167,222c-0.2-0.1-0.4-0.199-0.601-0.3c-1-0.6-1.899-1.2-2.3-2.3c-0.6-1.6-0.899-4.1,0-5.7
		c0.601-1.1,1.601-1.8,2.4-2.7c1-1.3,1.3-3.1,1.399-4.699c0.101-1.7,0-3.301,0.301-5c0.6-2.801,1.399-5.4,3.5-7.2
		c3.399-2.9,10.3-4.601,14.1-1.4c0.7,0.601,0.8,1,1.7,1.101c1.2,0.1,2,0.3,3.1,0.899c1.2,0.7,2.7,1.7,2.5,3.3
		c-0.1,1.101-1.399,2.9-2.3,3.4c-0.4,0.2-0.9,0.3-1.3,0.3c-1.5,0-2.7-0.899-4.101-0.8c-0.699,0.1-1.399,0.5-1.8,1
		c-0.5,0.6-0.399,1.5-1,2.1c-1,1-2.5,0.9-3.6,1.5c-0.2,0.101-0.4,0.2-0.5,0.4c-0.101,0.2-0.101,0.4-0.101,0.6
		c0,0.601,0,1.2-0.1,1.801c-0.6-0.301-0.6-1.101-1.1-1.5c-0.5-0.4-1.2-0.301-1.601,0.1c-0.5,0.4-0.7,1-0.8,1.6
		c-0.1,0.7,0.1,1.5,0.3,2.2c0.4,1.2,1.4,2.3,2.3,1.5c0.601,0.9-0.1,2.4-0.1,3.4c0,0.8,0,2.399,0.8,3c0.7,0.5,1.8,0.1,1.8,1.399
		c0,1.2-1.1,2.101-2.3,2.2c-1.2,0.101-2.3-0.3-3.399-0.6c-1.101-0.3-2.301-0.601-3.4-0.2c-0.7,0.3-1.2,0.7-1.9,0.9
		C93.466,222.6,92.766,222.3,92.167,222z"/>
	<path fill="#F9B8B0" d="M60.867,233.5c0,0-4-3.199-4.301-4.1c-0.3-0.9-0.3-1.8-0.699-2.7c-0.5-1.3-1.601-2.3-2.801-2.8
		c-1-0.4-0.5-0.8-1.6-0.6c-1.6,0.3-2.4,1.899-3.1,3.199c-2.801,5.4,4.899,6.4,5.1,6.4c0.6,0,3.4,3.3,3.4,3.3"/>
	<path fill="#8081BE" d="M48.066,230.9l2.801,1.8c0.399,0.2,0.899,0.101,1.1-0.2l6.1-10.199l-3.6-2l-6.5,9.6
		C47.667,230.2,47.766,230.7,48.066,230.9z"/>
	<g>
		<path fill="#C5C3E2" d="M38.167,209.2l1,0.601l3.899-5.601l-1-0.7c-1.399-0.899-3.3-0.399-4.399,1.101l0,0
			C36.566,206.3,36.867,208.3,38.167,209.2z"/>
		<polygon fill="#C5C3E2" points="34.667,216.1 52.466,218.8 56.466,212.9 47.566,197.4 		"/>
		<polygon fill="#BDBADD" points="35.766,216.3 52.466,218.8 54.066,216.4 40.066,210.1 		"/>
		<path fill="#C5C3E2" d="M59.766,223.1L59.766,223.1c0.9,0.6,2.3,0.3,3.101-0.8l0.699-1c0.7-1.101,0.601-2.5-0.399-3.101l0,0
			c-0.9-0.6-2.3-0.3-3.101,0.8l-0.699,1.101C58.566,221,58.766,222.4,59.766,223.1z"/>
		<path fill="#BDBADD" d="M60.066,218.9l-0.699,1c-0.7,1.1-0.601,2.5,0.399,3.1c0.9,0.601,2.3,0.301,3.101-0.8l0.699-1
			c0.101-0.1,0.101-0.2,0.101-0.2c-0.8,0.9-2,1.2-2.9,0.601c-0.899-0.601-1.1-1.8-0.5-2.9C60.167,218.7,60.167,218.8,60.066,218.9z"
			/>
		<path fill="#A7A4D1" d="M34.066,216.7L34.066,216.7c0.601,0.4,1.4,0.2,1.801-0.5l12.199-17.7c0.4-0.6,0.301-1.5-0.199-1.8l0,0
			c-0.601-0.399-1.4-0.2-1.801,0.5l-12.199,17.7C33.466,215.5,33.566,216.3,34.066,216.7z"/>
		<path fill="#8081BE" d="M48.167,197L38.066,211.8c-0.399,0.6-1.199,0.8-1.8,0.5c-0.1-0.101-0.2-0.2-0.3-0.301l-2,3
			c-0.4,0.601-0.3,1.5,0.2,1.801c0.6,0.399,1.399,0.199,1.8-0.5l12.2-17.7C48.367,198,48.466,197.4,48.167,197z"/>
		<path fill="#A7A4D1" d="M53.966,221.9l1.1,0.8c1.7,1.2,4.101,0.5,5.5-1.399l1.101-1.7c1.3-1.9,1-4.4-0.7-5.601l-1.1-0.8
			c-1.7-1.2-4.101-0.5-5.5,1.4l-1.101,1.7C51.966,218.2,52.266,220.7,53.966,221.9z"/>
		<path fill="#8081BE" d="M53.367,216.2l-1.7,2.5c-0.4,0.601-0.3,1.4,0.2,1.8l5.3,3.601c0.5,0.399,1.3,0.2,1.7-0.4l1.8-2.5
			c-0.4,0.601-1.2,0.8-1.7,0.4l-5.3-3.601C53.066,217.6,52.966,216.8,53.367,216.2z"/>
	</g>
	<path fill="#F9B8B0" d="M48.667,228.3c-0.2-1.601,0.1-3,1-4.2c0.3-0.4,0.6-0.7,1-1.101c0.2-0.199,0.3-0.3,0.6-0.399
		c0.4-0.101,0.9,0.1,1.3,0.3c0.5,0.3,0.9,0.6,1.101,1.1c0.3,0.7-0.2,1.301-0.8,1.7c-0.101,0-0.101,0.101-0.101,0.101
		c0,0.1,0,0.199,0.101,0.3c0.3,0.5,0.5,0.899,0.399,1.399c-0.1,0.4-0.399,0.801-1,0.7c-0.2,0-0.5-0.1-0.6,0c0,0.101,0,0.101,0,0.2
		c0.1,0.4-0.101,0.9-0.3,1.2c-0.101,0.1-0.101,0.1-0.301,0.2c-0.1,0-0.199,0-0.3,0c-0.3-0.101-0.6-0.2-0.899-0.4"/>
	<path fill="#F9B8B0" d="M56.566,229.6c-0.1-0.601-0.3-1.601-0.3-2.2c-0.1-1.6-0.899-3.3-2.3-4.1c-0.1-0.101-0.2-0.101-0.4-0.101
		c-0.199,0-0.3,0.2-0.3,0.4s0,0.3,0.101,0.5c0.199,0.5,0.899,1.5,0.699,2c-0.3,0.8-0.6,1.7-0.6,2.5s0.4,2,1.3,2.1"/>
	
		<line fill="none" stroke="#C5C3E2" stroke-width="0.75" stroke-linecap="round" stroke-linejoin="round" stroke-miterlimit="10" x1="35.966" y1="188.8" x2="39.566" y2="197.2"/>
	
		<line fill="none" stroke="#C5C3E2" stroke-width="0.75" stroke-linecap="round" stroke-linejoin="round" stroke-miterlimit="10" x1="28.466" y1="196.3" x2="35.867" y2="201.8"/>
	
		<line fill="none" stroke="#C5C3E2" stroke-width="0.75" stroke-linecap="round" stroke-linejoin="round" stroke-miterlimit="10" x1="23.766" y1="206.5" x2="32.867" y2="207.4"/>
	<path fill="#F9B8B0" d="M315.367,117.9c0,0-3.301-2.3-3.4-3.3s-2.4-4.9-3.1-5.7c-0.7-0.8-4.601-2.1-5.4-2.2
		c-0.8-0.1-5.5,0.3-4.9,0.9c0.601,0.6,3.601,0.399,4.2,0.8c0.601,0.4,0.601,0.4,0.601,0.4s-0.601,0.8-0.4,1.3s-1,1.2-0.5,2
		s-0.2,0.8,0.2,1.6c0.7,1.4,2.5,2.2,2.899,1.8c0.4,0.801,1.7,2.5,2.9,2.4c1.3-0.1,4.3,2.7,4.3,2.7"/>
	<g>
		<path fill="#F9B8B0" d="M365.266,101.4c0.101,2.2,0,6,0.601,6.6c0.6,0.601,2.699,0.5,2.699,0.5s-7.3,9.2-7.899,8.7
			c-0.601-0.5-9.2-7.5-7.3-7.899c1.899-0.4,3.8-0.301,3.8-1.301c-0.101-1-0.101-2-0.2-3"/>
	</g>
	<path fill="#FAA819" d="M373.566,150.4c0,0-14.199,1.6-17.399,1.7c-3.3,0.1-3.101-1.601-3.101-1.601
		c-0.199-3.6-0.8-12-1.399-14.899c-0.601-2.7-0.9-3.7-1.5-6.2c-1.2-5.6-1.2-6.7-2.5-13.7l8.5-6.8c0,0,0.899,2.6,4.399,2.6
		c4.7,0.101,6.2-3.3,6.2-3.3l11.5,7.7l1.101,18.6l-1.4,15.301"/>
	<g>
		<path fill="#F9B8B0" d="M365.367,99.5c-0.301,1.101-0.601,2.2-1,3.301c-0.7,1.899-1.801,2.6-3.9,2.699c-1.4,0-2.9,0.101-4.3,0.101
			c-1.101,0-2.5,0.1-3.4-0.7c-0.899-0.8-0.899-2.1-1.1-3.1c-0.3-1.4-0.5-2.7-0.601-4.101c-0.3-2.7-0.399-5.399-0.399-8.2
			c0-0.399,0-0.8,0.1-1.1c0-0.1,0.101-0.3,0.2-0.4c0.1-0.1,0.3-0.199,0.5-0.199c2.7-0.4,5.5-0.601,8.2-0.5c1.899,0.1,4,0.3,5.5,1.5
			c1.5,1.199,2.3,3.1,2.899,5c0.101,0.3,0.2,0.699-0.1,0.899"/>
	</g>
	<g>
		<g>
			<path fill="#FFFFFF" d="M333.667,200.9c0,0,0.5,2.8,0.8,3.8c0.4,1,3.5,0.101,3.7-0.5c0.2-0.6-1-5.2-1-5.2"/>
			<path fill="#FFFFFF" d="M339.367,205c0.3,1,0.6,3,0.6,3l-3.2,1.4l-0.5-0.5c0,0-0.8,0.9-1.8,1.4c-0.7,0.3-2.3,0.8-3.1,0.8
				c-2.801,0.3-4.801-0.2-4.9-0.601c-0.7-1.6,3-2,3.7-2.199c2.1-0.5,3.2-2.301,3.5-3.5c0.2-0.801,0-1,0.399-1c0,0,0.4,0,0.801,0.399
				c0.6,0.601,1.5,0.9,2.199,0.5c0.4-0.2,0.9-0.5,1.101-0.899C338.266,203.8,339.066,203.9,339.367,205z"/>
		</g>
		<g>
			<g>
				<path fill="#FFFFFF" d="M347.566,164.1c-4.899,1-11.1,1-16.1,0.399c0.7,2,2.4,4.601,3.1,7.4c2.2,9.3,2.9,21.8,3.4,29.5
					c0,0-1,2-4.3,0.5c-4.9-12.2-13.601-36.9-13.5-42.3c0.1-6.8,17.2-8.5,29.7-10.2"/>
			</g>
			<g>
				<path fill="#FFFFFF" d="M369.367,150.4c3.899,2.9-21.801,13.7-21.801,13.7c-2.899,0.6-5.6,0.8-8.399,0.8
					c-0.3-0.5-0.5-1-0.601-1.6c-0.199-0.7-0.1-1.5-0.199-2.301c-0.301-1.5-1.301-2.699-2.601-3.5c-1.3-0.8-2.7-1.1-4.2-1.399
					c-3.5-0.601-9.5-0.2-9.5-0.2c7.7-5.7,23.5-6.4,30.9-6.9C354.367,151.5,368.867,150,369.367,150.4z"/>
			</g>
		</g>
		<g>
			<path fill="#FFFFFF" d="M341.766,207.4c0,0,0,2.9,0.2,3.9s3.5,0.699,3.8,0.1s-0.1-5.3-0.1-5.3"/>
			<path fill="#FFFFFF" d="M346.667,212.4c0.1,1.1,0.1,3.1,0.1,3.1l-3.3,0.801l-0.4-0.601c0,0-0.899,0.8-2,1.101
				c-0.8,0.199-2.399,0.399-3.199,0.3c-2.801-0.2-4.7-1-4.801-1.5c-0.399-1.7,3.301-1.5,4-1.5c2.101-0.2,3.601-1.7,4-2.8
				c0.301-0.801,0.101-1,0.601-0.9c0,0,0.399,0.1,0.7,0.5c0.5,0.7,1.3,1.1,2.1,0.9c0.5-0.101,0.9-0.301,1.3-0.7
				C345.867,211.1,346.667,211.3,346.667,212.4z"/>
		</g>
		<g>
			<path fill="#FFFFFF" d="M377.966,149.9c0,0-7.9,0.8-17.4,0.6c-2.199,0-19.1,3.2-20.699,6c-2.601,4.7,1.699,32.101,1.3,51.7
				c0,0,2,1.7,5.6,0.101c0.9-9.601,6.601-32.4,2.7-43c9.3,1.199,16.8,2.5,25.2-0.301c2-0.699,3.5-2,4.3-4.6
				C379.867,157.8,379.367,152.2,377.966,149.9z"/>
		</g>
	</g>
	<g>
		<path fill="#FAA819" d="M356.066,108.9c0,0-2,0.1-2.399,0.1c-1.7,0.101-3.4,0.4-5,0.9c-2.3,0.8-3.9,3-5.8,4.7
			c-1.801,1.6-11.101,10.5-12.801,10.8c-1.699,0.3-17-10.1-17-10.1L309.367,119c0,0,16.5,15.301,21.5,15.301
			c2.399,0,15.6-6.9,19.8-9.601L356.066,108.9z"/>
		<path opacity="0.25" fill="#FFFFFF" enable-background="new    " d="M330.867,131.4c-3.4,0.2-19-11.7-20.801-13.1L309.367,119
			c0,0,16.5,15.301,21.5,15.301c2,0,11.5-4.801,17.1-8l1.4-0.801l-0.9-5.1C348.466,120.4,334.466,131.2,330.867,131.4z"/>
	</g>
	<g>
		<path fill="#A7A4D1" d="M314.966,152.9h37.9l-6.801-22.1c-0.399-1.2-1.5-2.101-2.8-2.101h-33.2c-1.3,0-2.199,1.2-1.8,2.4
			L314.966,152.9z"/>
		<path fill="#7973B6" d="M314.566,152.9h37.301l-6.801-22.1c-0.399-1.2-1.5-2.101-2.8-2.101h-33.2c-1.3,0-2.199,1.2-1.8,2.4
			l6.5,21.2C313.867,152.7,314.167,152.9,314.566,152.9z"/>
	</g>
	<g opacity="0.25">
		<path fill="#FFFFFF" d="M372.766,119.5c-1.899,8.5-2.2,15.2-2.8,21.301c-6.6,2.6-9.3,6.399-15.8,9.3c0,0-5.101-0.9-5.7,1.1
			c-0.3,1.101,6,2,6,2c6,0,21.8-4.399,22.9-4.7c1.1-0.3,4.199-20.399,4.3-31.3c0-1.6,0-3.2-1-4.399c-0.5-0.601-1.2-1.101-2-1.4
			c-4.2-2.2-7.4-2.8-12.101-3.1"/>
	</g>
	<g>
		<path fill="#F9B8B0" d="M355.167,151.4c-0.7-0.9-2-1-3.2-1c-0.8,0-1.7,0.1-2.5,0.2c-0.4,0.1-0.8,0.1-0.9,0.6
			c-0.1,0.5,1.9,0,2.801,0.3c-1.9,0.2-3.9,0.2-5.9,0.2c-0.2,0-0.5,0-0.7,0.101c-0.2,0.1-0.399,0.3-0.399,0.5
			c0,0.199,0.1,0.3,0.3,0.399c0.5,0.5,1.3,0.7,2,0.8c3,0.5,6.1,0.4,8.899-0.8"/>
	</g>
	<g>
		<path fill="#FAA819" d="M372.367,119.4c-0.2,9.1-0.801,13.3-0.601,22.4c-4.6,1-10.899,6.199-17.399,9c0,0-0.4,1.3,0.199,2.399
			c0.5,0.2,21.801-5,23.5-6.6c1.5-1.4,3.5-18.5,3.7-29.4c0-1.6,0-3.2-1-4.399c-0.5-0.601-1.2-1.101-2-1.4
			c-4.2-2.2-7.399-2.8-12.1-3.1"/>
	</g>
	<g>
		<path opacity="0.45" fill="none" stroke="#A7A4D1" stroke-miterlimit="10" enable-background="new    " d="M333.766,141.2
			c0.101,1.9-2.2,3.5-5.1,3.5c-3,0-5.5-1.6-5.601-3.5c-0.1-1.899,2.2-3.5,5.101-3.5C331.066,137.7,333.667,139.3,333.766,141.2z"/>
		<path fill="#A7A4D1" d="M331.867,141.2c0.1,1.101-1.4,2-3.301,2c-1.899,0-3.5-0.899-3.6-2c-0.1-1.1,1.4-2,3.3-2
			C330.167,139.3,331.766,140.1,331.867,141.2z"/>
	</g>
	<path fill="#4A3D98" d="M358.766,93.6c-0.1-0.3-0.8-0.4-1.6-0.3c-0.8,0.1-2.8,0.399-3.2,0.699c-0.4,0.301-0.4,0.601-0.6,0.601
		c-0.2,0-0.2-0.2-0.7-0.4s-1.7-0.1-2.4,0c-0.8,0.101-1.5,0.3-1.5,0.601c0,0.3,0.101,1,0.3,1.1c0.2,0.1,0.2,0.1,0.8,1.5
		c0.301,0.8,0.801,1.2,1.801,1c1.3-0.3,1.3-1.7,1.399-2.3c0.101-0.601,0.2-0.7,0.4-0.7s0.3,0,0.6,0.6c0.2,0.601,0.4,1.801,1.7,1.9
		c1.7,0.1,2.4-0.5,2.6-1.6c0.301-1.5,0.2-1.5,0.4-1.601c0.1-0.1,1.3,0.101,1.3,0.101v-0.4C359.867,94.3,358.766,93.7,358.766,93.6z
		 M352.667,96.6c0,0.7-0.4,1.399-1.2,1.5c-0.8,0.1-1.1-0.3-1.5-1.3c-0.4-0.9-0.4-1.5-0.2-1.801c0.101-0.199,0.5-0.199,1.5-0.3
		c1-0.1,1.3-0.1,1.4,0.3C352.566,95.2,352.667,95.8,352.667,96.6z M358.066,95.8c-0.199,1.1-0.5,1.6-1.6,1.699
		c-1.5,0.2-1.8-0.399-2-1.1s-0.3-1.3-0.3-1.5c0-0.4,0.399-0.5,1.3-0.7s2.2-0.399,2.4-0.2C358.066,94.2,358.266,94.8,358.066,95.8z"
		/>
	<path fill="#383938" d="M368.867,91.3c-0.101-0.801-0.2-1.5-0.4-2.2c-0.5-2-1.7-3.601-3.5-4.601c-2.3-1.199-5.4-1.5-7.9-0.8
		c-1.399,0.4-2,1.2-2.699,1.101c-0.601,0-1.301-0.4-2-0.7c-5.7-2-4.7,3.5-4.101,5c0.3,0.7,1.601,1.2,1.7,1.399
		c0.2,0.301,0.2,1.7,0.3,2.301c0.101,0.6,0.7,0.8,0.7,0.8s0-1.8,0.1-2c0.101-0.601,0.301-1.3,0.801-1.7c0.6-0.4,1.399-0.5,2-0.6
		c0.699-0.101,4,0.5,4.199,0.699c1.101,0.9,1.301,3,1.601,4.2c0.1,0.601,0.3,1,0.5,0.9c0.2-1.7,0.8-1.7,1.8-1.101
		c0.5,0.301,0.8,1.4,0.9,2.301c0,1.1-0.601,2.199-1.7,2.5c-0.4,0.1,0.8,2.399,1.399,2.899c0.2,0.2,0.4,0.4,0.601,0.5
		c0.2,0.101,0.399,0.2,0.7,0.3c0.3,0.101,0.5,0.101,0.8,0.2c0.399,0.101,0.7,0.2,1.1,0.101c0.601-0.2,0.9-0.801,1.2-1.4
		c0.4-0.9,1-1.8,1.3-2.8C368.966,96.5,369.167,93.8,368.867,91.3z"/>
	<path fill="#D6D1E9" d="M470.966,175.3h-71.7l8.601-6.4v-31c0-2.6,2.1-4.7,4.699-4.7h58.4c2.6,0,4.7,2.101,4.7,4.7v32.7
		C475.667,173.2,473.566,175.3,470.966,175.3z"/>
	<rect x="436.667" y="139.3" opacity="0.45" fill="#FFFFFF" enable-background="new    " width="32.8" height="3.1"/>
	<rect x="436.667" y="143.9" opacity="0.45" fill="#FFFFFF" enable-background="new    " width="32.8" height="3.1"/>
	<rect x="436.667" y="148.6" opacity="0.45" fill="#FFFFFF" enable-background="new    " width="32.8" height="3.1"/>
	<rect x="436.667" y="153.2" opacity="0.45" fill="#FFFFFF" enable-background="new    " width="32.8" height="3.101"/>
	<rect x="436.667" y="158.6" opacity="0.45" fill="#FFFFFF" enable-background="new    " width="22.899" height="3.1"/>
	<g>
		<path fill="#ABABD6" d="M429.266,163.3h-11.1c-2.601,0-4.8-2.101-4.8-4.801v-14.6c0-2.6,2.1-4.8,4.8-4.8h11.1
			c2.601,0,4.7,2.1,4.7,4.8v14.6C434.066,161.2,431.966,163.3,429.266,163.3z"/>
		<rect x="413.466" y="166.3" opacity="0.45" fill="#FFFFFF" enable-background="new    " width="20.6" height="2.6"/>
		<g>
			<path fill="#FFFFFF" d="M425.766,154.9h-7.5c-0.399,0-0.8-0.3-0.899-0.7l-1.4-5.3c-0.2-0.6,0.3-1.2,0.9-1.2h10.3
				c0.6,0,1.1,0.601,0.899,1.2l-1.399,5.3C426.566,154.6,426.167,154.9,425.766,154.9z"/>
			<g>
				<path fill="#FFFFFF" d="M427.066,156.1h-9c-0.1,0-0.199-0.101-0.199-0.2s0.1-0.2,0.199-0.2h8.9l3.1-10.899
					c0-0.101,0.101-0.101,0.2-0.101h2c0.101,0,0.2,0.101,0.2,0.2s-0.1,0.2-0.2,0.2h-1.8l-3.1,10.899
					C427.266,156,427.167,156.1,427.066,156.1z"/>
			</g>
			<g>
				<circle fill="#FFFFFF" cx="418.367" cy="157.5" r="1.1"/>
				<circle fill="#FFFFFF" cx="426.266" cy="157.5" r="1.1"/>
			</g>
		</g>
	</g>
	<path fill="#D6D1E9" d="M204.566,131.9h91.4l-10.9-8.1v-50c0-3.301-2.699-6-6-6h-74.399c-3.3,0-6,2.699-6,6v52.1
		C198.566,129.3,201.266,131.9,204.566,131.9z"/>
	<g opacity="0.45">
		<rect x="206.566" y="77.2" fill="#FFFFFF" width="41.801" height="4"/>
		<rect x="206.566" y="83.1" fill="#FFFFFF" width="41.801" height="4"/>
		<rect x="206.566" y="89.1" fill="#FFFFFF" width="41.801" height="4"/>
		<rect x="206.566" y="94.9" fill="#FFFFFF" width="41.801" height="4"/>
		<rect x="206.566" y="100.7" fill="#FFFFFF" width="41.801" height="4"/>
		<rect x="206.566" y="111.3" fill="#FFFFFF" width="41.801" height="4"/>
		<rect x="206.566" y="117.6" fill="#FFFFFF" width="71.301" height="4"/>
	</g>
	<g>
		<path fill="#C5C3E2" d="M257.667,107.8h14.1c3.3,0,6.101-2.7,6.101-6.101V83.2c0-3.3-2.7-6.1-6.101-6.1h-14.1
			c-3.3,0-6.101,2.7-6.101,6.1V101.8C251.566,105.1,254.266,107.8,257.667,107.8z"/>
		<rect x="251.566" y="111.7" opacity="0.45" fill="#FFFFFF" enable-background="new    " width="26.2" height="3.3"/>
		<g>
			<path fill="#FFFFFF" d="M262.066,97.1h9.5c0.5,0,1-0.4,1.101-0.9l1.8-6.8c0.2-0.8-0.4-1.5-1.1-1.5h-13.2
				c-0.8,0-1.3,0.7-1.101,1.5l1.801,6.8C261.066,96.7,261.566,97.1,262.066,97.1z"/>
			<g>
				<path fill="#FFFFFF" d="M260.466,98.6h11.5c0.1,0,0.2-0.101,0.2-0.2s-0.101-0.2-0.2-0.2h-11.3l-4-13.899
					c0-0.101-0.101-0.2-0.2-0.2h-2.5c-0.1,0-0.2,0.1-0.2,0.2c0,0.1,0.101,0.199,0.2,0.199h2.3l4,13.9
					C260.266,98.5,260.367,98.6,260.466,98.6z"/>
			</g>
			<g>
				<circle fill="#FFFFFF" cx="271.466" cy="100.5" r="1.4"/>
				<circle fill="#FFFFFF" cx="261.466" cy="100.5" r="1.4"/>
			</g>
		</g>
	</g>
	<ellipse fill="#EAE5F2" cx="415.867" cy="390.8" rx="40.3" ry="4.2"/>
	<path fill="#9EA2D1" d="M394.266,384.8c-0.3,0.7-2,2.2-4.2,3.2c-2.199,1-7,1.5-4.399,2.399c2.6,0.9,5.7,0.3,7.3,0.101
		c1.6-0.2,3.1-0.3,4.9-0.3c2.399,0,2.399-0.2,2.1-2.9C399.566,383.4,395.367,382.6,394.266,384.8z"/>
	<path fill="#9EA2D1" d="M438.167,383.4c-0.101,0.8,0.899,3.101-1,4.8c-1.9,1.7-6.3,3.5-3.4,3.5c2.9,0.101,5.7-0.6,7.2-1.3
		s0.3-1.899,2.1-2.5c2.4-0.8,1.9-2.5,0.7-3.6C442.167,380.7,438.667,380.9,438.167,383.4z"/>
	<path fill="#FFFFFF" d="M428.966,306.8c0,0,5.8-17-10.6-31c0,0-8.801,3.5-15.801,3.899c-5.5,0.3-8.399-0.2-8.399-0.2
		s-0.5,15.101-0.5,23.2L428.966,306.8z"/>
	<path fill="#FFFFFF" d="M392.367,335c-0.301-7.6,7.899-6.6,11-0.899c6.3,11.7-2.301,38.8-3.5,51.6c-1.2,0.5-3.2,0.801-4.301,0.301
		c-0.8-0.4-1.3-1.4-1.3-1.4C394.367,368.8,392.667,343.1,392.367,335z"/>
	<path fill="#FFFFFF" d="M402.966,336.2c-0.9,3.101-11.5,6.4-10.6-4.899c0.399-5,1.399-32.7,1.6-35.301c0.2-2.699,0.6-6.6,1.9-7
		c6.399-2.399,17.8,6,16.1,16C410.966,311.5,404.966,329.7,402.966,336.2z"/>
	<path fill="#FFFFFF" d="M419.566,340.5c-2.5-7.2,5.7-8.4,10.4-4c11,10.3,11.399,34.699,14.1,47.3c-1.5,1-4,1.399-4.8,1.399
		c-0.9,0-1.3-0.699-1.3-0.699C433.466,369.4,422.266,348.1,419.566,340.5z"/>
	<path fill="#FFFFFF" d="M430.466,338.1c0.3,3.2-8.5,9.9-11.9-0.9c-1.5-4.8-8.1-33.1-8.899-35.6s-0.601-7.8,0.399-8.7
		c5.101-4.7,16.5-0.6,18.7,9.4C430.167,308.9,429.867,331.4,430.466,338.1z"/>
	<g>
		<path fill="#F2A182" d="M385.266,214.3c0.3-0.301,0.601-0.601,0.9-1c2.1-2.7,2.399-5,4.3-8.101c0.3-0.399,0.7-1.6,1.4-2.7
			c0.8-1.1,2.6-2.3,3.1-2.6c0.9-0.5,0.1,1.5,0.1,1.5s0.801-1.1,1.5-1c0.301,0,0.301,1.7,0.301,2c0,2.3-0.5,4.7-1.601,6.7
			c-0.3,0.5-0.5,1-0.5,1.5c0.7,0,1.3-0.5,1.8-0.9c0.601-0.399,1.2-0.8,1.9-0.6c-0.101,0.3-0.2,0.5-0.4,0.8c-0.8,1.5-1.7,3.2-3.3,3.9
			c-0.899,0.399-2,0.5-3,1c-1.7,0.899-2.5,2.899-4.2,3.8"/>
	</g>
	<path fill="#605FAA" d="M395.167,214.9l-5-2.1c-0.5-0.2-0.7-0.7-0.5-1.2l4.399-10.5c0.2-0.5,0.7-0.7,1.2-0.5l5,2.1
		c0.5,0.2,0.7,0.7,0.5,1.2l-4.399,10.5C396.167,214.9,395.566,215.1,395.167,214.9z"/>
	
		<rect x="392.351" y="201.974" transform="matrix(-0.9225 -0.3859 0.3859 -0.9225 679.8556 552.214)" fill="#B4B4DA" width="6" height="11.8"/>
	<path fill="#7973B6" d="M400.466,225.1c0,0-4.2,0.2-8,1.399c-5.7,1.7-7.7,4.4-9.6,5.5c3.8-4.899,8.1-15.199,8.1-15.199
		s-5.2-4.2-5.7-3.2c-0.6,1-22.2,26.3-21.5,30.399c0.3,1.7,2.8,3.4,5,3.301c6.101-0.2,13.3-2.4,20.7-4.9c3.3-1.1,4.3,1.2,4.3,1.2"/>
	<path fill="#6962AC" d="M382.766,231.9c0,0-2.7,5.5-3.5,5.8c-0.8,0.4,2-1.1,3.5-2.7c1.5-1.6,3.601-5.699,3.601-5.699
		C385.566,229.6,382.766,231.9,382.766,231.9z"/>
	<g>
		<path fill="#F2A182" d="M391.266,205.3c0.3,0.199,0.3,0.5,0.4,0.899c0.2,1.2,0.399,2.5-0.101,3.601
			c-0.3,0.699-0.899,1.3-1.5,1.899c-0.699,0.601-1.399,1.101-2.199,1.5"/>
	</g>
	<g>
		<path fill="#1F1953" d="M400.566,196.2c-1.399,0.4-2.199,2.3-2.699,3.601c-0.601,1.5-0.9,3.199-1.101,4.8
			c-0.1,1.1-0.2,2.3,0.2,3.399c0.2,0.5,0.6,1,0.9,1.5c0.199,0.301,0.399,0.5,0.699,0.7c0.301,0.2,0.601,0.3,0.9,0.2
			c0.5-0.2,0.6-0.7,0.8-1.2c0.8-3,1.7-6.1,3.5-8.7"/>
	</g>
	<g>
		<path fill="#F2A182" d="M398.966,205.8c0-1-1-1.601-1.9-0.601c-0.699,0.8-0.899,2.4-1,3.601c0,1.399,1,1.699,1.9,1.899"/>
	</g>
	<path fill="#7973B6" d="M389.367,230.1c1.8-2,7.399-5.4,15-5.2c5.199,0.2,19.399,1,21,4.5c0.8,1.8,1.699,20,0.5,26.3
		c-0.9,4.7-3.2,16.4-3.2,19.3c0,2.801,1.5,4,0.8,4.9c-1.6,1.8-12.4,2.6-17.5,2.6c-4.5,0-12.3-1.199-12.7-2.699
		c-0.6-2.2,0.9-2.101,1.101-4.301c0.199-2.3,0.8-16.899-0.101-19.3c-1.5-4.3-2.2-11.399-3.399-14.6
		C389.966,239.1,387.566,232.1,389.367,230.1z"/>
	<path fill="#6962AC" d="M421.867,244.8c0.5,1.1,4.199,7,4.199,7l0.101,0.699c-0.101,1.2-0.2,2.301-0.4,3.2
		c-0.899,4.7-3.2,16.4-3.2,19.3c0,2.801,1.5,4,0.801,4.9c-1.301,1.7-21.7,5.5-20.7,0.8c0.1-0.399,17.2-13.5,17.3-13.899
		c0.8-3.7,1.5-6.4,1.8-9.2C422.667,251,421.266,243.7,421.867,244.8z"/>
	<path fill="#FBBD9E" d="M400.167,218.4c0,0,0,5.9-0.3,6.2c-0.2,0.2-1.4,0.8-1.4,0.8s0.8,5.2,2.1,4.8
		c1.301-0.399,9.801-4.7,9.801-4.7s-1.2-0.5-1.2-1s1.2-9.8,1.2-9.8"/>
	<path fill="#FBBD9E" d="M406.167,196.8c-1.2,0.3-4.5-0.301-5.4,1c-0.899,1.399-1.7,4.6-2,5.5c-0.7,1.8-1.1,3.699-1.6,5.6
		c-0.601,2.4-1.7,6.9,0.7,8.9c0.699,0.6,1,0.8,1.8,0.899c1.1,0.2,2.2,0.4,3.399,0.601c1.7,0.3,3.7,0.699,5.4,0.1
		c2.3-0.7,3.6-3.9,4.2-6.1L416.066,201L406.167,196.8z"/>
	<path fill="#3C2E7A" d="M399.966,232.4c0,0-0.5,23.2-1.4,37.2l3.4,4.7l2.3-5.9c0,0,1-17-2.2-35.9L399.966,232.4z"/>
	<path fill="#3C2E7A" d="M399.167,230.4l0.1,0.3c0.2,0.601,0.4,1.2,0.7,1.7l0,0l2.1,0.2c0,0,1.4-0.7,1.601-1.5s-2.3-2.101-2.3-2.101
		l-0.301,0.101C400.367,229.3,399.766,229.8,399.167,230.4L399.167,230.4z"/>
	<path fill="#FFFFFF" d="M409.367,223c0,0,1.3,0.801,2.399,2.4c-1.1,2.5-3.5,6.8-6.2,8.8c-1.3-3.399-4.199-5.3-4.199-5.3
		S408.667,227.6,409.367,223z"/>
	<path fill="#FFFFFF" d="M401.367,228.9c0,0-2.601,1-4.2,4c0,0-0.5-3.9,0.6-7.3c0,0,1.7-2.2,2.3-2.2
		C399.867,226.1,401.367,228.9,401.367,228.9z"/>
	<g>
		<g>
			<path fill="#F2A182" d="M401.667,280.6c-2.601,0.399-3.5,1.399-5,2.8c-0.101,0.1-0.2,0.3-0.2,0.4c0,0.199,0.3,0.3,0.5,0.3
				c1.2,0.2,1.4-0.601,2.5-1c0.8-0.3,1.5-0.601,2.3-1"/>
		</g>
		<g>
			<g>
				<path fill="#E9E5F2" d="M392.867,261.8l9.199,29.399c0.2,0.8-0.199,1.5-1,1.5l-19.1,1.7c-0.7,0-1.4-0.5-1.6-1.2l-9.9-29
					c-0.2-0.8,0.9-1.899,1.7-1.899l19.1-1.7C391.966,260.5,392.667,261.1,392.867,261.8z"/>
			</g>
			<g>
				<path fill="#E0D8EC" d="M392.266,262.5l9,28.9c0.2,0.8-0.2,1.5-1,1.5l-19.1,1.7c-0.7,0-1.4-0.5-1.601-1.2l-9-28.9
					c-0.199-0.8,0.2-1.5,1-1.5l19.101-1.699C391.367,261.3,392.066,261.8,392.266,262.5z"/>
			</g>
			<g>
				<polygon fill="#FFFFFF" points="376.966,261.6 377.667,264.1 386.566,263.4 385.867,260.8 				"/>
				<g>
					<g>
						<path fill="#FFFFFF" d="M378.667,259.2c0.2,0.601,0.899,2.9,0.899,2.9l4.301-0.4l-0.9-2.899c-0.4-1.2-1.7-2.2-2.8-2
							C378.966,256.9,378.266,258,378.667,259.2z M379.667,259.2c-0.2-0.7,0.1-1.3,0.8-1.399c0.7-0.101,1.4,0.5,1.6,1.1
							c0.2,0.7-0.1,1.3-0.8,1.4C380.566,260.4,379.867,259.9,379.667,259.2z"/>
					</g>
				</g>
			</g>
		</g>
		<g>
			<path fill="#FBBD9E" d="M408.966,278.6c-2,0.399-7.4,2-7.9,2.3c-0.699,0.3-2.899,2-3.399,2.5c-2,2-1,3-1.8,5.7
				c0,0.1-0.101,0.3-0.101,0.399c0,0.301,0.4,0.5,0.8,0.301c0.2,0.399,0.801,0.1,1.101-0.2c0,0.3,0.399,0.399,1,0.1
				c0.3-0.2,0.3-0.2,1-0.899c0.5-0.5,1.2-0.9,2.2-1.301c0.699-0.3,1.5-0.6,2.1-1c0.8-0.5,2.3-0.699,3-3c0.2-0.5,0.7-0.8,1.1-1.1
				c1.101-0.7,2.2-1.4,3.301-2.1"/>
		</g>
		<path fill="#7973B6" d="M421.367,240.9c0.899,3,4.399,24.1,4.399,24.1l-20,14.4l1.7,4.4c0,0,23.9-8,25.8-13.5
			c1.9-5.5,1.8-30.2-4.8-38.9c-2.1-2.8-6.3-4.2-6.3-4.2"/>
		<g>
			<path fill="#F2A182" d="M400.867,286.2c0,0-0.2,0.2-0.5,0.4c-0.2,0.1-0.301,0.3-0.5,0.399c-0.2,0.2-0.4,0.301-0.5,0.601
				c-0.301,0.399-0.7,0.8-1,1.1c-0.301,0.3-0.5,0.5-0.5,0.5s0.1-0.2,0.399-0.6c0.101-0.2,0.2-0.4,0.4-0.601
				c0.2-0.199,0.3-0.399,0.5-0.6s0.399-0.4,0.6-0.6c0.2-0.101,0.4-0.301,0.601-0.4C400.667,286.3,400.867,286.2,400.867,286.2z"/>
		</g>
		<g>
			<path fill="#F2A182" d="M399.766,284.8c0,0-0.3,0.199-0.6,0.6c-0.2,0.2-0.3,0.4-0.5,0.7c-0.101,0.1-0.2,0.3-0.3,0.399
				c-0.101,0.101-0.2,0.301-0.2,0.4c-0.101,0.3-0.3,0.6-0.4,0.9c-0.1,0.3-0.3,0.5-0.399,0.8c-0.301,0.399-0.5,0.7-0.5,0.7
				s0.1-0.301,0.3-0.801s0.5-1.1,0.8-1.699c0.1-0.101,0.2-0.301,0.3-0.5c0.101-0.101,0.2-0.301,0.3-0.4c0.2-0.3,0.4-0.5,0.601-0.7
				C399.466,285,399.766,284.8,399.766,284.8z"/>
		</g>
		<g>
			<path fill="#F2A182" d="M398.466,283.8c0,0-0.2,0.3-0.5,0.699c-0.2,0.2-0.4,0.4-0.5,0.7c-0.1,0.2-0.3,0.601-0.4,0.9
				c-0.1,0.3-0.199,0.6-0.399,0.899c-0.101,0.301-0.2,0.601-0.3,0.801c-0.101,0.5-0.301,0.8-0.301,0.8s0-0.3,0.101-0.8
				c0.1-0.5,0.3-1.101,0.6-1.7c0.2-0.3,0.3-0.601,0.5-0.9c0.2-0.2,0.4-0.5,0.601-0.6C398.266,284,398.466,283.8,398.466,283.8z"/>
		</g>
	</g>
	<g>
		<path fill="#383938" d="M413.766,211.3c-0.8-0.5-1.399-0.9-1.899-0.2c-0.301,0.399-0.4,0.899-0.9,1.1c-0.5,0.101-0.9-0.3-1-0.7
			c-0.1-0.5,0-0.899,0.2-1.399c0.3-1,0.6-2,0.899-3c0.301-1,0.601-2.101,0.2-3c-0.2-0.5-0.6-0.9-1-1.2c-1.3-1.1-3-1.6-4.7-2
			c-1.699-0.3-3.399-0.5-5-1c-0.699-0.2-1.399-0.5-1.899-1c-0.9-0.7-1.3-1.9-1.4-3.1c0-1.2,0.4-2.301,1-3.301
			c0.101,0.4,0.3,0.801,0.5,1.101c0.2-0.5,0.5-1,0.9-1.4c0.5,2.7,11.899,1.8,14.6,3c1.9,0.8,3.4,1.4,3.3,4.4
			c0.101,0.2,0.2,0.3,0.4,0.5c1.6,1.5,2.3,3.3,2.6,6.1c0.301,3.3-1.699,6.9-3.6,9.7c-0.5,0.7-0.7,1.2-1.4,1.7
			c-0.699,0.5-1.8,0.8-2.699,0.6c-0.801-0.2-2.4-0.1-2.5-0.899c0-0.601,1.3-1.7,1.6-2.2"/>
	</g>
	<g>
		<path fill="#FBBD9E" d="M410.766,214.4c0,0-0.1,0.6,0.2,1s0.9,0.3,1.4,0.2c1.199-0.4,2.1-1.601,2.3-2.8c0.3-1.4-0.5-2.9-1.8-2.5
			c-0.801,0.199-1.301,1.1-1.2,1.899"/>
	</g>
	<g>
		<path fill="#F2A182" d="M400.167,218.9l3.7,0.7c0,0-1.2,1.399-3.7,1.399"/>
	</g>
	<g>
		<polyline fill="#4952A3" points="112.266,156 117.167,158.5 114.766,152.4 		"/>
	</g>
	<ellipse fill="#4952A3" cx="107.466" cy="148.3" rx="10.4" ry="9.8"/>
	<path fill="#FFFFFF" d="M104.867,145.1v7c0,0.6,0.6,0.899,1.1,0.6l6.1-3.5c0.5-0.3,0.5-1,0-1.3l-6.1-3.5
		C105.466,144.2,104.867,144.5,104.867,145.1z"/>
	<g>
		<polyline fill="#4952A3" points="452.167,230.5 447.266,233 449.667,227 		"/>
	</g>
	<ellipse fill="#4952A3" cx="456.966" cy="222.8" rx="10.399" ry="9.8"/>
	<g>
		<g>
			<path fill="#FFFFFF" d="M455.167,227.5c2.3,0,4.6,0.101,6.6-0.1c0.7,0,1.2-1,0.4-1.3c0.3-0.2,0.699-0.3,0.8-0.7
				c0.1-0.3,0-0.8-0.4-0.9c0.8,0.2,1.101-1,0.5-1.399c0.3-0.3,0.601-0.601,0.7-1c0.1-0.4-0.1-0.8-0.5-1
				c-0.2-0.101-0.5-0.101-0.8-0.101c-0.9,0-1.9,0-2.8,0c0.3-1.399,0.3-2.899-0.4-4.1c-0.2-0.4-0.8-0.8-1.3-0.5s-0.3,0.9-0.3,1.3
				c0.1,1.7-0.9,3.5-2.601,4.3C455.066,221.9,455.167,225.6,455.167,227.5z"/>
		</g>
	</g>
	<rect x="450.966" y="221.9" fill="#FFFFFF" width="3.399" height="5.6"/>
	<g>
		<polyline fill="#4952A3" points="294.966,145.5 298.566,141.6 293.667,142.6 		"/>
	</g>
	<ellipse fill="#4952A3" cx="289.266" cy="146.4" rx="7.5" ry="7.1"/>
	<g>
		<g>
			<path fill="#FFFFFF" d="M287.766,149.8c1.5,0,3,0,4.3-0.101c0.4,0,0.801-0.7,0.301-1c0.199-0.1,0.399-0.2,0.5-0.5
				c0.1-0.2,0-0.6-0.301-0.6c0.5,0.1,0.7-0.7,0.301-1c0.199-0.2,0.399-0.4,0.399-0.7s-0.1-0.6-0.3-0.8
				c-0.2-0.101-0.4-0.101-0.5-0.101c-0.6,0-1.2,0-1.8,0c0.2-1,0.2-2.1-0.3-3c-0.101-0.3-0.5-0.6-0.9-0.399c-0.3,0.2-0.2,0.7-0.2,1
				c0.101,1.3-0.6,2.5-1.7,3.1C287.766,145.7,287.867,148.4,287.766,149.8z"/>
		</g>
	</g>
	<rect x="285.066" y="145.7" fill="#FFFFFF" width="2.2" height="4"/>
	<path fill="#4952A3" d="M330.066,93.5c1.5-1.899,2.4-4.3,2.4-6.899c0-6.101-5-11.101-11.1-11.101c-6.101,0-11.101,5-11.101,11.101
		c0,6.1,5,11.1,11.101,11.1c2.3,0,4.399-0.7,6.199-1.899l4.301,2.3L330.066,93.5z"/>
	<path fill="#FFFFFF" d="M316.667,83.6c1.1-1,2.8-1,3.8,0l0.7,0.7l0.7-0.7c1.1-1.101,2.8-1,3.8,0c1.1,1.1,1,2.8,0,3.8l-2.601,2.6
		l0,0c-0.399,0.4-0.899,0.7-1.5,0.7c-0.8,0.101-1.699-0.1-2.399-0.8l-2.601-2.7C315.566,86.3,315.667,84.6,316.667,83.6z"/>
</g>
</svg>
